<svg width="1543" height="42" viewBox="0 0 1543 42" fill="none" xmlns="http://www.w3.org/2000/svg">
<g clip-path="url(#clip0_8526_3119)">
<path d="M17.3336 14.3333L14.6669 14.3333L14.6669 19.6666L9.33361 19.6666L9.33361 22.3333L14.6669 22.3333L14.6669 27.6667L17.3336 27.6667L17.3336 22.3333L22.6669 22.3333L22.6669 19.6666L17.3336 19.6666L17.3336 14.3333ZM16.0003 7.66665C8.64028 7.66665 2.66694 13.64 2.66694 21C2.66694 28.36 8.64028 34.3333 16.0003 34.3333C23.3603 34.3333 29.3336 28.36 29.3336 21C29.3336 13.64 23.3603 7.66665 16.0003 7.66665ZM16.0003 31.6667C10.1203 31.6666 5.33361 26.88 5.33361 21C5.33361 15.12 10.1203 10.3333 16.0003 10.3333C21.8803 10.3333 26.6669 15.12 26.6669 21C26.6669 26.88 21.8803 31.6666 16.0003 31.6667Z" fill="#747881"/>
</g>
<rect x="39.5" y="0.5" width="1456" height="41" rx="20.5" fill="white"/>
<rect x="39.5" y="0.5" width="1456" height="41" rx="20.5" stroke="#DBDDE1"/>
<path d="M66.0703 14.625V26H64.5547L58.8281 17.2266V26H57.3203V14.625H58.8281L64.5781 23.4219V14.625H66.0703ZM69.9688 14V26H68.5234V14H69.9688ZM69.625 21.4531L69.0234 21.4297C69.0286 20.8516 69.1146 20.3177 69.2812 19.8281C69.4479 19.3333 69.6823 18.9036 69.9844 18.5391C70.2865 18.1745 70.6458 17.8932 71.0625 17.6953C71.4844 17.4922 71.9505 17.3906 72.4609 17.3906C72.8776 17.3906 73.2526 17.4479 73.5859 17.5625C73.9193 17.6719 74.2031 17.849 74.4375 18.0938C74.6771 18.3385 74.8594 18.6562 74.9844 19.0469C75.1094 19.4323 75.1719 19.9036 75.1719 20.4609V26H73.7188V20.4453C73.7188 20.0026 73.6536 19.6484 73.5234 19.3828C73.3932 19.112 73.2031 18.9167 72.9531 18.7969C72.7031 18.6719 72.3958 18.6094 72.0312 18.6094C71.6719 18.6094 71.3438 18.6849 71.0469 18.8359C70.7552 18.987 70.5026 19.1953 70.2891 19.4609C70.0807 19.7266 69.9167 20.0312 69.7969 20.375C69.6823 20.7135 69.625 21.0729 69.625 21.4531ZM82.3203 24.5547V20.2031C82.3203 19.8698 82.2526 19.5807 82.1172 19.3359C81.987 19.0859 81.7891 18.8932 81.5234 18.7578C81.2578 18.6224 80.9297 18.5547 80.5391 18.5547C80.1745 18.5547 79.8542 18.6172 79.5781 18.7422C79.3073 18.8672 79.0938 19.0312 78.9375 19.2344C78.7865 19.4375 78.7109 19.6562 78.7109 19.8906H77.2656C77.2656 19.5885 77.3438 19.2891 77.5 18.9922C77.6562 18.6953 77.8802 18.4271 78.1719 18.1875C78.4688 17.9427 78.8229 17.75 79.2344 17.6094C79.651 17.4635 80.1146 17.3906 80.625 17.3906C81.2396 17.3906 81.7812 17.4948 82.25 17.7031C82.724 17.9115 83.0938 18.2266 83.3594 18.6484C83.6302 19.0651 83.7656 19.5885 83.7656 20.2188V24.1562C83.7656 24.4375 83.7891 24.737 83.8359 25.0547C83.888 25.3724 83.9635 25.6458 84.0625 25.875V26H82.5547C82.4818 25.8333 82.4245 25.612 82.3828 25.3359C82.3411 25.0547 82.3203 24.7943 82.3203 24.5547ZM82.5703 20.875L82.5859 21.8906H81.125C80.7135 21.8906 80.3464 21.9245 80.0234 21.9922C79.7005 22.0547 79.4297 22.151 79.2109 22.2812C78.9922 22.4115 78.8255 22.5755 78.7109 22.7734C78.5964 22.9661 78.5391 23.1927 78.5391 23.4531C78.5391 23.7188 78.599 23.9609 78.7188 24.1797C78.8385 24.3984 79.0182 24.5729 79.2578 24.7031C79.5026 24.8281 79.8021 24.8906 80.1562 24.8906C80.599 24.8906 80.9896 24.7969 81.3281 24.6094C81.6667 24.4219 81.9349 24.1927 82.1328 23.9219C82.3359 23.651 82.4453 23.388 82.4609 23.1328L83.0781 23.8281C83.0417 24.0469 82.9427 24.2891 82.7812 24.5547C82.6198 24.8203 82.4036 25.0755 82.1328 25.3203C81.8672 25.5599 81.5495 25.7604 81.1797 25.9219C80.8151 26.0781 80.4036 26.1562 79.9453 26.1562C79.3724 26.1562 78.8698 26.0443 78.4375 25.8203C78.0104 25.5964 77.6771 25.2969 77.4375 24.9219C77.2031 24.5417 77.0859 24.1172 77.0859 23.6484C77.0859 23.1953 77.1745 22.7969 77.3516 22.4531C77.5286 22.1042 77.7839 21.8151 78.1172 21.5859C78.4505 21.3516 78.8516 21.1745 79.3203 21.0547C79.7891 20.9349 80.3125 20.875 80.8906 20.875H82.5703ZM81.2188 14L83.1562 16.1328V16.2109H81.9531L80.7812 14.8906L79.6172 16.2109H78.4297V16.125L80.3438 14H81.2188ZM79.2578 27.9219C79.2578 27.6875 79.3281 27.4896 79.4688 27.3281C79.6146 27.1667 79.8281 27.0859 80.1094 27.0859C80.3854 27.0859 80.5964 27.1667 80.7422 27.3281C80.8932 27.4896 80.9688 27.6875 80.9688 27.9219C80.9688 28.1458 80.8932 28.3359 80.7422 28.4922C80.5964 28.6536 80.3854 28.7344 80.1094 28.7344C79.8281 28.7344 79.6146 28.6536 79.4688 28.4922C79.3281 28.3359 79.2578 28.1458 79.2578 27.9219ZM87.4844 19.1719V29.25H86.0312V17.5469H87.3594L87.4844 19.1719ZM93.1797 21.7031V21.8672C93.1797 22.4818 93.1068 23.0521 92.9609 23.5781C92.8151 24.099 92.6016 24.5521 92.3203 24.9375C92.0443 25.3229 91.7031 25.6224 91.2969 25.8359C90.8906 26.0495 90.4245 26.1562 89.8984 26.1562C89.362 26.1562 88.888 26.0677 88.4766 25.8906C88.0651 25.7135 87.7161 25.4557 87.4297 25.1172C87.1432 24.7786 86.9141 24.3724 86.7422 23.8984C86.5755 23.4245 86.4609 22.8906 86.3984 22.2969V21.4219C86.4609 20.7969 86.5781 20.237 86.75 19.7422C86.9219 19.2474 87.1484 18.8255 87.4297 18.4766C87.7161 18.1224 88.0625 17.8542 88.4688 17.6719C88.875 17.4844 89.3438 17.3906 89.875 17.3906C90.4062 17.3906 90.8776 17.4948 91.2891 17.7031C91.7005 17.9062 92.0469 18.1979 92.3281 18.5781C92.6094 18.9583 92.8203 19.4141 92.9609 19.9453C93.1068 20.4714 93.1797 21.0573 93.1797 21.7031ZM91.7266 21.8672V21.7031C91.7266 21.2812 91.6823 20.8854 91.5938 20.5156C91.5052 20.1406 91.3672 19.8125 91.1797 19.5312C90.9974 19.2448 90.763 19.0208 90.4766 18.8594C90.1901 18.6927 89.849 18.6094 89.4531 18.6094C89.0885 18.6094 88.7708 18.6719 88.5 18.7969C88.2344 18.9219 88.0078 19.0911 87.8203 19.3047C87.6328 19.513 87.4792 19.7526 87.3594 20.0234C87.2448 20.2891 87.1589 20.5651 87.1016 20.8516V22.875C87.2057 23.2396 87.3516 23.5833 87.5391 23.9062C87.7266 24.224 87.9766 24.4818 88.2891 24.6797C88.6016 24.8724 88.9948 24.9688 89.4688 24.9688C89.8594 24.9688 90.1953 24.888 90.4766 24.7266C90.763 24.5599 90.9974 24.3333 91.1797 24.0469C91.3672 23.7604 91.5052 23.4323 91.5938 23.0625C91.6823 22.6875 91.7266 22.2891 91.7266 21.8672ZM102.531 17.5469V18.6562H97.9609V17.5469H102.531ZM99.5078 15.4922H100.953V23.9062C100.953 24.1927 100.997 24.4089 101.086 24.5547C101.174 24.7005 101.289 24.7969 101.43 24.8438C101.57 24.8906 101.721 24.9141 101.883 24.9141C102.003 24.9141 102.128 24.9036 102.258 24.8828C102.393 24.8568 102.495 24.8359 102.562 24.8203L102.57 26C102.456 26.0365 102.305 26.0703 102.117 26.1016C101.935 26.138 101.714 26.1562 101.453 26.1562C101.099 26.1562 100.773 26.0859 100.477 25.9453C100.18 25.8047 99.9427 25.5703 99.7656 25.2422C99.5938 24.9089 99.5078 24.4609 99.5078 23.8984V15.4922ZM105.797 17.5469V26H104.344V17.5469H105.797ZM104.234 15.3047C104.234 15.0703 104.305 14.8724 104.445 14.7109C104.591 14.5495 104.805 14.4688 105.086 14.4688C105.362 14.4688 105.573 14.5495 105.719 14.7109C105.87 14.8724 105.945 15.0703 105.945 15.3047C105.945 15.5286 105.87 15.7214 105.719 15.8828C105.573 16.0391 105.362 16.1172 105.086 16.1172C104.805 16.1172 104.591 16.0391 104.445 15.8828C104.305 15.7214 104.234 15.5286 104.234 15.3047ZM109.562 19.3516V26H108.117V17.5469H109.484L109.562 19.3516ZM109.219 21.4531L108.617 21.4297C108.622 20.8516 108.708 20.3177 108.875 19.8281C109.042 19.3333 109.276 18.9036 109.578 18.5391C109.88 18.1745 110.24 17.8932 110.656 17.6953C111.078 17.4922 111.544 17.3906 112.055 17.3906C112.471 17.3906 112.846 17.4479 113.18 17.5625C113.513 17.6719 113.797 17.849 114.031 18.0938C114.271 18.3385 114.453 18.6562 114.578 19.0469C114.703 19.4323 114.766 19.9036 114.766 20.4609V26H113.312V20.4453C113.312 20.0026 113.247 19.6484 113.117 19.3828C112.987 19.112 112.797 18.9167 112.547 18.7969C112.297 18.6719 111.99 18.6094 111.625 18.6094C111.266 18.6094 110.938 18.6849 110.641 18.8359C110.349 18.987 110.096 19.1953 109.883 19.4609C109.674 19.7266 109.51 20.0312 109.391 20.375C109.276 20.7135 109.219 21.0729 109.219 21.4531ZM122.375 19.3516V26H120.93V17.5469H122.297L122.375 19.3516ZM122.031 21.4531L121.43 21.4297C121.435 20.8516 121.521 20.3177 121.688 19.8281C121.854 19.3333 122.089 18.9036 122.391 18.5391C122.693 18.1745 123.052 17.8932 123.469 17.6953C123.891 17.4922 124.357 17.3906 124.867 17.3906C125.284 17.3906 125.659 17.4479 125.992 17.5625C126.326 17.6719 126.609 17.849 126.844 18.0938C127.083 18.3385 127.266 18.6562 127.391 19.0469C127.516 19.4323 127.578 19.9036 127.578 20.4609V26H126.125V20.4453C126.125 20.0026 126.06 19.6484 125.93 19.3828C125.799 19.112 125.609 18.9167 125.359 18.7969C125.109 18.6719 124.802 18.6094 124.438 18.6094C124.078 18.6094 123.75 18.6849 123.453 18.8359C123.161 18.987 122.909 19.1953 122.695 19.4609C122.487 19.7266 122.323 20.0312 122.203 20.375C122.089 20.7135 122.031 21.0729 122.031 21.4531ZM131.219 14V26H129.773V14H131.219ZM130.875 21.4531L130.273 21.4297C130.279 20.8516 130.365 20.3177 130.531 19.8281C130.698 19.3333 130.932 18.9036 131.234 18.5391C131.536 18.1745 131.896 17.8932 132.312 17.6953C132.734 17.4922 133.201 17.3906 133.711 17.3906C134.128 17.3906 134.503 17.4479 134.836 17.5625C135.169 17.6719 135.453 17.849 135.688 18.0938C135.927 18.3385 136.109 18.6562 136.234 19.0469C136.359 19.4323 136.422 19.9036 136.422 20.4609V26H134.969V20.4453C134.969 20.0026 134.904 19.6484 134.773 19.3828C134.643 19.112 134.453 18.9167 134.203 18.7969C133.953 18.6719 133.646 18.6094 133.281 18.6094C132.922 18.6094 132.594 18.6849 132.297 18.8359C132.005 18.987 131.753 19.1953 131.539 19.4609C131.331 19.7266 131.167 20.0312 131.047 20.375C130.932 20.7135 130.875 21.0729 130.875 21.4531ZM143.57 24.5547V20.2031C143.57 19.8698 143.503 19.5807 143.367 19.3359C143.237 19.0859 143.039 18.8932 142.773 18.7578C142.508 18.6224 142.18 18.5547 141.789 18.5547C141.424 18.5547 141.104 18.6172 140.828 18.7422C140.557 18.8672 140.344 19.0312 140.188 19.2344C140.036 19.4375 139.961 19.6562 139.961 19.8906H138.516C138.516 19.5885 138.594 19.2891 138.75 18.9922C138.906 18.6953 139.13 18.4271 139.422 18.1875C139.719 17.9427 140.073 17.75 140.484 17.6094C140.901 17.4635 141.365 17.3906 141.875 17.3906C142.49 17.3906 143.031 17.4948 143.5 17.7031C143.974 17.9115 144.344 18.2266 144.609 18.6484C144.88 19.0651 145.016 19.5885 145.016 20.2188V24.1562C145.016 24.4375 145.039 24.737 145.086 25.0547C145.138 25.3724 145.214 25.6458 145.312 25.875V26H143.805C143.732 25.8333 143.674 25.612 143.633 25.3359C143.591 25.0547 143.57 24.7943 143.57 24.5547ZM143.82 20.875L143.836 21.8906H142.375C141.964 21.8906 141.596 21.9245 141.273 21.9922C140.951 22.0547 140.68 22.151 140.461 22.2812C140.242 22.4115 140.076 22.5755 139.961 22.7734C139.846 22.9661 139.789 23.1927 139.789 23.4531C139.789 23.7188 139.849 23.9609 139.969 24.1797C140.089 24.3984 140.268 24.5729 140.508 24.7031C140.753 24.8281 141.052 24.8906 141.406 24.8906C141.849 24.8906 142.24 24.7969 142.578 24.6094C142.917 24.4219 143.185 24.1927 143.383 23.9219C143.586 23.651 143.695 23.388 143.711 23.1328L144.328 23.8281C144.292 24.0469 144.193 24.2891 144.031 24.5547C143.87 24.8203 143.654 25.0755 143.383 25.3203C143.117 25.5599 142.799 25.7604 142.43 25.9219C142.065 26.0781 141.654 26.1562 141.195 26.1562C140.622 26.1562 140.12 26.0443 139.688 25.8203C139.26 25.5964 138.927 25.2969 138.688 24.9219C138.453 24.5417 138.336 24.1172 138.336 23.6484C138.336 23.1953 138.424 22.7969 138.602 22.4531C138.779 22.1042 139.034 21.8151 139.367 21.5859C139.701 21.3516 140.102 21.1745 140.57 21.0547C141.039 20.9349 141.562 20.875 142.141 20.875H143.82ZM143.164 14.7031H144.359C144.359 15.0208 144.263 15.3021 144.07 15.5469C143.883 15.7917 143.612 15.9844 143.258 16.125C142.904 16.2656 142.484 16.3359 142 16.3359C141.51 16.3359 141.089 16.2656 140.734 16.125C140.38 15.9844 140.107 15.7917 139.914 15.5469C139.721 15.3021 139.625 15.0208 139.625 14.7031H140.812C140.812 14.9427 140.901 15.1536 141.078 15.3359C141.255 15.513 141.562 15.6016 142 15.6016C142.417 15.6016 142.714 15.513 142.891 15.3359C143.073 15.1536 143.164 14.9427 143.164 14.7031ZM141.539 14.5469L142.422 12.9922H143.617L142.336 14.5469H141.539ZM148.734 19.3516V26H147.289V17.5469H148.656L148.734 19.3516ZM148.391 21.4531L147.789 21.4297C147.794 20.8516 147.88 20.3177 148.047 19.8281C148.214 19.3333 148.448 18.9036 148.75 18.5391C149.052 18.1745 149.411 17.8932 149.828 17.6953C150.25 17.4922 150.716 17.3906 151.227 17.3906C151.643 17.3906 152.018 17.4479 152.352 17.5625C152.685 17.6719 152.969 17.849 153.203 18.0938C153.443 18.3385 153.625 18.6562 153.75 19.0469C153.875 19.4323 153.938 19.9036 153.938 20.4609V26H152.484V20.4453C152.484 20.0026 152.419 19.6484 152.289 19.3828C152.159 19.112 151.969 18.9167 151.719 18.7969C151.469 18.6719 151.161 18.6094 150.797 18.6094C150.438 18.6094 150.109 18.6849 149.812 18.8359C149.521 18.987 149.268 19.1953 149.055 19.4609C148.846 19.7266 148.682 20.0312 148.562 20.375C148.448 20.7135 148.391 21.0729 148.391 21.4531Z" fill="#747881"/>
<path d="M1474.99 7.66663C1467.63 7.66663 1461.67 13.64 1461.67 21C1461.67 28.36 1467.63 34.3333 1474.99 34.3333C1482.36 34.3333 1488.33 28.36 1488.33 21C1488.33 13.64 1482.36 7.66663 1474.99 7.66663ZM1475 31.6666C1469.11 31.6666 1464.33 26.8933 1464.33 21C1464.33 15.1066 1469.11 10.3333 1475 10.3333C1480.89 10.3333 1485.67 15.1066 1485.67 21C1485.67 26.8933 1480.89 31.6666 1475 31.6666ZM1479.67 19.6666C1480.77 19.6666 1481.67 18.7733 1481.67 17.6666C1481.67 16.56 1480.77 15.6666 1479.67 15.6666C1478.56 15.6666 1477.67 16.56 1477.67 17.6666C1477.67 18.7733 1478.56 19.6666 1479.67 19.6666ZM1470.33 19.6666C1471.44 19.6666 1472.33 18.7733 1472.33 17.6666C1472.33 16.56 1471.44 15.6666 1470.33 15.6666C1469.23 15.6666 1468.33 16.56 1468.33 17.6666C1468.33 18.7733 1469.23 19.6666 1470.33 19.6666ZM1475 28.3333C1478.11 28.3333 1480.75 26.3866 1481.81 23.6666H1468.19C1469.25 26.3866 1471.89 28.3333 1475 28.3333Z" fill="#747881"/>
<rect x="1503" y="1" width="40" height="40" rx="20" fill="#B4B7BB"/>
<path d="M1515.01 31L1535 21L1515.01 11L1515 18.7778L1529.29 21L1515 23.2222L1515.01 31Z" fill="white"/>
<defs>
<clipPath id="clip0_8526_3119">
<rect width="32" height="32" fill="white" transform="translate(0 5)"/>
</clipPath>
</defs>
</svg>
