<svg width="256" height="184" viewBox="0 0 256 184" fill="none" xmlns="http://www.w3.org/2000/svg">
<g filter="url(#filter0_d_7616_22574)">
<path d="M8 24C8 15.1634 15.1634 8 24 8H232C240.837 8 248 15.1634 248 24V50H8V24Z" fill="white"/>
<path d="M34 25.5V21.5L27 28.5L34 35.5V31.4C39 31.4 42.5 33 45 36.5C44 31.5 41 26.5 34 25.5Z" fill="#747881"/>
<path d="M69.5234 22.625V34H68.0391V22.625H69.5234ZM73.1797 22.625V23.8594H64.3906V22.625H73.1797ZM75.5 26.875V34H74.0547V25.5469H75.4609L75.5 26.875ZM78.1406 25.5L78.1328 26.8438C78.013 26.8177 77.8984 26.8021 77.7891 26.7969C77.6849 26.7865 77.5651 26.7812 77.4297 26.7812C77.0964 26.7812 76.8021 26.8333 76.5469 26.9375C76.2917 27.0417 76.0755 27.1875 75.8984 27.375C75.7214 27.5625 75.5807 27.7865 75.4766 28.0469C75.3776 28.3021 75.3125 28.5833 75.2812 28.8906L74.875 29.125C74.875 28.6146 74.9245 28.1354 75.0234 27.6875C75.1276 27.2396 75.2865 26.8438 75.5 26.5C75.7135 26.151 75.9844 25.8802 76.3125 25.6875C76.6458 25.4896 77.0417 25.3906 77.5 25.3906C77.6042 25.3906 77.724 25.4036 77.8594 25.4297C77.9948 25.4505 78.0885 25.474 78.1406 25.5ZM84.1484 32.5547V28.2031C84.1484 27.8698 84.0807 27.5807 83.9453 27.3359C83.8151 27.0859 83.6172 26.8932 83.3516 26.7578C83.0859 26.6224 82.7578 26.5547 82.3672 26.5547C82.0026 26.5547 81.6823 26.6172 81.4062 26.7422C81.1354 26.8672 80.9219 27.0312 80.7656 27.2344C80.6146 27.4375 80.5391 27.6562 80.5391 27.8906H79.0938C79.0938 27.5885 79.1719 27.2891 79.3281 26.9922C79.4844 26.6953 79.7083 26.4271 80 26.1875C80.2969 25.9427 80.651 25.75 81.0625 25.6094C81.4792 25.4635 81.9427 25.3906 82.4531 25.3906C83.0677 25.3906 83.6094 25.4948 84.0781 25.7031C84.5521 25.9115 84.9219 26.2266 85.1875 26.6484C85.4583 27.0651 85.5938 27.5885 85.5938 28.2188V32.1562C85.5938 32.4375 85.6172 32.737 85.6641 33.0547C85.7161 33.3724 85.7917 33.6458 85.8906 33.875V34H84.3828C84.3099 33.8333 84.2526 33.612 84.2109 33.3359C84.1693 33.0547 84.1484 32.7943 84.1484 32.5547ZM84.3984 28.875L84.4141 29.8906H82.9531C82.5417 29.8906 82.1745 29.9245 81.8516 29.9922C81.5286 30.0547 81.2578 30.151 81.0391 30.2812C80.8203 30.4115 80.6536 30.5755 80.5391 30.7734C80.4245 30.9661 80.3672 31.1927 80.3672 31.4531C80.3672 31.7188 80.4271 31.9609 80.5469 32.1797C80.6667 32.3984 80.8464 32.5729 81.0859 32.7031C81.3307 32.8281 81.6302 32.8906 81.9844 32.8906C82.4271 32.8906 82.8177 32.7969 83.1562 32.6094C83.4948 32.4219 83.763 32.1927 83.9609 31.9219C84.1641 31.651 84.2734 31.388 84.2891 31.1328L84.9062 31.8281C84.8698 32.0469 84.7708 32.2891 84.6094 32.5547C84.4479 32.8203 84.2318 33.0755 83.9609 33.3203C83.6953 33.5599 83.3776 33.7604 83.0078 33.9219C82.6432 34.0781 82.2318 34.1562 81.7734 34.1562C81.2005 34.1562 80.6979 34.0443 80.2656 33.8203C79.8385 33.5964 79.5052 33.2969 79.2656 32.9219C79.0312 32.5417 78.9141 32.1172 78.9141 31.6484C78.9141 31.1953 79.0026 30.7969 79.1797 30.4531C79.3568 30.1042 79.612 29.8151 79.9453 29.5859C80.2786 29.3516 80.6797 29.1745 81.1484 29.0547C81.6172 28.9349 82.1406 28.875 82.7188 28.875H84.3984ZM83.1562 24.1719H82.1172L82.1094 22.9844C82.375 22.9688 82.5911 22.9427 82.7578 22.9062C82.9245 22.8646 83.0469 22.8047 83.125 22.7266C83.2031 22.6432 83.2422 22.5339 83.2422 22.3984C83.2422 22.2891 83.2083 22.1979 83.1406 22.125C83.0729 22.0469 82.9792 21.9844 82.8594 21.9375C82.7396 21.8854 82.6016 21.849 82.4453 21.8281C82.2891 21.8073 82.1224 21.7969 81.9453 21.7969L82 20.9688C82.3854 20.9688 82.724 21.0026 83.0156 21.0703C83.3125 21.138 83.5599 21.237 83.7578 21.3672C83.9609 21.4974 84.112 21.6536 84.2109 21.8359C84.3151 22.013 84.3672 22.2109 84.3672 22.4297C84.3672 22.8255 84.2422 23.1146 83.9922 23.2969C83.7422 23.474 83.4661 23.5833 83.1641 23.625L83.1562 24.1719ZM93.4062 22V34H91.9531V22H93.4062ZM102.914 24.6172H104.078C104.078 25.1901 104 25.6849 103.844 26.1016C103.688 26.513 103.427 26.8307 103.062 27.0547C102.698 27.2786 102.203 27.3906 101.578 27.3906V26.4844C101.969 26.4844 102.258 26.4062 102.445 26.25C102.638 26.0938 102.763 25.875 102.82 25.5938C102.883 25.3125 102.914 24.987 102.914 24.6172ZM95.3438 29.8672V29.6875C95.3438 29.0781 95.4323 28.513 95.6094 27.9922C95.7865 27.4661 96.0417 27.0104 96.375 26.625C96.7083 26.2344 97.112 25.9323 97.5859 25.7188C98.0599 25.5 98.5911 25.3906 99.1797 25.3906C99.7734 25.3906 100.307 25.5 100.781 25.7188C101.26 25.9323 101.667 26.2344 102 26.625C102.333 27.0104 102.589 27.4661 102.766 27.9922C102.943 28.513 103.031 29.0781 103.031 29.6875V29.8672C103.031 30.4766 102.943 31.0417 102.766 31.5625C102.589 32.0833 102.333 32.5391 102 32.9297C101.667 33.3151 101.263 33.6172 100.789 33.8359C100.32 34.0495 99.7891 34.1562 99.1953 34.1562C98.6016 34.1562 98.0677 34.0495 97.5938 33.8359C97.1198 33.6172 96.7135 33.3151 96.375 32.9297C96.0417 32.5391 95.7865 32.0833 95.6094 31.5625C95.4323 31.0417 95.3438 30.4766 95.3438 29.8672ZM96.7891 29.6875V29.8672C96.7891 30.2891 96.8385 30.6875 96.9375 31.0625C97.0365 31.4323 97.1849 31.7604 97.3828 32.0469C97.5859 32.3333 97.8385 32.5599 98.1406 32.7266C98.4427 32.888 98.7943 32.9688 99.1953 32.9688C99.5911 32.9688 99.9375 32.888 100.234 32.7266C100.536 32.5599 100.786 32.3333 100.984 32.0469C101.182 31.7604 101.331 31.4323 101.43 31.0625C101.534 30.6875 101.586 30.2891 101.586 29.8672V29.6875C101.586 29.2708 101.534 28.8776 101.43 28.5078C101.331 28.1328 101.18 27.8021 100.977 27.5156C100.779 27.224 100.529 26.9948 100.227 26.8281C99.9297 26.6615 99.5807 26.5781 99.1797 26.5781C98.7839 26.5781 98.4349 26.6615 98.1328 26.8281C97.8359 26.9948 97.5859 27.224 97.3828 27.5156C97.1849 27.8021 97.0365 28.1328 96.9375 28.5078C96.8385 28.8776 96.7891 29.2708 96.7891 29.6875ZM98.4844 22L99.9922 24.2969H98.75L96.7344 22H98.4844ZM106.453 25.5469V34H105V25.5469H106.453ZM104.891 23.3047C104.891 23.0703 104.961 22.8724 105.102 22.7109C105.247 22.5495 105.461 22.4688 105.742 22.4688C106.018 22.4688 106.229 22.5495 106.375 22.7109C106.526 22.8724 106.602 23.0703 106.602 23.3047C106.602 23.5286 106.526 23.7214 106.375 23.8828C106.229 24.0391 106.018 24.1172 105.742 24.1172C105.461 24.1172 105.247 24.0391 105.102 23.8828C104.961 23.7214 104.891 23.5286 104.891 23.3047Z" fill="#080707"/>
<rect width="240" height="42" transform="translate(8 50)" fill="white"/>
<path d="M26.998 76.25V80H30.748L41.808 68.94L38.058 65.19L26.998 76.25ZM29.918 78H28.998V77.08L38.058 68.02L38.978 68.94L29.918 78ZM44.708 64.63L42.368 62.29C42.168 62.09 41.918 62 41.658 62C41.398 62 41.148 62.1 40.958 62.29L39.128 64.12L42.878 67.87L44.708 66.04C45.098 65.65 45.098 65.02 44.708 64.63Z" fill="#747881"/>
<path d="M72.1875 72.3828H73.6875C73.6094 73.1016 73.4036 73.7448 73.0703 74.3125C72.737 74.8802 72.2656 75.3307 71.6562 75.6641C71.0469 75.9922 70.2865 76.1562 69.375 76.1562C68.7083 76.1562 68.1016 76.0312 67.5547 75.7812C67.013 75.5312 66.5469 75.1771 66.1562 74.7188C65.7656 74.2552 65.4635 73.7005 65.25 73.0547C65.0417 72.4036 64.9375 71.6797 64.9375 70.8828V69.75C64.9375 68.9531 65.0417 68.2318 65.25 67.5859C65.4635 66.9349 65.7682 66.3776 66.1641 65.9141C66.5651 65.4505 67.0469 65.0938 67.6094 64.8438C68.1719 64.5938 68.8047 64.4688 69.5078 64.4688C70.3672 64.4688 71.0938 64.6302 71.6875 64.9531C72.2812 65.276 72.7422 65.724 73.0703 66.2969C73.4036 66.8646 73.6094 67.5234 73.6875 68.2734H72.1875C72.1146 67.7422 71.9792 67.2865 71.7812 66.9062C71.5833 66.5208 71.3021 66.224 70.9375 66.0156C70.5729 65.8073 70.0964 65.7031 69.5078 65.7031C69.0026 65.7031 68.5573 65.7995 68.1719 65.9922C67.7917 66.1849 67.4714 66.4583 67.2109 66.8125C66.9557 67.1667 66.763 67.5911 66.6328 68.0859C66.5026 68.5807 66.4375 69.1302 66.4375 69.7344V70.8828C66.4375 71.4401 66.4948 71.9635 66.6094 72.4531C66.7292 72.9427 66.9089 73.3724 67.1484 73.7422C67.388 74.112 67.6927 74.4036 68.0625 74.6172C68.4323 74.8255 68.8698 74.9297 69.375 74.9297C70.0156 74.9297 70.526 74.8281 70.9062 74.625C71.2865 74.4219 71.5729 74.1302 71.7656 73.75C71.9635 73.3698 72.1042 72.9141 72.1875 72.3828ZM76.9688 64V76H75.5234V64H76.9688ZM76.625 71.4531L76.0234 71.4297C76.0286 70.8516 76.1146 70.3177 76.2812 69.8281C76.4479 69.3333 76.6823 68.9036 76.9844 68.5391C77.2865 68.1745 77.6458 67.8932 78.0625 67.6953C78.4844 67.4922 78.9505 67.3906 79.4609 67.3906C79.8776 67.3906 80.2526 67.4479 80.5859 67.5625C80.9193 67.6719 81.2031 67.849 81.4375 68.0938C81.6771 68.3385 81.8594 68.6562 81.9844 69.0469C82.1094 69.4323 82.1719 69.9036 82.1719 70.4609V76H80.7188V70.4453C80.7188 70.0026 80.6536 69.6484 80.5234 69.3828C80.3932 69.112 80.2031 68.9167 79.9531 68.7969C79.7031 68.6719 79.3958 68.6094 79.0312 68.6094C78.6719 68.6094 78.3438 68.6849 78.0469 68.8359C77.7552 68.987 77.5026 69.1953 77.2891 69.4609C77.0807 69.7266 76.9167 70.0312 76.7969 70.375C76.6823 70.7135 76.625 71.0729 76.625 71.4531ZM85.8984 67.5469V76H84.4531V67.5469H85.8984ZM85.75 66.1875H84.7109L84.7031 65C84.9688 64.9844 85.1849 64.9583 85.3516 64.9219C85.5182 64.8802 85.6406 64.8203 85.7188 64.7422C85.7969 64.6589 85.8359 64.5495 85.8359 64.4141C85.8359 64.3047 85.8021 64.2135 85.7344 64.1406C85.6667 64.0625 85.5729 64 85.4531 63.9531C85.3333 63.901 85.1953 63.8646 85.0391 63.8438C84.8828 63.8229 84.7161 63.8125 84.5391 63.8125L84.5938 62.9844C84.9792 62.9844 85.3177 63.0182 85.6094 63.0859C85.9062 63.1536 86.1536 63.2526 86.3516 63.3828C86.5547 63.513 86.7057 63.6693 86.8047 63.8516C86.9089 64.0286 86.9609 64.2266 86.9609 64.4453C86.9609 64.8411 86.8359 65.1302 86.5859 65.3125C86.3359 65.4896 86.0599 65.599 85.7578 65.6406L85.75 66.1875ZM89.75 69.3516V76H88.3047V67.5469H89.6719L89.75 69.3516ZM89.4062 71.4531L88.8047 71.4297C88.8099 70.8516 88.8958 70.3177 89.0625 69.8281C89.2292 69.3333 89.4635 68.9036 89.7656 68.5391C90.0677 68.1745 90.4271 67.8932 90.8438 67.6953C91.2656 67.4922 91.7318 67.3906 92.2422 67.3906C92.6589 67.3906 93.0339 67.4479 93.3672 67.5625C93.7005 67.6719 93.9844 67.849 94.2188 68.0938C94.4583 68.3385 94.6406 68.6562 94.7656 69.0469C94.8906 69.4323 94.9531 69.9036 94.9531 70.4609V76H93.5V70.4453C93.5 70.0026 93.4349 69.6484 93.3047 69.3828C93.1745 69.112 92.9844 68.9167 92.7344 68.7969C92.4844 68.6719 92.1771 68.6094 91.8125 68.6094C91.4531 68.6094 91.125 68.6849 90.8281 68.8359C90.5365 68.987 90.2839 69.1953 90.0703 69.4609C89.862 69.7266 89.6979 70.0312 89.5781 70.375C89.4635 70.7135 89.4062 71.0729 89.4062 71.4531ZM98.5938 64V76H97.1484V64H98.5938ZM98.25 71.4531L97.6484 71.4297C97.6536 70.8516 97.7396 70.3177 97.9062 69.8281C98.0729 69.3333 98.3073 68.9036 98.6094 68.5391C98.9115 68.1745 99.2708 67.8932 99.6875 67.6953C100.109 67.4922 100.576 67.3906 101.086 67.3906C101.503 67.3906 101.878 67.4479 102.211 67.5625C102.544 67.6719 102.828 67.849 103.062 68.0938C103.302 68.3385 103.484 68.6562 103.609 69.0469C103.734 69.4323 103.797 69.9036 103.797 70.4609V76H102.344V70.4453C102.344 70.0026 102.279 69.6484 102.148 69.3828C102.018 69.112 101.828 68.9167 101.578 68.7969C101.328 68.6719 101.021 68.6094 100.656 68.6094C100.297 68.6094 99.9688 68.6849 99.6719 68.8359C99.3802 68.987 99.1276 69.1953 98.9141 69.4609C98.7057 69.7266 98.5417 70.0312 98.4219 70.375C98.3073 70.7135 98.25 71.0729 98.25 71.4531ZM114.852 73.7578C114.852 73.5495 114.805 73.3568 114.711 73.1797C114.622 72.9974 114.438 72.8333 114.156 72.6875C113.88 72.5365 113.464 72.4062 112.906 72.2969C112.438 72.1979 112.013 72.0807 111.633 71.9453C111.258 71.8099 110.938 71.6458 110.672 71.4531C110.411 71.2604 110.211 71.0339 110.07 70.7734C109.93 70.513 109.859 70.2083 109.859 69.8594C109.859 69.526 109.932 69.2109 110.078 68.9141C110.229 68.6172 110.44 68.3542 110.711 68.125C110.987 67.8958 111.318 67.7161 111.703 67.5859C112.089 67.4557 112.518 67.3906 112.992 67.3906C113.669 67.3906 114.247 67.5104 114.727 67.75C115.206 67.9896 115.573 68.3099 115.828 68.7109C116.083 69.1068 116.211 69.5469 116.211 70.0312H114.766C114.766 69.7969 114.695 69.5703 114.555 69.3516C114.419 69.1276 114.219 68.9427 113.953 68.7969C113.693 68.651 113.372 68.5781 112.992 68.5781C112.591 68.5781 112.266 68.6406 112.016 68.7656C111.771 68.8854 111.591 69.0391 111.477 69.2266C111.367 69.4141 111.312 69.612 111.312 69.8203C111.312 69.9766 111.339 70.1172 111.391 70.2422C111.448 70.362 111.547 70.474 111.688 70.5781C111.828 70.6771 112.026 70.7708 112.281 70.8594C112.536 70.9479 112.862 71.0365 113.258 71.125C113.951 71.2812 114.521 71.4688 114.969 71.6875C115.417 71.9062 115.75 72.1745 115.969 72.4922C116.188 72.8099 116.297 73.1953 116.297 73.6484C116.297 74.0182 116.219 74.3568 116.062 74.6641C115.911 74.9714 115.69 75.237 115.398 75.4609C115.112 75.6797 114.768 75.8516 114.367 75.9766C113.971 76.0964 113.526 76.1562 113.031 76.1562C112.286 76.1562 111.656 76.0234 111.141 75.7578C110.625 75.4922 110.234 75.1484 109.969 74.7266C109.703 74.3047 109.57 73.8594 109.57 73.3906H111.023C111.044 73.7865 111.159 74.1016 111.367 74.3359C111.576 74.5651 111.831 74.7292 112.133 74.8281C112.435 74.9219 112.734 74.9688 113.031 74.9688C113.427 74.9688 113.758 74.9167 114.023 74.8125C114.294 74.7083 114.5 74.5651 114.641 74.3828C114.781 74.2005 114.852 73.9922 114.852 73.7578ZM126.109 66.8672H127.219C127.219 67.4349 127.143 67.9115 126.992 68.2969C126.846 68.6823 126.589 68.9714 126.219 69.1641C125.849 69.3568 125.328 69.4531 124.656 69.4531V68.5625C125.125 68.5625 125.461 68.5052 125.664 68.3906C125.867 68.2708 125.992 68.0859 126.039 67.8359C126.086 67.5859 126.109 67.263 126.109 66.8672ZM123.367 74.0469V67.5469H124.82V76H123.438L123.367 74.0469ZM123.641 72.2656L124.242 72.25C124.242 72.8125 124.182 73.3333 124.062 73.8125C123.948 74.2865 123.76 74.6979 123.5 75.0469C123.24 75.3958 122.898 75.6693 122.477 75.8672C122.055 76.0599 121.542 76.1562 120.938 76.1562C120.526 76.1562 120.148 76.0964 119.805 75.9766C119.466 75.8568 119.174 75.6719 118.93 75.4219C118.685 75.1719 118.495 74.8464 118.359 74.4453C118.229 74.0443 118.164 73.5625 118.164 73V67.5469H119.609V73.0156C119.609 73.3958 119.651 73.7109 119.734 73.9609C119.823 74.2057 119.94 74.401 120.086 74.5469C120.237 74.6875 120.404 74.7865 120.586 74.8438C120.773 74.901 120.966 74.9297 121.164 74.9297C121.779 74.9297 122.266 74.8125 122.625 74.5781C122.984 74.3385 123.242 74.0182 123.398 73.6172C123.56 73.2109 123.641 72.7604 123.641 72.2656ZM122.172 66.3359H121.133L121.125 65.1484C121.391 65.1328 121.607 65.1068 121.773 65.0703C121.94 65.0286 122.062 64.9688 122.141 64.8906C122.219 64.8073 122.258 64.6979 122.258 64.5625C122.258 64.4531 122.224 64.362 122.156 64.2891C122.089 64.2109 121.995 64.1484 121.875 64.1016C121.755 64.0495 121.617 64.013 121.461 63.9922C121.305 63.9714 121.138 63.9609 120.961 63.9609L121.016 63.1328C121.401 63.1328 121.74 63.1667 122.031 63.2344C122.328 63.3021 122.576 63.401 122.773 63.5312C122.977 63.6615 123.128 63.8177 123.227 64C123.331 64.1771 123.383 64.375 123.383 64.5938C123.383 64.9896 123.258 65.2786 123.008 65.4609C122.758 65.638 122.482 65.7474 122.18 65.7891L122.172 66.3359ZM133.086 74.5547V70.2031C133.086 69.8698 133.018 69.5807 132.883 69.3359C132.753 69.0859 132.555 68.8932 132.289 68.7578C132.023 68.6224 131.695 68.5547 131.305 68.5547C130.94 68.5547 130.62 68.6172 130.344 68.7422C130.073 68.8672 129.859 69.0312 129.703 69.2344C129.552 69.4375 129.477 69.6562 129.477 69.8906H128.031C128.031 69.5885 128.109 69.2891 128.266 68.9922C128.422 68.6953 128.646 68.4271 128.938 68.1875C129.234 67.9427 129.589 67.75 130 67.6094C130.417 67.4635 130.88 67.3906 131.391 67.3906C132.005 67.3906 132.547 67.4948 133.016 67.7031C133.49 67.9115 133.859 68.2266 134.125 68.6484C134.396 69.0651 134.531 69.5885 134.531 70.2188V74.1562C134.531 74.4375 134.555 74.737 134.602 75.0547C134.654 75.3724 134.729 75.6458 134.828 75.875V76H133.32C133.247 75.8333 133.19 75.612 133.148 75.3359C133.107 75.0547 133.086 74.7943 133.086 74.5547ZM133.336 70.875L133.352 71.8906H131.891C131.479 71.8906 131.112 71.9245 130.789 71.9922C130.466 72.0547 130.195 72.151 129.977 72.2812C129.758 72.4115 129.591 72.5755 129.477 72.7734C129.362 72.9661 129.305 73.1927 129.305 73.4531C129.305 73.7188 129.365 73.9609 129.484 74.1797C129.604 74.3984 129.784 74.5729 130.023 74.7031C130.268 74.8281 130.568 74.8906 130.922 74.8906C131.365 74.8906 131.755 74.7969 132.094 74.6094C132.432 74.4219 132.701 74.1927 132.898 73.9219C133.102 73.651 133.211 73.388 133.227 73.1328L133.844 73.8281C133.807 74.0469 133.708 74.2891 133.547 74.5547C133.385 74.8203 133.169 75.0755 132.898 75.3203C132.633 75.5599 132.315 75.7604 131.945 75.9219C131.581 76.0781 131.169 76.1562 130.711 76.1562C130.138 76.1562 129.635 76.0443 129.203 75.8203C128.776 75.5964 128.443 75.2969 128.203 74.9219C127.969 74.5417 127.852 74.1172 127.852 73.6484C127.852 73.1953 127.94 72.7969 128.117 72.4531C128.294 72.1042 128.549 71.8151 128.883 71.5859C129.216 71.3516 129.617 71.1745 130.086 71.0547C130.555 70.9349 131.078 70.875 131.656 70.875H133.336Z" fill="#080707"/>
<rect width="240" height="42" transform="translate(8 92)" fill="white"/>
<path d="M38 105V110C38 111.12 38.37 112.16 39 113H33C33.65 112.14 34 111.1 34 110V105H38ZM41 103H31C30.45 103 30 103.45 30 104C30 104.55 30.45 105 31 105H32V110C32 111.66 30.66 113 29 113V115H34.97V122L35.97 123L36.97 122V115H43V113C41.34 113 40 111.66 40 110V105H41C41.55 105 42 104.55 42 104C42 103.45 41.55 103 41 103Z" fill="#747881"/>
<path d="M73.7266 112.336V116.5C73.5859 116.708 73.362 116.943 73.0547 117.203C72.7474 117.458 72.3229 117.682 71.7812 117.875C71.2448 118.062 70.5521 118.156 69.7031 118.156C69.0104 118.156 68.3724 118.036 67.7891 117.797C67.2109 117.552 66.7083 117.198 66.2812 116.734C65.8594 116.266 65.5312 115.698 65.2969 115.031C65.0677 114.359 64.9531 113.599 64.9531 112.75V111.867C64.9531 111.018 65.0521 110.26 65.25 109.594C65.4531 108.927 65.75 108.362 66.1406 107.898C66.5312 107.43 67.0104 107.076 67.5781 106.836C68.1458 106.591 68.7969 106.469 69.5312 106.469C70.401 106.469 71.1276 106.62 71.7109 106.922C72.2995 107.219 72.7578 107.63 73.0859 108.156C73.4193 108.682 73.6328 109.281 73.7266 109.953H72.2188C72.151 109.542 72.0156 109.167 71.8125 108.828C71.6146 108.49 71.3307 108.219 70.9609 108.016C70.5911 107.807 70.1146 107.703 69.5312 107.703C69.0052 107.703 68.5495 107.799 68.1641 107.992C67.7786 108.185 67.4609 108.461 67.2109 108.82C66.9609 109.18 66.7734 109.615 66.6484 110.125C66.5286 110.635 66.4688 111.211 66.4688 111.852V112.75C66.4688 113.406 66.5443 113.992 66.6953 114.508C66.8516 115.023 67.0729 115.464 67.3594 115.828C67.6458 116.188 67.987 116.461 68.3828 116.648C68.7839 116.836 69.2266 116.93 69.7109 116.93C70.2474 116.93 70.6823 116.885 71.0156 116.797C71.349 116.703 71.6094 116.594 71.7969 116.469C71.9844 116.339 72.1276 116.216 72.2266 116.102V113.555H69.5938V112.336H73.7266ZM77.4531 106V118H76.0078V106H77.4531ZM77.1094 113.453L76.5078 113.43C76.513 112.852 76.599 112.318 76.7656 111.828C76.9323 111.333 77.1667 110.904 77.4688 110.539C77.7708 110.174 78.1302 109.893 78.5469 109.695C78.9688 109.492 79.4349 109.391 79.9453 109.391C80.362 109.391 80.737 109.448 81.0703 109.562C81.4036 109.672 81.6875 109.849 81.9219 110.094C82.1615 110.339 82.3438 110.656 82.4688 111.047C82.5938 111.432 82.6562 111.904 82.6562 112.461V118H81.2031V112.445C81.2031 112.003 81.138 111.648 81.0078 111.383C80.8776 111.112 80.6875 110.917 80.4375 110.797C80.1875 110.672 79.8802 110.609 79.5156 110.609C79.1562 110.609 78.8281 110.685 78.5312 110.836C78.2396 110.987 77.987 111.195 77.7734 111.461C77.5651 111.727 77.401 112.031 77.2812 112.375C77.1667 112.714 77.1094 113.073 77.1094 113.453ZM86.3906 109.547V118H84.9375V109.547H86.3906ZM84.8281 107.305C84.8281 107.07 84.8984 106.872 85.0391 106.711C85.1849 106.549 85.3984 106.469 85.6797 106.469C85.9557 106.469 86.1667 106.549 86.3125 106.711C86.4635 106.872 86.5391 107.07 86.5391 107.305C86.5391 107.529 86.4635 107.721 86.3125 107.883C86.1667 108.039 85.9557 108.117 85.6797 108.117C85.3984 108.117 85.1849 108.039 85.0391 107.883C84.8984 107.721 84.8281 107.529 84.8281 107.305ZM90.1484 111.227V118H88.6953V109.547H90.0703L90.1484 111.227ZM89.8516 113.453L89.1797 113.43C89.1849 112.852 89.2604 112.318 89.4062 111.828C89.5521 111.333 89.7682 110.904 90.0547 110.539C90.3411 110.174 90.6979 109.893 91.125 109.695C91.5521 109.492 92.0469 109.391 92.6094 109.391C93.0052 109.391 93.3698 109.448 93.7031 109.562C94.0365 109.672 94.3255 109.846 94.5703 110.086C94.8151 110.326 95.0052 110.633 95.1406 111.008C95.276 111.383 95.3438 111.836 95.3438 112.367V118H93.8984V112.438C93.8984 111.995 93.8229 111.641 93.6719 111.375C93.526 111.109 93.3177 110.917 93.0469 110.797C92.776 110.672 92.4583 110.609 92.0938 110.609C91.6667 110.609 91.3099 110.685 91.0234 110.836C90.737 110.987 90.5078 111.195 90.3359 111.461C90.1641 111.727 90.0391 112.031 89.9609 112.375C89.888 112.714 89.8516 113.073 89.8516 113.453ZM95.3281 112.656L94.3594 112.953C94.3646 112.49 94.4401 112.044 94.5859 111.617C94.737 111.19 94.9531 110.81 95.2344 110.477C95.5208 110.143 95.8724 109.88 96.2891 109.688C96.7057 109.49 97.1823 109.391 97.7188 109.391C98.1719 109.391 98.5729 109.451 98.9219 109.57C99.276 109.69 99.5729 109.875 99.8125 110.125C100.057 110.37 100.242 110.685 100.367 111.07C100.492 111.456 100.555 111.914 100.555 112.445V118H99.1016V112.43C99.1016 111.956 99.026 111.589 98.875 111.328C98.7292 111.062 98.5208 110.878 98.25 110.773C97.9844 110.664 97.6667 110.609 97.2969 110.609C96.9792 110.609 96.6979 110.664 96.4531 110.773C96.2083 110.883 96.0026 111.034 95.8359 111.227C95.6693 111.414 95.5417 111.63 95.4531 111.875C95.3698 112.12 95.3281 112.38 95.3281 112.656Z" fill="#080707"/>
<path d="M8 134H248V160C248 168.837 240.837 176 232 176H24C15.1634 176 8 168.837 8 160V134Z" fill="#E9EAED"/>
<path fill-rule="evenodd" clip-rule="evenodd" d="M29 163C29 164.1 29.9 165 31 165H41C42.1 165 43 164.1 43 163V149H29V163ZM31 151H41V163H31V151ZM40.5 146L39.5 145H32.5L31.5 146H28V148H44V146H40.5ZM37 161V153H39V161H37ZM33 153L33 161H35L35 153H33Z" fill="#FF3742"/>
<path d="M66.2969 148.625L69.0312 152.984L71.7656 148.625H73.5234L69.9297 154.258L73.6094 160H71.8359L69.0312 155.555L66.2266 160H64.4531L68.1328 154.258L64.5391 148.625H66.2969ZM74.5781 155.867V155.688C74.5781 155.078 74.6667 154.513 74.8438 153.992C75.0208 153.466 75.276 153.01 75.6094 152.625C75.9427 152.234 76.3464 151.932 76.8203 151.719C77.2943 151.5 77.8255 151.391 78.4141 151.391C79.0078 151.391 79.5417 151.5 80.0156 151.719C80.4948 151.932 80.901 152.234 81.2344 152.625C81.5729 153.01 81.8307 153.466 82.0078 153.992C82.1849 154.513 82.2734 155.078 82.2734 155.688V155.867C82.2734 156.477 82.1849 157.042 82.0078 157.562C81.8307 158.083 81.5729 158.539 81.2344 158.93C80.901 159.315 80.4974 159.617 80.0234 159.836C79.5547 160.049 79.0234 160.156 78.4297 160.156C77.8359 160.156 77.3021 160.049 76.8281 159.836C76.3542 159.617 75.9479 159.315 75.6094 158.93C75.276 158.539 75.0208 158.083 74.8438 157.562C74.6667 157.042 74.5781 156.477 74.5781 155.867ZM76.0234 155.688V155.867C76.0234 156.289 76.0729 156.688 76.1719 157.062C76.2708 157.432 76.4193 157.76 76.6172 158.047C76.8203 158.333 77.0729 158.56 77.375 158.727C77.6771 158.888 78.0286 158.969 78.4297 158.969C78.8255 158.969 79.1719 158.888 79.4688 158.727C79.7708 158.56 80.0208 158.333 80.2188 158.047C80.4167 157.76 80.5651 157.432 80.6641 157.062C80.7682 156.688 80.8203 156.289 80.8203 155.867V155.688C80.8203 155.271 80.7682 154.878 80.6641 154.508C80.5651 154.133 80.4141 153.802 80.2109 153.516C80.013 153.224 79.763 152.995 79.4609 152.828C79.1641 152.661 78.8151 152.578 78.4141 152.578C78.0182 152.578 77.6693 152.661 77.3672 152.828C77.0703 152.995 76.8203 153.224 76.6172 153.516C76.4193 153.802 76.2708 154.133 76.1719 154.508C76.0729 154.878 76.0234 155.271 76.0234 155.688ZM77.5547 150.297L79.0703 148H80.8125L78.7188 150.297H77.5547ZM89.0703 158.555V154.203C89.0703 153.87 89.0026 153.581 88.8672 153.336C88.737 153.086 88.5391 152.893 88.2734 152.758C88.0078 152.622 87.6797 152.555 87.2891 152.555C86.9245 152.555 86.6042 152.617 86.3281 152.742C86.0573 152.867 85.8438 153.031 85.6875 153.234C85.5365 153.438 85.4609 153.656 85.4609 153.891H84.0156C84.0156 153.589 84.0938 153.289 84.25 152.992C84.4062 152.695 84.6302 152.427 84.9219 152.188C85.2188 151.943 85.5729 151.75 85.9844 151.609C86.401 151.464 86.8646 151.391 87.375 151.391C87.9896 151.391 88.5312 151.495 89 151.703C89.474 151.911 89.8438 152.227 90.1094 152.648C90.3802 153.065 90.5156 153.589 90.5156 154.219V158.156C90.5156 158.438 90.5391 158.737 90.5859 159.055C90.638 159.372 90.7135 159.646 90.8125 159.875V160H89.3047C89.2318 159.833 89.1745 159.612 89.1328 159.336C89.0911 159.055 89.0703 158.794 89.0703 158.555ZM89.3203 154.875L89.3359 155.891H87.875C87.4635 155.891 87.0964 155.924 86.7734 155.992C86.4505 156.055 86.1797 156.151 85.9609 156.281C85.7422 156.411 85.5755 156.576 85.4609 156.773C85.3464 156.966 85.2891 157.193 85.2891 157.453C85.2891 157.719 85.349 157.961 85.4688 158.18C85.5885 158.398 85.7682 158.573 86.0078 158.703C86.2526 158.828 86.5521 158.891 86.9062 158.891C87.349 158.891 87.7396 158.797 88.0781 158.609C88.4167 158.422 88.6849 158.193 88.8828 157.922C89.0859 157.651 89.1953 157.388 89.2109 157.133L89.8281 157.828C89.7917 158.047 89.6927 158.289 89.5312 158.555C89.3698 158.82 89.1536 159.076 88.8828 159.32C88.6172 159.56 88.2995 159.76 87.9297 159.922C87.5651 160.078 87.1536 160.156 86.6953 160.156C86.1224 160.156 85.6198 160.044 85.1875 159.82C84.7604 159.596 84.4271 159.297 84.1875 158.922C83.9531 158.542 83.8359 158.117 83.8359 157.648C83.8359 157.195 83.9245 156.797 84.1016 156.453C84.2786 156.104 84.5339 155.815 84.8672 155.586C85.2005 155.352 85.6016 155.174 86.0703 155.055C86.5391 154.935 87.0625 154.875 87.6406 154.875H89.3203ZM100.297 151.547V152.656H95.7266V151.547H100.297ZM97.2734 149.492H98.7188V157.906C98.7188 158.193 98.763 158.409 98.8516 158.555C98.9401 158.701 99.0547 158.797 99.1953 158.844C99.3359 158.891 99.487 158.914 99.6484 158.914C99.7682 158.914 99.8932 158.904 100.023 158.883C100.159 158.857 100.26 158.836 100.328 158.82L100.336 160C100.221 160.036 100.07 160.07 99.8828 160.102C99.7005 160.138 99.4792 160.156 99.2188 160.156C98.8646 160.156 98.5391 160.086 98.2422 159.945C97.9453 159.805 97.7083 159.57 97.5312 159.242C97.3594 158.909 97.2734 158.461 97.2734 157.898V149.492ZM103.562 151.547V160H102.109V151.547H103.562ZM102 149.305C102 149.07 102.07 148.872 102.211 148.711C102.357 148.549 102.57 148.469 102.852 148.469C103.128 148.469 103.339 148.549 103.484 148.711C103.635 148.872 103.711 149.07 103.711 149.305C103.711 149.529 103.635 149.721 103.484 149.883C103.339 150.039 103.128 150.117 102.852 150.117C102.57 150.117 102.357 150.039 102.211 149.883C102.07 149.721 102 149.529 102 149.305ZM107.328 153.352V160H105.883V151.547H107.25L107.328 153.352ZM106.984 155.453L106.383 155.43C106.388 154.852 106.474 154.318 106.641 153.828C106.807 153.333 107.042 152.904 107.344 152.539C107.646 152.174 108.005 151.893 108.422 151.695C108.844 151.492 109.31 151.391 109.82 151.391C110.237 151.391 110.612 151.448 110.945 151.562C111.279 151.672 111.562 151.849 111.797 152.094C112.036 152.339 112.219 152.656 112.344 153.047C112.469 153.432 112.531 153.904 112.531 154.461V160H111.078V154.445C111.078 154.003 111.013 153.648 110.883 153.383C110.753 153.112 110.562 152.917 110.312 152.797C110.062 152.672 109.755 152.609 109.391 152.609C109.031 152.609 108.703 152.685 108.406 152.836C108.115 152.987 107.862 153.195 107.648 153.461C107.44 153.727 107.276 154.031 107.156 154.375C107.042 154.714 106.984 155.073 106.984 155.453ZM120.141 153.352V160H118.695V151.547H120.062L120.141 153.352ZM119.797 155.453L119.195 155.43C119.201 154.852 119.286 154.318 119.453 153.828C119.62 153.333 119.854 152.904 120.156 152.539C120.458 152.174 120.818 151.893 121.234 151.695C121.656 151.492 122.122 151.391 122.633 151.391C123.049 151.391 123.424 151.448 123.758 151.562C124.091 151.672 124.375 151.849 124.609 152.094C124.849 152.339 125.031 152.656 125.156 153.047C125.281 153.432 125.344 153.904 125.344 154.461V160H123.891V154.445C123.891 154.003 123.826 153.648 123.695 153.383C123.565 153.112 123.375 152.917 123.125 152.797C122.875 152.672 122.568 152.609 122.203 152.609C121.844 152.609 121.516 152.685 121.219 152.836C120.927 152.987 120.674 153.195 120.461 153.461C120.253 153.727 120.089 154.031 119.969 154.375C119.854 154.714 119.797 155.073 119.797 155.453ZM128.984 148V160H127.539V148H128.984ZM128.641 155.453L128.039 155.43C128.044 154.852 128.13 154.318 128.297 153.828C128.464 153.333 128.698 152.904 129 152.539C129.302 152.174 129.661 151.893 130.078 151.695C130.5 151.492 130.966 151.391 131.477 151.391C131.893 151.391 132.268 151.448 132.602 151.562C132.935 151.672 133.219 151.849 133.453 152.094C133.693 152.339 133.875 152.656 134 153.047C134.125 153.432 134.188 153.904 134.188 154.461V160H132.734V154.445C132.734 154.003 132.669 153.648 132.539 153.383C132.409 153.112 132.219 152.917 131.969 152.797C131.719 152.672 131.411 152.609 131.047 152.609C130.688 152.609 130.359 152.685 130.062 152.836C129.771 152.987 129.518 153.195 129.305 153.461C129.096 153.727 128.932 154.031 128.812 154.375C128.698 154.714 128.641 155.073 128.641 155.453ZM141.336 158.555V154.203C141.336 153.87 141.268 153.581 141.133 153.336C141.003 153.086 140.805 152.893 140.539 152.758C140.273 152.622 139.945 152.555 139.555 152.555C139.19 152.555 138.87 152.617 138.594 152.742C138.323 152.867 138.109 153.031 137.953 153.234C137.802 153.438 137.727 153.656 137.727 153.891H136.281C136.281 153.589 136.359 153.289 136.516 152.992C136.672 152.695 136.896 152.427 137.188 152.188C137.484 151.943 137.839 151.75 138.25 151.609C138.667 151.464 139.13 151.391 139.641 151.391C140.255 151.391 140.797 151.495 141.266 151.703C141.74 151.911 142.109 152.227 142.375 152.648C142.646 153.065 142.781 153.589 142.781 154.219V158.156C142.781 158.438 142.805 158.737 142.852 159.055C142.904 159.372 142.979 159.646 143.078 159.875V160H141.57C141.497 159.833 141.44 159.612 141.398 159.336C141.357 159.055 141.336 158.794 141.336 158.555ZM141.586 154.875L141.602 155.891H140.141C139.729 155.891 139.362 155.924 139.039 155.992C138.716 156.055 138.445 156.151 138.227 156.281C138.008 156.411 137.841 156.576 137.727 156.773C137.612 156.966 137.555 157.193 137.555 157.453C137.555 157.719 137.615 157.961 137.734 158.18C137.854 158.398 138.034 158.573 138.273 158.703C138.518 158.828 138.818 158.891 139.172 158.891C139.615 158.891 140.005 158.797 140.344 158.609C140.682 158.422 140.951 158.193 141.148 157.922C141.352 157.651 141.461 157.388 141.477 157.133L142.094 157.828C142.057 158.047 141.958 158.289 141.797 158.555C141.635 158.82 141.419 159.076 141.148 159.32C140.883 159.56 140.565 159.76 140.195 159.922C139.831 160.078 139.419 160.156 138.961 160.156C138.388 160.156 137.885 160.044 137.453 159.82C137.026 159.596 136.693 159.297 136.453 158.922C136.219 158.542 136.102 158.117 136.102 157.648C136.102 157.195 136.19 156.797 136.367 156.453C136.544 156.104 136.799 155.815 137.133 155.586C137.466 155.352 137.867 155.174 138.336 155.055C138.805 154.935 139.328 154.875 139.906 154.875H141.586ZM140.93 148.703H142.125C142.125 149.021 142.029 149.302 141.836 149.547C141.648 149.792 141.378 149.984 141.023 150.125C140.669 150.266 140.25 150.336 139.766 150.336C139.276 150.336 138.854 150.266 138.5 150.125C138.146 149.984 137.872 149.792 137.68 149.547C137.487 149.302 137.391 149.021 137.391 148.703H138.578C138.578 148.943 138.667 149.154 138.844 149.336C139.021 149.513 139.328 149.602 139.766 149.602C140.182 149.602 140.479 149.513 140.656 149.336C140.839 149.154 140.93 148.943 140.93 148.703ZM139.305 148.547L140.188 146.992H141.383L140.102 148.547H139.305ZM146.5 153.352V160H145.055V151.547H146.422L146.5 153.352ZM146.156 155.453L145.555 155.43C145.56 154.852 145.646 154.318 145.812 153.828C145.979 153.333 146.214 152.904 146.516 152.539C146.818 152.174 147.177 151.893 147.594 151.695C148.016 151.492 148.482 151.391 148.992 151.391C149.409 151.391 149.784 151.448 150.117 151.562C150.451 151.672 150.734 151.849 150.969 152.094C151.208 152.339 151.391 152.656 151.516 153.047C151.641 153.432 151.703 153.904 151.703 154.461V160H150.25V154.445C150.25 154.003 150.185 153.648 150.055 153.383C149.924 153.112 149.734 152.917 149.484 152.797C149.234 152.672 148.927 152.609 148.562 152.609C148.203 152.609 147.875 152.685 147.578 152.836C147.286 152.987 147.034 153.195 146.82 153.461C146.612 153.727 146.448 154.031 146.328 154.375C146.214 154.714 146.156 155.073 146.156 155.453Z" fill="#FF3742"/>
</g>
<defs>
<filter id="filter0_d_7616_22574" x="0" y="0" width="256" height="184" filterUnits="userSpaceOnUse" color-interpolation-filters="sRGB">
<feFlood flood-opacity="0" result="BackgroundImageFix"/>
<feColorMatrix in="SourceAlpha" type="matrix" values="0 0 0 0 0 0 0 0 0 0 0 0 0 0 0 0 0 0 127 0" result="hardAlpha"/>
<feOffset/>
<feGaussianBlur stdDeviation="4"/>
<feColorMatrix type="matrix" values="0 0 0 0 0 0 0 0 0 0 0 0 0 0 0 0 0 0 0.15 0"/>
<feBlend mode="normal" in2="BackgroundImageFix" result="effect1_dropShadow_7616_22574"/>
<feBlend mode="normal" in="SourceGraphic" in2="effect1_dropShadow_7616_22574" result="shape"/>
</filter>
</defs>
</svg>
