<svg width="74" height="13" viewBox="0 0 74 13" fill="none" xmlns="http://www.w3.org/2000/svg">
<path d="M7.60156 10.4453V12H1.5625V10.4453H7.60156ZM2.11719 0.625V12H0.15625V0.625H2.11719ZM6.8125 5.375V6.90625H1.5625V5.375H6.8125ZM7.5625 0.625V2.1875H1.5625V0.625H7.5625ZM11.0312 0V12H9.14062V0H11.0312ZM12.7344 7.86719V7.6875C12.7344 7.07812 12.8229 6.51302 13 5.99219C13.1771 5.46615 13.4323 5.01042 13.7656 4.625C14.1042 4.23438 14.5156 3.93229 15 3.71875C15.4896 3.5 16.0417 3.39062 16.6562 3.39062C17.276 3.39062 17.8281 3.5 18.3125 3.71875C18.8021 3.93229 19.2161 4.23438 19.5547 4.625C19.8932 5.01042 20.151 5.46615 20.3281 5.99219C20.5052 6.51302 20.5938 7.07812 20.5938 7.6875V7.86719C20.5938 8.47656 20.5052 9.04167 20.3281 9.5625C20.151 10.0833 19.8932 10.5391 19.5547 10.9297C19.2161 11.3151 18.8047 11.6172 18.3203 11.8359C17.8359 12.0495 17.2865 12.1562 16.6719 12.1562C16.0521 12.1562 15.4974 12.0495 15.0078 11.8359C14.5234 11.6172 14.112 11.3151 13.7734 10.9297C13.4349 10.5391 13.1771 10.0833 13 9.5625C12.8229 9.04167 12.7344 8.47656 12.7344 7.86719ZM14.6172 7.6875V7.86719C14.6172 8.2474 14.6562 8.60677 14.7344 8.94531C14.8125 9.28385 14.9349 9.58073 15.1016 9.83594C15.2682 10.0911 15.4818 10.2917 15.7422 10.4375C16.0026 10.5833 16.3125 10.6562 16.6719 10.6562C17.0208 10.6562 17.3229 10.5833 17.5781 10.4375C17.8385 10.2917 18.0521 10.0911 18.2188 9.83594C18.3854 9.58073 18.5078 9.28385 18.5859 8.94531C18.6693 8.60677 18.7109 8.2474 18.7109 7.86719V7.6875C18.7109 7.3125 18.6693 6.95833 18.5859 6.625C18.5078 6.28646 18.3828 5.98698 18.2109 5.72656C18.0443 5.46615 17.8307 5.26302 17.5703 5.11719C17.3151 4.96615 17.0104 4.89062 16.6562 4.89062C16.3021 4.89062 15.9948 4.96615 15.7344 5.11719C15.4792 5.26302 15.2682 5.46615 15.1016 5.72656C14.9349 5.98698 14.8125 6.28646 14.7344 6.625C14.6562 6.95833 14.6172 7.3125 14.6172 7.6875ZM24.0391 5.35156V12H22.1562V3.54688H23.9297L24.0391 5.35156ZM23.7031 7.46094L23.0938 7.45312C23.099 6.85417 23.1823 6.30469 23.3438 5.80469C23.5104 5.30469 23.7396 4.875 24.0312 4.51562C24.3281 4.15625 24.6823 3.88021 25.0938 3.6875C25.5052 3.48958 25.9635 3.39062 26.4688 3.39062C26.875 3.39062 27.2422 3.44792 27.5703 3.5625C27.9036 3.67188 28.1875 3.85156 28.4219 4.10156C28.6615 4.35156 28.8438 4.67708 28.9688 5.07812C29.0938 5.47396 29.1562 5.96094 29.1562 6.53906V12H27.2656V6.53125C27.2656 6.125 27.2057 5.80469 27.0859 5.57031C26.9714 5.33073 26.8021 5.16146 26.5781 5.0625C26.3594 4.95833 26.0859 4.90625 25.7578 4.90625C25.4349 4.90625 25.1458 4.97396 24.8906 5.10938C24.6354 5.24479 24.4193 5.42969 24.2422 5.66406C24.0703 5.89844 23.9375 6.16927 23.8438 6.47656C23.75 6.78385 23.7031 7.11198 23.7031 7.46094ZM36.0469 0.625H37.7969L41.0859 9.39844L44.3672 0.625H46.1172L41.7734 12H40.3828L36.0469 0.625ZM35.25 0.625H36.9141L37.2031 8.21875V12H35.25V0.625ZM45.25 0.625H46.9219V12H44.9609V8.21875L45.25 0.625ZM54.1484 10.0078V3.54688H56.0391V12H54.2578L54.1484 10.0078ZM54.4141 8.25L55.0469 8.23438C55.0469 8.80208 54.9844 9.32552 54.8594 9.80469C54.7344 10.2786 54.5417 10.6927 54.2812 11.0469C54.0208 11.3958 53.6875 11.6693 53.2812 11.8672C52.875 12.0599 52.388 12.1562 51.8203 12.1562C51.4089 12.1562 51.0312 12.0964 50.6875 11.9766C50.3438 11.8568 50.0469 11.6719 49.7969 11.4219C49.5521 11.1719 49.362 10.8464 49.2266 10.4453C49.0911 10.0443 49.0234 9.5651 49.0234 9.00781V3.54688H50.9062V9.02344C50.9062 9.33073 50.9427 9.58854 51.0156 9.79688C51.0885 10 51.1875 10.1641 51.3125 10.2891C51.4375 10.4141 51.5833 10.5026 51.75 10.5547C51.9167 10.6068 52.0938 10.6328 52.2812 10.6328C52.8177 10.6328 53.2396 10.5286 53.5469 10.3203C53.8594 10.1068 54.0807 9.82031 54.2109 9.46094C54.3464 9.10156 54.4141 8.69792 54.4141 8.25ZM62.7109 9.71094C62.7109 9.52344 62.6641 9.35417 62.5703 9.20312C62.4766 9.04688 62.2969 8.90625 62.0312 8.78125C61.7708 8.65625 61.3854 8.54167 60.875 8.4375C60.4271 8.33854 60.0156 8.22135 59.6406 8.08594C59.2708 7.94531 58.9531 7.77604 58.6875 7.57812C58.4219 7.38021 58.2161 7.14583 58.0703 6.875C57.9245 6.60417 57.8516 6.29167 57.8516 5.9375C57.8516 5.59375 57.9271 5.26823 58.0781 4.96094C58.2292 4.65365 58.4453 4.38281 58.7266 4.14844C59.0078 3.91406 59.349 3.72917 59.75 3.59375C60.1562 3.45833 60.6094 3.39062 61.1094 3.39062C61.8177 3.39062 62.4245 3.51042 62.9297 3.75C63.4401 3.98438 63.8307 4.30469 64.1016 4.71094C64.3724 5.11198 64.5078 5.5651 64.5078 6.07031H62.625C62.625 5.84635 62.5677 5.63802 62.4531 5.44531C62.3438 5.2474 62.1771 5.08854 61.9531 4.96875C61.7292 4.84375 61.4479 4.78125 61.1094 4.78125C60.7865 4.78125 60.5182 4.83333 60.3047 4.9375C60.0964 5.03646 59.9401 5.16667 59.8359 5.32812C59.737 5.48958 59.6875 5.66667 59.6875 5.85938C59.6875 6 59.7135 6.1276 59.7656 6.24219C59.8229 6.35156 59.9167 6.45312 60.0469 6.54688C60.1771 6.63542 60.3542 6.71875 60.5781 6.79688C60.8073 6.875 61.0938 6.95052 61.4375 7.02344C62.0833 7.15885 62.638 7.33333 63.1016 7.54688C63.5703 7.75521 63.9297 8.02604 64.1797 8.35938C64.4297 8.6875 64.5547 9.10417 64.5547 9.60938C64.5547 9.98438 64.474 10.3281 64.3125 10.6406C64.1562 10.9479 63.9271 11.2161 63.625 11.4453C63.3229 11.6693 62.9609 11.8438 62.5391 11.9688C62.1224 12.0938 61.6536 12.1562 61.1328 12.1562C60.3672 12.1562 59.7188 12.0208 59.1875 11.75C58.6562 11.474 58.2526 11.1224 57.9766 10.6953C57.7057 10.263 57.5703 9.8151 57.5703 9.35156H59.3906C59.4115 9.70052 59.5078 9.97917 59.6797 10.1875C59.8568 10.3906 60.0755 10.5391 60.3359 10.6328C60.6016 10.7214 60.875 10.7656 61.1562 10.7656C61.4948 10.7656 61.7786 10.7214 62.0078 10.6328C62.237 10.5391 62.4115 10.4141 62.5312 10.2578C62.651 10.0964 62.7109 9.91406 62.7109 9.71094ZM68.1016 0V12H66.2109V0H68.1016ZM73.3516 3.54688L69.6719 7.625L67.6562 9.6875L67.1641 8.09375L68.6875 6.21094L71.0781 3.54688H73.3516ZM71.4844 12L68.7422 8.03125L69.9297 6.71094L73.6641 12H71.4844Z" fill="#080707"/>
</svg>
