<svg width="285" height="42" viewBox="0 0 285 42" fill="none" xmlns="http://www.w3.org/2000/svg">
<rect x="0.5" y="0.5" width="284" height="41" rx="20.5" fill="white"/>
<rect x="0.5" y="0.5" width="284" height="41" rx="20.5" stroke="#DBDDE1"/>
<path d="M32.7549 23.255H31.9649L31.6849 22.985C32.6649 21.845 33.2549 20.365 33.2549 18.755C33.2549 15.165 30.3449 12.255 26.7549 12.255C23.1649 12.255 20.2549 15.165 20.2549 18.755C20.2549 22.345 23.1649 25.255 26.7549 25.255C28.3649 25.255 29.8449 24.665 30.9849 23.685L31.2549 23.965V24.755L36.2549 29.745L37.7449 28.255L32.7549 23.255ZM26.7549 23.255C24.2649 23.255 22.2549 21.245 22.2549 18.755C22.2549 16.265 24.2649 14.255 26.7549 14.255C29.2449 14.255 31.2549 16.265 31.2549 18.755C31.2549 21.245 29.2449 23.255 26.7549 23.255Z" fill="#747881"/>
<path d="M54.5234 14.625V26H53.0391V14.625H54.5234ZM58.1797 14.625V15.8594H49.3906V14.625H58.1797ZM61.2109 17.5469V26H59.7656V17.5469H61.2109ZM59.8281 14.0156L61.3359 16.3125H60.0938L58.0781 14.0156H59.8281ZM65.0547 19.2266V26H63.6016V17.5469H64.9766L65.0547 19.2266ZM64.7578 21.4531L64.0859 21.4297C64.0911 20.8516 64.1667 20.3177 64.3125 19.8281C64.4583 19.3333 64.6745 18.9036 64.9609 18.5391C65.2474 18.1745 65.6042 17.8932 66.0312 17.6953C66.4583 17.4922 66.9531 17.3906 67.5156 17.3906C67.9115 17.3906 68.276 17.4479 68.6094 17.5625C68.9427 17.6719 69.2318 17.8464 69.4766 18.0859C69.7214 18.3255 69.9115 18.6328 70.0469 19.0078C70.1823 19.3828 70.25 19.8359 70.25 20.3672V26H68.8047V20.4375C68.8047 19.9948 68.7292 19.6406 68.5781 19.375C68.4323 19.1094 68.224 18.9167 67.9531 18.7969C67.6823 18.6719 67.3646 18.6094 67 18.6094C66.5729 18.6094 66.2161 18.6849 65.9297 18.8359C65.6432 18.987 65.4141 19.1953 65.2422 19.4609C65.0703 19.7266 64.9453 20.0312 64.8672 20.375C64.7943 20.7135 64.7578 21.0729 64.7578 21.4531ZM70.2344 20.6562L69.2656 20.9531C69.2708 20.4896 69.3464 20.0443 69.4922 19.6172C69.6432 19.1901 69.8594 18.8099 70.1406 18.4766C70.4271 18.1432 70.7786 17.8802 71.1953 17.6875C71.612 17.4896 72.0885 17.3906 72.625 17.3906C73.0781 17.3906 73.4792 17.4505 73.8281 17.5703C74.1823 17.6901 74.4792 17.875 74.7188 18.125C74.9635 18.3698 75.1484 18.6849 75.2734 19.0703C75.3984 19.4557 75.4609 19.9141 75.4609 20.4453V26H74.0078V20.4297C74.0078 19.9557 73.9323 19.5885 73.7812 19.3281C73.6354 19.0625 73.4271 18.8776 73.1562 18.7734C72.8906 18.6641 72.5729 18.6094 72.2031 18.6094C71.8854 18.6094 71.6042 18.6641 71.3594 18.7734C71.1146 18.8828 70.9089 19.0339 70.7422 19.2266C70.5755 19.4141 70.4479 19.6302 70.3594 19.875C70.276 20.1198 70.2344 20.3802 70.2344 20.6562ZM83.0703 14V26H81.6172V14H83.0703ZM88.2344 17.5469L84.5469 21.4922L82.4844 23.6328L82.3672 22.0938L83.8438 20.3281L86.4688 17.5469H88.2344ZM86.9141 26L83.8984 21.9688L84.6484 20.6797L88.6172 26H86.9141ZM91.2969 17.5469V26H89.8438V17.5469H91.2969ZM89.7344 15.3047C89.7344 15.0703 89.8047 14.8724 89.9453 14.7109C90.0911 14.5495 90.3047 14.4688 90.5859 14.4688C90.862 14.4688 91.0729 14.5495 91.2188 14.7109C91.3698 14.8724 91.4453 15.0703 91.4453 15.3047C91.4453 15.5286 91.3698 15.7214 91.2188 15.8828C91.0729 16.0391 90.862 16.1172 90.5859 16.1172C90.3047 16.1172 90.0911 16.0391 89.9453 15.8828C89.8047 15.7214 89.7344 15.5286 89.7344 15.3047ZM97.125 26.1562C96.5365 26.1562 96.0026 26.0573 95.5234 25.8594C95.0495 25.6562 94.6406 25.3724 94.2969 25.0078C93.9583 24.6432 93.6979 24.2109 93.5156 23.7109C93.3333 23.2109 93.2422 22.6641 93.2422 22.0703V21.7422C93.2422 21.0547 93.3438 20.4427 93.5469 19.9062C93.75 19.3646 94.026 18.9062 94.375 18.5312C94.724 18.1562 95.1198 17.8724 95.5625 17.6797C96.0052 17.487 96.4635 17.3906 96.9375 17.3906C97.5417 17.3906 98.0625 17.4948 98.5 17.7031C98.9427 17.9115 99.3047 18.2031 99.5859 18.5781C99.8672 18.9479 100.076 19.3854 100.211 19.8906C100.346 20.3906 100.414 20.9375 100.414 21.5312V22.1797H94.1016V21H98.9688V20.8906C98.9479 20.5156 98.8698 20.151 98.7344 19.7969C98.6042 19.4427 98.3958 19.151 98.1094 18.9219C97.8229 18.6927 97.4323 18.5781 96.9375 18.5781C96.6094 18.5781 96.3073 18.6484 96.0312 18.7891C95.7552 18.9245 95.5182 19.1276 95.3203 19.3984C95.1224 19.6693 94.9688 20 94.8594 20.3906C94.75 20.7812 94.6953 21.2318 94.6953 21.7422V22.0703C94.6953 22.4714 94.75 22.849 94.8594 23.2031C94.974 23.5521 95.138 23.8594 95.3516 24.125C95.5703 24.3906 95.8333 24.599 96.1406 24.75C96.4531 24.901 96.8073 24.9766 97.2031 24.9766C97.7135 24.9766 98.1458 24.8724 98.5 24.6641C98.8542 24.4557 99.1641 24.1771 99.4297 23.8281L100.305 24.5234C100.122 24.7995 99.8906 25.0625 99.6094 25.3125C99.3281 25.5625 98.9818 25.7656 98.5703 25.9219C98.1641 26.0781 97.6823 26.1562 97.125 26.1562ZM94.0625 16.2969L96.3359 14.25H97.5234L99.7969 16.2969H98.2578L96.9297 15.0625L95.6016 16.2969H94.0625ZM99.2188 14.9141L100.32 12.8984H101.883L100.312 14.9141H99.2188ZM103.539 19.2266V26H102.086V17.5469H103.461L103.539 19.2266ZM103.242 21.4531L102.57 21.4297C102.576 20.8516 102.651 20.3177 102.797 19.8281C102.943 19.3333 103.159 18.9036 103.445 18.5391C103.732 18.1745 104.089 17.8932 104.516 17.6953C104.943 17.4922 105.438 17.3906 106 17.3906C106.396 17.3906 106.76 17.4479 107.094 17.5625C107.427 17.6719 107.716 17.8464 107.961 18.0859C108.206 18.3255 108.396 18.6328 108.531 19.0078C108.667 19.3828 108.734 19.8359 108.734 20.3672V26H107.289V20.4375C107.289 19.9948 107.214 19.6406 107.062 19.375C106.917 19.1094 106.708 18.9167 106.438 18.7969C106.167 18.6719 105.849 18.6094 105.484 18.6094C105.057 18.6094 104.701 18.6849 104.414 18.8359C104.128 18.987 103.898 19.1953 103.727 19.4609C103.555 19.7266 103.43 20.0312 103.352 20.375C103.279 20.7135 103.242 21.0729 103.242 21.4531ZM108.719 20.6562L107.75 20.9531C107.755 20.4896 107.831 20.0443 107.977 19.6172C108.128 19.1901 108.344 18.8099 108.625 18.4766C108.911 18.1432 109.263 17.8802 109.68 17.6875C110.096 17.4896 110.573 17.3906 111.109 17.3906C111.562 17.3906 111.964 17.4505 112.312 17.5703C112.667 17.6901 112.964 17.875 113.203 18.125C113.448 18.3698 113.633 18.6849 113.758 19.0703C113.883 19.4557 113.945 19.9141 113.945 20.4453V26H112.492V20.4297C112.492 19.9557 112.417 19.5885 112.266 19.3281C112.12 19.0625 111.911 18.8776 111.641 18.7734C111.375 18.6641 111.057 18.6094 110.688 18.6094C110.37 18.6094 110.089 18.6641 109.844 18.7734C109.599 18.8828 109.393 19.0339 109.227 19.2266C109.06 19.4141 108.932 19.6302 108.844 19.875C108.76 20.1198 108.719 20.3802 108.719 20.6562Z" fill="#747881"/>
</svg>
