<svg width="68" height="34" viewBox="0 0 68 34" fill="none" xmlns="http://www.w3.org/2000/svg">
<path d="M16.99 6.99951C11.47 6.99951 7 11.4795 7 16.9995C7 22.5195 11.47 26.9995 16.99 26.9995C22.52 26.9995 27 22.5195 27 16.9995C27 11.4795 22.52 6.99951 16.99 6.99951ZM17 24.9995C12.58 24.9995 9 21.4195 9 16.9995C9 12.5795 12.58 8.99951 17 8.99951C21.42 8.99951 25 12.5795 25 16.9995C25 21.4195 21.42 24.9995 17 24.9995ZM20.5 15.9995C21.33 15.9995 22 15.3295 22 14.4995C22 13.6695 21.33 12.9995 20.5 12.9995C19.67 12.9995 19 13.6695 19 14.4995C19 15.3295 19.67 15.9995 20.5 15.9995ZM13.5 15.9995C14.33 15.9995 15 15.3295 15 14.4995C15 13.6695 14.33 12.9995 13.5 12.9995C12.67 12.9995 12 13.6695 12 14.4995C12 15.3295 12.67 15.9995 13.5 15.9995ZM17 22.4995C19.33 22.4995 21.31 21.0395 22.11 18.9995H11.89C12.69 21.0395 14.67 22.4995 17 22.4995Z" fill="#747881"/>
<rect x="34" width="34" height="34" rx="17" fill="#F4F4F5"/>
<path d="M51 13.0005C52.1 13.0005 53 12.1005 53 11.0005C53 9.90049 52.1 9.00049 51 9.00049C49.9 9.00049 49 9.90049 49 11.0005C49 12.1005 49.9 13.0005 51 13.0005ZM51 15.0005C49.9 15.0005 49 15.9005 49 17.0005C49 18.1005 49.9 19.0005 51 19.0005C52.1 19.0005 53 18.1005 53 17.0005C53 15.9005 52.1 15.0005 51 15.0005ZM51 21.0005C49.9 21.0005 49 21.9005 49 23.0005C49 24.1005 49.9 25.0005 51 25.0005C52.1 25.0005 53 24.1005 53 23.0005C53 21.9005 52.1 21.0005 51 21.0005Z" fill="#005FFF"/>
</svg>
