<svg width="114" height="12" viewBox="0 0 114 12" fill="none" xmlns="http://www.w3.org/2000/svg">
<path d="M8.81836 5.70898V6.33789C8.81836 7.08529 8.72493 7.75521 8.53809 8.34766C8.35124 8.9401 8.08236 9.44368 7.73145 9.8584C7.38053 10.2731 6.95898 10.5898 6.4668 10.8086C5.97917 11.0273 5.43229 11.1367 4.82617 11.1367C4.23828 11.1367 3.69824 11.0273 3.20605 10.8086C2.71842 10.5898 2.2946 10.2731 1.93457 9.8584C1.5791 9.44368 1.30339 8.9401 1.10742 8.34766C0.911458 7.75521 0.813477 7.08529 0.813477 6.33789V5.70898C0.813477 4.96159 0.90918 4.29395 1.10059 3.70605C1.29655 3.11361 1.57227 2.61003 1.92773 2.19531C2.2832 1.77604 2.70475 1.45703 3.19238 1.23828C3.68457 1.01953 4.22461 0.910156 4.8125 0.910156C5.41862 0.910156 5.96549 1.01953 6.45312 1.23828C6.94531 1.45703 7.36686 1.77604 7.71777 2.19531C8.07324 2.61003 8.3444 3.11361 8.53125 3.70605C8.72266 4.29395 8.81836 4.96159 8.81836 5.70898ZM7.5127 6.33789V5.69531C7.5127 5.10286 7.45117 4.57878 7.32812 4.12305C7.20964 3.66732 7.03418 3.28451 6.80176 2.97461C6.56934 2.66471 6.28451 2.43001 5.94727 2.27051C5.61458 2.111 5.23633 2.03125 4.8125 2.03125C4.40234 2.03125 4.03092 2.111 3.69824 2.27051C3.37012 2.43001 3.08757 2.66471 2.85059 2.97461C2.61816 3.28451 2.43815 3.66732 2.31055 4.12305C2.18294 4.57878 2.11914 5.10286 2.11914 5.69531V6.33789C2.11914 6.9349 2.18294 7.46354 2.31055 7.92383C2.43815 8.37956 2.62044 8.76465 2.85742 9.0791C3.09896 9.389 3.38379 9.6237 3.71191 9.7832C4.0446 9.94271 4.41602 10.0225 4.82617 10.0225C5.25456 10.0225 5.63509 9.94271 5.96777 9.7832C6.30046 9.6237 6.58073 9.389 6.80859 9.0791C7.04102 8.76465 7.21647 8.37956 7.33496 7.92383C7.45345 7.46354 7.5127 6.9349 7.5127 6.33789ZM11.8672 5.18262V11H10.6025V3.60352H11.7988L11.8672 5.18262ZM11.5664 7.02148L11.04 7.00098C11.0446 6.49512 11.1198 6.02799 11.2656 5.59961C11.4115 5.16667 11.6165 4.79069 11.8809 4.47168C12.1452 4.15267 12.4596 3.90658 12.8242 3.7334C13.1934 3.55566 13.6012 3.4668 14.0479 3.4668C14.4124 3.4668 14.7406 3.51693 15.0322 3.61719C15.3239 3.71289 15.5723 3.86784 15.7773 4.08203C15.987 4.29622 16.1465 4.57422 16.2559 4.91602C16.3652 5.25326 16.4199 5.66569 16.4199 6.15332V11H15.1484V6.13965C15.1484 5.75228 15.0915 5.44238 14.9775 5.20996C14.8636 4.97298 14.6973 4.80208 14.4785 4.69727C14.2598 4.58789 13.9909 4.5332 13.6719 4.5332C13.3574 4.5332 13.0703 4.59928 12.8105 4.73145C12.5553 4.86361 12.3343 5.0459 12.1475 5.27832C11.9652 5.51074 11.8216 5.77734 11.7168 6.07812C11.6165 6.37435 11.5664 6.6888 11.5664 7.02148ZM19.7148 0.5V11H18.4434V0.5H19.7148ZM23.1191 3.60352V11H21.8477V3.60352H23.1191ZM21.752 1.6416C21.752 1.43652 21.8135 1.26335 21.9365 1.12207C22.0641 0.980794 22.251 0.910156 22.4971 0.910156C22.7386 0.910156 22.9232 0.980794 23.0508 1.12207C23.1829 1.26335 23.249 1.43652 23.249 1.6416C23.249 1.83757 23.1829 2.00618 23.0508 2.14746C22.9232 2.28418 22.7386 2.35254 22.4971 2.35254C22.251 2.35254 22.0641 2.28418 21.9365 2.14746C21.8135 2.00618 21.752 1.83757 21.752 1.6416ZM26.4141 5.18262V11H25.1494V3.60352H26.3457L26.4141 5.18262ZM26.1133 7.02148L25.5869 7.00098C25.5915 6.49512 25.6667 6.02799 25.8125 5.59961C25.9583 5.16667 26.1634 4.79069 26.4277 4.47168C26.6921 4.15267 27.0065 3.90658 27.3711 3.7334C27.7402 3.55566 28.1481 3.4668 28.5947 3.4668C28.9593 3.4668 29.2874 3.51693 29.5791 3.61719C29.8708 3.71289 30.1191 3.86784 30.3242 4.08203C30.5339 4.29622 30.6934 4.57422 30.8027 4.91602C30.9121 5.25326 30.9668 5.66569 30.9668 6.15332V11H29.6953V6.13965C29.6953 5.75228 29.6383 5.44238 29.5244 5.20996C29.4105 4.97298 29.2441 4.80208 29.0254 4.69727C28.8066 4.58789 28.5378 4.5332 28.2188 4.5332C27.9043 4.5332 27.6172 4.59928 27.3574 4.73145C27.1022 4.86361 26.8812 5.0459 26.6943 5.27832C26.512 5.51074 26.3685 5.77734 26.2637 6.07812C26.1634 6.37435 26.1133 6.6888 26.1133 7.02148ZM35.957 11.1367C35.4421 11.1367 34.9749 11.0501 34.5557 10.877C34.141 10.6992 33.7832 10.4508 33.4824 10.1318C33.1862 9.81283 32.9583 9.43457 32.7988 8.99707C32.6393 8.55957 32.5596 8.08105 32.5596 7.56152V7.27441C32.5596 6.67285 32.6484 6.13737 32.8262 5.66797C33.0039 5.19401 33.2454 4.79297 33.5508 4.46484C33.8561 4.13672 34.2025 3.88835 34.5898 3.71973C34.9772 3.55111 35.3783 3.4668 35.793 3.4668C36.3216 3.4668 36.7773 3.55794 37.1602 3.74023C37.5475 3.92253 37.8643 4.17773 38.1104 4.50586C38.3564 4.82943 38.5387 5.21224 38.6572 5.6543C38.7757 6.0918 38.835 6.57031 38.835 7.08984V7.65723H33.3115V6.625H37.5703V6.5293C37.5521 6.20117 37.4837 5.88216 37.3652 5.57227C37.2513 5.26237 37.069 5.00716 36.8184 4.80664C36.5677 4.60612 36.2259 4.50586 35.793 4.50586C35.5059 4.50586 35.2415 4.56738 35 4.69043C34.7585 4.80892 34.5511 4.98665 34.3779 5.22363C34.2048 5.46061 34.0703 5.75 33.9746 6.0918C33.8789 6.43359 33.8311 6.8278 33.8311 7.27441V7.56152C33.8311 7.91243 33.8789 8.24284 33.9746 8.55273C34.0749 8.85807 34.2184 9.12695 34.4053 9.35938C34.5967 9.5918 34.8268 9.77409 35.0957 9.90625C35.3691 10.0384 35.679 10.1045 36.0254 10.1045C36.472 10.1045 36.8503 10.0133 37.1602 9.83105C37.4701 9.64876 37.7412 9.40495 37.9736 9.09961L38.7393 9.70801C38.5798 9.94954 38.377 10.1797 38.1309 10.3984C37.8848 10.6172 37.5817 10.7949 37.2217 10.9316C36.8662 11.0684 36.4447 11.1367 35.957 11.1367ZM45.6709 11H44.4062V2.82422C44.4062 2.29102 44.502 1.84212 44.6934 1.47754C44.8893 1.1084 45.1696 0.830404 45.5342 0.643555C45.8988 0.452148 46.3317 0.356445 46.833 0.356445C46.9788 0.356445 47.1247 0.36556 47.2705 0.383789C47.4209 0.402018 47.5667 0.429362 47.708 0.46582L47.6396 1.49805C47.5439 1.47526 47.4346 1.45931 47.3115 1.4502C47.193 1.44108 47.0745 1.43652 46.9561 1.43652C46.6872 1.43652 46.4548 1.49121 46.2588 1.60059C46.0674 1.7054 45.9215 1.86035 45.8213 2.06543C45.721 2.27051 45.6709 2.52344 45.6709 2.82422V11ZM47.2432 3.60352V4.57422H43.2373V3.60352H47.2432ZM48.3164 7.38379V7.22656C48.3164 6.69336 48.3939 6.19889 48.5488 5.74316C48.7038 5.28288 48.9271 4.88411 49.2188 4.54688C49.5104 4.20508 49.8636 3.94076 50.2783 3.75391C50.693 3.5625 51.1579 3.4668 51.6729 3.4668C52.1924 3.4668 52.6595 3.5625 53.0742 3.75391C53.4935 3.94076 53.849 4.20508 54.1406 4.54688C54.4368 4.88411 54.6624 5.28288 54.8174 5.74316C54.9723 6.19889 55.0498 6.69336 55.0498 7.22656V7.38379C55.0498 7.91699 54.9723 8.41146 54.8174 8.86719C54.6624 9.32292 54.4368 9.72168 54.1406 10.0635C53.849 10.4007 53.4958 10.665 53.0811 10.8564C52.6709 11.0433 52.2061 11.1367 51.6865 11.1367C51.167 11.1367 50.6999 11.0433 50.2852 10.8564C49.8704 10.665 49.515 10.4007 49.2188 10.0635C48.9271 9.72168 48.7038 9.32292 48.5488 8.86719C48.3939 8.41146 48.3164 7.91699 48.3164 7.38379ZM49.5811 7.22656V7.38379C49.5811 7.75293 49.6243 8.10156 49.7109 8.42969C49.7975 8.75326 49.9274 9.04036 50.1006 9.29102C50.2783 9.54167 50.4993 9.73991 50.7637 9.88574C51.028 10.027 51.3356 10.0977 51.6865 10.0977C52.0329 10.0977 52.3359 10.027 52.5957 9.88574C52.86 9.73991 53.0788 9.54167 53.252 9.29102C53.4251 9.04036 53.555 8.75326 53.6416 8.42969C53.7327 8.10156 53.7783 7.75293 53.7783 7.38379V7.22656C53.7783 6.86198 53.7327 6.5179 53.6416 6.19434C53.555 5.86621 53.4229 5.57682 53.2451 5.32617C53.0719 5.07096 52.8532 4.87044 52.5889 4.72461C52.3291 4.57878 52.0238 4.50586 51.6729 4.50586C51.3265 4.50586 51.0212 4.57878 50.7568 4.72461C50.4971 4.87044 50.2783 5.07096 50.1006 5.32617C49.9274 5.57682 49.7975 5.86621 49.7109 6.19434C49.6243 6.5179 49.5811 6.86198 49.5811 7.22656ZM57.9004 4.76562V11H56.6357V3.60352H57.8662L57.9004 4.76562ZM60.2109 3.5625L60.2041 4.73828C60.0993 4.71549 59.999 4.70182 59.9033 4.69727C59.8122 4.68815 59.7074 4.68359 59.5889 4.68359C59.2972 4.68359 59.0397 4.72917 58.8164 4.82031C58.5931 4.91146 58.404 5.03906 58.249 5.20312C58.0941 5.36719 57.971 5.56315 57.8799 5.79102C57.7933 6.01432 57.7363 6.26042 57.709 6.5293L57.3535 6.73438C57.3535 6.28776 57.3968 5.86849 57.4834 5.47656C57.5745 5.08464 57.7135 4.73828 57.9004 4.4375C58.0872 4.13216 58.3242 3.89518 58.6113 3.72656C58.903 3.55339 59.2493 3.4668 59.6504 3.4668C59.7415 3.4668 59.8464 3.47819 59.9648 3.50098C60.0833 3.51921 60.1654 3.53971 60.2109 3.5625ZM68.8721 0.992188V11H67.6074V2.57129L65.0576 3.50098V2.35938L68.6738 0.992188H68.8721ZM78.8389 5.23047V6.74805C78.8389 7.5638 78.766 8.25195 78.6201 8.8125C78.4743 9.37305 78.2646 9.82422 77.9912 10.166C77.7178 10.5078 77.3874 10.7562 77 10.9111C76.6172 11.0615 76.1842 11.1367 75.7012 11.1367C75.3184 11.1367 74.9652 11.0889 74.6416 10.9932C74.318 10.8975 74.0264 10.7448 73.7666 10.5352C73.5114 10.321 73.2926 10.043 73.1104 9.70117C72.9281 9.35938 72.7891 8.94466 72.6934 8.45703C72.5977 7.9694 72.5498 7.39974 72.5498 6.74805V5.23047C72.5498 4.41471 72.6227 3.73112 72.7686 3.17969C72.9189 2.62826 73.1309 2.1862 73.4043 1.85352C73.6777 1.51628 74.0059 1.27474 74.3887 1.12891C74.776 0.983073 75.209 0.910156 75.6875 0.910156C76.0749 0.910156 76.4303 0.958008 76.7539 1.05371C77.082 1.14486 77.3737 1.29297 77.6289 1.49805C77.8841 1.69857 78.1006 1.96745 78.2783 2.30469C78.4606 2.63737 78.5996 3.04525 78.6953 3.52832C78.791 4.01139 78.8389 4.57878 78.8389 5.23047ZM77.5674 6.95312V5.01855C77.5674 4.57194 77.54 4.18001 77.4854 3.84277C77.4352 3.50098 77.36 3.20931 77.2598 2.96777C77.1595 2.72624 77.0319 2.53027 76.877 2.37988C76.7266 2.22949 76.5511 2.12012 76.3506 2.05176C76.1546 1.97884 75.9336 1.94238 75.6875 1.94238C75.3867 1.94238 75.1201 1.99935 74.8877 2.11328C74.6553 2.22266 74.4593 2.39811 74.2998 2.63965C74.1449 2.88118 74.0264 3.19792 73.9443 3.58984C73.8623 3.98177 73.8213 4.45801 73.8213 5.01855V6.95312C73.8213 7.39974 73.8464 7.79395 73.8965 8.13574C73.9512 8.47754 74.0309 8.77376 74.1357 9.02441C74.2406 9.27051 74.3682 9.47331 74.5186 9.63281C74.6689 9.79232 74.8421 9.91081 75.0381 9.98828C75.2386 10.0612 75.4596 10.0977 75.7012 10.0977C76.0111 10.0977 76.2822 10.0384 76.5146 9.91992C76.7471 9.80143 76.9408 9.61686 77.0957 9.36621C77.2552 9.111 77.3737 8.78516 77.4512 8.38867C77.5286 7.98763 77.5674 7.50911 77.5674 6.95312ZM85.333 5.07324V11H84.0615V3.60352H85.2646L85.333 5.07324ZM85.0732 7.02148L84.4854 7.00098C84.4899 6.49512 84.556 6.02799 84.6836 5.59961C84.8112 5.16667 85.0003 4.79069 85.251 4.47168C85.5016 4.15267 85.8138 3.90658 86.1875 3.7334C86.5612 3.55566 86.9941 3.4668 87.4863 3.4668C87.8327 3.4668 88.1517 3.51693 88.4434 3.61719C88.735 3.71289 88.988 3.86556 89.2021 4.0752C89.4163 4.28483 89.5827 4.55371 89.7012 4.88184C89.8197 5.20996 89.8789 5.60645 89.8789 6.07129V11H88.6143V6.13281C88.6143 5.74544 88.5482 5.43555 88.416 5.20312C88.2884 4.9707 88.1061 4.80208 87.8691 4.69727C87.6322 4.58789 87.3542 4.5332 87.0352 4.5332C86.6615 4.5332 86.3493 4.59928 86.0986 4.73145C85.848 4.86361 85.6475 5.0459 85.4971 5.27832C85.3467 5.51074 85.2373 5.77734 85.1689 6.07812C85.1051 6.37435 85.0732 6.6888 85.0732 7.02148ZM89.8652 6.32422L89.0176 6.58398C89.0221 6.17839 89.0882 5.78874 89.2158 5.41504C89.348 5.04134 89.5371 4.70866 89.7832 4.41699C90.0339 4.12533 90.3415 3.89518 90.7061 3.72656C91.0706 3.55339 91.4876 3.4668 91.957 3.4668C92.3535 3.4668 92.7044 3.51921 93.0098 3.62402C93.3197 3.72884 93.5794 3.89062 93.7891 4.10938C94.0033 4.32357 94.165 4.59928 94.2744 4.93652C94.3838 5.27376 94.4385 5.6748 94.4385 6.13965V11H93.167V6.12598C93.167 5.71126 93.1009 5.38997 92.9688 5.16211C92.8411 4.92969 92.6589 4.7679 92.4219 4.67676C92.1895 4.58105 91.9115 4.5332 91.5879 4.5332C91.3099 4.5332 91.0638 4.58105 90.8496 4.67676C90.6354 4.77246 90.4554 4.90462 90.3096 5.07324C90.1637 5.2373 90.0521 5.42643 89.9746 5.64062C89.9017 5.85482 89.8652 6.08268 89.8652 6.32422ZM97.7266 3.60352V11H96.4551V3.60352H97.7266ZM96.3594 1.6416C96.3594 1.43652 96.4209 1.26335 96.5439 1.12207C96.6715 0.980794 96.8584 0.910156 97.1045 0.910156C97.346 0.910156 97.5306 0.980794 97.6582 1.12207C97.7904 1.26335 97.8564 1.43652 97.8564 1.6416C97.8564 1.83757 97.7904 2.00618 97.6582 2.14746C97.5306 2.28418 97.346 2.35254 97.1045 2.35254C96.8584 2.35254 96.6715 2.28418 96.5439 2.14746C96.4209 2.00618 96.3594 1.83757 96.3594 1.6416ZM101.021 5.18262V11H99.7568V3.60352H100.953L101.021 5.18262ZM100.721 7.02148L100.194 7.00098C100.199 6.49512 100.274 6.02799 100.42 5.59961C100.566 5.16667 100.771 4.79069 101.035 4.47168C101.299 4.15267 101.614 3.90658 101.979 3.7334C102.348 3.55566 102.756 3.4668 103.202 3.4668C103.567 3.4668 103.895 3.51693 104.187 3.61719C104.478 3.71289 104.727 3.86784 104.932 4.08203C105.141 4.29622 105.301 4.57422 105.41 4.91602C105.52 5.25326 105.574 5.66569 105.574 6.15332V11H104.303V6.13965C104.303 5.75228 104.246 5.44238 104.132 5.20996C104.018 4.97298 103.852 4.80208 103.633 4.69727C103.414 4.58789 103.145 4.5332 102.826 4.5332C102.512 4.5332 102.225 4.59928 101.965 4.73145C101.71 4.86361 101.489 5.0459 101.302 5.27832C101.119 5.51074 100.976 5.77734 100.871 6.07812C100.771 6.37435 100.721 6.6888 100.721 7.02148ZM111.802 9.03809C111.802 8.85579 111.761 8.68717 111.679 8.53223C111.601 8.37272 111.439 8.22917 111.193 8.10156C110.952 7.9694 110.587 7.85547 110.1 7.75977C109.689 7.67318 109.318 7.57064 108.985 7.45215C108.657 7.33366 108.377 7.1901 108.145 7.02148C107.917 6.85286 107.741 6.65462 107.618 6.42676C107.495 6.19889 107.434 5.93229 107.434 5.62695C107.434 5.33529 107.497 5.05957 107.625 4.7998C107.757 4.54004 107.942 4.3099 108.179 4.10938C108.42 3.90885 108.71 3.75163 109.047 3.6377C109.384 3.52376 109.76 3.4668 110.175 3.4668C110.767 3.4668 111.273 3.57161 111.692 3.78125C112.112 3.99089 112.433 4.27116 112.656 4.62207C112.88 4.96842 112.991 5.35352 112.991 5.77734H111.727C111.727 5.57227 111.665 5.37402 111.542 5.18262C111.424 4.98665 111.248 4.82487 111.016 4.69727C110.788 4.56966 110.507 4.50586 110.175 4.50586C109.824 4.50586 109.539 4.56055 109.32 4.66992C109.106 4.77474 108.949 4.90918 108.849 5.07324C108.753 5.2373 108.705 5.41048 108.705 5.59277C108.705 5.72949 108.728 5.85254 108.773 5.96191C108.824 6.06673 108.91 6.16471 109.033 6.25586C109.156 6.34245 109.329 6.42448 109.553 6.50195C109.776 6.57943 110.061 6.6569 110.407 6.73438C111.013 6.87109 111.512 7.03516 111.904 7.22656C112.296 7.41797 112.588 7.65267 112.779 7.93066C112.971 8.20866 113.066 8.5459 113.066 8.94238C113.066 9.26595 112.998 9.56217 112.861 9.83105C112.729 10.0999 112.535 10.3324 112.28 10.5283C112.03 10.7197 111.729 10.8701 111.378 10.9795C111.032 11.0843 110.642 11.1367 110.209 11.1367C109.557 11.1367 109.006 11.0205 108.555 10.7881C108.104 10.5557 107.762 10.2549 107.529 9.88574C107.297 9.5166 107.181 9.12695 107.181 8.7168H108.452C108.47 9.06315 108.571 9.33887 108.753 9.54395C108.935 9.74447 109.159 9.88802 109.423 9.97461C109.687 10.0566 109.949 10.0977 110.209 10.0977C110.555 10.0977 110.845 10.0521 111.077 9.96094C111.314 9.86979 111.494 9.74447 111.617 9.58496C111.74 9.42546 111.802 9.24316 111.802 9.03809Z" fill="#747881"/>
</svg>
