<svg width="287" height="44" viewBox="0 0 287 44" fill="none" xmlns="http://www.w3.org/2000/svg">
<path d="M4.00781 15.4453L6.27344 6.625H7.46094L7.32812 8.89844L4.90625 18H3.67188L4.00781 15.4453ZM2.3125 6.625L4.14844 15.375L4.3125 18H3L0.367188 6.625H2.3125ZM10.0312 15.3516L11.8438 6.625H13.7969L11.1641 18H9.85156L10.0312 15.3516ZM7.92188 6.625L10.1641 15.4688L10.4922 18H9.25781L6.875 8.89844L6.75 6.625H7.92188ZM14.4531 13.8672V13.6875C14.4531 13.0781 14.5417 12.513 14.7188 11.9922C14.8958 11.4661 15.151 11.0104 15.4844 10.625C15.8229 10.2344 16.2344 9.93229 16.7188 9.71875C17.2083 9.5 17.7604 9.39062 18.375 9.39062C18.9948 9.39062 19.5469 9.5 20.0312 9.71875C20.5208 9.93229 20.9349 10.2344 21.2734 10.625C21.612 11.0104 21.8698 11.4661 22.0469 11.9922C22.224 12.513 22.3125 13.0781 22.3125 13.6875V13.8672C22.3125 14.4766 22.224 15.0417 22.0469 15.5625C21.8698 16.0833 21.612 16.5391 21.2734 16.9297C20.9349 17.3151 20.5234 17.6172 20.0391 17.8359C19.5547 18.0495 19.0052 18.1562 18.3906 18.1562C17.7708 18.1562 17.2161 18.0495 16.7266 17.8359C16.2422 17.6172 15.8307 17.3151 15.4922 16.9297C15.1536 16.5391 14.8958 16.0833 14.7188 15.5625C14.5417 15.0417 14.4531 14.4766 14.4531 13.8672ZM16.3359 13.6875V13.8672C16.3359 14.2474 16.375 14.6068 16.4531 14.9453C16.5312 15.2839 16.6536 15.5807 16.8203 15.8359C16.987 16.0911 17.2005 16.2917 17.4609 16.4375C17.7214 16.5833 18.0312 16.6562 18.3906 16.6562C18.7396 16.6562 19.0417 16.5833 19.2969 16.4375C19.5573 16.2917 19.7708 16.0911 19.9375 15.8359C20.1042 15.5807 20.2266 15.2839 20.3047 14.9453C20.388 14.6068 20.4297 14.2474 20.4297 13.8672V13.6875C20.4297 13.3125 20.388 12.9583 20.3047 12.625C20.2266 12.2865 20.1016 11.987 19.9297 11.7266C19.763 11.4661 19.5495 11.263 19.2891 11.1172C19.0339 10.9661 18.7292 10.8906 18.375 10.8906C18.0208 10.8906 17.7135 10.9661 17.4531 11.1172C17.1979 11.263 16.987 11.4661 16.8203 11.7266C16.6536 11.987 16.5312 12.2865 16.4531 12.625C16.375 12.9583 16.3359 13.3125 16.3359 13.6875ZM25.7578 11.3516V18H23.875V9.54688H25.6484L25.7578 11.3516ZM25.4219 13.4609L24.8125 13.4531C24.8177 12.8542 24.901 12.3047 25.0625 11.8047C25.2292 11.3047 25.4583 10.875 25.75 10.5156C26.0469 10.1562 26.401 9.88021 26.8125 9.6875C27.224 9.48958 27.6823 9.39062 28.1875 9.39062C28.5938 9.39062 28.9609 9.44792 29.2891 9.5625C29.6224 9.67188 29.9062 9.85156 30.1406 10.1016C30.3802 10.3516 30.5625 10.6771 30.6875 11.0781C30.8125 11.474 30.875 11.9609 30.875 12.5391V18H28.9844V12.5312C28.9844 12.125 28.9245 11.8047 28.8047 11.5703C28.6901 11.3307 28.5208 11.1615 28.2969 11.0625C28.0781 10.9583 27.8047 10.9062 27.4766 10.9062C27.1536 10.9062 26.8646 10.974 26.6094 11.1094C26.3542 11.2448 26.138 11.4297 25.9609 11.6641C25.7891 11.8984 25.6562 12.1693 25.5625 12.4766C25.4688 12.7839 25.4219 13.112 25.4219 13.4609ZM37.9531 16.25V6H39.8438V18H38.1328L37.9531 16.25ZM32.4531 13.8672V13.7031C32.4531 13.0625 32.5286 12.4792 32.6797 11.9531C32.8307 11.4219 33.0495 10.9661 33.3359 10.5859C33.6224 10.2005 33.9714 9.90625 34.3828 9.70312C34.7943 9.49479 35.2578 9.39062 35.7734 9.39062C36.2839 9.39062 36.7318 9.48958 37.1172 9.6875C37.5026 9.88542 37.8307 10.1693 38.1016 10.5391C38.3724 10.9036 38.5885 11.3411 38.75 11.8516C38.9115 12.3568 39.026 12.9193 39.0938 13.5391V14.0625C39.026 14.6667 38.9115 15.2188 38.75 15.7188C38.5885 16.2188 38.3724 16.651 38.1016 17.0156C37.8307 17.3802 37.5 17.6615 37.1094 17.8594C36.724 18.0573 36.2734 18.1562 35.7578 18.1562C35.2474 18.1562 34.7865 18.0495 34.375 17.8359C33.9688 17.6224 33.6224 17.3229 33.3359 16.9375C33.0495 16.5521 32.8307 16.099 32.6797 15.5781C32.5286 15.0521 32.4531 14.4818 32.4531 13.8672ZM34.3359 13.7031V13.8672C34.3359 14.2526 34.3698 14.612 34.4375 14.9453C34.5104 15.2786 34.6224 15.5729 34.7734 15.8281C34.9245 16.0781 35.1198 16.276 35.3594 16.4219C35.6042 16.5625 35.8958 16.6328 36.2344 16.6328C36.6615 16.6328 37.013 16.5391 37.2891 16.3516C37.5651 16.1641 37.7812 15.9115 37.9375 15.5938C38.099 15.2708 38.2083 14.9115 38.2656 14.5156V13.1016C38.2344 12.7943 38.1693 12.5078 38.0703 12.2422C37.9766 11.9766 37.849 11.7448 37.6875 11.5469C37.526 11.3438 37.3255 11.1875 37.0859 11.0781C36.8516 10.9635 36.5729 10.9062 36.25 10.9062C35.9062 10.9062 35.6146 10.9792 35.375 11.125C35.1354 11.2708 34.9375 11.4714 34.7812 11.7266C34.6302 11.9818 34.5182 12.2786 34.4453 12.6172C34.3724 12.9557 34.3359 13.3177 34.3359 13.7031ZM45.5391 18.1562C44.9141 18.1562 44.349 18.0547 43.8438 17.8516C43.3438 17.6432 42.9167 17.3542 42.5625 16.9844C42.2135 16.6146 41.9453 16.1797 41.7578 15.6797C41.5703 15.1797 41.4766 14.6406 41.4766 14.0625V13.75C41.4766 13.0885 41.5729 12.4896 41.7656 11.9531C41.9583 11.4167 42.2266 10.9583 42.5703 10.5781C42.9141 10.1927 43.3203 9.89844 43.7891 9.69531C44.2578 9.49219 44.7656 9.39062 45.3125 9.39062C45.9167 9.39062 46.4453 9.49219 46.8984 9.69531C47.3516 9.89844 47.7266 10.1849 48.0234 10.5547C48.3255 10.9193 48.5495 11.3542 48.6953 11.8594C48.8464 12.3646 48.9219 12.9219 48.9219 13.5312V14.3359H42.3906V12.9844H47.0625V12.8359C47.0521 12.4974 46.9844 12.1797 46.8594 11.8828C46.7396 11.5859 46.5547 11.3464 46.3047 11.1641C46.0547 10.9818 45.7214 10.8906 45.3047 10.8906C44.9922 10.8906 44.7135 10.9583 44.4688 11.0938C44.2292 11.224 44.0286 11.4141 43.8672 11.6641C43.7057 11.9141 43.5807 12.2161 43.4922 12.5703C43.4089 12.9193 43.3672 13.3125 43.3672 13.75V14.0625C43.3672 14.4323 43.4167 14.776 43.5156 15.0938C43.6198 15.4062 43.7708 15.6797 43.9688 15.9141C44.1667 16.1484 44.4062 16.3333 44.6875 16.4688C44.9688 16.599 45.2891 16.6641 45.6484 16.6641C46.1016 16.6641 46.5052 16.5729 46.8594 16.3906C47.2135 16.2083 47.5208 15.9505 47.7812 15.6172L48.7734 16.5781C48.5911 16.8438 48.3542 17.099 48.0625 17.3438C47.7708 17.5833 47.4141 17.7786 46.9922 17.9297C46.5755 18.0807 46.0911 18.1562 45.5391 18.1562ZM52.2812 11.1562V18H50.3984V9.54688H52.1953L52.2812 11.1562ZM54.8672 9.49219L54.8516 11.2422C54.737 11.2214 54.612 11.2057 54.4766 11.1953C54.3464 11.1849 54.2161 11.1797 54.0859 11.1797C53.763 11.1797 53.4792 11.2266 53.2344 11.3203C52.9896 11.4089 52.7839 11.5391 52.6172 11.7109C52.4557 11.8776 52.3307 12.0807 52.2422 12.3203C52.1536 12.5599 52.1016 12.8281 52.0859 13.125L51.6562 13.1562C51.6562 12.625 51.7083 12.1328 51.8125 11.6797C51.9167 11.2266 52.0729 10.8281 52.2812 10.4844C52.4948 10.1406 52.7604 9.8724 53.0781 9.67969C53.401 9.48698 53.7734 9.39062 54.1953 9.39062C54.3099 9.39062 54.4323 9.40104 54.5625 9.42188C54.6979 9.44271 54.7995 9.46615 54.8672 9.49219ZM63.0703 15.4453L65.3359 6.625H66.5234L66.3906 8.89844L63.9688 18H62.7344L63.0703 15.4453ZM61.375 6.625L63.2109 15.375L63.375 18H62.0625L59.4297 6.625H61.375ZM69.0938 15.3516L70.9062 6.625H72.8594L70.2266 18H68.9141L69.0938 15.3516ZM66.9844 6.625L69.2266 15.4688L69.5547 18H68.3203L65.9375 8.89844L65.8125 6.625H66.9844ZM73.5156 13.8672V13.6875C73.5156 13.0781 73.6042 12.513 73.7812 11.9922C73.9583 11.4661 74.2135 11.0104 74.5469 10.625C74.8854 10.2344 75.2969 9.93229 75.7812 9.71875C76.2708 9.5 76.8229 9.39062 77.4375 9.39062C78.0573 9.39062 78.6094 9.5 79.0938 9.71875C79.5833 9.93229 79.9974 10.2344 80.3359 10.625C80.6745 11.0104 80.9323 11.4661 81.1094 11.9922C81.2865 12.513 81.375 13.0781 81.375 13.6875V13.8672C81.375 14.4766 81.2865 15.0417 81.1094 15.5625C80.9323 16.0833 80.6745 16.5391 80.3359 16.9297C79.9974 17.3151 79.5859 17.6172 79.1016 17.8359C78.6172 18.0495 78.0677 18.1562 77.4531 18.1562C76.8333 18.1562 76.2786 18.0495 75.7891 17.8359C75.3047 17.6172 74.8932 17.3151 74.5547 16.9297C74.2161 16.5391 73.9583 16.0833 73.7812 15.5625C73.6042 15.0417 73.5156 14.4766 73.5156 13.8672ZM75.3984 13.6875V13.8672C75.3984 14.2474 75.4375 14.6068 75.5156 14.9453C75.5938 15.2839 75.7161 15.5807 75.8828 15.8359C76.0495 16.0911 76.263 16.2917 76.5234 16.4375C76.7839 16.5833 77.0938 16.6562 77.4531 16.6562C77.8021 16.6562 78.1042 16.5833 78.3594 16.4375C78.6198 16.2917 78.8333 16.0911 79 15.8359C79.1667 15.5807 79.2891 15.2839 79.3672 14.9453C79.4505 14.6068 79.4922 14.2474 79.4922 13.8672V13.6875C79.4922 13.3125 79.4505 12.9583 79.3672 12.625C79.2891 12.2865 79.1641 11.987 78.9922 11.7266C78.8255 11.4661 78.612 11.263 78.3516 11.1172C78.0964 10.9661 77.7917 10.8906 77.4375 10.8906C77.0833 10.8906 76.776 10.9661 76.5156 11.1172C76.2604 11.263 76.0495 11.4661 75.8828 11.7266C75.7161 11.987 75.5938 12.2865 75.5156 12.625C75.4375 12.9583 75.3984 13.3125 75.3984 13.6875ZM84.8359 11.2656V18H82.9531V9.54688H84.7266L84.8359 11.2656ZM84.5312 13.4609L83.8906 13.4531C83.8906 12.8698 83.9635 12.3307 84.1094 11.8359C84.2552 11.3411 84.4688 10.9115 84.75 10.5469C85.0312 10.1771 85.3802 9.89323 85.7969 9.69531C86.2188 9.49219 86.7057 9.39062 87.2578 9.39062C87.6432 9.39062 87.9948 9.44792 88.3125 9.5625C88.6354 9.67188 88.9141 9.84635 89.1484 10.0859C89.388 10.3255 89.5703 10.6328 89.6953 11.0078C89.8255 11.3828 89.8906 11.8359 89.8906 12.3672V18H88.0078V12.5312C88.0078 12.1198 87.9453 11.7969 87.8203 11.5625C87.7005 11.3281 87.526 11.1615 87.2969 11.0625C87.0729 10.9583 86.8047 10.9062 86.4922 10.9062C86.138 10.9062 85.8359 10.974 85.5859 11.1094C85.3411 11.2448 85.1406 11.4297 84.9844 11.6641C84.8281 11.8984 84.7135 12.1693 84.6406 12.4766C84.5677 12.7839 84.5312 13.112 84.5312 13.4609ZM89.7734 12.9609L88.8906 13.1562C88.8906 12.6458 88.9609 12.1641 89.1016 11.7109C89.2474 11.2526 89.4583 10.8516 89.7344 10.5078C90.0156 10.1589 90.362 9.88542 90.7734 9.6875C91.1849 9.48958 91.6562 9.39062 92.1875 9.39062C92.6198 9.39062 93.0052 9.45052 93.3438 9.57031C93.6875 9.6849 93.9792 9.86719 94.2188 10.1172C94.4583 10.3672 94.6406 10.6927 94.7656 11.0938C94.8906 11.4896 94.9531 11.9688 94.9531 12.5312V18H93.0625V12.5234C93.0625 12.0964 93 11.7656 92.875 11.5312C92.7552 11.2969 92.5833 11.1354 92.3594 11.0469C92.1354 10.9531 91.8672 10.9062 91.5547 10.9062C91.263 10.9062 91.0052 10.9609 90.7812 11.0703C90.5625 11.1745 90.3776 11.3229 90.2266 11.5156C90.0755 11.7031 89.9609 11.9193 89.8828 12.1641C89.8099 12.4089 89.7734 12.6745 89.7734 12.9609ZM101.656 16.3047V12.2734C101.656 11.9714 101.602 11.7109 101.492 11.4922C101.383 11.2734 101.216 11.1042 100.992 10.9844C100.773 10.8646 100.497 10.8047 100.164 10.8047C99.8568 10.8047 99.5911 10.8568 99.3672 10.9609C99.1432 11.0651 98.9688 11.2057 98.8438 11.3828C98.7188 11.5599 98.6562 11.7604 98.6562 11.9844H96.7812C96.7812 11.651 96.862 11.3281 97.0234 11.0156C97.1849 10.7031 97.4193 10.4245 97.7266 10.1797C98.0339 9.9349 98.401 9.74219 98.8281 9.60156C99.2552 9.46094 99.7344 9.39062 100.266 9.39062C100.901 9.39062 101.464 9.4974 101.953 9.71094C102.448 9.92448 102.836 10.2474 103.117 10.6797C103.404 11.1068 103.547 11.6432 103.547 12.2891V16.0469C103.547 16.4323 103.573 16.7786 103.625 17.0859C103.682 17.388 103.763 17.651 103.867 17.875V18H101.938C101.849 17.7969 101.779 17.5391 101.727 17.2266C101.68 16.9089 101.656 16.6016 101.656 16.3047ZM101.93 12.8594L101.945 14.0234H100.594C100.245 14.0234 99.9375 14.0573 99.6719 14.125C99.4062 14.1875 99.1849 14.2812 99.0078 14.4062C98.8307 14.5312 98.6979 14.6823 98.6094 14.8594C98.5208 15.0365 98.4766 15.237 98.4766 15.4609C98.4766 15.6849 98.5286 15.8906 98.6328 16.0781C98.737 16.2604 98.888 16.4036 99.0859 16.5078C99.2891 16.612 99.5339 16.6641 99.8203 16.6641C100.206 16.6641 100.542 16.5859 100.828 16.4297C101.12 16.2682 101.349 16.0729 101.516 15.8438C101.682 15.6094 101.771 15.388 101.781 15.1797L102.391 16.0156C102.328 16.2292 102.221 16.4583 102.07 16.7031C101.919 16.9479 101.721 17.1823 101.477 17.4062C101.237 17.625 100.948 17.8047 100.609 17.9453C100.276 18.0859 99.8906 18.1562 99.4531 18.1562C98.901 18.1562 98.4089 18.0469 97.9766 17.8281C97.5443 17.6042 97.2057 17.3047 96.9609 16.9297C96.7161 16.5495 96.5938 16.1198 96.5938 15.6406C96.5938 15.1927 96.6771 14.7969 96.8438 14.4531C97.0156 14.1042 97.2656 13.8125 97.5938 13.5781C97.9271 13.3438 98.3333 13.1667 98.8125 13.0469C99.2917 12.9219 99.8385 12.8594 100.453 12.8594H101.93ZM107.383 11.3516V18H105.5V9.54688H107.273L107.383 11.3516ZM107.047 13.4609L106.438 13.4531C106.443 12.8542 106.526 12.3047 106.688 11.8047C106.854 11.3047 107.083 10.875 107.375 10.5156C107.672 10.1562 108.026 9.88021 108.438 9.6875C108.849 9.48958 109.307 9.39062 109.812 9.39062C110.219 9.39062 110.586 9.44792 110.914 9.5625C111.247 9.67188 111.531 9.85156 111.766 10.1016C112.005 10.3516 112.188 10.6771 112.312 11.0781C112.438 11.474 112.5 11.9609 112.5 12.5391V18H110.609V12.5312C110.609 12.125 110.549 11.8047 110.43 11.5703C110.315 11.3307 110.146 11.1615 109.922 11.0625C109.703 10.9583 109.43 10.9062 109.102 10.9062C108.779 10.9062 108.49 10.974 108.234 11.1094C107.979 11.2448 107.763 11.4297 107.586 11.6641C107.414 11.8984 107.281 12.1693 107.188 12.4766C107.094 12.7839 107.047 13.112 107.047 13.4609Z" fill="#080707"/>
<path d="M2.22852 32.1826V38H0.963867V30.6035H2.16016L2.22852 32.1826ZM1.92773 34.0215L1.40137 34.001C1.40592 33.4951 1.48112 33.028 1.62695 32.5996C1.77279 32.1667 1.97786 31.7907 2.24219 31.4717C2.50651 31.1527 2.82096 30.9066 3.18555 30.7334C3.55469 30.5557 3.96257 30.4668 4.40918 30.4668C4.77376 30.4668 5.10189 30.5169 5.39355 30.6172C5.68522 30.7129 5.93359 30.8678 6.13867 31.082C6.34831 31.2962 6.50781 31.5742 6.61719 31.916C6.72656 32.2533 6.78125 32.6657 6.78125 33.1533V38H5.50977V33.1396C5.50977 32.7523 5.4528 32.4424 5.33887 32.21C5.22493 31.973 5.05859 31.8021 4.83984 31.6973C4.62109 31.5879 4.35221 31.5332 4.0332 31.5332C3.71875 31.5332 3.43164 31.5993 3.17188 31.7314C2.91667 31.8636 2.69564 32.0459 2.50879 32.2783C2.3265 32.5107 2.18294 32.7773 2.07812 33.0781C1.97786 33.3743 1.92773 33.6888 1.92773 34.0215ZM13.0635 36.7354V32.9277C13.0635 32.6361 13.0042 32.3831 12.8857 32.1689C12.7718 31.9502 12.5986 31.7816 12.3662 31.6631C12.1338 31.5446 11.8467 31.4854 11.5049 31.4854C11.1859 31.4854 10.9056 31.54 10.6641 31.6494C10.4271 31.7588 10.2402 31.9023 10.1035 32.0801C9.97135 32.2578 9.90527 32.4492 9.90527 32.6543H8.64062C8.64062 32.39 8.70898 32.1279 8.8457 31.8682C8.98242 31.6084 9.17839 31.3737 9.43359 31.1641C9.69336 30.9499 10.0033 30.7812 10.3633 30.6582C10.7279 30.5306 11.1335 30.4668 11.5801 30.4668C12.1178 30.4668 12.5918 30.5579 13.002 30.7402C13.4167 30.9225 13.7402 31.1982 13.9727 31.5674C14.2096 31.932 14.3281 32.39 14.3281 32.9414V36.3867C14.3281 36.6328 14.3486 36.8949 14.3896 37.1729C14.4352 37.4508 14.5013 37.6901 14.5879 37.8906V38H13.2686C13.2048 37.8542 13.1546 37.6605 13.1182 37.4189C13.0817 37.1729 13.0635 36.945 13.0635 36.7354ZM13.2822 33.5156L13.2959 34.4043H12.0176C11.6576 34.4043 11.3363 34.4339 11.0537 34.4932C10.7712 34.5479 10.5342 34.6322 10.3428 34.7461C10.1514 34.86 10.0055 35.0036 9.90527 35.1768C9.80501 35.3454 9.75488 35.5436 9.75488 35.7715C9.75488 36.0039 9.80729 36.2158 9.91211 36.4072C10.0169 36.5986 10.1742 36.7513 10.3838 36.8652C10.598 36.9746 10.86 37.0293 11.1699 37.0293C11.5573 37.0293 11.8991 36.9473 12.1953 36.7832C12.4915 36.6191 12.7262 36.4186 12.8994 36.1816C13.0771 35.9447 13.1729 35.7145 13.1865 35.4912L13.7266 36.0996C13.6947 36.291 13.6081 36.5029 13.4668 36.7354C13.3255 36.9678 13.1364 37.1911 12.8994 37.4053C12.667 37.6149 12.389 37.7904 12.0654 37.9316C11.7464 38.0684 11.3864 38.1367 10.9854 38.1367C10.484 38.1367 10.0443 38.0387 9.66602 37.8428C9.29232 37.6468 9.00065 37.3848 8.79102 37.0566C8.58594 36.724 8.4834 36.3525 8.4834 35.9424C8.4834 35.5459 8.56087 35.1973 8.71582 34.8965C8.87077 34.5911 9.09408 34.3382 9.38574 34.1377C9.67741 33.9326 10.0283 33.7777 10.4385 33.6729C10.8486 33.568 11.3066 33.5156 11.8125 33.5156H13.2822ZM18.2861 37.2344L20.3438 30.6035H21.6973L18.7305 39.1416C18.6621 39.3239 18.571 39.5199 18.457 39.7295C18.3477 39.9437 18.2064 40.1465 18.0332 40.3379C17.86 40.5293 17.6504 40.6842 17.4043 40.8027C17.1628 40.9258 16.8734 40.9873 16.5361 40.9873C16.4359 40.9873 16.3083 40.9736 16.1533 40.9463C15.9984 40.9189 15.889 40.8962 15.8252 40.8779L15.8184 39.8525C15.8548 39.8571 15.9118 39.8617 15.9893 39.8662C16.0713 39.8753 16.1283 39.8799 16.1602 39.8799C16.4473 39.8799 16.6911 39.8411 16.8916 39.7637C17.0921 39.6908 17.2607 39.5654 17.3975 39.3877C17.5387 39.2145 17.6595 38.9753 17.7598 38.6699L18.2861 37.2344ZM16.7754 30.6035L18.6963 36.3457L19.0244 37.6787L18.1152 38.1436L15.3945 30.6035H16.7754ZM29.3809 38.1367C28.8659 38.1367 28.3988 38.0501 27.9795 37.877C27.5648 37.6992 27.207 37.4508 26.9062 37.1318C26.61 36.8128 26.3822 36.4346 26.2227 35.9971C26.0632 35.5596 25.9834 35.0811 25.9834 34.5615V34.2744C25.9834 33.6729 26.0723 33.1374 26.25 32.668C26.4277 32.194 26.6693 31.793 26.9746 31.4648C27.2799 31.1367 27.6263 30.8883 28.0137 30.7197C28.401 30.5511 28.8021 30.4668 29.2168 30.4668C29.7454 30.4668 30.2012 30.5579 30.584 30.7402C30.9714 30.9225 31.2881 31.1777 31.5342 31.5059C31.7803 31.8294 31.9626 32.2122 32.0811 32.6543C32.1995 33.0918 32.2588 33.5703 32.2588 34.0898V34.6572H26.7354V33.625H30.9941V33.5293C30.9759 33.2012 30.9076 32.8822 30.7891 32.5723C30.6751 32.2624 30.4928 32.0072 30.2422 31.8066C29.9915 31.6061 29.6497 31.5059 29.2168 31.5059C28.9297 31.5059 28.6654 31.5674 28.4238 31.6904C28.1823 31.8089 27.9749 31.9867 27.8018 32.2236C27.6286 32.4606 27.4941 32.75 27.3984 33.0918C27.3027 33.4336 27.2549 33.8278 27.2549 34.2744V34.5615C27.2549 34.9124 27.3027 35.2428 27.3984 35.5527C27.4987 35.8581 27.6423 36.127 27.8291 36.3594C28.0205 36.5918 28.2507 36.7741 28.5195 36.9062C28.793 37.0384 29.1029 37.1045 29.4492 37.1045C29.8958 37.1045 30.2741 37.0133 30.584 36.8311C30.8939 36.6488 31.165 36.4049 31.3975 36.0996L32.1631 36.708C32.0036 36.9495 31.8008 37.1797 31.5547 37.3984C31.3086 37.6172 31.0055 37.7949 30.6455 37.9316C30.29 38.0684 29.8685 38.1367 29.3809 38.1367ZM34.9932 32.0732V38H33.7217V30.6035H34.9248L34.9932 32.0732ZM34.7334 34.0215L34.1455 34.001C34.1501 33.4951 34.2161 33.028 34.3438 32.5996C34.4714 32.1667 34.6605 31.7907 34.9111 31.4717C35.1618 31.1527 35.474 30.9066 35.8477 30.7334C36.2214 30.5557 36.6543 30.4668 37.1465 30.4668C37.4928 30.4668 37.8118 30.5169 38.1035 30.6172C38.3952 30.7129 38.6481 30.8656 38.8623 31.0752C39.0765 31.2848 39.2428 31.5537 39.3613 31.8818C39.4798 32.21 39.5391 32.6064 39.5391 33.0713V38H38.2744V33.1328C38.2744 32.7454 38.2083 32.4355 38.0762 32.2031C37.9486 31.9707 37.7663 31.8021 37.5293 31.6973C37.2923 31.5879 37.0143 31.5332 36.6953 31.5332C36.3216 31.5332 36.0094 31.5993 35.7588 31.7314C35.5081 31.8636 35.3076 32.0459 35.1572 32.2783C35.0068 32.5107 34.8975 32.7773 34.8291 33.0781C34.7653 33.3743 34.7334 33.6888 34.7334 34.0215ZM39.5254 33.3242L38.6777 33.584C38.6823 33.1784 38.7484 32.7887 38.876 32.415C39.0081 32.0413 39.1973 31.7087 39.4434 31.417C39.694 31.1253 40.0016 30.8952 40.3662 30.7266C40.7308 30.5534 41.1478 30.4668 41.6172 30.4668C42.0137 30.4668 42.3646 30.5192 42.6699 30.624C42.9798 30.7288 43.2396 30.8906 43.4492 31.1094C43.6634 31.3236 43.8252 31.5993 43.9346 31.9365C44.0439 32.2738 44.0986 32.6748 44.0986 33.1396V38H42.8271V33.126C42.8271 32.7113 42.7611 32.39 42.6289 32.1621C42.5013 31.9297 42.319 31.7679 42.082 31.6768C41.8496 31.5811 41.5716 31.5332 41.248 31.5332C40.9701 31.5332 40.724 31.5811 40.5098 31.6768C40.2956 31.7725 40.1156 31.9046 39.9697 32.0732C39.8239 32.2373 39.7122 32.4264 39.6348 32.6406C39.5618 32.8548 39.5254 33.0827 39.5254 33.3242ZM49.4785 27.5H50.75V36.5645L50.6406 38H49.4785V27.5ZM55.7471 34.2402V34.3838C55.7471 34.9215 55.6833 35.4206 55.5557 35.8809C55.4281 36.3366 55.2412 36.7331 54.9951 37.0703C54.749 37.4076 54.4482 37.6696 54.0928 37.8564C53.7373 38.0433 53.3294 38.1367 52.8691 38.1367C52.3997 38.1367 51.9873 38.057 51.6318 37.8975C51.2809 37.7334 50.9847 37.4987 50.7432 37.1934C50.5016 36.888 50.3079 36.5189 50.1621 36.0859C50.0208 35.653 49.9229 35.1654 49.8682 34.623V33.9941C49.9229 33.4473 50.0208 32.9574 50.1621 32.5244C50.3079 32.0915 50.5016 31.7223 50.7432 31.417C50.9847 31.1071 51.2809 30.8724 51.6318 30.7129C51.9827 30.5488 52.3906 30.4668 52.8555 30.4668C53.3203 30.4668 53.7327 30.5579 54.0928 30.7402C54.4528 30.918 54.7536 31.1732 54.9951 31.5059C55.2412 31.8385 55.4281 32.2373 55.5557 32.7021C55.6833 33.1624 55.7471 33.6751 55.7471 34.2402ZM54.4756 34.3838V34.2402C54.4756 33.8711 54.4414 33.5247 54.373 33.2012C54.3047 32.873 54.1953 32.5859 54.0449 32.3398C53.8945 32.0892 53.6963 31.8932 53.4502 31.752C53.2041 31.6061 52.901 31.5332 52.541 31.5332C52.222 31.5332 51.944 31.5879 51.707 31.6973C51.4746 31.8066 51.2764 31.9548 51.1123 32.1416C50.9482 32.3239 50.8138 32.5335 50.709 32.7705C50.6087 33.0029 50.5335 33.2445 50.4834 33.4951V35.1426C50.5563 35.4616 50.6748 35.7692 50.8389 36.0654C51.0075 36.3571 51.2308 36.5964 51.5088 36.7832C51.7913 36.9701 52.14 37.0635 52.5547 37.0635C52.8965 37.0635 53.1882 36.9951 53.4297 36.8584C53.6758 36.7171 53.874 36.5234 54.0244 36.2773C54.1794 36.0312 54.2933 35.7464 54.3662 35.4229C54.4391 35.0993 54.4756 34.7529 54.4756 34.3838ZM61.708 36.7354V32.9277C61.708 32.6361 61.6488 32.3831 61.5303 32.1689C61.4163 31.9502 61.2432 31.7816 61.0107 31.6631C60.7783 31.5446 60.4912 31.4854 60.1494 31.4854C59.8304 31.4854 59.5501 31.54 59.3086 31.6494C59.0716 31.7588 58.8848 31.9023 58.748 32.0801C58.6159 32.2578 58.5498 32.4492 58.5498 32.6543H57.2852C57.2852 32.39 57.3535 32.1279 57.4902 31.8682C57.627 31.6084 57.8229 31.3737 58.0781 31.1641C58.3379 30.9499 58.6478 30.7812 59.0078 30.6582C59.3724 30.5306 59.778 30.4668 60.2246 30.4668C60.7624 30.4668 61.2363 30.5579 61.6465 30.7402C62.0612 30.9225 62.3848 31.1982 62.6172 31.5674C62.8542 31.932 62.9727 32.39 62.9727 32.9414V36.3867C62.9727 36.6328 62.9932 36.8949 63.0342 37.1729C63.0798 37.4508 63.1458 37.6901 63.2324 37.8906V38H61.9131C61.8493 37.8542 61.7992 37.6605 61.7627 37.4189C61.7262 37.1729 61.708 36.945 61.708 36.7354ZM61.9268 33.5156L61.9404 34.4043H60.6621C60.3021 34.4043 59.9808 34.4339 59.6982 34.4932C59.4157 34.5479 59.1787 34.6322 58.9873 34.7461C58.7959 34.86 58.6501 35.0036 58.5498 35.1768C58.4495 35.3454 58.3994 35.5436 58.3994 35.7715C58.3994 36.0039 58.4518 36.2158 58.5566 36.4072C58.6615 36.5986 58.8187 36.7513 59.0283 36.8652C59.2425 36.9746 59.5046 37.0293 59.8145 37.0293C60.2018 37.0293 60.5436 36.9473 60.8398 36.7832C61.1361 36.6191 61.3708 36.4186 61.5439 36.1816C61.7217 35.9447 61.8174 35.7145 61.8311 35.4912L62.3711 36.0996C62.3392 36.291 62.2526 36.5029 62.1113 36.7354C61.9701 36.9678 61.7809 37.1911 61.5439 37.4053C61.3115 37.6149 61.0335 37.7904 60.71 37.9316C60.391 38.0684 60.0309 38.1367 59.6299 38.1367C59.1286 38.1367 58.6888 38.0387 58.3105 37.8428C57.9368 37.6468 57.6452 37.3848 57.4355 37.0566C57.2305 36.724 57.1279 36.3525 57.1279 35.9424C57.1279 35.5459 57.2054 35.1973 57.3604 34.8965C57.5153 34.5911 57.7386 34.3382 58.0303 34.1377C58.3219 33.9326 58.6729 33.7777 59.083 33.6729C59.4932 33.568 59.9512 33.5156 60.457 33.5156H61.9268ZM60.7441 27.5L62.4395 29.3662V29.4346H61.3867L60.3613 28.2793L59.3428 29.4346H58.3037V29.3594L59.9785 27.5H60.7441ZM59.0283 39.6816C59.0283 39.4766 59.0898 39.3034 59.2129 39.1621C59.3405 39.0208 59.5273 38.9502 59.7734 38.9502C60.015 38.9502 60.1995 39.0208 60.3271 39.1621C60.4593 39.3034 60.5254 39.4766 60.5254 39.6816C60.5254 39.8776 60.4593 40.0439 60.3271 40.1807C60.1995 40.3219 60.015 40.3926 59.7734 40.3926C59.5273 40.3926 59.3405 40.3219 59.2129 40.1807C59.0898 40.0439 59.0283 39.8776 59.0283 39.6816ZM66.2266 32.1826V38H64.9619V30.6035H66.1582L66.2266 32.1826ZM65.9258 34.0215L65.3994 34.001C65.404 33.4951 65.4792 33.028 65.625 32.5996C65.7708 32.1667 65.9759 31.7907 66.2402 31.4717C66.5046 31.1527 66.819 30.9066 67.1836 30.7334C67.5527 30.5557 67.9606 30.4668 68.4072 30.4668C68.7718 30.4668 69.0999 30.5169 69.3916 30.6172C69.6833 30.7129 69.9316 30.8678 70.1367 31.082C70.3464 31.2962 70.5059 31.5742 70.6152 31.916C70.7246 32.2533 70.7793 32.6657 70.7793 33.1533V38H69.5078V33.1396C69.5078 32.7523 69.4508 32.4424 69.3369 32.21C69.223 31.973 69.0566 31.8021 68.8379 31.6973C68.6191 31.5879 68.3503 31.5332 68.0312 31.5332C67.7168 31.5332 67.4297 31.5993 67.1699 31.7314C66.9147 31.8636 66.6937 32.0459 66.5068 32.2783C66.3245 32.5107 66.181 32.7773 66.0762 33.0781C65.9759 33.3743 65.9258 33.6888 65.9258 34.0215ZM77.4375 31.7656V38H76.1729V30.6035H77.4033L77.4375 31.7656ZM79.748 30.5625L79.7412 31.7383C79.6364 31.7155 79.5361 31.7018 79.4404 31.6973C79.3493 31.6882 79.2445 31.6836 79.126 31.6836C78.8343 31.6836 78.5768 31.7292 78.3535 31.8203C78.1302 31.9115 77.9411 32.0391 77.7861 32.2031C77.6312 32.3672 77.5081 32.5632 77.417 32.791C77.3304 33.0143 77.2734 33.2604 77.2461 33.5293L76.8906 33.7344C76.8906 33.2878 76.9339 32.8685 77.0205 32.4766C77.1117 32.0846 77.2507 31.7383 77.4375 31.4375C77.6243 31.1322 77.8613 30.8952 78.1484 30.7266C78.4401 30.5534 78.7865 30.4668 79.1875 30.4668C79.2786 30.4668 79.3835 30.4782 79.502 30.501C79.6204 30.5192 79.7025 30.5397 79.748 30.5625ZM80.4453 34.3838V34.2266C80.4453 33.6934 80.5228 33.1989 80.6777 32.7432C80.8327 32.2829 81.056 31.8841 81.3477 31.5469C81.6393 31.2051 81.9925 30.9408 82.4072 30.7539C82.8219 30.5625 83.2868 30.4668 83.8018 30.4668C84.3213 30.4668 84.7884 30.5625 85.2031 30.7539C85.6224 30.9408 85.9779 31.2051 86.2695 31.5469C86.5658 31.8841 86.7913 32.2829 86.9463 32.7432C87.1012 33.1989 87.1787 33.6934 87.1787 34.2266V34.3838C87.1787 34.917 87.1012 35.4115 86.9463 35.8672C86.7913 36.3229 86.5658 36.7217 86.2695 37.0635C85.9779 37.4007 85.6247 37.665 85.21 37.8564C84.7998 38.0433 84.335 38.1367 83.8154 38.1367C83.2959 38.1367 82.8288 38.0433 82.4141 37.8564C81.9993 37.665 81.6439 37.4007 81.3477 37.0635C81.056 36.7217 80.8327 36.3229 80.6777 35.8672C80.5228 35.4115 80.4453 34.917 80.4453 34.3838ZM81.71 34.2266V34.3838C81.71 34.7529 81.7533 35.1016 81.8398 35.4297C81.9264 35.7533 82.0563 36.0404 82.2295 36.291C82.4072 36.5417 82.6283 36.7399 82.8926 36.8857C83.1569 37.027 83.4645 37.0977 83.8154 37.0977C84.1618 37.0977 84.4648 37.027 84.7246 36.8857C84.9889 36.7399 85.2077 36.5417 85.3809 36.291C85.554 36.0404 85.6839 35.7533 85.7705 35.4297C85.8617 35.1016 85.9072 34.7529 85.9072 34.3838V34.2266C85.9072 33.862 85.8617 33.5179 85.7705 33.1943C85.6839 32.8662 85.5518 32.5768 85.374 32.3262C85.2008 32.071 84.9821 31.8704 84.7178 31.7246C84.458 31.5788 84.1527 31.5059 83.8018 31.5059C83.4554 31.5059 83.1501 31.5788 82.8857 31.7246C82.626 31.8704 82.4072 32.071 82.2295 32.3262C82.0563 32.5768 81.9264 32.8662 81.8398 33.1943C81.7533 33.5179 81.71 33.862 81.71 34.2266ZM84.2461 27.7461L86.2422 29.5439H84.8887L83.7266 28.457L82.5713 29.5439H81.2246L83.207 27.7461H84.2461ZM80.7598 26.5635L81.7305 28.3271H80.7666L79.3926 26.5635H80.7598ZM90.1387 30.6035V38H88.8672V30.6035H90.1387ZM88.7715 28.6416C88.7715 28.4365 88.833 28.2633 88.9561 28.1221C89.0837 27.9808 89.2705 27.9102 89.5166 27.9102C89.7581 27.9102 89.9427 27.9808 90.0703 28.1221C90.2025 28.2633 90.2686 28.4365 90.2686 28.6416C90.2686 28.8376 90.2025 29.0062 90.0703 29.1475C89.9427 29.2842 89.7581 29.3525 89.5166 29.3525C89.2705 29.3525 89.0837 29.2842 88.9561 29.1475C88.833 29.0062 88.7715 28.8376 88.7715 28.6416ZM100.003 36.7354V32.9277C100.003 32.6361 99.9437 32.3831 99.8252 32.1689C99.7113 31.9502 99.5381 31.7816 99.3057 31.6631C99.0732 31.5446 98.7861 31.4854 98.4443 31.4854C98.1253 31.4854 97.8451 31.54 97.6035 31.6494C97.3665 31.7588 97.1797 31.9023 97.043 32.0801C96.9108 32.2578 96.8447 32.4492 96.8447 32.6543H95.5801C95.5801 32.39 95.6484 32.1279 95.7852 31.8682C95.9219 31.6084 96.1178 31.3737 96.373 31.1641C96.6328 30.9499 96.9427 30.7812 97.3027 30.6582C97.6673 30.5306 98.0729 30.4668 98.5195 30.4668C99.0573 30.4668 99.5312 30.5579 99.9414 30.7402C100.356 30.9225 100.68 31.1982 100.912 31.5674C101.149 31.932 101.268 32.39 101.268 32.9414V36.3867C101.268 36.6328 101.288 36.8949 101.329 37.1729C101.375 37.4508 101.441 37.6901 101.527 37.8906V38H100.208C100.144 37.8542 100.094 37.6605 100.058 37.4189C100.021 37.1729 100.003 36.945 100.003 36.7354ZM100.222 33.5156L100.235 34.4043H98.957C98.597 34.4043 98.2757 34.4339 97.9932 34.4932C97.7106 34.5479 97.4736 34.6322 97.2822 34.7461C97.0908 34.86 96.945 35.0036 96.8447 35.1768C96.7445 35.3454 96.6943 35.5436 96.6943 35.7715C96.6943 36.0039 96.7467 36.2158 96.8516 36.4072C96.9564 36.5986 97.1136 36.7513 97.3232 36.8652C97.5374 36.9746 97.7995 37.0293 98.1094 37.0293C98.4967 37.0293 98.8385 36.9473 99.1348 36.7832C99.431 36.6191 99.6657 36.4186 99.8389 36.1816C100.017 35.9447 100.112 35.7145 100.126 35.4912L100.666 36.0996C100.634 36.291 100.548 36.5029 100.406 36.7354C100.265 36.9678 100.076 37.1911 99.8389 37.4053C99.6064 37.6149 99.3285 37.7904 99.0049 37.9316C98.6859 38.0684 98.3258 38.1367 97.9248 38.1367C97.4235 38.1367 96.9837 38.0387 96.6055 37.8428C96.2318 37.6468 95.9401 37.3848 95.7305 37.0566C95.5254 36.724 95.4229 36.3525 95.4229 35.9424C95.4229 35.5459 95.5003 35.1973 95.6553 34.8965C95.8102 34.5911 96.0335 34.3382 96.3252 34.1377C96.6169 33.9326 96.9678 33.7777 97.3779 33.6729C97.7881 33.568 98.2461 33.5156 98.752 33.5156H100.222ZM104.521 32.1826V38H103.257V30.6035H104.453L104.521 32.1826ZM104.221 34.0215L103.694 34.001C103.699 33.4951 103.774 33.028 103.92 32.5996C104.066 32.1667 104.271 31.7907 104.535 31.4717C104.799 31.1527 105.114 30.9066 105.479 30.7334C105.848 30.5557 106.256 30.4668 106.702 30.4668C107.067 30.4668 107.395 30.5169 107.687 30.6172C107.978 30.7129 108.227 30.8678 108.432 31.082C108.641 31.2962 108.801 31.5742 108.91 31.916C109.02 32.2533 109.074 32.6657 109.074 33.1533V38H107.803V33.1396C107.803 32.7523 107.746 32.4424 107.632 32.21C107.518 31.973 107.352 31.8021 107.133 31.6973C106.914 31.5879 106.645 31.5332 106.326 31.5332C106.012 31.5332 105.725 31.5993 105.465 31.7314C105.21 31.8636 104.989 32.0459 104.802 32.2783C104.619 32.5107 104.476 32.7773 104.371 33.0781C104.271 33.3743 104.221 33.6888 104.221 34.0215ZM112.26 27.5V38H110.995V27.5H112.26ZM111.959 34.0215L111.433 34.001C111.437 33.4951 111.512 33.028 111.658 32.5996C111.804 32.1667 112.009 31.7907 112.273 31.4717C112.538 31.1527 112.852 30.9066 113.217 30.7334C113.586 30.5557 113.994 30.4668 114.44 30.4668C114.805 30.4668 115.133 30.5169 115.425 30.6172C115.716 30.7129 115.965 30.8678 116.17 31.082C116.38 31.2962 116.539 31.5742 116.648 31.916C116.758 32.2533 116.812 32.6657 116.812 33.1533V38H115.541V33.1396C115.541 32.7523 115.484 32.4424 115.37 32.21C115.256 31.973 115.09 31.8021 114.871 31.6973C114.652 31.5879 114.383 31.5332 114.064 31.5332C113.75 31.5332 113.463 31.5993 113.203 31.7314C112.948 31.8636 112.727 32.0459 112.54 32.2783C112.358 32.5107 112.214 32.7773 112.109 33.0781C112.009 33.3743 111.959 33.6888 111.959 34.0215ZM128.468 29.79H129.486C129.486 30.2913 129.418 30.7243 129.281 31.0889C129.145 31.4489 128.917 31.7269 128.598 31.9229C128.279 32.1188 127.846 32.2168 127.299 32.2168V31.4238C127.641 31.4238 127.894 31.3555 128.058 31.2188C128.226 31.082 128.336 30.8906 128.386 30.6445C128.44 30.3984 128.468 30.1136 128.468 29.79ZM121.844 34.3838V34.2266C121.844 33.6934 121.921 33.1989 122.076 32.7432C122.231 32.2829 122.454 31.8841 122.746 31.5469C123.038 31.2051 123.391 30.9408 123.806 30.7539C124.22 30.5625 124.685 30.4668 125.2 30.4668C125.72 30.4668 126.187 30.5625 126.602 30.7539C127.021 30.9408 127.376 31.2051 127.668 31.5469C127.96 31.8841 128.183 32.2829 128.338 32.7432C128.493 33.1989 128.57 33.6934 128.57 34.2266V34.3838C128.57 34.917 128.493 35.4115 128.338 35.8672C128.183 36.3229 127.96 36.7217 127.668 37.0635C127.376 37.4007 127.023 37.665 126.608 37.8564C126.198 38.0433 125.733 38.1367 125.214 38.1367C124.694 38.1367 124.227 38.0433 123.812 37.8564C123.398 37.665 123.042 37.4007 122.746 37.0635C122.454 36.7217 122.231 36.3229 122.076 35.8672C121.921 35.4115 121.844 34.917 121.844 34.3838ZM123.108 34.2266V34.3838C123.108 34.7529 123.152 35.1016 123.238 35.4297C123.325 35.7533 123.455 36.0404 123.628 36.291C123.806 36.5417 124.027 36.7399 124.291 36.8857C124.555 37.027 124.863 37.0977 125.214 37.0977C125.56 37.0977 125.863 37.027 126.123 36.8857C126.387 36.7399 126.606 36.5417 126.779 36.291C126.952 36.0404 127.082 35.7533 127.169 35.4297C127.26 35.1016 127.306 34.7529 127.306 34.3838V34.2266C127.306 33.862 127.26 33.5179 127.169 33.1943C127.082 32.8662 126.95 32.5768 126.772 32.3262C126.599 32.071 126.381 31.8704 126.116 31.7246C125.856 31.5788 125.551 31.5059 125.2 31.5059C124.854 31.5059 124.549 31.5788 124.284 31.7246C124.024 31.8704 123.806 32.071 123.628 32.3262C123.455 32.5768 123.325 32.8662 123.238 33.1943C123.152 33.5179 123.108 33.862 123.108 34.2266ZM131.564 30.6035V38H130.293V30.6035H131.564ZM130.197 28.6416C130.197 28.4365 130.259 28.2633 130.382 28.1221C130.509 27.9808 130.696 27.9102 130.942 27.9102C131.184 27.9102 131.368 27.9808 131.496 28.1221C131.628 28.2633 131.694 28.4365 131.694 28.6416C131.694 28.8376 131.628 29.0062 131.496 29.1475C131.368 29.2842 131.184 29.3525 130.942 29.3525C130.696 29.3525 130.509 29.2842 130.382 29.1475C130.259 29.0062 130.197 28.8376 130.197 28.6416Z" fill="#747881"/>
<path d="M233.167 27.9922V38H231.902V29.5713L229.353 30.501V29.3594L232.969 27.9922H233.167ZM243.407 36.9609V38H236.893V37.0908L240.153 33.4609C240.554 33.0143 240.864 32.6361 241.083 32.3262C241.306 32.0117 241.461 31.7314 241.548 31.4854C241.639 31.2347 241.685 30.9795 241.685 30.7197C241.685 30.3916 241.616 30.0954 241.479 29.8311C241.347 29.5622 241.151 29.348 240.892 29.1885C240.632 29.029 240.317 28.9492 239.948 28.9492C239.506 28.9492 239.137 29.0358 238.841 29.209C238.549 29.3776 238.33 29.6146 238.185 29.9199C238.039 30.2253 237.966 30.5762 237.966 30.9727H236.701C236.701 30.4121 236.824 29.8994 237.07 29.4346C237.316 28.9697 237.681 28.6006 238.164 28.3271C238.647 28.0492 239.242 27.9102 239.948 27.9102C240.577 27.9102 241.115 28.0218 241.562 28.2451C242.008 28.4639 242.35 28.7738 242.587 29.1748C242.828 29.5713 242.949 30.0361 242.949 30.5693C242.949 30.861 242.899 31.1572 242.799 31.458C242.703 31.7542 242.569 32.0505 242.396 32.3467C242.227 32.6429 242.029 32.9346 241.801 33.2217C241.577 33.5088 241.338 33.7913 241.083 34.0693L238.417 36.9609H243.407ZM249.3 28.0469L245.15 38.8545H244.063L248.22 28.0469H249.3ZM257.065 36.9609V38H250.551V37.0908L253.812 33.4609C254.213 33.0143 254.522 32.6361 254.741 32.3262C254.965 32.0117 255.119 31.7314 255.206 31.4854C255.297 31.2347 255.343 30.9795 255.343 30.7197C255.343 30.3916 255.274 30.0954 255.138 29.8311C255.006 29.5622 254.81 29.348 254.55 29.1885C254.29 29.029 253.976 28.9492 253.606 28.9492C253.164 28.9492 252.795 29.0358 252.499 29.209C252.207 29.3776 251.989 29.6146 251.843 29.9199C251.697 30.2253 251.624 30.5762 251.624 30.9727H250.359C250.359 30.4121 250.482 29.8994 250.729 29.4346C250.975 28.9697 251.339 28.6006 251.822 28.3271C252.305 28.0492 252.9 27.9102 253.606 27.9102C254.235 27.9102 254.773 28.0218 255.22 28.2451C255.666 28.4639 256.008 28.7738 256.245 29.1748C256.487 29.5713 256.607 30.0361 256.607 30.5693C256.607 30.861 256.557 31.1572 256.457 31.458C256.361 31.7542 256.227 32.0505 256.054 32.3467C255.885 32.6429 255.687 32.9346 255.459 33.2217C255.236 33.5088 254.996 33.7913 254.741 34.0693L252.075 36.9609H257.065ZM264.94 36.9609V38H258.426V37.0908L261.687 33.4609C262.088 33.0143 262.397 32.6361 262.616 32.3262C262.84 32.0117 262.994 31.7314 263.081 31.4854C263.172 31.2347 263.218 30.9795 263.218 30.7197C263.218 30.3916 263.149 30.0954 263.013 29.8311C262.881 29.5622 262.685 29.348 262.425 29.1885C262.165 29.029 261.851 28.9492 261.481 28.9492C261.039 28.9492 260.67 29.0358 260.374 29.209C260.082 29.3776 259.864 29.6146 259.718 29.9199C259.572 30.2253 259.499 30.5762 259.499 30.9727H258.234C258.234 30.4121 258.357 29.8994 258.604 29.4346C258.85 28.9697 259.214 28.6006 259.697 28.3271C260.18 28.0492 260.775 27.9102 261.481 27.9102C262.11 27.9102 262.648 28.0218 263.095 28.2451C263.541 28.4639 263.883 28.7738 264.12 29.1748C264.362 29.5713 264.482 30.0361 264.482 30.5693C264.482 30.861 264.432 31.1572 264.332 31.458C264.236 31.7542 264.102 32.0505 263.929 32.3467C263.76 32.6429 263.562 32.9346 263.334 33.2217C263.111 33.5088 262.871 33.7913 262.616 34.0693L259.95 36.9609H264.94ZM270.833 28.0469L266.684 38.8545H265.597L269.753 28.0469H270.833ZM278.599 36.9609V38H272.084V37.0908L275.345 33.4609C275.746 33.0143 276.056 32.6361 276.274 32.3262C276.498 32.0117 276.653 31.7314 276.739 31.4854C276.83 31.2347 276.876 30.9795 276.876 30.7197C276.876 30.3916 276.808 30.0954 276.671 29.8311C276.539 29.5622 276.343 29.348 276.083 29.1885C275.823 29.029 275.509 28.9492 275.14 28.9492C274.698 28.9492 274.328 29.0358 274.032 29.209C273.741 29.3776 273.522 29.6146 273.376 29.9199C273.23 30.2253 273.157 30.5762 273.157 30.9727H271.893C271.893 30.4121 272.016 29.8994 272.262 29.4346C272.508 28.9697 272.872 28.6006 273.355 28.3271C273.839 28.0492 274.433 27.9102 275.14 27.9102C275.769 27.9102 276.306 28.0218 276.753 28.2451C277.2 28.4639 277.541 28.7738 277.778 29.1748C278.02 29.5713 278.141 30.0361 278.141 30.5693C278.141 30.861 278.09 31.1572 277.99 31.458C277.895 31.7542 277.76 32.0505 277.587 32.3467C277.418 32.6429 277.22 32.9346 276.992 33.2217C276.769 33.5088 276.53 33.7913 276.274 34.0693L273.608 36.9609H278.599ZM284.108 27.9922V38H282.844V29.5713L280.294 30.501V29.3594L283.91 27.9922H284.108Z" fill="#747881"/>
</svg>
