<svg width="287" height="44" viewBox="0 0 287 44" fill="none" xmlns="http://www.w3.org/2000/svg">
<path d="M8.60156 16.4453V18H2.5625V16.4453H8.60156ZM3.11719 6.625V18H1.15625V6.625H3.11719ZM7.8125 11.375V12.9062H2.5625V11.375H7.8125ZM8.5625 6.625V8.1875H2.5625V6.625H8.5625ZM12.0312 6V18H10.1406V6H12.0312ZM13.7344 13.8672V13.6875C13.7344 13.0781 13.8229 12.513 14 11.9922C14.1771 11.4661 14.4323 11.0104 14.7656 10.625C15.1042 10.2344 15.5156 9.93229 16 9.71875C16.4896 9.5 17.0417 9.39062 17.6562 9.39062C18.276 9.39062 18.8281 9.5 19.3125 9.71875C19.8021 9.93229 20.2161 10.2344 20.5547 10.625C20.8932 11.0104 21.151 11.4661 21.3281 11.9922C21.5052 12.513 21.5938 13.0781 21.5938 13.6875V13.8672C21.5938 14.4766 21.5052 15.0417 21.3281 15.5625C21.151 16.0833 20.8932 16.5391 20.5547 16.9297C20.2161 17.3151 19.8047 17.6172 19.3203 17.8359C18.8359 18.0495 18.2865 18.1562 17.6719 18.1562C17.0521 18.1562 16.4974 18.0495 16.0078 17.8359C15.5234 17.6172 15.112 17.3151 14.7734 16.9297C14.4349 16.5391 14.1771 16.0833 14 15.5625C13.8229 15.0417 13.7344 14.4766 13.7344 13.8672ZM15.6172 13.6875V13.8672C15.6172 14.2474 15.6562 14.6068 15.7344 14.9453C15.8125 15.2839 15.9349 15.5807 16.1016 15.8359C16.2682 16.0911 16.4818 16.2917 16.7422 16.4375C17.0026 16.5833 17.3125 16.6562 17.6719 16.6562C18.0208 16.6562 18.3229 16.5833 18.5781 16.4375C18.8385 16.2917 19.0521 16.0911 19.2188 15.8359C19.3854 15.5807 19.5078 15.2839 19.5859 14.9453C19.6693 14.6068 19.7109 14.2474 19.7109 13.8672V13.6875C19.7109 13.3125 19.6693 12.9583 19.5859 12.625C19.5078 12.2865 19.3828 11.987 19.2109 11.7266C19.0443 11.4661 18.8307 11.263 18.5703 11.1172C18.3151 10.9661 18.0104 10.8906 17.6562 10.8906C17.3021 10.8906 16.9948 10.9661 16.7344 11.1172C16.4792 11.263 16.2682 11.4661 16.1016 11.7266C15.9349 11.987 15.8125 12.2865 15.7344 12.625C15.6562 12.9583 15.6172 13.3125 15.6172 13.6875ZM25.0391 11.3516V18H23.1562V9.54688H24.9297L25.0391 11.3516ZM24.7031 13.4609L24.0938 13.4531C24.099 12.8542 24.1823 12.3047 24.3438 11.8047C24.5104 11.3047 24.7396 10.875 25.0312 10.5156C25.3281 10.1562 25.6823 9.88021 26.0938 9.6875C26.5052 9.48958 26.9635 9.39062 27.4688 9.39062C27.875 9.39062 28.2422 9.44792 28.5703 9.5625C28.9036 9.67188 29.1875 9.85156 29.4219 10.1016C29.6615 10.3516 29.8438 10.6771 29.9688 11.0781C30.0938 11.474 30.1562 11.9609 30.1562 12.5391V18H28.2656V12.5312C28.2656 12.125 28.2057 11.8047 28.0859 11.5703C27.9714 11.3307 27.8021 11.1615 27.5781 11.0625C27.3594 10.9583 27.0859 10.9062 26.7578 10.9062C26.4349 10.9062 26.1458 10.974 25.8906 11.1094C25.6354 11.2448 25.4193 11.4297 25.2422 11.6641C25.0703 11.8984 24.9375 12.1693 24.8438 12.4766C24.75 12.7839 24.7031 13.112 24.7031 13.4609ZM37.0469 6.625H38.7969L42.0859 15.3984L45.3672 6.625H47.1172L42.7734 18H41.3828L37.0469 6.625ZM36.25 6.625H37.9141L38.2031 14.2188V18H36.25V6.625ZM46.25 6.625H47.9219V18H45.9609V14.2188L46.25 6.625ZM55.1484 16.0078V9.54688H57.0391V18H55.2578L55.1484 16.0078ZM55.4141 14.25L56.0469 14.2344C56.0469 14.8021 55.9844 15.3255 55.8594 15.8047C55.7344 16.2786 55.5417 16.6927 55.2812 17.0469C55.0208 17.3958 54.6875 17.6693 54.2812 17.8672C53.875 18.0599 53.388 18.1562 52.8203 18.1562C52.4089 18.1562 52.0312 18.0964 51.6875 17.9766C51.3438 17.8568 51.0469 17.6719 50.7969 17.4219C50.5521 17.1719 50.362 16.8464 50.2266 16.4453C50.0911 16.0443 50.0234 15.5651 50.0234 15.0078V9.54688H51.9062V15.0234C51.9062 15.3307 51.9427 15.5885 52.0156 15.7969C52.0885 16 52.1875 16.1641 52.3125 16.2891C52.4375 16.4141 52.5833 16.5026 52.75 16.5547C52.9167 16.6068 53.0938 16.6328 53.2812 16.6328C53.8177 16.6328 54.2396 16.5286 54.5469 16.3203C54.8594 16.1068 55.0807 15.8203 55.2109 15.4609C55.3464 15.1016 55.4141 14.6979 55.4141 14.25ZM63.7109 15.7109C63.7109 15.5234 63.6641 15.3542 63.5703 15.2031C63.4766 15.0469 63.2969 14.9062 63.0312 14.7812C62.7708 14.6562 62.3854 14.5417 61.875 14.4375C61.4271 14.3385 61.0156 14.2214 60.6406 14.0859C60.2708 13.9453 59.9531 13.776 59.6875 13.5781C59.4219 13.3802 59.2161 13.1458 59.0703 12.875C58.9245 12.6042 58.8516 12.2917 58.8516 11.9375C58.8516 11.5938 58.9271 11.2682 59.0781 10.9609C59.2292 10.6536 59.4453 10.3828 59.7266 10.1484C60.0078 9.91406 60.349 9.72917 60.75 9.59375C61.1562 9.45833 61.6094 9.39062 62.1094 9.39062C62.8177 9.39062 63.4245 9.51042 63.9297 9.75C64.4401 9.98438 64.8307 10.3047 65.1016 10.7109C65.3724 11.112 65.5078 11.5651 65.5078 12.0703H63.625C63.625 11.8464 63.5677 11.638 63.4531 11.4453C63.3438 11.2474 63.1771 11.0885 62.9531 10.9688C62.7292 10.8438 62.4479 10.7812 62.1094 10.7812C61.7865 10.7812 61.5182 10.8333 61.3047 10.9375C61.0964 11.0365 60.9401 11.1667 60.8359 11.3281C60.737 11.4896 60.6875 11.6667 60.6875 11.8594C60.6875 12 60.7135 12.1276 60.7656 12.2422C60.8229 12.3516 60.9167 12.4531 61.0469 12.5469C61.1771 12.6354 61.3542 12.7188 61.5781 12.7969C61.8073 12.875 62.0938 12.9505 62.4375 13.0234C63.0833 13.1589 63.638 13.3333 64.1016 13.5469C64.5703 13.7552 64.9297 14.026 65.1797 14.3594C65.4297 14.6875 65.5547 15.1042 65.5547 15.6094C65.5547 15.9844 65.474 16.3281 65.3125 16.6406C65.1562 16.9479 64.9271 17.2161 64.625 17.4453C64.3229 17.6693 63.9609 17.8438 63.5391 17.9688C63.1224 18.0938 62.6536 18.1562 62.1328 18.1562C61.3672 18.1562 60.7188 18.0208 60.1875 17.75C59.6562 17.474 59.2526 17.1224 58.9766 16.6953C58.7057 16.263 58.5703 15.8151 58.5703 15.3516H60.3906C60.4115 15.7005 60.5078 15.9792 60.6797 16.1875C60.8568 16.3906 61.0755 16.5391 61.3359 16.6328C61.6016 16.7214 61.875 16.7656 62.1562 16.7656C62.4948 16.7656 62.7786 16.7214 63.0078 16.6328C63.237 16.5391 63.4115 16.4141 63.5312 16.2578C63.651 16.0964 63.7109 15.9141 63.7109 15.7109ZM69.1016 6V18H67.2109V6H69.1016ZM74.3516 9.54688L70.6719 13.625L68.6562 15.6875L68.1641 14.0938L69.6875 12.2109L72.0781 9.54688H74.3516ZM72.4844 18L69.7422 14.0312L70.9297 12.7109L74.6641 18H72.4844Z" fill="#080707"/>
<path d="M1.57227 28.0469H2.85059L6.11133 36.1611L9.36523 28.0469H10.6504L6.60352 38H5.60547L1.57227 28.0469ZM1.15527 28.0469H2.2832L2.46777 34.1172V38H1.15527V28.0469ZM9.93262 28.0469H11.0605V38H9.74805V34.1172L9.93262 28.0469ZM17.5479 36.7354V32.9277C17.5479 32.6361 17.4886 32.3831 17.3701 32.1689C17.2562 31.9502 17.083 31.7816 16.8506 31.6631C16.6182 31.5446 16.3311 31.4854 15.9893 31.4854C15.6702 31.4854 15.39 31.54 15.1484 31.6494C14.9115 31.7588 14.7246 31.9023 14.5879 32.0801C14.4557 32.2578 14.3896 32.4492 14.3896 32.6543H13.125C13.125 32.39 13.1934 32.1279 13.3301 31.8682C13.4668 31.6084 13.6628 31.3737 13.918 31.1641C14.1777 30.9499 14.4876 30.7812 14.8477 30.6582C15.2122 30.5306 15.6178 30.4668 16.0645 30.4668C16.6022 30.4668 17.0762 30.5579 17.4863 30.7402C17.901 30.9225 18.2246 31.1982 18.457 31.5674C18.694 31.932 18.8125 32.39 18.8125 32.9414V36.3867C18.8125 36.6328 18.833 36.8949 18.874 37.1729C18.9196 37.4508 18.9857 37.6901 19.0723 37.8906V38H17.7529C17.6891 37.8542 17.639 37.6605 17.6025 37.4189C17.5661 37.1729 17.5479 36.945 17.5479 36.7354ZM17.7666 33.5156L17.7803 34.4043H16.502C16.1419 34.4043 15.8206 34.4339 15.5381 34.4932C15.2555 34.5479 15.0186 34.6322 14.8271 34.7461C14.6357 34.86 14.4899 35.0036 14.3896 35.1768C14.2894 35.3454 14.2393 35.5436 14.2393 35.7715C14.2393 36.0039 14.2917 36.2158 14.3965 36.4072C14.5013 36.5986 14.6585 36.7513 14.8682 36.8652C15.0824 36.9746 15.3444 37.0293 15.6543 37.0293C16.0417 37.0293 16.3835 36.9473 16.6797 36.7832C16.9759 36.6191 17.2106 36.4186 17.3838 36.1816C17.5615 35.9447 17.6572 35.7145 17.6709 35.4912L18.2109 36.0996C18.179 36.291 18.0924 36.5029 17.9512 36.7354C17.8099 36.9678 17.6208 37.1911 17.3838 37.4053C17.1514 37.6149 16.8734 37.7904 16.5498 37.9316C16.2308 38.0684 15.8708 38.1367 15.4697 38.1367C14.9684 38.1367 14.5286 38.0387 14.1504 37.8428C13.7767 37.6468 13.485 37.3848 13.2754 37.0566C13.0703 36.724 12.9678 36.3525 12.9678 35.9424C12.9678 35.5459 13.0452 35.1973 13.2002 34.8965C13.3551 34.5911 13.5785 34.3382 13.8701 34.1377C14.1618 33.9326 14.5127 33.7777 14.9229 33.6729C15.333 33.568 15.791 33.5156 16.2969 33.5156H17.7666ZM22.1758 30.6035V38H20.9043V30.6035H22.1758ZM20.8086 28.6416C20.8086 28.4365 20.8701 28.2633 20.9932 28.1221C21.1208 27.9808 21.3076 27.9102 21.5537 27.9102C21.7952 27.9102 21.9798 27.9808 22.1074 28.1221C22.2396 28.2633 22.3057 28.4365 22.3057 28.6416C22.3057 28.8376 22.2396 29.0062 22.1074 29.1475C21.9798 29.2842 21.7952 29.3525 21.5537 29.3525C21.3076 29.3525 21.1208 29.2842 20.9932 29.1475C20.8701 29.0062 20.8086 28.8376 20.8086 28.6416ZM30.6387 37.0977C30.9395 37.0977 31.2174 37.0361 31.4727 36.9131C31.7279 36.79 31.9375 36.6214 32.1016 36.4072C32.2656 36.1885 32.359 35.9401 32.3818 35.6621H33.585C33.5622 36.0996 33.4141 36.5075 33.1406 36.8857C32.8717 37.2594 32.5186 37.5625 32.0811 37.7949C31.6436 38.0228 31.1628 38.1367 30.6387 38.1367C30.0827 38.1367 29.5973 38.0387 29.1826 37.8428C28.7725 37.6468 28.4307 37.3779 28.1572 37.0361C27.8883 36.6943 27.6855 36.3024 27.5488 35.8604C27.4167 35.4137 27.3506 34.9421 27.3506 34.4453V34.1582C27.3506 33.6615 27.4167 33.1921 27.5488 32.75C27.6855 32.3034 27.8883 31.9092 28.1572 31.5674C28.4307 31.2256 28.7725 30.9567 29.1826 30.7607C29.5973 30.5648 30.0827 30.4668 30.6387 30.4668C31.2174 30.4668 31.7233 30.5853 32.1562 30.8223C32.5892 31.0547 32.9287 31.3737 33.1748 31.7793C33.4255 32.1803 33.5622 32.6361 33.585 33.1465H32.3818C32.359 32.8411 32.2725 32.5654 32.1221 32.3193C31.9762 32.0732 31.7757 31.8773 31.5205 31.7314C31.2699 31.5811 30.9759 31.5059 30.6387 31.5059C30.2513 31.5059 29.9255 31.5833 29.6611 31.7383C29.4014 31.8887 29.194 32.0938 29.0391 32.3535C28.8887 32.6087 28.7793 32.8936 28.7109 33.208C28.6471 33.5179 28.6152 33.8346 28.6152 34.1582V34.4453C28.6152 34.7689 28.6471 35.0879 28.7109 35.4023C28.7747 35.7168 28.8818 36.0016 29.0322 36.2568C29.1872 36.512 29.3945 36.7171 29.6543 36.8721C29.9186 37.0225 30.2467 37.0977 30.6387 37.0977ZM36.2715 27.5V38H35.0068V27.5H36.2715ZM35.9707 34.0215L35.4443 34.001C35.4489 33.4951 35.5241 33.028 35.6699 32.5996C35.8158 32.1667 36.0208 31.7907 36.2852 31.4717C36.5495 31.1527 36.8639 30.9066 37.2285 30.7334C37.5977 30.5557 38.0055 30.4668 38.4521 30.4668C38.8167 30.4668 39.1449 30.5169 39.4365 30.6172C39.7282 30.7129 39.9766 30.8678 40.1816 31.082C40.3913 31.2962 40.5508 31.5742 40.6602 31.916C40.7695 32.2533 40.8242 32.6657 40.8242 33.1533V38H39.5527V33.1396C39.5527 32.7523 39.4958 32.4424 39.3818 32.21C39.2679 31.973 39.1016 31.8021 38.8828 31.6973C38.6641 31.5879 38.3952 31.5332 38.0762 31.5332C37.7617 31.5332 37.4746 31.5993 37.2148 31.7314C36.9596 31.8636 36.7386 32.0459 36.5518 32.2783C36.3695 32.5107 36.2259 32.7773 36.1211 33.0781C36.0208 33.3743 35.9707 33.6888 35.9707 34.0215ZM47.2432 36.291V30.6035H48.5146V38H47.3047L47.2432 36.291ZM47.4824 34.7324L48.0088 34.7188C48.0088 35.2109 47.9564 35.6667 47.8516 36.0859C47.7513 36.5007 47.5872 36.8607 47.3594 37.166C47.1315 37.4714 46.833 37.7106 46.4639 37.8838C46.0947 38.0524 45.6458 38.1367 45.1172 38.1367C44.7572 38.1367 44.4268 38.0843 44.126 37.9795C43.8298 37.8747 43.5745 37.7129 43.3604 37.4941C43.1462 37.2754 42.9798 36.9906 42.8613 36.6396C42.7474 36.2887 42.6904 35.8672 42.6904 35.375V30.6035H43.9551V35.3887C43.9551 35.7214 43.9915 35.9971 44.0645 36.2158C44.1419 36.43 44.2445 36.6009 44.3721 36.7285C44.5042 36.8516 44.6501 36.9382 44.8096 36.9883C44.9736 37.0384 45.1423 37.0635 45.3154 37.0635C45.8532 37.0635 46.2793 36.9609 46.5938 36.7559C46.9082 36.5462 47.1338 36.266 47.2705 35.915C47.4118 35.5596 47.4824 35.1654 47.4824 34.7324ZM52.5205 37.2344L54.5781 30.6035H55.9316L52.9648 39.1416C52.8965 39.3239 52.8053 39.5199 52.6914 39.7295C52.582 39.9437 52.4408 40.1465 52.2676 40.3379C52.0944 40.5293 51.8848 40.6842 51.6387 40.8027C51.3971 40.9258 51.1077 40.9873 50.7705 40.9873C50.6702 40.9873 50.5426 40.9736 50.3877 40.9463C50.2327 40.9189 50.1234 40.8962 50.0596 40.8779L50.0527 39.8525C50.0892 39.8571 50.1462 39.8617 50.2236 39.8662C50.3057 39.8753 50.3626 39.8799 50.3945 39.8799C50.6816 39.8799 50.9255 39.8411 51.126 39.7637C51.3265 39.6908 51.4951 39.5654 51.6318 39.3877C51.7731 39.2145 51.8939 38.9753 51.9941 38.6699L52.5205 37.2344ZM51.0098 30.6035L52.9307 36.3457L53.2588 37.6787L52.3496 38.1436L49.6289 30.6035H51.0098ZM60.0469 38.1367C59.5319 38.1367 59.0648 38.0501 58.6455 37.877C58.2308 37.6992 57.873 37.4508 57.5723 37.1318C57.276 36.8128 57.0482 36.4346 56.8887 35.9971C56.7292 35.5596 56.6494 35.0811 56.6494 34.5615V34.2744C56.6494 33.6729 56.7383 33.1374 56.916 32.668C57.0938 32.194 57.3353 31.793 57.6406 31.4648C57.946 31.1367 58.2923 30.8883 58.6797 30.7197C59.0671 30.5511 59.4681 30.4668 59.8828 30.4668C60.4115 30.4668 60.8672 30.5579 61.25 30.7402C61.6374 30.9225 61.9541 31.1777 62.2002 31.5059C62.4463 31.8294 62.6286 32.2122 62.7471 32.6543C62.8656 33.0918 62.9248 33.5703 62.9248 34.0898V34.6572H57.4014V33.625H61.6602V33.5293C61.6419 33.2012 61.5736 32.8822 61.4551 32.5723C61.3411 32.2624 61.1589 32.0072 60.9082 31.8066C60.6576 31.6061 60.3158 31.5059 59.8828 31.5059C59.5957 31.5059 59.3314 31.5674 59.0898 31.6904C58.8483 31.8089 58.641 31.9867 58.4678 32.2236C58.2946 32.4606 58.1602 32.75 58.0645 33.0918C57.9688 33.4336 57.9209 33.8278 57.9209 34.2744V34.5615C57.9209 34.9124 57.9688 35.2428 58.0645 35.5527C58.1647 35.8581 58.3083 36.127 58.4951 36.3594C58.6865 36.5918 58.9167 36.7741 59.1855 36.9062C59.459 37.0384 59.7689 37.1045 60.1152 37.1045C60.5618 37.1045 60.9401 37.0133 61.25 36.8311C61.5599 36.6488 61.8311 36.4049 62.0635 36.0996L62.8291 36.708C62.6696 36.9495 62.4668 37.1797 62.2207 37.3984C61.9746 37.6172 61.6715 37.7949 61.3115 37.9316C60.9561 38.0684 60.5345 38.1367 60.0469 38.1367ZM60.5049 27.8281L62.3779 29.626H61.209L59.8623 28.3545L58.5225 29.626H57.3604L59.2197 27.8281H60.5049ZM62.5898 28.6826H61.8037L61.7969 27.7803C61.9974 27.7666 62.1592 27.7461 62.2822 27.7188C62.4053 27.6914 62.4964 27.6504 62.5557 27.5957C62.6149 27.5365 62.6445 27.4567 62.6445 27.3564C62.6445 27.2425 62.6012 27.1536 62.5146 27.0898C62.4281 27.0215 62.3118 26.9736 62.166 26.9463C62.0202 26.9144 61.8584 26.8984 61.6807 26.8984L61.7217 26.2627C62.0133 26.2627 62.2686 26.29 62.4873 26.3447C62.7106 26.3949 62.8975 26.4701 63.0479 26.5703C63.2028 26.666 63.319 26.7822 63.3965 26.9189C63.474 27.0511 63.5127 27.2015 63.5127 27.3701C63.5127 27.6663 63.417 27.8828 63.2256 28.0195C63.0387 28.1517 62.8291 28.2337 62.5967 28.2656L62.5898 28.6826ZM65.666 32.1826V38H64.4014V30.6035H65.5977L65.666 32.1826ZM65.3652 34.0215L64.8389 34.001C64.8434 33.4951 64.9186 33.028 65.0645 32.5996C65.2103 32.1667 65.4154 31.7907 65.6797 31.4717C65.944 31.1527 66.2585 30.9066 66.623 30.7334C66.9922 30.5557 67.4001 30.4668 67.8467 30.4668C68.2113 30.4668 68.5394 30.5169 68.8311 30.6172C69.1227 30.7129 69.3711 30.8678 69.5762 31.082C69.7858 31.2962 69.9453 31.5742 70.0547 31.916C70.1641 32.2533 70.2188 32.6657 70.2188 33.1533V38H68.9473V33.1396C68.9473 32.7523 68.8903 32.4424 68.7764 32.21C68.6624 31.973 68.4961 31.8021 68.2773 31.6973C68.0586 31.5879 67.7897 31.5332 67.4707 31.5332C67.1562 31.5332 66.8691 31.5993 66.6094 31.7314C66.3542 31.8636 66.1331 32.0459 65.9463 32.2783C65.764 32.5107 65.6204 32.7773 65.5156 33.0781C65.4154 33.3743 65.3652 33.6888 65.3652 34.0215ZM78.709 30.6035V31.5742H74.71V30.6035H78.709ZM76.0635 28.8057H77.3281V36.168C77.3281 36.4186 77.3669 36.6077 77.4443 36.7354C77.5218 36.863 77.6221 36.9473 77.7451 36.9883C77.8682 37.0293 78.0003 37.0498 78.1416 37.0498C78.2464 37.0498 78.3558 37.0407 78.4697 37.0225C78.5882 36.9997 78.6771 36.9814 78.7363 36.9678L78.7432 38C78.6429 38.0319 78.5107 38.0615 78.3467 38.0889C78.1872 38.1208 77.9935 38.1367 77.7656 38.1367C77.4557 38.1367 77.1709 38.0752 76.9111 37.9521C76.6514 37.8291 76.444 37.624 76.2891 37.3369C76.1387 37.0452 76.0635 36.6533 76.0635 36.1611V28.8057ZM79.7207 34.3838V34.2266C79.7207 33.6934 79.7982 33.1989 79.9531 32.7432C80.1081 32.2829 80.3314 31.8841 80.623 31.5469C80.9147 31.2051 81.2679 30.9408 81.6826 30.7539C82.0973 30.5625 82.5622 30.4668 83.0771 30.4668C83.5967 30.4668 84.0638 30.5625 84.4785 30.7539C84.8978 30.9408 85.2533 31.2051 85.5449 31.5469C85.8411 31.8841 86.0667 32.2829 86.2217 32.7432C86.3766 33.1989 86.4541 33.6934 86.4541 34.2266V34.3838C86.4541 34.917 86.3766 35.4115 86.2217 35.8672C86.0667 36.3229 85.8411 36.7217 85.5449 37.0635C85.2533 37.4007 84.9001 37.665 84.4854 37.8564C84.0752 38.0433 83.6104 38.1367 83.0908 38.1367C82.5713 38.1367 82.1042 38.0433 81.6895 37.8564C81.2747 37.665 80.9193 37.4007 80.623 37.0635C80.3314 36.7217 80.1081 36.3229 79.9531 35.8672C79.7982 35.4115 79.7207 34.917 79.7207 34.3838ZM80.9854 34.2266V34.3838C80.9854 34.7529 81.0286 35.1016 81.1152 35.4297C81.2018 35.7533 81.3317 36.0404 81.5049 36.291C81.6826 36.5417 81.9036 36.7399 82.168 36.8857C82.4323 37.027 82.7399 37.0977 83.0908 37.0977C83.4372 37.0977 83.7402 37.027 84 36.8857C84.2643 36.7399 84.4831 36.5417 84.6562 36.291C84.8294 36.0404 84.9593 35.7533 85.0459 35.4297C85.137 35.1016 85.1826 34.7529 85.1826 34.3838V34.2266C85.1826 33.862 85.137 33.5179 85.0459 33.1943C84.9593 32.8662 84.8271 32.5768 84.6494 32.3262C84.4762 32.071 84.2575 31.8704 83.9932 31.7246C83.7334 31.5788 83.4281 31.5059 83.0771 31.5059C82.7308 31.5059 82.4255 31.5788 82.1611 31.7246C81.9014 31.8704 81.6826 32.071 81.5049 32.3262C81.3317 32.5768 81.2018 32.8662 81.1152 33.1943C81.0286 33.5179 80.9854 33.862 80.9854 34.2266ZM83.4053 27.5L85.1006 29.3662V29.4346H84.0479L83.0225 28.2793L82.0039 29.4346H80.9648V29.3594L82.6396 27.5H83.4053ZM89.4141 30.6035V38H88.1426V30.6035H89.4141ZM88.0469 28.6416C88.0469 28.4365 88.1084 28.2633 88.2314 28.1221C88.359 27.9808 88.5459 27.9102 88.792 27.9102C89.0335 27.9102 89.2181 27.9808 89.3457 28.1221C89.4779 28.2633 89.5439 28.4365 89.5439 28.6416C89.5439 28.8376 89.4779 29.0062 89.3457 29.1475C89.2181 29.2842 89.0335 29.3525 88.792 29.3525C88.5459 29.3525 88.359 29.2842 88.2314 29.1475C88.1084 29.0062 88.0469 28.8376 88.0469 28.6416ZM96.3799 33.2627L95.3682 33.0029L95.8672 28.0469H100.974V29.2158H96.9404L96.6396 31.9229C96.8219 31.818 97.0521 31.7201 97.3301 31.6289C97.6126 31.5378 97.9362 31.4922 98.3008 31.4922C98.7611 31.4922 99.1735 31.5719 99.5381 31.7314C99.9027 31.8864 100.213 32.1097 100.468 32.4014C100.728 32.693 100.926 33.0439 101.062 33.4541C101.199 33.8643 101.268 34.3223 101.268 34.8281C101.268 35.3066 101.201 35.7464 101.069 36.1475C100.942 36.5485 100.748 36.8994 100.488 37.2002C100.229 37.4964 99.9004 37.7266 99.5039 37.8906C99.112 38.0547 98.6494 38.1367 98.1162 38.1367C97.7152 38.1367 97.3346 38.082 96.9746 37.9727C96.6191 37.8587 96.3001 37.6878 96.0176 37.46C95.7396 37.2275 95.5117 36.9404 95.334 36.5986C95.1608 36.2523 95.0514 35.8467 95.0059 35.3818H96.209C96.2637 35.7555 96.373 36.07 96.5371 36.3252C96.7012 36.5804 96.9154 36.7741 97.1797 36.9062C97.4486 37.0339 97.7607 37.0977 98.1162 37.0977C98.417 37.0977 98.6836 37.0452 98.916 36.9404C99.1484 36.8356 99.3444 36.6852 99.5039 36.4893C99.6634 36.2933 99.7842 36.0563 99.8662 35.7783C99.9528 35.5003 99.9961 35.1882 99.9961 34.8418C99.9961 34.5273 99.9528 34.2357 99.8662 33.9668C99.7796 33.6979 99.6497 33.4632 99.4766 33.2627C99.3079 33.0622 99.1006 32.9072 98.8545 32.7979C98.6084 32.6839 98.3258 32.627 98.0068 32.627C97.583 32.627 97.2617 32.6839 97.043 32.7979C96.8288 32.9118 96.6077 33.0667 96.3799 33.2627ZM108.903 32.2305V33.748C108.903 34.5638 108.83 35.252 108.685 35.8125C108.539 36.373 108.329 36.8242 108.056 37.166C107.782 37.5078 107.452 37.7562 107.064 37.9111C106.682 38.0615 106.249 38.1367 105.766 38.1367C105.383 38.1367 105.03 38.0889 104.706 37.9932C104.382 37.8975 104.091 37.7448 103.831 37.5352C103.576 37.321 103.357 37.043 103.175 36.7012C102.993 36.3594 102.854 35.9447 102.758 35.457C102.662 34.9694 102.614 34.3997 102.614 33.748V32.2305C102.614 31.4147 102.687 30.7311 102.833 30.1797C102.983 29.6283 103.195 29.1862 103.469 28.8535C103.742 28.5163 104.07 28.2747 104.453 28.1289C104.84 27.9831 105.273 27.9102 105.752 27.9102C106.139 27.9102 106.495 27.958 106.818 28.0537C107.146 28.1449 107.438 28.293 107.693 28.498C107.949 28.6986 108.165 28.9674 108.343 29.3047C108.525 29.6374 108.664 30.0452 108.76 30.5283C108.855 31.0114 108.903 31.5788 108.903 32.2305ZM107.632 33.9531V32.0186C107.632 31.5719 107.604 31.18 107.55 30.8428C107.5 30.501 107.424 30.2093 107.324 29.9678C107.224 29.7262 107.096 29.5303 106.941 29.3799C106.791 29.2295 106.616 29.1201 106.415 29.0518C106.219 28.9788 105.998 28.9424 105.752 28.9424C105.451 28.9424 105.185 28.9993 104.952 29.1133C104.72 29.2227 104.524 29.3981 104.364 29.6396C104.209 29.8812 104.091 30.1979 104.009 30.5898C103.927 30.9818 103.886 31.458 103.886 32.0186V33.9531C103.886 34.3997 103.911 34.7939 103.961 35.1357C104.016 35.4775 104.095 35.7738 104.2 36.0244C104.305 36.2705 104.433 36.4733 104.583 36.6328C104.733 36.7923 104.907 36.9108 105.103 36.9883C105.303 37.0612 105.524 37.0977 105.766 37.0977C106.076 37.0977 106.347 37.0384 106.579 36.9199C106.812 36.8014 107.005 36.6169 107.16 36.3662C107.32 36.111 107.438 35.7852 107.516 35.3887C107.593 34.9876 107.632 34.5091 107.632 33.9531ZM116.778 32.2305V33.748C116.778 34.5638 116.705 35.252 116.56 35.8125C116.414 36.373 116.204 36.8242 115.931 37.166C115.657 37.5078 115.327 37.7562 114.939 37.9111C114.557 38.0615 114.124 38.1367 113.641 38.1367C113.258 38.1367 112.905 38.0889 112.581 37.9932C112.257 37.8975 111.966 37.7448 111.706 37.5352C111.451 37.321 111.232 37.043 111.05 36.7012C110.868 36.3594 110.729 35.9447 110.633 35.457C110.537 34.9694 110.489 34.3997 110.489 33.748V32.2305C110.489 31.4147 110.562 30.7311 110.708 30.1797C110.858 29.6283 111.07 29.1862 111.344 28.8535C111.617 28.5163 111.945 28.2747 112.328 28.1289C112.715 27.9831 113.148 27.9102 113.627 27.9102C114.014 27.9102 114.37 27.958 114.693 28.0537C115.021 28.1449 115.313 28.293 115.568 28.498C115.824 28.6986 116.04 28.9674 116.218 29.3047C116.4 29.6374 116.539 30.0452 116.635 30.5283C116.73 31.0114 116.778 31.5788 116.778 32.2305ZM115.507 33.9531V32.0186C115.507 31.5719 115.479 31.18 115.425 30.8428C115.375 30.501 115.299 30.2093 115.199 29.9678C115.099 29.7262 114.971 29.5303 114.816 29.3799C114.666 29.2295 114.491 29.1201 114.29 29.0518C114.094 28.9788 113.873 28.9424 113.627 28.9424C113.326 28.9424 113.06 28.9993 112.827 29.1133C112.595 29.2227 112.399 29.3981 112.239 29.6396C112.084 29.8812 111.966 30.1979 111.884 30.5898C111.802 30.9818 111.761 31.458 111.761 32.0186V33.9531C111.761 34.3997 111.786 34.7939 111.836 35.1357C111.891 35.4775 111.97 35.7738 112.075 36.0244C112.18 36.2705 112.308 36.4733 112.458 36.6328C112.608 36.7923 112.782 36.9108 112.978 36.9883C113.178 37.0612 113.399 37.0977 113.641 37.0977C113.951 37.0977 114.222 37.0384 114.454 36.9199C114.687 36.8014 114.88 36.6169 115.035 36.3662C115.195 36.111 115.313 35.7852 115.391 35.3887C115.468 34.9876 115.507 34.5091 115.507 33.9531ZM125.111 30.6035V31.5742H121.112V30.6035H125.111ZM122.466 28.8057H123.73V36.168C123.73 36.4186 123.769 36.6077 123.847 36.7354C123.924 36.863 124.024 36.9473 124.147 36.9883C124.271 37.0293 124.403 37.0498 124.544 37.0498C124.649 37.0498 124.758 37.0407 124.872 37.0225C124.991 36.9997 125.079 36.9814 125.139 36.9678L125.146 38C125.045 38.0319 124.913 38.0615 124.749 38.0889C124.59 38.1208 124.396 38.1367 124.168 38.1367C123.858 38.1367 123.573 38.0752 123.313 37.9521C123.054 37.8291 122.846 37.624 122.691 37.3369C122.541 37.0452 122.466 36.6533 122.466 36.1611V28.8057ZM128.673 37.2344L130.73 30.6035H132.084L129.117 39.1416C129.049 39.3239 128.958 39.5199 128.844 39.7295C128.734 39.9437 128.593 40.1465 128.42 40.3379C128.247 40.5293 128.037 40.6842 127.791 40.8027C127.549 40.9258 127.26 40.9873 126.923 40.9873C126.823 40.9873 126.695 40.9736 126.54 40.9463C126.385 40.9189 126.276 40.8962 126.212 40.8779L126.205 39.8525C126.242 39.8571 126.299 39.8617 126.376 39.8662C126.458 39.8753 126.515 39.8799 126.547 39.8799C126.834 39.8799 127.078 39.8411 127.278 39.7637C127.479 39.6908 127.647 39.5654 127.784 39.3877C127.925 39.2145 128.046 38.9753 128.146 38.6699L128.673 37.2344ZM127.162 30.6035L129.083 36.3457L129.411 37.6787L128.502 38.1436L125.781 30.6035H127.162ZM129.582 29.4004H128.673L128.666 28.3613C128.898 28.3477 129.088 28.3249 129.233 28.293C129.379 28.2565 129.486 28.2041 129.555 28.1357C129.623 28.0628 129.657 27.9671 129.657 27.8486C129.657 27.7529 129.628 27.6732 129.568 27.6094C129.509 27.541 129.427 27.4863 129.322 27.4453C129.217 27.3997 129.097 27.3678 128.96 27.3496C128.823 27.3314 128.677 27.3223 128.522 27.3223L128.57 26.5977C128.908 26.5977 129.204 26.6273 129.459 26.6865C129.719 26.7458 129.935 26.8324 130.108 26.9463C130.286 27.0602 130.418 27.1969 130.505 27.3564C130.596 27.5114 130.642 27.6846 130.642 27.876C130.642 28.2223 130.532 28.4753 130.313 28.6348C130.095 28.7897 129.853 28.8854 129.589 28.9219L129.582 29.4004ZM137.963 32.1826V38H136.698V30.6035H137.895L137.963 32.1826ZM137.662 34.0215L137.136 34.001C137.14 33.4951 137.215 33.028 137.361 32.5996C137.507 32.1667 137.712 31.7907 137.977 31.4717C138.241 31.1527 138.555 30.9066 138.92 30.7334C139.289 30.5557 139.697 30.4668 140.144 30.4668C140.508 30.4668 140.836 30.5169 141.128 30.6172C141.42 30.7129 141.668 30.8678 141.873 31.082C142.083 31.2962 142.242 31.5742 142.352 31.916C142.461 32.2533 142.516 32.6657 142.516 33.1533V38H141.244V33.1396C141.244 32.7523 141.187 32.4424 141.073 32.21C140.959 31.973 140.793 31.8021 140.574 31.6973C140.355 31.5879 140.087 31.5332 139.768 31.5332C139.453 31.5332 139.166 31.5993 138.906 31.7314C138.651 31.8636 138.43 32.0459 138.243 32.2783C138.061 32.5107 137.917 32.7773 137.812 33.0781C137.712 33.3743 137.662 33.6888 137.662 34.0215ZM145.701 27.5V38H144.437V27.5H145.701ZM145.4 34.0215L144.874 34.001C144.879 33.4951 144.954 33.028 145.1 32.5996C145.245 32.1667 145.451 31.7907 145.715 31.4717C145.979 31.1527 146.294 30.9066 146.658 30.7334C147.027 30.5557 147.435 30.4668 147.882 30.4668C148.246 30.4668 148.575 30.5169 148.866 30.6172C149.158 30.7129 149.406 30.8678 149.611 31.082C149.821 31.2962 149.98 31.5742 150.09 31.916C150.199 32.2533 150.254 32.6657 150.254 33.1533V38H148.982V33.1396C148.982 32.7523 148.925 32.4424 148.812 32.21C148.698 31.973 148.531 31.8021 148.312 31.6973C148.094 31.5879 147.825 31.5332 147.506 31.5332C147.191 31.5332 146.904 31.5993 146.645 31.7314C146.389 31.8636 146.168 32.0459 145.981 32.2783C145.799 32.5107 145.656 32.7773 145.551 33.0781C145.451 33.3743 145.4 33.6888 145.4 34.0215ZM155.217 38.1367C154.702 38.1367 154.235 38.0501 153.815 37.877C153.401 37.6992 153.043 37.4508 152.742 37.1318C152.446 36.8128 152.218 36.4346 152.059 35.9971C151.899 35.5596 151.819 35.0811 151.819 34.5615V34.2744C151.819 33.6729 151.908 33.1374 152.086 32.668C152.264 32.194 152.505 31.793 152.811 31.4648C153.116 31.1367 153.462 30.8883 153.85 30.7197C154.237 30.5511 154.638 30.4668 155.053 30.4668C155.581 30.4668 156.037 30.5579 156.42 30.7402C156.807 30.9225 157.124 31.1777 157.37 31.5059C157.616 31.8294 157.799 32.2122 157.917 32.6543C158.035 33.0918 158.095 33.5703 158.095 34.0898V34.6572H152.571V33.625H156.83V33.5293C156.812 33.2012 156.743 32.8822 156.625 32.5723C156.511 32.2624 156.329 32.0072 156.078 31.8066C155.827 31.6061 155.486 31.5059 155.053 31.5059C154.766 31.5059 154.501 31.5674 154.26 31.6904C154.018 31.8089 153.811 31.9867 153.638 32.2236C153.465 32.4606 153.33 32.75 153.234 33.0918C153.139 33.4336 153.091 33.8278 153.091 34.2744V34.5615C153.091 34.9124 153.139 35.2428 153.234 35.5527C153.335 35.8581 153.478 36.127 153.665 36.3594C153.856 36.5918 154.087 36.7741 154.355 36.9062C154.629 37.0384 154.939 37.1045 155.285 37.1045C155.732 37.1045 156.11 37.0133 156.42 36.8311C156.73 36.6488 157.001 36.4049 157.233 36.0996L157.999 36.708C157.84 36.9495 157.637 37.1797 157.391 37.3984C157.145 37.6172 156.841 37.7949 156.481 37.9316C156.126 38.0684 155.704 38.1367 155.217 38.1367ZM154.349 29.5098L155.675 27.5H157.199L155.367 29.5098H154.349ZM163.037 27.5H164.309V36.5645L164.199 38H163.037V27.5ZM169.306 34.2402V34.3838C169.306 34.9215 169.242 35.4206 169.114 35.8809C168.987 36.3366 168.8 36.7331 168.554 37.0703C168.308 37.4076 168.007 37.6696 167.651 37.8564C167.296 38.0433 166.888 38.1367 166.428 38.1367C165.958 38.1367 165.546 38.057 165.19 37.8975C164.84 37.7334 164.543 37.4987 164.302 37.1934C164.06 36.888 163.867 36.5189 163.721 36.0859C163.579 35.653 163.481 35.1654 163.427 34.623V33.9941C163.481 33.4473 163.579 32.9574 163.721 32.5244C163.867 32.0915 164.06 31.7223 164.302 31.417C164.543 31.1071 164.84 30.8724 165.19 30.7129C165.541 30.5488 165.949 30.4668 166.414 30.4668C166.879 30.4668 167.291 30.5579 167.651 30.7402C168.011 30.918 168.312 31.1732 168.554 31.5059C168.8 31.8385 168.987 32.2373 169.114 32.7021C169.242 33.1624 169.306 33.6751 169.306 34.2402ZM168.034 34.3838V34.2402C168.034 33.8711 168 33.5247 167.932 33.2012C167.863 32.873 167.754 32.5859 167.604 32.3398C167.453 32.0892 167.255 31.8932 167.009 31.752C166.763 31.6061 166.46 31.5332 166.1 31.5332C165.781 31.5332 165.503 31.5879 165.266 31.6973C165.033 31.8066 164.835 31.9548 164.671 32.1416C164.507 32.3239 164.372 32.5335 164.268 32.7705C164.167 33.0029 164.092 33.2445 164.042 33.4951V35.1426C164.115 35.4616 164.233 35.7692 164.397 36.0654C164.566 36.3571 164.789 36.5964 165.067 36.7832C165.35 36.9701 165.699 37.0635 166.113 37.0635C166.455 37.0635 166.747 36.9951 166.988 36.8584C167.234 36.7171 167.433 36.5234 167.583 36.2773C167.738 36.0312 167.852 35.7464 167.925 35.4229C167.998 35.0993 168.034 34.7529 168.034 34.3838ZM175.267 36.7354V32.9277C175.267 32.6361 175.207 32.3831 175.089 32.1689C174.975 31.9502 174.802 31.7816 174.569 31.6631C174.337 31.5446 174.05 31.4854 173.708 31.4854C173.389 31.4854 173.109 31.54 172.867 31.6494C172.63 31.7588 172.443 31.9023 172.307 32.0801C172.174 32.2578 172.108 32.4492 172.108 32.6543H170.844C170.844 32.39 170.912 32.1279 171.049 31.8682C171.186 31.6084 171.382 31.3737 171.637 31.1641C171.896 30.9499 172.206 30.7812 172.566 30.6582C172.931 30.5306 173.337 30.4668 173.783 30.4668C174.321 30.4668 174.795 30.5579 175.205 30.7402C175.62 30.9225 175.943 31.1982 176.176 31.5674C176.413 31.932 176.531 32.39 176.531 32.9414V36.3867C176.531 36.6328 176.552 36.8949 176.593 37.1729C176.638 37.4508 176.704 37.6901 176.791 37.8906V38H175.472C175.408 37.8542 175.358 37.6605 175.321 37.4189C175.285 37.1729 175.267 36.945 175.267 36.7354ZM175.485 33.5156L175.499 34.4043H174.221C173.861 34.4043 173.539 34.4339 173.257 34.4932C172.974 34.5479 172.737 34.6322 172.546 34.7461C172.354 34.86 172.209 35.0036 172.108 35.1768C172.008 35.3454 171.958 35.5436 171.958 35.7715C171.958 36.0039 172.01 36.2158 172.115 36.4072C172.22 36.5986 172.377 36.7513 172.587 36.8652C172.801 36.9746 173.063 37.0293 173.373 37.0293C173.76 37.0293 174.102 36.9473 174.398 36.7832C174.695 36.6191 174.929 36.4186 175.103 36.1816C175.28 35.9447 175.376 35.7145 175.39 35.4912L175.93 36.0996C175.898 36.291 175.811 36.5029 175.67 36.7354C175.529 36.9678 175.34 37.1911 175.103 37.4053C174.87 37.6149 174.592 37.7904 174.269 37.9316C173.95 38.0684 173.59 38.1367 173.188 38.1367C172.687 38.1367 172.247 38.0387 171.869 37.8428C171.495 37.6468 171.204 37.3848 170.994 37.0566C170.789 36.724 170.687 36.3525 170.687 35.9424C170.687 35.5459 170.764 35.1973 170.919 34.8965C171.074 34.5911 171.297 34.3382 171.589 34.1377C171.881 33.9326 172.231 33.7777 172.642 33.6729C173.052 33.568 173.51 33.5156 174.016 33.5156H175.485ZM172.587 39.6816C172.587 39.4766 172.648 39.3034 172.771 39.1621C172.899 39.0208 173.086 38.9502 173.332 38.9502C173.574 38.9502 173.758 39.0208 173.886 39.1621C174.018 39.3034 174.084 39.4766 174.084 39.6816C174.084 39.8776 174.018 40.0439 173.886 40.1807C173.758 40.3219 173.574 40.3926 173.332 40.3926C173.086 40.3926 172.899 40.3219 172.771 40.1807C172.648 40.0439 172.587 39.8776 172.587 39.6816ZM179.785 32.1826V38H178.521V30.6035H179.717L179.785 32.1826ZM179.484 34.0215L178.958 34.001C178.963 33.4951 179.038 33.028 179.184 32.5996C179.329 32.1667 179.535 31.7907 179.799 31.4717C180.063 31.1527 180.378 30.9066 180.742 30.7334C181.111 30.5557 181.519 30.4668 181.966 30.4668C182.33 30.4668 182.659 30.5169 182.95 30.6172C183.242 30.7129 183.49 30.8678 183.695 31.082C183.905 31.2962 184.064 31.5742 184.174 31.916C184.283 32.2533 184.338 32.6657 184.338 33.1533V38H183.066V33.1396C183.066 32.7523 183.009 32.4424 182.896 32.21C182.782 31.973 182.615 31.8021 182.396 31.6973C182.178 31.5879 181.909 31.5332 181.59 31.5332C181.275 31.5332 180.988 31.5993 180.729 31.7314C180.473 31.8636 180.252 32.0459 180.065 32.2783C179.883 32.5107 179.74 32.7773 179.635 33.0781C179.535 33.3743 179.484 33.6888 179.484 34.0215ZM190.996 27.5V38H189.731V27.5H190.996ZM190.695 34.0215L190.169 34.001C190.174 33.4951 190.249 33.028 190.395 32.5996C190.54 32.1667 190.745 31.7907 191.01 31.4717C191.274 31.1527 191.589 30.9066 191.953 30.7334C192.322 30.5557 192.73 30.4668 193.177 30.4668C193.541 30.4668 193.869 30.5169 194.161 30.6172C194.453 30.7129 194.701 30.8678 194.906 31.082C195.116 31.2962 195.275 31.5742 195.385 31.916C195.494 32.2533 195.549 32.6657 195.549 33.1533V38H194.277V33.1396C194.277 32.7523 194.22 32.4424 194.106 32.21C193.993 31.973 193.826 31.8021 193.607 31.6973C193.389 31.5879 193.12 31.5332 192.801 31.5332C192.486 31.5332 192.199 31.5993 191.939 31.7314C191.684 31.8636 191.463 32.0459 191.276 32.2783C191.094 32.5107 190.951 32.7773 190.846 33.0781C190.745 33.3743 190.695 33.6888 190.695 34.0215ZM197.463 37.3301C197.463 37.1159 197.529 36.9359 197.661 36.79C197.798 36.6396 197.994 36.5645 198.249 36.5645C198.504 36.5645 198.698 36.6396 198.83 36.79C198.967 36.9359 199.035 37.1159 199.035 37.3301C199.035 37.5397 198.967 37.7174 198.83 37.8633C198.698 38.0091 198.504 38.082 198.249 38.082C197.994 38.082 197.798 38.0091 197.661 37.8633C197.529 37.7174 197.463 37.5397 197.463 37.3301ZM201.154 37.3301C201.154 37.1159 201.22 36.9359 201.353 36.79C201.489 36.6396 201.685 36.5645 201.94 36.5645C202.196 36.5645 202.389 36.6396 202.521 36.79C202.658 36.9359 202.727 37.1159 202.727 37.3301C202.727 37.5397 202.658 37.7174 202.521 37.8633C202.389 38.0091 202.196 38.082 201.94 38.082C201.685 38.082 201.489 38.0091 201.353 37.8633C201.22 37.7174 201.154 37.5397 201.154 37.3301ZM204.846 37.3301C204.846 37.1159 204.912 36.9359 205.044 36.79C205.181 36.6396 205.377 36.5645 205.632 36.5645C205.887 36.5645 206.081 36.6396 206.213 36.79C206.35 36.9359 206.418 37.1159 206.418 37.3301C206.418 37.5397 206.35 37.7174 206.213 37.8633C206.081 38.0091 205.887 38.082 205.632 38.082C205.377 38.082 205.181 38.0091 205.044 37.8633C204.912 37.7174 204.846 37.5397 204.846 37.3301Z" fill="#080707"/>
<path d="M237.241 36.9404H237.371C238.1 36.9404 238.693 36.8379 239.148 36.6328C239.604 36.4277 239.955 36.152 240.201 35.8057C240.447 35.4593 240.616 35.0697 240.707 34.6367C240.798 34.1992 240.844 33.7503 240.844 33.29V31.7656C240.844 31.3145 240.791 30.9134 240.687 30.5625C240.586 30.2116 240.445 29.9176 240.263 29.6807C240.085 29.4437 239.882 29.2637 239.654 29.1406C239.426 29.0176 239.185 28.9561 238.93 28.9561C238.638 28.9561 238.376 29.0153 238.144 29.1338C237.916 29.2477 237.722 29.4095 237.562 29.6191C237.408 29.8288 237.289 30.0749 237.207 30.3574C237.125 30.64 237.084 30.9476 237.084 31.2803C237.084 31.5765 237.12 31.8636 237.193 32.1416C237.266 32.4196 237.378 32.6702 237.528 32.8936C237.679 33.1169 237.866 33.2946 238.089 33.4268C238.317 33.5544 238.583 33.6182 238.889 33.6182C239.171 33.6182 239.436 33.5635 239.682 33.4541C239.932 33.3402 240.153 33.1875 240.345 32.9961C240.541 32.8001 240.696 32.5791 240.81 32.333C240.928 32.0869 240.996 31.8294 241.015 31.5605H241.616C241.616 31.9388 241.541 32.3125 241.391 32.6816C241.245 33.0462 241.04 33.3789 240.775 33.6797C240.511 33.9805 240.201 34.222 239.846 34.4043C239.49 34.582 239.103 34.6709 238.684 34.6709C238.191 34.6709 237.765 34.5752 237.405 34.3838C237.045 34.1924 236.749 33.9372 236.517 33.6182C236.289 33.2992 236.118 32.9437 236.004 32.5518C235.895 32.1553 235.84 31.7542 235.84 31.3486C235.84 30.8747 235.906 30.4303 236.038 30.0156C236.17 29.6009 236.366 29.2363 236.626 28.9219C236.886 28.6029 237.207 28.3545 237.59 28.1768C237.977 27.999 238.424 27.9102 238.93 27.9102C239.499 27.9102 239.985 28.0241 240.386 28.252C240.787 28.4798 241.113 28.7852 241.363 29.168C241.618 29.5508 241.805 29.9814 241.924 30.46C242.042 30.9385 242.102 31.4307 242.102 31.9365V32.3945C242.102 32.9095 242.067 33.4336 241.999 33.9668C241.935 34.4954 241.81 35.0013 241.623 35.4844C241.441 35.9674 241.174 36.4004 240.823 36.7832C240.472 37.1615 240.014 37.4622 239.449 37.6855C238.889 37.9043 238.196 38.0137 237.371 38.0137H237.241V36.9404ZM243.94 37.3301C243.94 37.1159 244.007 36.9359 244.139 36.79C244.275 36.6396 244.471 36.5645 244.727 36.5645C244.982 36.5645 245.175 36.6396 245.308 36.79C245.444 36.9359 245.513 37.1159 245.513 37.3301C245.513 37.5397 245.444 37.7174 245.308 37.8633C245.175 38.0091 244.982 38.082 244.727 38.082C244.471 38.082 244.275 38.0091 244.139 37.8633C244.007 37.7174 243.94 37.5397 243.94 37.3301ZM243.947 31.2939C243.947 31.0798 244.013 30.8997 244.146 30.7539C244.282 30.6035 244.478 30.5283 244.733 30.5283C244.989 30.5283 245.182 30.6035 245.314 30.7539C245.451 30.8997 245.52 31.0798 245.52 31.2939C245.52 31.5036 245.451 31.6813 245.314 31.8271C245.182 31.973 244.989 32.0459 244.733 32.0459C244.478 32.0459 244.282 31.973 244.146 31.8271C244.013 31.6813 243.947 31.5036 243.947 31.2939ZM253.976 34.6504V35.6895H246.784V34.9443L251.241 28.0469H252.273L251.166 30.043L248.22 34.6504H253.976ZM252.588 28.0469V38H251.323V28.0469H252.588ZM259.28 27.9922V38H258.016V29.5713L255.466 30.501V29.3594L259.082 27.9922H259.28ZM270.484 28.9287L267.189 38H265.843L269.637 28.0469H270.505L270.484 28.9287ZM273.246 38L269.944 28.9287L269.924 28.0469H270.792L274.6 38H273.246ZM273.075 34.3154V35.3955H267.483V34.3154H273.075ZM276.35 28.0469H277.628L280.889 36.1611L284.143 28.0469H285.428L281.381 38H280.383L276.35 28.0469ZM275.933 28.0469H277.061L277.245 34.1172V38H275.933V28.0469ZM284.71 28.0469H285.838V38H284.525V34.1172L284.71 28.0469Z" fill="#080707"/>
</svg>
