<svg width="287" height="50" viewBox="0 0 287 50" fill="none" xmlns="http://www.w3.org/2000/svg">
<path d="M10.1797 12.625V24H8.21875L3.11719 15.8516V24H1.15625V12.625H3.11719L8.23438 20.7891V12.625H10.1797ZM14.1875 12V24H12.3125V12H14.1875ZM13.8594 19.4609L13.25 19.4531C13.2552 18.8698 13.3359 18.3307 13.4922 17.8359C13.6536 17.3411 13.8776 16.9115 14.1641 16.5469C14.4557 16.1771 14.8047 15.8932 15.2109 15.6953C15.6172 15.4922 16.0677 15.3906 16.5625 15.3906C16.9792 15.3906 17.3542 15.4479 17.6875 15.5625C18.026 15.6771 18.3177 15.862 18.5625 16.1172C18.8073 16.3672 18.9922 16.6953 19.1172 17.1016C19.2474 17.5026 19.3125 17.9922 19.3125 18.5703V24H17.4219V18.5547C17.4219 18.1484 17.362 17.8255 17.2422 17.5859C17.1276 17.3464 16.9583 17.1745 16.7344 17.0703C16.5104 16.9609 16.237 16.9062 15.9141 16.9062C15.5755 16.9062 15.276 16.974 15.0156 17.1094C14.7604 17.2448 14.5469 17.4297 14.375 17.6641C14.2031 17.8984 14.0729 18.1693 13.9844 18.4766C13.901 18.7839 13.8594 19.112 13.8594 19.4609ZM20.8594 19.8672V19.6875C20.8594 19.0781 20.9479 18.513 21.125 17.9922C21.3021 17.4661 21.5573 17.0104 21.8906 16.625C22.2292 16.2344 22.6406 15.9323 23.125 15.7188C23.6146 15.5 24.1667 15.3906 24.7812 15.3906C25.401 15.3906 25.9531 15.5 26.4375 15.7188C26.9271 15.9323 27.3411 16.2344 27.6797 16.625C28.0182 17.0104 28.276 17.4661 28.4531 17.9922C28.6302 18.513 28.7188 19.0781 28.7188 19.6875V19.8672C28.7188 20.4766 28.6302 21.0417 28.4531 21.5625C28.276 22.0833 28.0182 22.5391 27.6797 22.9297C27.3411 23.3151 26.9297 23.6172 26.4453 23.8359C25.9609 24.0495 25.4115 24.1562 24.7969 24.1562C24.1771 24.1562 23.6224 24.0495 23.1328 23.8359C22.6484 23.6172 22.237 23.3151 21.8984 22.9297C21.5599 22.5391 21.3021 22.0833 21.125 21.5625C20.9479 21.0417 20.8594 20.4766 20.8594 19.8672ZM22.7422 19.6875V19.8672C22.7422 20.2474 22.7812 20.6068 22.8594 20.9453C22.9375 21.2839 23.0599 21.5807 23.2266 21.8359C23.3932 22.0911 23.6068 22.2917 23.8672 22.4375C24.1276 22.5833 24.4375 22.6562 24.7969 22.6562C25.1458 22.6562 25.4479 22.5833 25.7031 22.4375C25.9635 22.2917 26.1771 22.0911 26.3438 21.8359C26.5104 21.5807 26.6328 21.2839 26.7109 20.9453C26.7943 20.6068 26.8359 20.2474 26.8359 19.8672V19.6875C26.8359 19.3125 26.7943 18.9583 26.7109 18.625C26.6328 18.2865 26.5078 17.987 26.3359 17.7266C26.1693 17.4661 25.9557 17.263 25.6953 17.1172C25.4401 16.9661 25.1354 16.8906 24.7812 16.8906C24.4271 16.8906 24.1198 16.9661 23.8594 17.1172C23.6042 17.263 23.3932 17.4661 23.2266 17.7266C23.0599 17.987 22.9375 18.2865 22.8594 18.625C22.7812 18.9583 22.7422 19.3125 22.7422 19.6875ZM23.7969 14.3516L25.3203 12H27.4453L25.3203 14.3516H23.7969ZM32.1797 17.2656V24H30.2969V15.5469H32.0703L32.1797 17.2656ZM31.875 19.4609L31.2344 19.4531C31.2344 18.8698 31.3073 18.3307 31.4531 17.8359C31.599 17.3411 31.8125 16.9115 32.0938 16.5469C32.375 16.1771 32.724 15.8932 33.1406 15.6953C33.5625 15.4922 34.0495 15.3906 34.6016 15.3906C34.987 15.3906 35.3385 15.4479 35.6562 15.5625C35.9792 15.6719 36.2578 15.8464 36.4922 16.0859C36.7318 16.3255 36.9141 16.6328 37.0391 17.0078C37.1693 17.3828 37.2344 17.8359 37.2344 18.3672V24H35.3516V18.5312C35.3516 18.1198 35.2891 17.7969 35.1641 17.5625C35.0443 17.3281 34.8698 17.1615 34.6406 17.0625C34.4167 16.9583 34.1484 16.9062 33.8359 16.9062C33.4818 16.9062 33.1797 16.974 32.9297 17.1094C32.6849 17.2448 32.4844 17.4297 32.3281 17.6641C32.1719 17.8984 32.0573 18.1693 31.9844 18.4766C31.9115 18.7839 31.875 19.112 31.875 19.4609ZM37.1172 18.9609L36.2344 19.1562C36.2344 18.6458 36.3047 18.1641 36.4453 17.7109C36.5911 17.2526 36.8021 16.8516 37.0781 16.5078C37.3594 16.1589 37.7057 15.8854 38.1172 15.6875C38.5286 15.4896 39 15.3906 39.5312 15.3906C39.9635 15.3906 40.349 15.4505 40.6875 15.5703C41.0312 15.6849 41.3229 15.8672 41.5625 16.1172C41.8021 16.3672 41.9844 16.6927 42.1094 17.0938C42.2344 17.4896 42.2969 17.9688 42.2969 18.5312V24H40.4062V18.5234C40.4062 18.0964 40.3438 17.7656 40.2188 17.5312C40.099 17.2969 39.9271 17.1354 39.7031 17.0469C39.4792 16.9531 39.2109 16.9062 38.8984 16.9062C38.6068 16.9062 38.349 16.9609 38.125 17.0703C37.9062 17.1745 37.7214 17.3229 37.5703 17.5156C37.4193 17.7031 37.3047 17.9193 37.2266 18.1641C37.1536 18.4089 37.1172 18.6745 37.1172 18.9609ZM55.125 20.2969H57.0781C57.0156 21.0417 56.8073 21.7057 56.4531 22.2891C56.099 22.8672 55.6016 23.3229 54.9609 23.6562C54.3203 23.9896 53.5417 24.1562 52.625 24.1562C51.9219 24.1562 51.2891 24.0312 50.7266 23.7812C50.1641 23.526 49.6823 23.1667 49.2812 22.7031C48.8802 22.2344 48.5729 21.6693 48.3594 21.0078C48.151 20.3464 48.0469 19.6068 48.0469 18.7891V17.8438C48.0469 17.026 48.1536 16.2865 48.3672 15.625C48.5859 14.9635 48.8984 14.3984 49.3047 13.9297C49.7109 13.4557 50.1979 13.0938 50.7656 12.8438C51.3385 12.5938 51.9818 12.4688 52.6953 12.4688C53.6016 12.4688 54.3672 12.6354 54.9922 12.9688C55.6172 13.3021 56.1016 13.763 56.4453 14.3516C56.7943 14.9401 57.0078 15.6146 57.0859 16.375H55.1328C55.0807 15.8854 54.9661 15.4661 54.7891 15.1172C54.6172 14.7682 54.362 14.5026 54.0234 14.3203C53.6849 14.1328 53.2422 14.0391 52.6953 14.0391C52.2474 14.0391 51.8568 14.1224 51.5234 14.2891C51.1901 14.4557 50.9115 14.7005 50.6875 15.0234C50.4635 15.3464 50.2943 15.7448 50.1797 16.2188C50.0703 16.6875 50.0156 17.224 50.0156 17.8281V18.7891C50.0156 19.362 50.0651 19.8828 50.1641 20.3516C50.2682 20.8151 50.4245 21.2135 50.6328 21.5469C50.8464 21.8802 51.1172 22.138 51.4453 22.3203C51.7734 22.5026 52.1667 22.5938 52.625 22.5938C53.1823 22.5938 53.6328 22.5052 53.9766 22.3281C54.3255 22.151 54.5885 21.8932 54.7656 21.5547C54.9479 21.2109 55.0677 20.7917 55.125 20.2969ZM66.3047 22.4453V24H60.2656V22.4453H66.3047ZM60.8203 12.625V24H58.8594V12.625H60.8203ZM65.5156 17.375V18.9062H60.2656V17.375H65.5156ZM66.2656 12.625V14.1875H60.2656V12.625H66.2656ZM76.9766 18V18.625C76.9766 19.4844 76.8646 20.2552 76.6406 20.9375C76.4167 21.6198 76.0964 22.2005 75.6797 22.6797C75.2682 23.1589 74.7734 23.526 74.1953 23.7812C73.6172 24.0312 72.9766 24.1562 72.2734 24.1562C71.5755 24.1562 70.9375 24.0312 70.3594 23.7812C69.7865 23.526 69.2891 23.1589 68.8672 22.6797C68.4453 22.2005 68.1172 21.6198 67.8828 20.9375C67.6536 20.2552 67.5391 19.4844 67.5391 18.625V18C67.5391 17.1406 67.6536 16.3724 67.8828 15.6953C68.112 15.013 68.4349 14.4323 68.8516 13.9531C69.2734 13.4688 69.7708 13.1016 70.3438 12.8516C70.9219 12.5964 71.5599 12.4688 72.2578 12.4688C72.9609 12.4688 73.6016 12.5964 74.1797 12.8516C74.7578 13.1016 75.2552 13.4688 75.6719 13.9531C76.0885 14.4323 76.4089 15.013 76.6328 15.6953C76.862 16.3724 76.9766 17.1406 76.9766 18ZM75.0156 18.625V17.9844C75.0156 17.349 74.9531 16.7891 74.8281 16.3047C74.7083 15.8151 74.5286 15.4062 74.2891 15.0781C74.0547 14.7448 73.7656 14.4948 73.4219 14.3281C73.0781 14.1562 72.6901 14.0703 72.2578 14.0703C71.8255 14.0703 71.4401 14.1562 71.1016 14.3281C70.763 14.4948 70.474 14.7448 70.2344 15.0781C70 15.4062 69.8203 15.8151 69.6953 16.3047C69.5703 16.7891 69.5078 17.349 69.5078 17.9844V18.625C69.5078 19.2604 69.5703 19.8229 69.6953 20.3125C69.8203 20.8021 70.0026 21.2161 70.2422 21.5547C70.487 21.888 70.7786 22.1406 71.1172 22.3125C71.4557 22.4792 71.8411 22.5625 72.2734 22.5625C72.7109 22.5625 73.099 22.4792 73.4375 22.3125C73.776 22.1406 74.0625 21.888 74.2969 21.5547C74.5312 21.2161 74.7083 20.8021 74.8281 20.3125C74.9531 19.8229 75.0156 19.2604 75.0156 18.625Z" fill="#080707"/>
<path d="M1.8252 34.0469H3.56152L6.11816 41.3545L8.6748 34.0469H10.4111L6.81543 44H5.4209L1.8252 34.0469ZM0.888672 34.0469H2.61816L2.93262 41.1699V44H0.888672V34.0469ZM9.61816 34.0469H11.3545V44H9.30371V41.1699L9.61816 34.0469ZM17.0215 42.332V39.0371C17.0215 38.8001 16.9827 38.5973 16.9053 38.4287C16.8278 38.2555 16.707 38.1211 16.543 38.0254C16.3835 37.9297 16.1761 37.8818 15.9209 37.8818C15.7021 37.8818 15.513 37.9206 15.3535 37.998C15.194 38.071 15.071 38.1781 14.9844 38.3193C14.8978 38.4561 14.8545 38.6178 14.8545 38.8047H12.8857C12.8857 38.4902 12.9587 38.1917 13.1045 37.9092C13.2503 37.6266 13.4622 37.3783 13.7402 37.1641C14.0182 36.9453 14.3486 36.7744 14.7314 36.6514C15.1188 36.5283 15.5518 36.4668 16.0303 36.4668C16.6045 36.4668 17.1149 36.5625 17.5615 36.7539C18.0081 36.9453 18.359 37.2324 18.6143 37.6152C18.874 37.998 19.0039 38.4766 19.0039 39.0508V42.2158C19.0039 42.6214 19.029 42.9541 19.0791 43.2139C19.1292 43.4691 19.2021 43.6924 19.2979 43.8838V44H17.3086C17.2129 43.7995 17.14 43.5488 17.0898 43.248C17.0443 42.9427 17.0215 42.6374 17.0215 42.332ZM17.2812 39.4951L17.2949 40.6094H16.1943C15.9346 40.6094 15.709 40.639 15.5176 40.6982C15.3262 40.7575 15.1689 40.8418 15.0459 40.9512C14.9229 41.056 14.8317 41.179 14.7725 41.3203C14.7178 41.4616 14.6904 41.6165 14.6904 41.7852C14.6904 41.9538 14.7292 42.1064 14.8066 42.2432C14.8841 42.3753 14.9958 42.4801 15.1416 42.5576C15.2874 42.6305 15.4583 42.667 15.6543 42.667C15.9505 42.667 16.208 42.6077 16.4268 42.4893C16.6455 42.3708 16.8141 42.2249 16.9326 42.0518C17.0557 41.8786 17.1195 41.7145 17.124 41.5596L17.6436 42.3936C17.5706 42.5804 17.4704 42.7741 17.3428 42.9746C17.2197 43.1751 17.0625 43.3643 16.8711 43.542C16.6797 43.7152 16.4495 43.8587 16.1807 43.9727C15.9118 44.082 15.5928 44.1367 15.2236 44.1367C14.7542 44.1367 14.3281 44.0433 13.9453 43.8564C13.5671 43.665 13.2663 43.403 13.043 43.0703C12.8242 42.7331 12.7148 42.3503 12.7148 41.9219C12.7148 41.5345 12.7878 41.1904 12.9336 40.8896C13.0794 40.5889 13.2936 40.3359 13.5762 40.1309C13.8633 39.9212 14.221 39.764 14.6494 39.6592C15.0778 39.5498 15.5745 39.4951 16.1396 39.4951H17.2812ZM22.5996 36.6035V44H20.624V36.6035H22.5996ZM20.501 34.6758C20.501 34.3887 20.6012 34.1517 20.8018 33.9648C21.0023 33.778 21.2712 33.6846 21.6084 33.6846C21.9411 33.6846 22.2077 33.778 22.4082 33.9648C22.6133 34.1517 22.7158 34.3887 22.7158 34.6758C22.7158 34.9629 22.6133 35.1999 22.4082 35.3867C22.2077 35.5736 21.9411 35.667 21.6084 35.667C21.2712 35.667 21.0023 35.5736 20.8018 35.3867C20.6012 35.1999 20.501 34.9629 20.501 34.6758ZM31.7051 42.332V39.0371C31.7051 38.8001 31.6663 38.5973 31.5889 38.4287C31.5114 38.2555 31.3906 38.1211 31.2266 38.0254C31.0671 37.9297 30.8597 37.8818 30.6045 37.8818C30.3857 37.8818 30.1966 37.9206 30.0371 37.998C29.8776 38.071 29.7546 38.1781 29.668 38.3193C29.5814 38.4561 29.5381 38.6178 29.5381 38.8047H27.5693C27.5693 38.4902 27.6423 38.1917 27.7881 37.9092C27.9339 37.6266 28.1458 37.3783 28.4238 37.1641C28.7018 36.9453 29.0322 36.7744 29.415 36.6514C29.8024 36.5283 30.2354 36.4668 30.7139 36.4668C31.2881 36.4668 31.7985 36.5625 32.2451 36.7539C32.6917 36.9453 33.0426 37.2324 33.2979 37.6152C33.5576 37.998 33.6875 38.4766 33.6875 39.0508V42.2158C33.6875 42.6214 33.7126 42.9541 33.7627 43.2139C33.8128 43.4691 33.8857 43.6924 33.9814 43.8838V44H31.9922C31.8965 43.7995 31.8236 43.5488 31.7734 43.248C31.7279 42.9427 31.7051 42.6374 31.7051 42.332ZM31.9648 39.4951L31.9785 40.6094H30.8779C30.6182 40.6094 30.3926 40.639 30.2012 40.6982C30.0098 40.7575 29.8525 40.8418 29.7295 40.9512C29.6064 41.056 29.5153 41.179 29.4561 41.3203C29.4014 41.4616 29.374 41.6165 29.374 41.7852C29.374 41.9538 29.4128 42.1064 29.4902 42.2432C29.5677 42.3753 29.6794 42.4801 29.8252 42.5576C29.971 42.6305 30.1419 42.667 30.3379 42.667C30.6341 42.667 30.8916 42.6077 31.1104 42.4893C31.3291 42.3708 31.4977 42.2249 31.6162 42.0518C31.7393 41.8786 31.8031 41.7145 31.8076 41.5596L32.3271 42.3936C32.2542 42.5804 32.154 42.7741 32.0264 42.9746C31.9033 43.1751 31.7461 43.3643 31.5547 43.542C31.3633 43.7152 31.1331 43.8587 30.8643 43.9727C30.5954 44.082 30.2764 44.1367 29.9072 44.1367C29.4378 44.1367 29.0117 44.0433 28.6289 43.8564C28.2507 43.665 27.9499 43.403 27.7266 43.0703C27.5078 42.7331 27.3984 42.3503 27.3984 41.9219C27.3984 41.5345 27.4714 41.1904 27.6172 40.8896C27.763 40.5889 27.9772 40.3359 28.2598 40.1309C28.5469 39.9212 28.9046 39.764 29.333 39.6592C29.7614 39.5498 30.2581 39.4951 30.8232 39.4951H31.9648ZM37.1328 38.1826V44H35.1641V36.6035H37.0098L37.1328 38.1826ZM36.8457 40.042H36.3125C36.3125 39.4951 36.3831 39.0029 36.5244 38.5654C36.6657 38.1234 36.8639 37.7474 37.1191 37.4375C37.3743 37.123 37.6774 36.8838 38.0283 36.7197C38.3838 36.5511 38.7803 36.4668 39.2178 36.4668C39.5641 36.4668 39.8809 36.5169 40.168 36.6172C40.4551 36.7174 40.7012 36.877 40.9062 37.0957C41.1159 37.3145 41.2754 37.6038 41.3848 37.9639C41.4987 38.3239 41.5557 38.7637 41.5557 39.2832V44H39.5732V39.2764C39.5732 38.9482 39.5277 38.693 39.4365 38.5107C39.3454 38.3285 39.2109 38.2008 39.0332 38.1279C38.86 38.0505 38.6458 38.0117 38.3906 38.0117C38.1263 38.0117 37.8962 38.0641 37.7002 38.1689C37.5088 38.2738 37.3493 38.4196 37.2217 38.6064C37.0986 38.7887 37.0052 39.0029 36.9414 39.249C36.8776 39.4951 36.8457 39.7594 36.8457 40.042ZM44.9736 33.5V44H43.0049V33.5H44.9736ZM44.6934 40.042H44.1533C44.1579 39.527 44.2262 39.0531 44.3584 38.6201C44.4906 38.1826 44.6797 37.8044 44.9258 37.4854C45.1719 37.1618 45.4658 36.9111 45.8076 36.7334C46.154 36.5557 46.5368 36.4668 46.9561 36.4668C47.3206 36.4668 47.651 36.5192 47.9473 36.624C48.248 36.7243 48.5055 36.8883 48.7197 37.1162C48.9385 37.3395 49.1071 37.6335 49.2256 37.998C49.3441 38.3626 49.4033 38.8047 49.4033 39.3242V44H47.4209V39.3105C47.4209 38.9824 47.373 38.7249 47.2773 38.5381C47.1862 38.3467 47.0518 38.2122 46.874 38.1348C46.7008 38.0527 46.4867 38.0117 46.2314 38.0117C45.9489 38.0117 45.7074 38.0641 45.5068 38.1689C45.3109 38.2738 45.1536 38.4196 45.0352 38.6064C44.9167 38.7887 44.8301 39.0029 44.7754 39.249C44.7207 39.4951 44.6934 39.7594 44.6934 40.042ZM57.791 44.1367C57.2168 44.1367 56.7018 44.0456 56.2461 43.8633C55.7904 43.6764 55.403 43.4189 55.084 43.0908C54.7695 42.7627 54.528 42.3822 54.3594 41.9492C54.1908 41.5117 54.1064 41.0469 54.1064 40.5547V40.2812C54.1064 39.7207 54.1862 39.208 54.3457 38.7432C54.5052 38.2783 54.7331 37.875 55.0293 37.5332C55.3301 37.1914 55.6947 36.9294 56.123 36.7471C56.5514 36.5602 57.0345 36.4668 57.5723 36.4668C58.0964 36.4668 58.5612 36.5534 58.9668 36.7266C59.3724 36.8997 59.7119 37.1458 59.9854 37.4648C60.2633 37.7839 60.473 38.1667 60.6143 38.6133C60.7555 39.0553 60.8262 39.5475 60.8262 40.0898V40.9102H54.9473V39.5977H58.8916V39.4473C58.8916 39.1738 58.8415 38.93 58.7412 38.7158C58.6455 38.4971 58.4997 38.3239 58.3037 38.1963C58.1077 38.0687 57.8571 38.0049 57.5518 38.0049C57.292 38.0049 57.0687 38.0618 56.8818 38.1758C56.695 38.2897 56.5423 38.4492 56.4238 38.6543C56.3099 38.8594 56.2233 39.1009 56.1641 39.3789C56.1094 39.6523 56.082 39.9531 56.082 40.2812V40.5547C56.082 40.8509 56.123 41.1243 56.2051 41.375C56.2917 41.6257 56.4124 41.8421 56.5674 42.0244C56.7269 42.2067 56.9183 42.348 57.1416 42.4482C57.3695 42.5485 57.627 42.5986 57.9141 42.5986C58.2695 42.5986 58.5999 42.5303 58.9053 42.3936C59.2152 42.2523 59.4818 42.0404 59.7051 41.7578L60.6621 42.7969C60.5072 43.0202 60.2952 43.2344 60.0264 43.4395C59.762 43.6445 59.443 43.8132 59.0693 43.9453C58.6956 44.0729 58.2695 44.1367 57.791 44.1367ZM63.916 38.1348V44H61.9404V36.6035H63.793L63.916 38.1348ZM63.6426 40.042H63.0957C63.0957 39.527 63.1572 39.0531 63.2803 38.6201C63.4079 38.1826 63.5924 37.8044 63.834 37.4854C64.0801 37.1618 64.3831 36.9111 64.7432 36.7334C65.1032 36.5557 65.5202 36.4668 65.9941 36.4668C66.3223 36.4668 66.623 36.5169 66.8965 36.6172C67.1699 36.7129 67.4046 36.8656 67.6006 37.0752C67.8011 37.2803 67.9561 37.5492 68.0654 37.8818C68.1748 38.21 68.2295 38.6042 68.2295 39.0645V44H66.2607V39.2832C66.2607 38.946 66.2152 38.6862 66.124 38.5039C66.0329 38.3216 65.903 38.194 65.7344 38.1211C65.5703 38.0482 65.3721 38.0117 65.1396 38.0117C64.8844 38.0117 64.6611 38.0641 64.4697 38.1689C64.2829 38.2738 64.1279 38.4196 64.0049 38.6064C63.8818 38.7887 63.7907 39.0029 63.7314 39.249C63.6722 39.4951 63.6426 39.7594 63.6426 40.042ZM68.0449 39.8164L67.3408 39.9053C67.3408 39.4222 67.4001 38.9733 67.5186 38.5586C67.6416 38.1439 67.8216 37.7793 68.0586 37.4648C68.3001 37.1504 68.5986 36.9066 68.9541 36.7334C69.3096 36.5557 69.7197 36.4668 70.1846 36.4668C70.54 36.4668 70.8636 36.5192 71.1553 36.624C71.4469 36.7243 71.6953 36.8861 71.9004 37.1094C72.11 37.3281 72.2695 37.6152 72.3789 37.9707C72.4928 38.3262 72.5498 38.7614 72.5498 39.2764V44H70.5742V39.2764C70.5742 38.9346 70.5286 38.6748 70.4375 38.4971C70.3509 38.3148 70.2233 38.1895 70.0547 38.1211C69.8906 38.0482 69.6947 38.0117 69.4668 38.0117C69.2298 38.0117 69.0225 38.0596 68.8447 38.1553C68.667 38.2464 68.5189 38.374 68.4004 38.5381C68.2819 38.7021 68.193 38.8936 68.1338 39.1123C68.0745 39.3265 68.0449 39.5612 68.0449 39.8164ZM81.9287 42.3867V33.5H83.9111V44H82.127L81.9287 42.3867ZM77.2529 40.3906V40.2471C77.2529 39.682 77.3167 39.1693 77.4443 38.709C77.5719 38.2441 77.7588 37.8454 78.0049 37.5127C78.251 37.18 78.554 36.9225 78.9141 36.7402C79.2741 36.5579 79.6842 36.4668 80.1445 36.4668C80.5775 36.4668 80.9557 36.5579 81.2793 36.7402C81.6074 36.9225 81.8854 37.1823 82.1133 37.5195C82.3457 37.8522 82.5326 38.2464 82.6738 38.7021C82.8151 39.1533 82.9176 39.6478 82.9814 40.1855V40.5C82.9176 41.015 82.8151 41.4935 82.6738 41.9355C82.5326 42.3776 82.3457 42.765 82.1133 43.0977C81.8854 43.4258 81.6074 43.681 81.2793 43.8633C80.9512 44.0456 80.5684 44.1367 80.1309 44.1367C79.6706 44.1367 79.2604 44.0433 78.9004 43.8564C78.5449 43.6696 78.2441 43.4076 77.998 43.0703C77.7565 42.7331 77.5719 42.3366 77.4443 41.8809C77.3167 41.4251 77.2529 40.9284 77.2529 40.3906ZM79.2217 40.2471V40.3906C79.2217 40.696 79.2445 40.9808 79.29 41.2451C79.3402 41.5094 79.4199 41.7441 79.5293 41.9492C79.6432 42.1497 79.7891 42.307 79.9668 42.4209C80.1491 42.5303 80.3701 42.585 80.6299 42.585C80.9671 42.585 81.2451 42.5098 81.4639 42.3594C81.6826 42.2044 81.849 41.9925 81.9629 41.7236C82.0814 41.4548 82.1497 41.1449 82.168 40.7939V39.8984C82.1543 39.6113 82.1133 39.3538 82.0449 39.126C81.9811 38.8936 81.8854 38.6953 81.7578 38.5312C81.6348 38.3672 81.4798 38.2396 81.293 38.1484C81.1107 38.0573 80.8942 38.0117 80.6436 38.0117C80.3883 38.0117 80.1696 38.071 79.9873 38.1895C79.805 38.3034 79.6569 38.4606 79.543 38.6611C79.4336 38.8617 79.3516 39.0986 79.2969 39.3721C79.2467 39.641 79.2217 39.9326 79.2217 40.2471ZM84.9707 34.4365V35.6533H80.1855V34.4365H84.9707ZM88.457 36.6035V44H86.4814V36.6035H88.457ZM86.3584 34.6758C86.3584 34.3887 86.4587 34.1517 86.6592 33.9648C86.8597 33.778 87.1286 33.6846 87.4658 33.6846C87.7985 33.6846 88.0651 33.778 88.2656 33.9648C88.4707 34.1517 88.5732 34.3887 88.5732 34.6758C88.5732 34.9629 88.4707 35.1999 88.2656 35.3867C88.0651 35.5736 87.7985 35.667 87.4658 35.667C87.1286 35.667 86.8597 35.5736 86.6592 35.3867C86.4587 35.1999 86.3584 34.9629 86.3584 34.6758ZM95.498 38.1826V44H93.5293V36.6035H95.375L95.498 38.1826ZM95.2109 40.042H94.6777C94.6777 39.4951 94.7484 39.0029 94.8896 38.5654C95.0309 38.1234 95.2292 37.7474 95.4844 37.4375C95.7396 37.123 96.0426 36.8838 96.3936 36.7197C96.749 36.5511 97.1455 36.4668 97.583 36.4668C97.9294 36.4668 98.2461 36.5169 98.5332 36.6172C98.8203 36.7174 99.0664 36.877 99.2715 37.0957C99.4811 37.3145 99.6406 37.6038 99.75 37.9639C99.8639 38.3239 99.9209 38.7637 99.9209 39.2832V44H97.9385V39.2764C97.9385 38.9482 97.8929 38.693 97.8018 38.5107C97.7106 38.3285 97.5762 38.2008 97.3984 38.1279C97.2253 38.0505 97.0111 38.0117 96.7559 38.0117C96.4915 38.0117 96.2614 38.0641 96.0654 38.1689C95.874 38.2738 95.7145 38.4196 95.5869 38.6064C95.4639 38.7887 95.3704 39.0029 95.3066 39.249C95.2428 39.4951 95.2109 39.7594 95.2109 40.042ZM103.339 33.5V44H101.37V33.5H103.339ZM103.059 40.042H102.519C102.523 39.527 102.591 39.0531 102.724 38.6201C102.856 38.1826 103.045 37.8044 103.291 37.4854C103.537 37.1618 103.831 36.9111 104.173 36.7334C104.519 36.5557 104.902 36.4668 105.321 36.4668C105.686 36.4668 106.016 36.5192 106.312 36.624C106.613 36.7243 106.871 36.8883 107.085 37.1162C107.304 37.3395 107.472 37.6335 107.591 37.998C107.709 38.3626 107.769 38.8047 107.769 39.3242V44H105.786V39.3105C105.786 38.9824 105.738 38.7249 105.643 38.5381C105.551 38.3467 105.417 38.2122 105.239 38.1348C105.066 38.0527 104.852 38.0117 104.597 38.0117C104.314 38.0117 104.073 38.0641 103.872 38.1689C103.676 38.2738 103.519 38.4196 103.4 38.6064C103.282 38.7887 103.195 39.0029 103.141 39.249C103.086 39.4951 103.059 39.7594 103.059 40.042ZM113.258 42.332V39.0371C113.258 38.8001 113.219 38.5973 113.142 38.4287C113.064 38.2555 112.943 38.1211 112.779 38.0254C112.62 37.9297 112.412 37.8818 112.157 37.8818C111.938 37.8818 111.749 37.9206 111.59 37.998C111.43 38.071 111.307 38.1781 111.221 38.3193C111.134 38.4561 111.091 38.6178 111.091 38.8047H109.122C109.122 38.4902 109.195 38.1917 109.341 37.9092C109.487 37.6266 109.699 37.3783 109.977 37.1641C110.255 36.9453 110.585 36.7744 110.968 36.6514C111.355 36.5283 111.788 36.4668 112.267 36.4668C112.841 36.4668 113.351 36.5625 113.798 36.7539C114.244 36.9453 114.595 37.2324 114.851 37.6152C115.11 37.998 115.24 38.4766 115.24 39.0508V42.2158C115.24 42.6214 115.265 42.9541 115.315 43.2139C115.366 43.4691 115.438 43.6924 115.534 43.8838V44H113.545C113.449 43.7995 113.376 43.5488 113.326 43.248C113.281 42.9427 113.258 42.6374 113.258 42.332ZM113.518 39.4951L113.531 40.6094H112.431C112.171 40.6094 111.945 40.639 111.754 40.6982C111.562 40.7575 111.405 40.8418 111.282 40.9512C111.159 41.056 111.068 41.179 111.009 41.3203C110.954 41.4616 110.927 41.6165 110.927 41.7852C110.927 41.9538 110.965 42.1064 111.043 42.2432C111.12 42.3753 111.232 42.4801 111.378 42.5576C111.524 42.6305 111.695 42.667 111.891 42.667C112.187 42.667 112.444 42.6077 112.663 42.4893C112.882 42.3708 113.05 42.2249 113.169 42.0518C113.292 41.8786 113.356 41.7145 113.36 41.5596L113.88 42.3936C113.807 42.5804 113.707 42.7741 113.579 42.9746C113.456 43.1751 113.299 43.3643 113.107 43.542C112.916 43.7152 112.686 43.8587 112.417 43.9727C112.148 44.082 111.829 44.1367 111.46 44.1367C110.991 44.1367 110.564 44.0433 110.182 43.8564C109.803 43.665 109.503 43.403 109.279 43.0703C109.061 42.7331 108.951 42.3503 108.951 41.9219C108.951 41.5345 109.024 41.1904 109.17 40.8896C109.316 40.5889 109.53 40.3359 109.812 40.1309C110.1 39.9212 110.457 39.764 110.886 39.6592C111.314 39.5498 111.811 39.4951 112.376 39.4951H113.518ZM112.834 33.5L114.898 35.4004V35.4824H113.333L112.26 34.4844L111.2 35.4824H109.662V35.3799L111.692 33.5H112.834ZM110.64 45.5039C110.64 45.2396 110.74 45.0186 110.94 44.8408C111.141 44.6676 111.41 44.5811 111.747 44.5811C112.08 44.5811 112.346 44.6676 112.547 44.8408C112.752 45.0186 112.854 45.2396 112.854 45.5039C112.854 45.7637 112.752 45.9824 112.547 46.1602C112.346 46.3379 112.08 46.4268 111.747 46.4268C111.41 46.4268 111.141 46.3379 110.94 46.1602C110.74 45.9824 110.64 45.7637 110.64 45.5039ZM121.133 42.2295V36.6035H123.102V44H121.249L121.133 42.2295ZM121.352 40.7119L121.933 40.6982C121.933 41.1904 121.876 41.6484 121.762 42.0723C121.648 42.4915 121.477 42.8561 121.249 43.166C121.021 43.4714 120.734 43.7106 120.388 43.8838C120.041 44.0524 119.633 44.1367 119.164 44.1367C118.804 44.1367 118.471 44.0866 118.166 43.9863C117.865 43.8815 117.605 43.7197 117.387 43.501C117.173 43.2777 117.004 42.9928 116.881 42.6465C116.762 42.2956 116.703 41.874 116.703 41.3818V36.6035H118.672V41.3955C118.672 41.6143 118.697 41.7988 118.747 41.9492C118.802 42.0996 118.877 42.2227 118.973 42.3184C119.068 42.4141 119.18 42.4824 119.308 42.5234C119.44 42.5645 119.586 42.585 119.745 42.585C120.151 42.585 120.47 42.5029 120.702 42.3389C120.939 42.1748 121.105 41.9515 121.201 41.6689C121.301 41.3818 121.352 41.0628 121.352 40.7119ZM130.02 38.1826V44H128.051V36.6035H129.896L130.02 38.1826ZM129.732 40.042H129.199C129.199 39.4951 129.27 39.0029 129.411 38.5654C129.552 38.1234 129.751 37.7474 130.006 37.4375C130.261 37.123 130.564 36.8838 130.915 36.7197C131.271 36.5511 131.667 36.4668 132.104 36.4668C132.451 36.4668 132.768 36.5169 133.055 36.6172C133.342 36.7174 133.588 36.877 133.793 37.0957C134.003 37.3145 134.162 37.6038 134.271 37.9639C134.385 38.3239 134.442 38.7637 134.442 39.2832V44H132.46V39.2764C132.46 38.9482 132.414 38.693 132.323 38.5107C132.232 38.3285 132.098 38.2008 131.92 38.1279C131.747 38.0505 131.533 38.0117 131.277 38.0117C131.013 38.0117 130.783 38.0641 130.587 38.1689C130.396 38.2738 130.236 38.4196 130.108 38.6064C129.985 38.7887 129.892 39.0029 129.828 39.249C129.764 39.4951 129.732 39.7594 129.732 40.042ZM137.86 33.5V44H135.892V33.5H137.86ZM137.58 40.042H137.04C137.045 39.527 137.113 39.0531 137.245 38.6201C137.377 38.1826 137.566 37.8044 137.812 37.4854C138.059 37.1618 138.353 36.9111 138.694 36.7334C139.041 36.5557 139.424 36.4668 139.843 36.4668C140.207 36.4668 140.538 36.5192 140.834 36.624C141.135 36.7243 141.392 36.8883 141.606 37.1162C141.825 37.3395 141.994 37.6335 142.112 37.998C142.231 38.3626 142.29 38.8047 142.29 39.3242V44H140.308V39.3105C140.308 38.9824 140.26 38.7249 140.164 38.5381C140.073 38.3467 139.938 38.2122 139.761 38.1348C139.588 38.0527 139.373 38.0117 139.118 38.0117C138.836 38.0117 138.594 38.0641 138.394 38.1689C138.198 38.2738 138.04 38.4196 137.922 38.6064C137.803 38.7887 137.717 39.0029 137.662 39.249C137.607 39.4951 137.58 39.7594 137.58 40.042ZM147.191 44.1367C146.617 44.1367 146.102 44.0456 145.646 43.8633C145.191 43.6764 144.803 43.4189 144.484 43.0908C144.17 42.7627 143.928 42.3822 143.76 41.9492C143.591 41.5117 143.507 41.0469 143.507 40.5547V40.2812C143.507 39.7207 143.587 39.208 143.746 38.7432C143.906 38.2783 144.133 37.875 144.43 37.5332C144.73 37.1914 145.095 36.9294 145.523 36.7471C145.952 36.5602 146.435 36.4668 146.973 36.4668C147.497 36.4668 147.962 36.5534 148.367 36.7266C148.773 36.8997 149.112 37.1458 149.386 37.4648C149.664 37.7839 149.873 38.1667 150.015 38.6133C150.156 39.0553 150.227 39.5475 150.227 40.0898V40.9102H144.348V39.5977H148.292V39.4473C148.292 39.1738 148.242 38.93 148.142 38.7158C148.046 38.4971 147.9 38.3239 147.704 38.1963C147.508 38.0687 147.257 38.0049 146.952 38.0049C146.692 38.0049 146.469 38.0618 146.282 38.1758C146.095 38.2897 145.943 38.4492 145.824 38.6543C145.71 38.8594 145.624 39.1009 145.564 39.3789C145.51 39.6523 145.482 39.9531 145.482 40.2812V40.5547C145.482 40.8509 145.523 41.1243 145.605 41.375C145.692 41.6257 145.813 41.8421 145.968 42.0244C146.127 42.2067 146.319 42.348 146.542 42.4482C146.77 42.5485 147.027 42.5986 147.314 42.5986C147.67 42.5986 148 42.5303 148.306 42.3936C148.616 42.2523 148.882 42.0404 149.105 41.7578L150.062 42.7969C149.908 43.0202 149.696 43.2344 149.427 43.4395C149.162 43.6445 148.843 43.8132 148.47 43.9453C148.096 44.0729 147.67 44.1367 147.191 44.1367ZM145.804 35.5986L147.144 33.4932H149.283L147.403 35.5986H145.804Z" fill="black"/>
<path d="M237.241 42.9404H237.371C238.1 42.9404 238.693 42.8379 239.148 42.6328C239.604 42.4277 239.955 42.152 240.201 41.8057C240.447 41.4593 240.616 41.0697 240.707 40.6367C240.798 40.1992 240.844 39.7503 240.844 39.29V37.7656C240.844 37.3145 240.791 36.9134 240.687 36.5625C240.586 36.2116 240.445 35.9176 240.263 35.6807C240.085 35.4437 239.882 35.2637 239.654 35.1406C239.426 35.0176 239.185 34.9561 238.93 34.9561C238.638 34.9561 238.376 35.0153 238.144 35.1338C237.916 35.2477 237.722 35.4095 237.562 35.6191C237.408 35.8288 237.289 36.0749 237.207 36.3574C237.125 36.64 237.084 36.9476 237.084 37.2803C237.084 37.5765 237.12 37.8636 237.193 38.1416C237.266 38.4196 237.378 38.6702 237.528 38.8936C237.679 39.1169 237.866 39.2946 238.089 39.4268C238.317 39.5544 238.583 39.6182 238.889 39.6182C239.171 39.6182 239.436 39.5635 239.682 39.4541C239.932 39.3402 240.153 39.1875 240.345 38.9961C240.541 38.8001 240.696 38.5791 240.81 38.333C240.928 38.0869 240.996 37.8294 241.015 37.5605H241.616C241.616 37.9388 241.541 38.3125 241.391 38.6816C241.245 39.0462 241.04 39.3789 240.775 39.6797C240.511 39.9805 240.201 40.222 239.846 40.4043C239.49 40.582 239.103 40.6709 238.684 40.6709C238.191 40.6709 237.765 40.5752 237.405 40.3838C237.045 40.1924 236.749 39.9372 236.517 39.6182C236.289 39.2992 236.118 38.9437 236.004 38.5518C235.895 38.1553 235.84 37.7542 235.84 37.3486C235.84 36.8747 235.906 36.4303 236.038 36.0156C236.17 35.6009 236.366 35.2363 236.626 34.9219C236.886 34.6029 237.207 34.3545 237.59 34.1768C237.977 33.999 238.424 33.9102 238.93 33.9102C239.499 33.9102 239.985 34.0241 240.386 34.252C240.787 34.4798 241.113 34.7852 241.363 35.168C241.618 35.5508 241.805 35.9814 241.924 36.46C242.042 36.9385 242.102 37.4307 242.102 37.9365V38.3945C242.102 38.9095 242.067 39.4336 241.999 39.9668C241.935 40.4954 241.81 41.0013 241.623 41.4844C241.441 41.9674 241.174 42.4004 240.823 42.7832C240.472 43.1615 240.014 43.4622 239.449 43.6855C238.889 43.9043 238.196 44.0137 237.371 44.0137H237.241V42.9404ZM243.94 43.3301C243.94 43.1159 244.007 42.9359 244.139 42.79C244.275 42.6396 244.471 42.5645 244.727 42.5645C244.982 42.5645 245.175 42.6396 245.308 42.79C245.444 42.9359 245.513 43.1159 245.513 43.3301C245.513 43.5397 245.444 43.7174 245.308 43.8633C245.175 44.0091 244.982 44.082 244.727 44.082C244.471 44.082 244.275 44.0091 244.139 43.8633C244.007 43.7174 243.94 43.5397 243.94 43.3301ZM243.947 37.2939C243.947 37.0798 244.013 36.8997 244.146 36.7539C244.282 36.6035 244.478 36.5283 244.733 36.5283C244.989 36.5283 245.182 36.6035 245.314 36.7539C245.451 36.8997 245.52 37.0798 245.52 37.2939C245.52 37.5036 245.451 37.6813 245.314 37.8271C245.182 37.973 244.989 38.0459 244.733 38.0459C244.478 38.0459 244.282 37.973 244.146 37.8271C244.013 37.6813 243.947 37.5036 243.947 37.2939ZM251.405 33.9922V44H250.141V35.5713L247.591 36.501V35.3594L251.207 33.9922H251.405ZM259.978 34.0332H260.087V35.1064H259.978C259.308 35.1064 258.747 35.2158 258.296 35.4346C257.845 35.6488 257.487 35.9382 257.223 36.3027C256.958 36.6628 256.767 37.0684 256.648 37.5195C256.535 37.9707 256.478 38.4287 256.478 38.8936V40.3564C256.478 40.7985 256.53 41.1904 256.635 41.5322C256.74 41.8695 256.883 42.1543 257.065 42.3867C257.248 42.6191 257.453 42.7946 257.681 42.9131C257.913 43.0316 258.155 43.0908 258.405 43.0908C258.697 43.0908 258.957 43.0361 259.185 42.9268C259.412 42.8128 259.604 42.6556 259.759 42.4551C259.918 42.25 260.039 42.0085 260.121 41.7305C260.203 41.4525 260.244 41.1471 260.244 40.8145C260.244 40.5182 260.208 40.2334 260.135 39.96C260.062 39.682 259.95 39.4359 259.8 39.2217C259.649 39.0029 259.46 38.832 259.232 38.709C259.009 38.5814 258.743 38.5176 258.433 38.5176C258.082 38.5176 257.754 38.6042 257.448 38.7773C257.147 38.946 256.899 39.1693 256.703 39.4473C256.512 39.7207 256.402 40.0192 256.375 40.3428L255.705 40.3359C255.769 39.8255 255.887 39.3903 256.061 39.0303C256.238 38.6657 256.457 38.3695 256.717 38.1416C256.981 37.9092 257.275 37.7406 257.599 37.6357C257.927 37.5264 258.273 37.4717 258.638 37.4717C259.134 37.4717 259.563 37.5651 259.923 37.752C260.283 37.9388 260.579 38.1895 260.812 38.5039C261.044 38.8138 261.215 39.1647 261.324 39.5566C261.438 39.944 261.495 40.3428 261.495 40.7529C261.495 41.2223 261.429 41.6621 261.297 42.0723C261.165 42.4824 260.966 42.8424 260.702 43.1523C260.442 43.4622 260.121 43.7038 259.738 43.877C259.355 44.0501 258.911 44.1367 258.405 44.1367C257.868 44.1367 257.398 44.0273 256.997 43.8086C256.596 43.5853 256.263 43.2891 255.999 42.9199C255.735 42.5508 255.536 42.1406 255.404 41.6895C255.272 41.2383 255.206 40.7803 255.206 40.3154V39.7207C255.206 39.0189 255.277 38.3307 255.418 37.6562C255.559 36.9818 255.803 36.3711 256.149 35.8242C256.5 35.2773 256.986 34.8421 257.605 34.5186C258.225 34.195 259.016 34.0332 259.978 34.0332ZM270.484 34.9287L267.189 44H265.843L269.637 34.0469H270.505L270.484 34.9287ZM273.246 44L269.944 34.9287L269.924 34.0469H270.792L274.6 44H273.246ZM273.075 40.3154V41.3955H267.483V40.3154H273.075ZM276.35 34.0469H277.628L280.889 42.1611L284.143 34.0469H285.428L281.381 44H280.383L276.35 34.0469ZM275.933 34.0469H277.061L277.245 40.1172V44H275.933V34.0469ZM284.71 34.0469H285.838V44H284.525V40.1172L284.71 34.0469Z" fill="#747881"/>
<rect x="258" width="29" height="22" rx="11" fill="#FF3742"/>
<path d="M271.943 13.1621C271.943 13.6973 271.818 14.1484 271.568 14.5156C271.318 14.8789 270.975 15.1543 270.537 15.3418C270.104 15.5254 269.611 15.6172 269.061 15.6172C268.51 15.6172 268.016 15.5254 267.578 15.3418C267.141 15.1543 266.795 14.8789 266.541 14.5156C266.287 14.1484 266.16 13.6973 266.16 13.1621C266.16 12.8027 266.232 12.4785 266.377 12.1895C266.521 11.8965 266.723 11.6465 266.98 11.4395C267.242 11.2285 267.549 11.0684 267.9 10.959C268.252 10.8457 268.635 10.7891 269.049 10.7891C269.604 10.7891 270.1 10.8867 270.537 11.082C270.975 11.2773 271.318 11.5527 271.568 11.9082C271.818 12.2637 271.943 12.6816 271.943 13.1621ZM270.244 13.0508C270.244 12.7891 270.193 12.5645 270.092 12.377C269.994 12.1855 269.855 12.0391 269.676 11.9375C269.496 11.8359 269.287 11.7852 269.049 11.7852C268.811 11.7852 268.602 11.8359 268.422 11.9375C268.242 12.0391 268.102 12.1855 268 12.377C267.902 12.5645 267.854 12.7891 267.854 13.0508C267.854 13.3086 267.902 13.5312 268 13.7188C268.102 13.9062 268.242 14.0508 268.422 14.1523C268.605 14.25 268.818 14.2988 269.061 14.2988C269.303 14.2988 269.512 14.25 269.688 14.1523C269.867 14.0508 270.004 13.9062 270.098 13.7188C270.195 13.5312 270.244 13.3086 270.244 13.0508ZM271.762 9.23047C271.762 9.66406 271.646 10.0488 271.416 10.3848C271.186 10.7168 270.865 10.9766 270.455 11.1641C270.049 11.3516 269.584 11.4453 269.061 11.4453C268.533 11.4453 268.064 11.3516 267.654 11.1641C267.244 10.9766 266.924 10.7168 266.693 10.3848C266.463 10.0488 266.348 9.66406 266.348 9.23047C266.348 8.71484 266.463 8.28125 266.693 7.92969C266.928 7.57422 267.248 7.30469 267.654 7.12109C268.064 6.9375 268.529 6.8457 269.049 6.8457C269.576 6.8457 270.043 6.9375 270.449 7.12109C270.859 7.30469 271.18 7.57422 271.41 7.92969C271.645 8.28125 271.762 8.71484 271.762 9.23047ZM270.074 9.30664C270.074 9.07617 270.033 8.87695 269.951 8.70898C269.869 8.53711 269.752 8.4043 269.6 8.31055C269.451 8.2168 269.268 8.16992 269.049 8.16992C268.838 8.16992 268.656 8.21484 268.504 8.30469C268.355 8.39453 268.24 8.52539 268.158 8.69727C268.08 8.86523 268.041 9.06836 268.041 9.30664C268.041 9.53711 268.08 9.74023 268.158 9.91602C268.24 10.0879 268.357 10.2227 268.51 10.3203C268.662 10.418 268.846 10.4668 269.061 10.4668C269.275 10.4668 269.457 10.418 269.605 10.3203C269.758 10.2227 269.873 10.0879 269.951 9.91602C270.033 9.74023 270.074 9.53711 270.074 9.30664ZM278.828 10.4844V11.9609C278.828 12.6016 278.76 13.1543 278.623 13.6191C278.486 14.0801 278.289 14.459 278.031 14.7559C277.777 15.0488 277.475 15.2656 277.123 15.4062C276.771 15.5469 276.381 15.6172 275.951 15.6172C275.607 15.6172 275.287 15.5742 274.99 15.4883C274.693 15.3984 274.426 15.2598 274.188 15.0723C273.953 14.8848 273.75 14.6484 273.578 14.3633C273.41 14.0742 273.281 13.7305 273.191 13.332C273.102 12.9336 273.057 12.4766 273.057 11.9609V10.4844C273.057 9.84375 273.125 9.29492 273.262 8.83789C273.402 8.37695 273.6 8 273.854 7.70703C274.111 7.41406 274.416 7.19922 274.768 7.0625C275.119 6.92188 275.51 6.85156 275.939 6.85156C276.283 6.85156 276.602 6.89648 276.895 6.98633C277.191 7.07227 277.459 7.20703 277.697 7.39062C277.936 7.57422 278.139 7.81055 278.307 8.09961C278.475 8.38477 278.604 8.72656 278.693 9.125C278.783 9.51953 278.828 9.97266 278.828 10.4844ZM277.135 12.1836V10.2559C277.135 9.94727 277.117 9.67773 277.082 9.44727C277.051 9.2168 277.002 9.02148 276.936 8.86133C276.869 8.69727 276.787 8.56445 276.689 8.46289C276.592 8.36133 276.48 8.28711 276.355 8.24023C276.23 8.19336 276.092 8.16992 275.939 8.16992C275.748 8.16992 275.578 8.20703 275.43 8.28125C275.285 8.35547 275.162 8.47461 275.061 8.63867C274.959 8.79883 274.881 9.01367 274.826 9.2832C274.775 9.54883 274.75 9.87305 274.75 10.2559V12.1836C274.75 12.4922 274.766 12.7637 274.797 12.998C274.832 13.2324 274.883 13.4336 274.949 13.6016C275.02 13.7656 275.102 13.9004 275.195 14.0059C275.293 14.1074 275.404 14.1816 275.529 14.2285C275.658 14.2754 275.799 14.2988 275.951 14.2988C276.139 14.2988 276.305 14.2617 276.449 14.1875C276.598 14.1094 276.723 13.9883 276.824 13.8242C276.93 13.6562 277.008 13.4375 277.059 13.168C277.109 12.8984 277.135 12.5703 277.135 12.1836Z" fill="white"/>
</svg>
