<svg width="32" height="32" viewBox="0 0 32 32" fill="none" xmlns="http://www.w3.org/2000/svg">
<path d="M15.9865 2.66663C8.6265 2.66663 2.6665 8.63996 2.6665 16C2.6665 23.36 8.6265 29.3333 15.9865 29.3333C23.3598 29.3333 29.3332 23.36 29.3332 16C29.3332 8.63996 23.3598 2.66663 15.9865 2.66663ZM15.9998 26.6666C10.1065 26.6666 5.33317 21.8933 5.33317 16C5.33317 10.1066 10.1065 5.33329 15.9998 5.33329C21.8932 5.33329 26.6665 10.1066 26.6665 16C26.6665 21.8933 21.8932 26.6666 15.9998 26.6666ZM20.6665 14.6666C21.7732 14.6666 22.6665 13.7733 22.6665 12.6666C22.6665 11.56 21.7732 10.6666 20.6665 10.6666C19.5598 10.6666 18.6665 11.56 18.6665 12.6666C18.6665 13.7733 19.5598 14.6666 20.6665 14.6666ZM11.3332 14.6666C12.4398 14.6666 13.3332 13.7733 13.3332 12.6666C13.3332 11.56 12.4398 10.6666 11.3332 10.6666C10.2265 10.6666 9.33317 11.56 9.33317 12.6666C9.33317 13.7733 10.2265 14.6666 11.3332 14.6666ZM15.9998 23.3333C19.1065 23.3333 21.7465 21.3866 22.8132 18.6666H9.1865C10.2532 21.3866 12.8932 23.3333 15.9998 23.3333Z" fill="#747881"/>
</svg>
