<svg width="32" height="40" viewBox="0 0 32 40" fill="none" xmlns="http://www.w3.org/2000/svg">
<g clip-path="url(#clip0_8495_2229)">
<path d="M17.3331 13.3333L14.6665 13.3333L14.6665 18.6666L9.33312 18.6666L9.33312 21.3333L14.6665 21.3333L14.6665 26.6667L17.3331 26.6667L17.3331 21.3333L22.6665 21.3333L22.6665 18.6666L17.3331 18.6666L17.3331 13.3333ZM15.9998 6.66665C8.63979 6.66665 2.66645 12.64 2.66645 20C2.66645 27.36 8.63979 33.3333 15.9998 33.3333C23.3598 33.3333 29.3331 27.36 29.3331 20C29.3331 12.64 23.3598 6.66665 15.9998 6.66665ZM15.9998 30.6667C10.1198 30.6666 5.33312 25.88 5.33312 20C5.33312 14.12 10.1198 9.33332 15.9998 9.33332C21.8798 9.33332 26.6665 14.12 26.6665 20C26.6665 25.88 21.8798 30.6666 15.9998 30.6667Z" fill="#747881"/>
</g>
<defs>
<clipPath id="clip0_8495_2229">
<rect width="32" height="32" fill="white" transform="translate(0 4)"/>
</clipPath>
</defs>
</svg>
