<svg width="287" height="44" viewBox="0 0 287 44" fill="none" xmlns="http://www.w3.org/2000/svg">
<path d="M10.1797 6.625V18H8.21875L3.11719 9.85156V18H1.15625V6.625H3.11719L8.23438 14.7891V6.625H10.1797ZM14.1875 6V18H12.3125V6H14.1875ZM13.8594 13.4609L13.25 13.4531C13.2552 12.8698 13.3359 12.3307 13.4922 11.8359C13.6536 11.3411 13.8776 10.9115 14.1641 10.5469C14.4557 10.1771 14.8047 9.89323 15.2109 9.69531C15.6172 9.49219 16.0677 9.39062 16.5625 9.39062C16.9792 9.39062 17.3542 9.44792 17.6875 9.5625C18.026 9.67708 18.3177 9.86198 18.5625 10.1172C18.8073 10.3672 18.9922 10.6953 19.1172 11.1016C19.2474 11.5026 19.3125 11.9922 19.3125 12.5703V18H17.4219V12.5547C17.4219 12.1484 17.362 11.8255 17.2422 11.5859C17.1276 11.3464 16.9583 11.1745 16.7344 11.0703C16.5104 10.9609 16.237 10.9062 15.9141 10.9062C15.5755 10.9062 15.276 10.974 15.0156 11.1094C14.7604 11.2448 14.5469 11.4297 14.375 11.6641C14.2031 11.8984 14.0729 12.1693 13.9844 12.4766C13.901 12.7839 13.8594 13.112 13.8594 13.4609ZM20.8594 13.8672V13.6875C20.8594 13.0781 20.9479 12.513 21.125 11.9922C21.3021 11.4661 21.5573 11.0104 21.8906 10.625C22.2292 10.2344 22.6406 9.93229 23.125 9.71875C23.6146 9.5 24.1667 9.39062 24.7812 9.39062C25.401 9.39062 25.9531 9.5 26.4375 9.71875C26.9271 9.93229 27.3411 10.2344 27.6797 10.625C28.0182 11.0104 28.276 11.4661 28.4531 11.9922C28.6302 12.513 28.7188 13.0781 28.7188 13.6875V13.8672C28.7188 14.4766 28.6302 15.0417 28.4531 15.5625C28.276 16.0833 28.0182 16.5391 27.6797 16.9297C27.3411 17.3151 26.9297 17.6172 26.4453 17.8359C25.9609 18.0495 25.4115 18.1562 24.7969 18.1562C24.1771 18.1562 23.6224 18.0495 23.1328 17.8359C22.6484 17.6172 22.237 17.3151 21.8984 16.9297C21.5599 16.5391 21.3021 16.0833 21.125 15.5625C20.9479 15.0417 20.8594 14.4766 20.8594 13.8672ZM22.7422 13.6875V13.8672C22.7422 14.2474 22.7812 14.6068 22.8594 14.9453C22.9375 15.2839 23.0599 15.5807 23.2266 15.8359C23.3932 16.0911 23.6068 16.2917 23.8672 16.4375C24.1276 16.5833 24.4375 16.6562 24.7969 16.6562C25.1458 16.6562 25.4479 16.5833 25.7031 16.4375C25.9635 16.2917 26.1771 16.0911 26.3438 15.8359C26.5104 15.5807 26.6328 15.2839 26.7109 14.9453C26.7943 14.6068 26.8359 14.2474 26.8359 13.8672V13.6875C26.8359 13.3125 26.7943 12.9583 26.7109 12.625C26.6328 12.2865 26.5078 11.987 26.3359 11.7266C26.1693 11.4661 25.9557 11.263 25.6953 11.1172C25.4401 10.9661 25.1354 10.8906 24.7812 10.8906C24.4271 10.8906 24.1198 10.9661 23.8594 11.1172C23.6042 11.263 23.3932 11.4661 23.2266 11.7266C23.0599 11.987 22.9375 12.2865 22.8594 12.625C22.7812 12.9583 22.7422 13.3125 22.7422 13.6875ZM23.7969 8.35156L25.3203 6H27.4453L25.3203 8.35156H23.7969ZM32.1797 11.2656V18H30.2969V9.54688H32.0703L32.1797 11.2656ZM31.875 13.4609L31.2344 13.4531C31.2344 12.8698 31.3073 12.3307 31.4531 11.8359C31.599 11.3411 31.8125 10.9115 32.0938 10.5469C32.375 10.1771 32.724 9.89323 33.1406 9.69531C33.5625 9.49219 34.0495 9.39062 34.6016 9.39062C34.987 9.39062 35.3385 9.44792 35.6562 9.5625C35.9792 9.67188 36.2578 9.84635 36.4922 10.0859C36.7318 10.3255 36.9141 10.6328 37.0391 11.0078C37.1693 11.3828 37.2344 11.8359 37.2344 12.3672V18H35.3516V12.5312C35.3516 12.1198 35.2891 11.7969 35.1641 11.5625C35.0443 11.3281 34.8698 11.1615 34.6406 11.0625C34.4167 10.9583 34.1484 10.9062 33.8359 10.9062C33.4818 10.9062 33.1797 10.974 32.9297 11.1094C32.6849 11.2448 32.4844 11.4297 32.3281 11.6641C32.1719 11.8984 32.0573 12.1693 31.9844 12.4766C31.9115 12.7839 31.875 13.112 31.875 13.4609ZM37.1172 12.9609L36.2344 13.1562C36.2344 12.6458 36.3047 12.1641 36.4453 11.7109C36.5911 11.2526 36.8021 10.8516 37.0781 10.5078C37.3594 10.1589 37.7057 9.88542 38.1172 9.6875C38.5286 9.48958 39 9.39062 39.5312 9.39062C39.9635 9.39062 40.349 9.45052 40.6875 9.57031C41.0312 9.6849 41.3229 9.86719 41.5625 10.1172C41.8021 10.3672 41.9844 10.6927 42.1094 11.0938C42.2344 11.4896 42.2969 11.9688 42.2969 12.5312V18H40.4062V12.5234C40.4062 12.0964 40.3438 11.7656 40.2188 11.5312C40.099 11.2969 39.9271 11.1354 39.7031 11.0469C39.4792 10.9531 39.2109 10.9062 38.8984 10.9062C38.6068 10.9062 38.349 10.9609 38.125 11.0703C37.9062 11.1745 37.7214 11.3229 37.5703 11.5156C37.4193 11.7031 37.3047 11.9193 37.2266 12.1641C37.1536 12.4089 37.1172 12.6745 37.1172 12.9609ZM52.9609 15.7109C52.9609 15.5234 52.9141 15.3542 52.8203 15.2031C52.7266 15.0469 52.5469 14.9062 52.2812 14.7812C52.0208 14.6562 51.6354 14.5417 51.125 14.4375C50.6771 14.3385 50.2656 14.2214 49.8906 14.0859C49.5208 13.9453 49.2031 13.776 48.9375 13.5781C48.6719 13.3802 48.4661 13.1458 48.3203 12.875C48.1745 12.6042 48.1016 12.2917 48.1016 11.9375C48.1016 11.5938 48.1771 11.2682 48.3281 10.9609C48.4792 10.6536 48.6953 10.3828 48.9766 10.1484C49.2578 9.91406 49.599 9.72917 50 9.59375C50.4062 9.45833 50.8594 9.39062 51.3594 9.39062C52.0677 9.39062 52.6745 9.51042 53.1797 9.75C53.6901 9.98438 54.0807 10.3047 54.3516 10.7109C54.6224 11.112 54.7578 11.5651 54.7578 12.0703H52.875C52.875 11.8464 52.8177 11.638 52.7031 11.4453C52.5938 11.2474 52.4271 11.0885 52.2031 10.9688C51.9792 10.8438 51.6979 10.7812 51.3594 10.7812C51.0365 10.7812 50.7682 10.8333 50.5547 10.9375C50.3464 11.0365 50.1901 11.1667 50.0859 11.3281C49.987 11.4896 49.9375 11.6667 49.9375 11.8594C49.9375 12 49.9635 12.1276 50.0156 12.2422C50.0729 12.3516 50.1667 12.4531 50.2969 12.5469C50.4271 12.6354 50.6042 12.7188 50.8281 12.7969C51.0573 12.875 51.3438 12.9505 51.6875 13.0234C52.3333 13.1589 52.888 13.3333 53.3516 13.5469C53.8203 13.7552 54.1797 14.026 54.4297 14.3594C54.6797 14.6875 54.8047 15.1042 54.8047 15.6094C54.8047 15.9844 54.724 16.3281 54.5625 16.6406C54.4062 16.9479 54.1771 17.2161 53.875 17.4453C53.5729 17.6693 53.2109 17.8438 52.7891 17.9688C52.3724 18.0938 51.9036 18.1562 51.3828 18.1562C50.6172 18.1562 49.9688 18.0208 49.4375 17.75C48.9062 17.474 48.5026 17.1224 48.2266 16.6953C47.9557 16.263 47.8203 15.8151 47.8203 15.3516H49.6406C49.6615 15.7005 49.7578 15.9792 49.9297 16.1875C50.1068 16.3906 50.3255 16.5391 50.5859 16.6328C50.8516 16.7214 51.125 16.7656 51.4062 16.7656C51.7448 16.7656 52.0286 16.7214 52.2578 16.6328C52.487 16.5391 52.6615 16.4141 52.7812 16.2578C52.901 16.0964 52.9609 15.9141 52.9609 15.7109ZM58.4688 9.54688V18H56.5781V9.54688H58.4688ZM56.4531 7.32812C56.4531 7.04167 56.5469 6.80469 56.7344 6.61719C56.9271 6.42448 57.1927 6.32812 57.5312 6.32812C57.8646 6.32812 58.1276 6.42448 58.3203 6.61719C58.513 6.80469 58.6094 7.04167 58.6094 7.32812C58.6094 7.60938 58.513 7.84375 58.3203 8.03125C58.1276 8.21875 57.8646 8.3125 57.5312 8.3125C57.1927 8.3125 56.9271 8.21875 56.7344 8.03125C56.5469 7.84375 56.4531 7.60938 56.4531 7.32812ZM64.2578 18.1562C63.6328 18.1562 63.0677 18.0547 62.5625 17.8516C62.0625 17.6432 61.6354 17.3542 61.2812 16.9844C60.9323 16.6146 60.6641 16.1797 60.4766 15.6797C60.2891 15.1797 60.1953 14.6406 60.1953 14.0625V13.75C60.1953 13.0885 60.2917 12.4896 60.4844 11.9531C60.6771 11.4167 60.9453 10.9583 61.2891 10.5781C61.6328 10.1927 62.0391 9.89844 62.5078 9.69531C62.9766 9.49219 63.4844 9.39062 64.0312 9.39062C64.6354 9.39062 65.1641 9.49219 65.6172 9.69531C66.0703 9.89844 66.4453 10.1849 66.7422 10.5547C67.0443 10.9193 67.2682 11.3542 67.4141 11.8594C67.5651 12.3646 67.6406 12.9219 67.6406 13.5312V14.3359H61.1094V12.9844H65.7812V12.8359C65.7708 12.4974 65.7031 12.1797 65.5781 11.8828C65.4583 11.5859 65.2734 11.3464 65.0234 11.1641C64.7734 10.9818 64.4401 10.8906 64.0234 10.8906C63.7109 10.8906 63.4323 10.9583 63.1875 11.0938C62.9479 11.224 62.7474 11.4141 62.5859 11.6641C62.4245 11.9141 62.2995 12.2161 62.2109 12.5703C62.1276 12.9193 62.0859 13.3125 62.0859 13.75V14.0625C62.0859 14.4323 62.1354 14.776 62.2344 15.0938C62.3385 15.4062 62.4896 15.6797 62.6875 15.9141C62.8854 16.1484 63.125 16.3333 63.4062 16.4688C63.6875 16.599 64.0078 16.6641 64.3672 16.6641C64.8203 16.6641 65.224 16.5729 65.5781 16.3906C65.9323 16.2083 66.2396 15.9505 66.5 15.6172L67.4922 16.5781C67.3099 16.8438 67.0729 17.099 66.7812 17.3438C66.4896 17.5833 66.1328 17.7786 65.7109 17.9297C65.2943 18.0807 64.8099 18.1562 64.2578 18.1562ZM64.4453 6L66.6094 8.15625V8.24219H65.0859L63.8906 7.01562L62.6953 8.24219H61.2031V8.14062L63.3359 6H64.4453ZM74.1953 16.0078V9.54688H76.0859V18H74.3047L74.1953 16.0078ZM74.4609 14.25L75.0938 14.2344C75.0938 14.8021 75.0312 15.3255 74.9062 15.8047C74.7812 16.2786 74.5885 16.6927 74.3281 17.0469C74.0677 17.3958 73.7344 17.6693 73.3281 17.8672C72.9219 18.0599 72.4349 18.1562 71.8672 18.1562C71.4557 18.1562 71.0781 18.0964 70.7344 17.9766C70.3906 17.8568 70.0938 17.6719 69.8438 17.4219C69.599 17.1719 69.4089 16.8464 69.2734 16.4453C69.138 16.0443 69.0703 15.5651 69.0703 15.0078V9.54688H70.9531V15.0234C70.9531 15.3307 70.9896 15.5885 71.0625 15.7969C71.1354 16 71.2344 16.1641 71.3594 16.2891C71.4844 16.4141 71.6302 16.5026 71.7969 16.5547C71.9635 16.6068 72.1406 16.6328 72.3281 16.6328C72.8646 16.6328 73.2865 16.5286 73.5938 16.3203C73.9062 16.1068 74.1276 15.8203 74.2578 15.4609C74.3932 15.1016 74.4609 14.6979 74.4609 14.25ZM86.7656 16.3047V12.2734C86.7656 11.9714 86.7109 11.7109 86.6016 11.4922C86.4922 11.2734 86.3255 11.1042 86.1016 10.9844C85.8828 10.8646 85.6068 10.8047 85.2734 10.8047C84.9661 10.8047 84.7005 10.8568 84.4766 10.9609C84.2526 11.0651 84.0781 11.2057 83.9531 11.3828C83.8281 11.5599 83.7656 11.7604 83.7656 11.9844H81.8906C81.8906 11.651 81.9714 11.3281 82.1328 11.0156C82.2943 10.7031 82.5286 10.4245 82.8359 10.1797C83.1432 9.9349 83.5104 9.74219 83.9375 9.60156C84.3646 9.46094 84.8438 9.39062 85.375 9.39062C86.0104 9.39062 86.5729 9.4974 87.0625 9.71094C87.5573 9.92448 87.9453 10.2474 88.2266 10.6797C88.513 11.1068 88.6562 11.6432 88.6562 12.2891V16.0469C88.6562 16.4323 88.6823 16.7786 88.7344 17.0859C88.7917 17.388 88.8724 17.651 88.9766 17.875V18H87.0469C86.9583 17.7969 86.888 17.5391 86.8359 17.2266C86.7891 16.9089 86.7656 16.6016 86.7656 16.3047ZM87.0391 12.8594L87.0547 14.0234H85.7031C85.3542 14.0234 85.0469 14.0573 84.7812 14.125C84.5156 14.1875 84.2943 14.2812 84.1172 14.4062C83.9401 14.5312 83.8073 14.6823 83.7188 14.8594C83.6302 15.0365 83.5859 15.237 83.5859 15.4609C83.5859 15.6849 83.638 15.8906 83.7422 16.0781C83.8464 16.2604 83.9974 16.4036 84.1953 16.5078C84.3984 16.612 84.6432 16.6641 84.9297 16.6641C85.3151 16.6641 85.651 16.5859 85.9375 16.4297C86.2292 16.2682 86.4583 16.0729 86.625 15.8438C86.7917 15.6094 86.8802 15.388 86.8906 15.1797L87.5 16.0156C87.4375 16.2292 87.3307 16.4583 87.1797 16.7031C87.0286 16.9479 86.8307 17.1823 86.5859 17.4062C86.3464 17.625 86.0573 17.8047 85.7188 17.9453C85.3854 18.0859 85 18.1562 84.5625 18.1562C84.0104 18.1562 83.5182 18.0469 83.0859 17.8281C82.6536 17.6042 82.3151 17.3047 82.0703 16.9297C81.8255 16.5495 81.7031 16.1198 81.7031 15.6406C81.7031 15.1927 81.7865 14.7969 81.9531 14.4531C82.125 14.1042 82.375 13.8125 82.7031 13.5781C83.0365 13.3438 83.4427 13.1667 83.9219 13.0469C84.401 12.9219 84.9479 12.8594 85.5625 12.8594H87.0391ZM92.4922 11.3516V18H90.6094V9.54688H92.3828L92.4922 11.3516ZM92.1562 13.4609L91.5469 13.4531C91.5521 12.8542 91.6354 12.3047 91.7969 11.8047C91.9635 11.3047 92.1927 10.875 92.4844 10.5156C92.7812 10.1562 93.1354 9.88021 93.5469 9.6875C93.9583 9.48958 94.4167 9.39062 94.9219 9.39062C95.3281 9.39062 95.6953 9.44792 96.0234 9.5625C96.3568 9.67188 96.6406 9.85156 96.875 10.1016C97.1146 10.3516 97.2969 10.6771 97.4219 11.0781C97.5469 11.474 97.6094 11.9609 97.6094 12.5391V18H95.7188V12.5312C95.7188 12.125 95.6589 11.8047 95.5391 11.5703C95.4245 11.3307 95.2552 11.1615 95.0312 11.0625C94.8125 10.9583 94.5391 10.9062 94.2109 10.9062C93.888 10.9062 93.599 10.974 93.3438 11.1094C93.0885 11.2448 92.8724 11.4297 92.6953 11.6641C92.5234 11.8984 92.3906 12.1693 92.2969 12.4766C92.2031 12.7839 92.1562 13.112 92.1562 13.4609ZM101.391 6V18H99.5156V6H101.391ZM101.062 13.4609L100.453 13.4531C100.458 12.8698 100.539 12.3307 100.695 11.8359C100.857 11.3411 101.081 10.9115 101.367 10.5469C101.659 10.1771 102.008 9.89323 102.414 9.69531C102.82 9.49219 103.271 9.39062 103.766 9.39062C104.182 9.39062 104.557 9.44792 104.891 9.5625C105.229 9.67708 105.521 9.86198 105.766 10.1172C106.01 10.3672 106.195 10.6953 106.32 11.1016C106.451 11.5026 106.516 11.9922 106.516 12.5703V18H104.625V12.5547C104.625 12.1484 104.565 11.8255 104.445 11.5859C104.331 11.3464 104.161 11.1745 103.938 11.0703C103.714 10.9609 103.44 10.9062 103.117 10.9062C102.779 10.9062 102.479 10.974 102.219 11.1094C101.964 11.2448 101.75 11.4297 101.578 11.6641C101.406 11.8984 101.276 12.1693 101.188 12.4766C101.104 12.7839 101.062 13.112 101.062 13.4609ZM114.266 6V18H112.391V6H114.266ZM113.938 13.4609L113.328 13.4531C113.333 12.8698 113.414 12.3307 113.57 11.8359C113.732 11.3411 113.956 10.9115 114.242 10.5469C114.534 10.1771 114.883 9.89323 115.289 9.69531C115.695 9.49219 116.146 9.39062 116.641 9.39062C117.057 9.39062 117.432 9.44792 117.766 9.5625C118.104 9.67708 118.396 9.86198 118.641 10.1172C118.885 10.3672 119.07 10.6953 119.195 11.1016C119.326 11.5026 119.391 11.9922 119.391 12.5703V18H117.5V12.5547C117.5 12.1484 117.44 11.8255 117.32 11.5859C117.206 11.3464 117.036 11.1745 116.812 11.0703C116.589 10.9609 116.315 10.9062 115.992 10.9062C115.654 10.9062 115.354 10.974 115.094 11.1094C114.839 11.2448 114.625 11.4297 114.453 11.6641C114.281 11.8984 114.151 12.1693 114.062 12.4766C113.979 12.7839 113.938 13.112 113.938 13.4609ZM126.383 16.0078V9.54688H128.273V18H126.492L126.383 16.0078ZM126.648 14.25L127.281 14.2344C127.281 14.8021 127.219 15.3255 127.094 15.8047C126.969 16.2786 126.776 16.6927 126.516 17.0469C126.255 17.3958 125.922 17.6693 125.516 17.8672C125.109 18.0599 124.622 18.1562 124.055 18.1562C123.643 18.1562 123.266 18.0964 122.922 17.9766C122.578 17.8568 122.281 17.6719 122.031 17.4219C121.786 17.1719 121.596 16.8464 121.461 16.4453C121.326 16.0443 121.258 15.5651 121.258 15.0078V9.54688H123.141V15.0234C123.141 15.3307 123.177 15.5885 123.25 15.7969C123.323 16 123.422 16.1641 123.547 16.2891C123.672 16.4141 123.818 16.5026 123.984 16.5547C124.151 16.6068 124.328 16.6328 124.516 16.6328C125.052 16.6328 125.474 16.5286 125.781 16.3203C126.094 16.1068 126.315 15.8203 126.445 15.4609C126.581 15.1016 126.648 14.6979 126.648 14.25ZM124.242 6L125.766 8.35156H124.195L122.109 6H124.242ZM132.07 11.3516V18H130.188V9.54688H131.961L132.07 11.3516ZM131.734 13.4609L131.125 13.4531C131.13 12.8542 131.214 12.3047 131.375 11.8047C131.542 11.3047 131.771 10.875 132.062 10.5156C132.359 10.1562 132.714 9.88021 133.125 9.6875C133.536 9.48958 133.995 9.39062 134.5 9.39062C134.906 9.39062 135.273 9.44792 135.602 9.5625C135.935 9.67188 136.219 9.85156 136.453 10.1016C136.693 10.3516 136.875 10.6771 137 11.0781C137.125 11.474 137.188 11.9609 137.188 12.5391V18H135.297V12.5312C135.297 12.125 135.237 11.8047 135.117 11.5703C135.003 11.3307 134.833 11.1615 134.609 11.0625C134.391 10.9583 134.117 10.9062 133.789 10.9062C133.466 10.9062 133.177 10.974 132.922 11.1094C132.667 11.2448 132.451 11.4297 132.273 11.6641C132.102 11.8984 131.969 12.1693 131.875 12.4766C131.781 12.7839 131.734 13.112 131.734 13.4609ZM144.523 9.54688H146.234V17.7656C146.234 18.526 146.073 19.1719 145.75 19.7031C145.427 20.2344 144.977 20.638 144.398 20.9141C143.82 21.1953 143.151 21.3359 142.391 21.3359C142.068 21.3359 141.708 21.2891 141.312 21.1953C140.922 21.1016 140.542 20.9505 140.172 20.7422C139.807 20.5391 139.503 20.2708 139.258 19.9375L140.141 18.8281C140.443 19.1875 140.776 19.4505 141.141 19.6172C141.505 19.7839 141.888 19.8672 142.289 19.8672C142.721 19.8672 143.089 19.7865 143.391 19.625C143.698 19.4688 143.935 19.237 144.102 18.9297C144.268 18.6224 144.352 18.2474 144.352 17.8047V11.4609L144.523 9.54688ZM138.781 13.8672V13.7031C138.781 13.0625 138.859 12.4792 139.016 11.9531C139.172 11.4219 139.396 10.9661 139.688 10.5859C139.979 10.2005 140.333 9.90625 140.75 9.70312C141.167 9.49479 141.638 9.39062 142.164 9.39062C142.711 9.39062 143.177 9.48958 143.562 9.6875C143.953 9.88542 144.279 10.1693 144.539 10.5391C144.799 10.9036 145.003 11.3411 145.148 11.8516C145.299 12.3568 145.411 12.9193 145.484 13.5391V14.0625C145.417 14.6667 145.302 15.2188 145.141 15.7188C144.979 16.2188 144.766 16.651 144.5 17.0156C144.234 17.3802 143.906 17.6615 143.516 17.8594C143.13 18.0573 142.674 18.1562 142.148 18.1562C141.633 18.1562 141.167 18.0495 140.75 17.8359C140.339 17.6224 139.984 17.3229 139.688 16.9375C139.396 16.5521 139.172 16.099 139.016 15.5781C138.859 15.0521 138.781 14.4818 138.781 13.8672ZM140.664 13.7031V13.8672C140.664 14.2526 140.701 14.612 140.773 14.9453C140.852 15.2786 140.969 15.5729 141.125 15.8281C141.286 16.0781 141.49 16.276 141.734 16.4219C141.984 16.5625 142.279 16.6328 142.617 16.6328C143.06 16.6328 143.422 16.5391 143.703 16.3516C143.99 16.1641 144.208 15.9115 144.359 15.5938C144.516 15.2708 144.625 14.9115 144.688 14.5156V13.1016C144.656 12.7943 144.591 12.5078 144.492 12.2422C144.398 11.9766 144.271 11.7448 144.109 11.5469C143.948 11.3438 143.745 11.1875 143.5 11.0781C143.255 10.9635 142.966 10.9062 142.633 10.9062C142.294 10.9062 142 10.9792 141.75 11.125C141.5 11.2708 141.294 11.4714 141.133 11.7266C140.977 11.9818 140.859 12.2786 140.781 12.6172C140.703 12.9557 140.664 13.3177 140.664 13.7031Z" fill="#080707"/>
<path d="M4.70312 33.3447H2.18066L2.16699 32.2852H4.45703C4.83529 32.2852 5.16569 32.2214 5.44824 32.0938C5.73079 31.9661 5.94954 31.7839 6.10449 31.5469C6.264 31.3053 6.34375 31.0182 6.34375 30.6855C6.34375 30.321 6.27311 30.0247 6.13184 29.7969C5.99512 29.5645 5.7832 29.3958 5.49609 29.291C5.21354 29.1816 4.85352 29.127 4.41602 29.127H2.47461V38H1.15527V28.0469H4.41602C4.92643 28.0469 5.38216 28.0993 5.7832 28.2041C6.18424 28.3044 6.52376 28.4639 6.80176 28.6826C7.08431 28.8968 7.2985 29.1702 7.44434 29.5029C7.59017 29.8356 7.66309 30.2344 7.66309 30.6992C7.66309 31.1094 7.55827 31.4808 7.34863 31.8135C7.139 32.1416 6.84733 32.4105 6.47363 32.6201C6.10449 32.8298 5.67155 32.9642 5.1748 33.0234L4.70312 33.3447ZM4.6416 38H1.66113L2.40625 36.9268H4.6416C5.06087 36.9268 5.41634 36.8538 5.70801 36.708C6.00423 36.5622 6.22982 36.3571 6.38477 36.0928C6.53971 35.8239 6.61719 35.5072 6.61719 35.1426C6.61719 34.7734 6.55111 34.4544 6.41895 34.1855C6.28678 33.9167 6.07943 33.7093 5.79688 33.5635C5.51432 33.4176 5.14974 33.3447 4.70312 33.3447H2.82324L2.83691 32.2852H5.40723L5.6875 32.668C6.16602 32.709 6.57161 32.8457 6.9043 33.0781C7.23698 33.306 7.48991 33.5977 7.66309 33.9531C7.84082 34.3086 7.92969 34.7005 7.92969 35.1289C7.92969 35.7487 7.79297 36.2728 7.51953 36.7012C7.25065 37.125 6.87012 37.4486 6.37793 37.6719C5.88574 37.8906 5.30697 38 4.6416 38ZM11.0605 30.6035V38H9.78906V30.6035H11.0605ZM9.69336 28.6416C9.69336 28.4365 9.75488 28.2633 9.87793 28.1221C10.0055 27.9808 10.1924 27.9102 10.4385 27.9102C10.68 27.9102 10.8646 27.9808 10.9922 28.1221C11.1243 28.2633 11.1904 28.4365 11.1904 28.6416C11.1904 28.8376 11.1243 29.0062 10.9922 29.1475C10.8646 29.2842 10.68 29.3525 10.4385 29.3525C10.1924 29.3525 10.0055 29.2842 9.87793 29.1475C9.75488 29.0062 9.69336 28.8376 9.69336 28.6416ZM14.4648 27.5V38H13.1934V27.5H14.4648ZM17.8691 27.5V38H16.5977V27.5H17.8691ZM19.8447 37.3301C19.8447 37.1159 19.9108 36.9359 20.043 36.79C20.1797 36.6396 20.3757 36.5645 20.6309 36.5645C20.8861 36.5645 21.0798 36.6396 21.2119 36.79C21.3486 36.9359 21.417 37.1159 21.417 37.3301C21.417 37.5397 21.3486 37.7174 21.2119 37.8633C21.0798 38.0091 20.8861 38.082 20.6309 38.082C20.3757 38.082 20.1797 38.0091 20.043 37.8633C19.9108 37.7174 19.8447 37.5397 19.8447 37.3301ZM19.8516 31.2939C19.8516 31.0798 19.9176 30.8997 20.0498 30.7539C20.1865 30.6035 20.3825 30.5283 20.6377 30.5283C20.8929 30.5283 21.0866 30.6035 21.2188 30.7539C21.3555 30.8997 21.4238 31.0798 21.4238 31.2939C21.4238 31.5036 21.3555 31.6813 21.2188 31.8271C21.0866 31.973 20.8929 32.0459 20.6377 32.0459C20.3825 32.0459 20.1865 31.973 20.0498 31.8271C19.9176 31.6813 19.8516 31.5036 19.8516 31.2939ZM26.4277 34.3838V34.2266C26.4277 33.6934 26.5052 33.1989 26.6602 32.7432C26.8151 32.2829 27.0384 31.8841 27.3301 31.5469C27.6217 31.2051 27.9749 30.9408 28.3896 30.7539C28.8044 30.5625 29.2692 30.4668 29.7842 30.4668C30.3037 30.4668 30.7708 30.5625 31.1855 30.7539C31.6048 30.9408 31.9603 31.2051 32.252 31.5469C32.5482 31.8841 32.7738 32.2829 32.9287 32.7432C33.0837 33.1989 33.1611 33.6934 33.1611 34.2266V34.3838C33.1611 34.917 33.0837 35.4115 32.9287 35.8672C32.7738 36.3229 32.5482 36.7217 32.252 37.0635C31.9603 37.4007 31.6071 37.665 31.1924 37.8564C30.7822 38.0433 30.3174 38.1367 29.7979 38.1367C29.2783 38.1367 28.8112 38.0433 28.3965 37.8564C27.9818 37.665 27.6263 37.4007 27.3301 37.0635C27.0384 36.7217 26.8151 36.3229 26.6602 35.8672C26.5052 35.4115 26.4277 34.917 26.4277 34.3838ZM27.6924 34.2266V34.3838C27.6924 34.7529 27.7357 35.1016 27.8223 35.4297C27.9089 35.7533 28.0387 36.0404 28.2119 36.291C28.3896 36.5417 28.6107 36.7399 28.875 36.8857C29.1393 37.027 29.4469 37.0977 29.7979 37.0977C30.1442 37.0977 30.4473 37.027 30.707 36.8857C30.9714 36.7399 31.1901 36.5417 31.3633 36.291C31.5365 36.0404 31.6663 35.7533 31.7529 35.4297C31.8441 35.1016 31.8896 34.7529 31.8896 34.3838V34.2266C31.8896 33.862 31.8441 33.5179 31.7529 33.1943C31.6663 32.8662 31.5342 32.5768 31.3564 32.3262C31.1833 32.071 30.9645 31.8704 30.7002 31.7246C30.4404 31.5788 30.1351 31.5059 29.7842 31.5059C29.4378 31.5059 29.1325 31.5788 28.8682 31.7246C28.6084 31.8704 28.3896 32.071 28.2119 32.3262C28.0387 32.5768 27.9089 32.8662 27.8223 33.1943C27.7357 33.5179 27.6924 33.862 27.6924 34.2266ZM36.0186 27.5V38H34.7471V27.5H36.0186ZM40.5371 30.6035L37.3105 34.0557L35.5059 35.9287L35.4033 34.582L36.6953 33.0371L38.9922 30.6035H40.5371ZM39.3818 38L36.7432 34.4727L37.3994 33.3447L40.8721 38H39.3818ZM49.6768 36.7354V32.9277C49.6768 32.6361 49.6175 32.3831 49.499 32.1689C49.3851 31.9502 49.2119 31.7816 48.9795 31.6631C48.7471 31.5446 48.46 31.4854 48.1182 31.4854C47.7992 31.4854 47.5189 31.54 47.2773 31.6494C47.0404 31.7588 46.8535 31.9023 46.7168 32.0801C46.5846 32.2578 46.5186 32.4492 46.5186 32.6543H45.2539C45.2539 32.39 45.3223 32.1279 45.459 31.8682C45.5957 31.6084 45.7917 31.3737 46.0469 31.1641C46.3066 30.9499 46.6165 30.7812 46.9766 30.6582C47.3411 30.5306 47.7467 30.4668 48.1934 30.4668C48.7311 30.4668 49.2051 30.5579 49.6152 30.7402C50.0299 30.9225 50.3535 31.1982 50.5859 31.5674C50.8229 31.932 50.9414 32.39 50.9414 32.9414V36.3867C50.9414 36.6328 50.9619 36.8949 51.0029 37.1729C51.0485 37.4508 51.1146 37.6901 51.2012 37.8906V38H49.8818C49.818 37.8542 49.7679 37.6605 49.7314 37.4189C49.695 37.1729 49.6768 36.945 49.6768 36.7354ZM49.8955 33.5156L49.9092 34.4043H48.6309C48.2708 34.4043 47.9495 34.4339 47.667 34.4932C47.3844 34.5479 47.1475 34.6322 46.9561 34.7461C46.7646 34.86 46.6188 35.0036 46.5186 35.1768C46.4183 35.3454 46.3682 35.5436 46.3682 35.7715C46.3682 36.0039 46.4206 36.2158 46.5254 36.4072C46.6302 36.5986 46.7874 36.7513 46.9971 36.8652C47.2113 36.9746 47.4733 37.0293 47.7832 37.0293C48.1706 37.0293 48.5124 36.9473 48.8086 36.7832C49.1048 36.6191 49.3395 36.4186 49.5127 36.1816C49.6904 35.9447 49.7861 35.7145 49.7998 35.4912L50.3398 36.0996C50.3079 36.291 50.2214 36.5029 50.0801 36.7354C49.9388 36.9678 49.7497 37.1911 49.5127 37.4053C49.2803 37.6149 49.0023 37.7904 48.6787 37.9316C48.3597 38.0684 47.9997 38.1367 47.5986 38.1367C47.0973 38.1367 46.6576 38.0387 46.2793 37.8428C45.9056 37.6468 45.6139 37.3848 45.4043 37.0566C45.1992 36.724 45.0967 36.3525 45.0967 35.9424C45.0967 35.5459 45.1742 35.1973 45.3291 34.8965C45.484 34.5911 45.7074 34.3382 45.999 34.1377C46.2907 33.9326 46.6416 33.7777 47.0518 33.6729C47.4619 33.568 47.9199 33.5156 48.4258 33.5156H49.8955ZM54.1953 32.1826V38H52.9307V30.6035H54.127L54.1953 32.1826ZM53.8945 34.0215L53.3682 34.001C53.3727 33.4951 53.4479 33.028 53.5938 32.5996C53.7396 32.1667 53.9447 31.7907 54.209 31.4717C54.4733 31.1527 54.7878 30.9066 55.1523 30.7334C55.5215 30.5557 55.9294 30.4668 56.376 30.4668C56.7406 30.4668 57.0687 30.5169 57.3604 30.6172C57.652 30.7129 57.9004 30.8678 58.1055 31.082C58.3151 31.2962 58.4746 31.5742 58.584 31.916C58.6934 32.2533 58.748 32.6657 58.748 33.1533V38H57.4766V33.1396C57.4766 32.7523 57.4196 32.4424 57.3057 32.21C57.1917 31.973 57.0254 31.8021 56.8066 31.6973C56.5879 31.5879 56.319 31.5332 56 31.5332C55.6855 31.5332 55.3984 31.5993 55.1387 31.7314C54.8835 31.8636 54.6624 32.0459 54.4756 32.2783C54.2933 32.5107 54.1497 32.7773 54.0449 33.0781C53.9447 33.3743 53.8945 33.6888 53.8945 34.0215ZM61.9336 27.5V38H60.6689V27.5H61.9336ZM61.6328 34.0215L61.1064 34.001C61.111 33.4951 61.1862 33.028 61.332 32.5996C61.4779 32.1667 61.6829 31.7907 61.9473 31.4717C62.2116 31.1527 62.526 30.9066 62.8906 30.7334C63.2598 30.5557 63.6676 30.4668 64.1143 30.4668C64.4788 30.4668 64.807 30.5169 65.0986 30.6172C65.3903 30.7129 65.6387 30.8678 65.8438 31.082C66.0534 31.2962 66.2129 31.5742 66.3223 31.916C66.4316 32.2533 66.4863 32.6657 66.4863 33.1533V38H65.2148V33.1396C65.2148 32.7523 65.1579 32.4424 65.0439 32.21C64.93 31.973 64.7637 31.8021 64.5449 31.6973C64.3262 31.5879 64.0573 31.5332 63.7383 31.5332C63.4238 31.5332 63.1367 31.5993 62.877 31.7314C62.6217 31.8636 62.4007 32.0459 62.2139 32.2783C62.0316 32.5107 61.888 32.7773 61.7832 33.0781C61.6829 33.3743 61.6328 33.6888 61.6328 34.0215ZM74.9219 38.1367C74.4069 38.1367 73.9398 38.0501 73.5205 37.877C73.1058 37.6992 72.748 37.4508 72.4473 37.1318C72.151 36.8128 71.9232 36.4346 71.7637 35.9971C71.6042 35.5596 71.5244 35.0811 71.5244 34.5615V34.2744C71.5244 33.6729 71.6133 33.1374 71.791 32.668C71.9688 32.194 72.2103 31.793 72.5156 31.4648C72.821 31.1367 73.1673 30.8883 73.5547 30.7197C73.9421 30.5511 74.3431 30.4668 74.7578 30.4668C75.2865 30.4668 75.7422 30.5579 76.125 30.7402C76.5124 30.9225 76.8291 31.1777 77.0752 31.5059C77.3213 31.8294 77.5036 32.2122 77.6221 32.6543C77.7406 33.0918 77.7998 33.5703 77.7998 34.0898V34.6572H72.2764V33.625H76.5352V33.5293C76.5169 33.2012 76.4486 32.8822 76.3301 32.5723C76.2161 32.2624 76.0339 32.0072 75.7832 31.8066C75.5326 31.6061 75.1908 31.5059 74.7578 31.5059C74.4707 31.5059 74.2064 31.5674 73.9648 31.6904C73.7233 31.8089 73.516 31.9867 73.3428 32.2236C73.1696 32.4606 73.0352 32.75 72.9395 33.0918C72.8438 33.4336 72.7959 33.8278 72.7959 34.2744V34.5615C72.7959 34.9124 72.8438 35.2428 72.9395 35.5527C73.0397 35.8581 73.1833 36.127 73.3701 36.3594C73.5615 36.5918 73.7917 36.7741 74.0605 36.9062C74.334 37.0384 74.6439 37.1045 74.9902 37.1045C75.4368 37.1045 75.8151 37.0133 76.125 36.8311C76.4349 36.6488 76.7061 36.4049 76.9385 36.0996L77.7041 36.708C77.5446 36.9495 77.3418 37.1797 77.0957 37.3984C76.8496 37.6172 76.5465 37.7949 76.1865 37.9316C75.8311 38.0684 75.4095 38.1367 74.9219 38.1367ZM80.5342 32.0732V38H79.2627V30.6035H80.4658L80.5342 32.0732ZM80.2744 34.0215L79.6865 34.001C79.6911 33.4951 79.7572 33.028 79.8848 32.5996C80.0124 32.1667 80.2015 31.7907 80.4521 31.4717C80.7028 31.1527 81.015 30.9066 81.3887 30.7334C81.7624 30.5557 82.1953 30.4668 82.6875 30.4668C83.0339 30.4668 83.3529 30.5169 83.6445 30.6172C83.9362 30.7129 84.1891 30.8656 84.4033 31.0752C84.6175 31.2848 84.7839 31.5537 84.9023 31.8818C85.0208 32.21 85.0801 32.6064 85.0801 33.0713V38H83.8154V33.1328C83.8154 32.7454 83.7493 32.4355 83.6172 32.2031C83.4896 31.9707 83.3073 31.8021 83.0703 31.6973C82.8333 31.5879 82.5553 31.5332 82.2363 31.5332C81.8626 31.5332 81.5505 31.5993 81.2998 31.7314C81.0492 31.8636 80.8486 32.0459 80.6982 32.2783C80.5479 32.5107 80.4385 32.7773 80.3701 33.0781C80.3063 33.3743 80.2744 33.6888 80.2744 34.0215ZM85.0664 33.3242L84.2188 33.584C84.2233 33.1784 84.2894 32.7887 84.417 32.415C84.5492 32.0413 84.7383 31.7087 84.9844 31.417C85.235 31.1253 85.5426 30.8952 85.9072 30.7266C86.2718 30.5534 86.6888 30.4668 87.1582 30.4668C87.5547 30.4668 87.9056 30.5192 88.2109 30.624C88.5208 30.7288 88.7806 30.8906 88.9902 31.1094C89.2044 31.3236 89.3662 31.5993 89.4756 31.9365C89.585 32.2738 89.6396 32.6748 89.6396 33.1396V38H88.3682V33.126C88.3682 32.7113 88.3021 32.39 88.1699 32.1621C88.0423 31.9297 87.86 31.7679 87.623 31.6768C87.3906 31.5811 87.1126 31.5332 86.7891 31.5332C86.5111 31.5332 86.265 31.5811 86.0508 31.6768C85.8366 31.7725 85.6566 31.9046 85.5107 32.0732C85.3649 32.2373 85.2533 32.4264 85.1758 32.6406C85.1029 32.8548 85.0664 33.0827 85.0664 33.3242Z" fill="#747881"/>
<path d="M234.028 28.0469V38H232.729V28.0469H234.028ZM237.228 28.0469V29.127H229.537V28.0469H237.228ZM239.777 27.5V38H238.513V27.5H239.777ZM239.477 34.0215L238.95 34.001C238.955 33.4951 239.03 33.028 239.176 32.5996C239.322 32.1667 239.527 31.7907 239.791 31.4717C240.055 31.1527 240.37 30.9066 240.734 30.7334C241.104 30.5557 241.511 30.4668 241.958 30.4668C242.323 30.4668 242.651 30.5169 242.942 30.6172C243.234 30.7129 243.482 30.8678 243.688 31.082C243.897 31.2962 244.057 31.5742 244.166 31.916C244.275 32.2533 244.33 32.6657 244.33 33.1533V38H243.059V33.1396C243.059 32.7523 243.002 32.4424 242.888 32.21C242.774 31.973 242.607 31.8021 242.389 31.6973C242.17 31.5879 241.901 31.5332 241.582 31.5332C241.268 31.5332 240.98 31.5993 240.721 31.7314C240.465 31.8636 240.244 32.0459 240.058 32.2783C239.875 32.5107 239.732 32.7773 239.627 33.0781C239.527 33.3743 239.477 33.6888 239.477 34.0215ZM250.749 36.291V30.6035H252.021V38H250.811L250.749 36.291ZM250.988 34.7324L251.515 34.7188C251.515 35.2109 251.462 35.6667 251.357 36.0859C251.257 36.5007 251.093 36.8607 250.865 37.166C250.637 37.4714 250.339 37.7106 249.97 37.8838C249.601 38.0524 249.152 38.1367 248.623 38.1367C248.263 38.1367 247.933 38.0843 247.632 37.9795C247.336 37.8747 247.08 37.7129 246.866 37.4941C246.652 37.2754 246.486 36.9906 246.367 36.6396C246.253 36.2887 246.196 35.8672 246.196 35.375V30.6035H247.461V35.3887C247.461 35.7214 247.497 35.9971 247.57 36.2158C247.648 36.43 247.75 36.6009 247.878 36.7285C248.01 36.8516 248.156 36.9382 248.315 36.9883C248.479 37.0384 248.648 37.0635 248.821 37.0635C249.359 37.0635 249.785 36.9609 250.1 36.7559C250.414 36.5462 250.64 36.266 250.776 35.915C250.918 35.5596 250.988 35.1654 250.988 34.7324ZM255.213 31.7656V38H253.948V30.6035H255.179L255.213 31.7656ZM257.523 30.5625L257.517 31.7383C257.412 31.7155 257.312 31.7018 257.216 31.6973C257.125 31.6882 257.02 31.6836 256.901 31.6836C256.61 31.6836 256.352 31.7292 256.129 31.8203C255.906 31.9115 255.716 32.0391 255.562 32.2031C255.407 32.3672 255.284 32.5632 255.192 32.791C255.106 33.0143 255.049 33.2604 255.021 33.5293L254.666 33.7344C254.666 33.2878 254.709 32.8685 254.796 32.4766C254.887 32.0846 255.026 31.7383 255.213 31.4375C255.4 31.1322 255.637 30.8952 255.924 30.7266C256.215 30.5534 256.562 30.4668 256.963 30.4668C257.054 30.4668 257.159 30.4782 257.277 30.501C257.396 30.5192 257.478 30.5397 257.523 30.5625ZM262.999 36.0381C262.999 35.8558 262.958 35.6872 262.876 35.5322C262.799 35.3727 262.637 35.2292 262.391 35.1016C262.149 34.9694 261.785 34.8555 261.297 34.7598C260.887 34.6732 260.515 34.5706 260.183 34.4521C259.854 34.3337 259.574 34.1901 259.342 34.0215C259.114 33.8529 258.938 33.6546 258.815 33.4268C258.692 33.1989 258.631 32.9323 258.631 32.627C258.631 32.3353 258.695 32.0596 258.822 31.7998C258.954 31.54 259.139 31.3099 259.376 31.1094C259.618 30.9089 259.907 30.7516 260.244 30.6377C260.581 30.5238 260.957 30.4668 261.372 30.4668C261.965 30.4668 262.47 30.5716 262.89 30.7812C263.309 30.9909 263.63 31.2712 263.854 31.6221C264.077 31.9684 264.188 32.3535 264.188 32.7773H262.924C262.924 32.5723 262.862 32.374 262.739 32.1826C262.621 31.9867 262.445 31.8249 262.213 31.6973C261.985 31.5697 261.705 31.5059 261.372 31.5059C261.021 31.5059 260.736 31.5605 260.518 31.6699C260.303 31.7747 260.146 31.9092 260.046 32.0732C259.95 32.2373 259.902 32.4105 259.902 32.5928C259.902 32.7295 259.925 32.8525 259.971 32.9619C260.021 33.0667 260.107 33.1647 260.23 33.2559C260.354 33.3424 260.527 33.4245 260.75 33.502C260.973 33.5794 261.258 33.6569 261.604 33.7344C262.211 33.8711 262.71 34.0352 263.102 34.2266C263.493 34.418 263.785 34.6527 263.977 34.9307C264.168 35.2087 264.264 35.5459 264.264 35.9424C264.264 36.266 264.195 36.5622 264.059 36.8311C263.926 37.0999 263.733 37.3324 263.478 37.5283C263.227 37.7197 262.926 37.8701 262.575 37.9795C262.229 38.0843 261.839 38.1367 261.406 38.1367C260.755 38.1367 260.203 38.0205 259.752 37.7881C259.301 37.5557 258.959 37.2549 258.727 36.8857C258.494 36.5166 258.378 36.127 258.378 35.7168H259.649C259.668 36.0632 259.768 36.3389 259.95 36.5439C260.132 36.7445 260.356 36.888 260.62 36.9746C260.884 37.0566 261.146 37.0977 261.406 37.0977C261.753 37.0977 262.042 37.0521 262.274 36.9609C262.511 36.8698 262.691 36.7445 262.814 36.585C262.938 36.4255 262.999 36.2432 262.999 36.0381ZM270.587 36.5645V27.5H271.858V38H270.696L270.587 36.5645ZM265.61 34.3838V34.2402C265.61 33.6751 265.679 33.1624 265.815 32.7021C265.957 32.2373 266.155 31.8385 266.41 31.5059C266.67 31.1732 266.978 30.918 267.333 30.7402C267.693 30.5579 268.094 30.4668 268.536 30.4668C269.001 30.4668 269.407 30.5488 269.753 30.7129C270.104 30.8724 270.4 31.1071 270.642 31.417C270.888 31.7223 271.081 32.0915 271.223 32.5244C271.364 32.9574 271.462 33.4473 271.517 33.9941V34.623C271.466 35.1654 271.368 35.653 271.223 36.0859C271.081 36.5189 270.888 36.888 270.642 37.1934C270.4 37.4987 270.104 37.7334 269.753 37.8975C269.402 38.057 268.992 38.1367 268.522 38.1367C268.09 38.1367 267.693 38.0433 267.333 37.8564C266.978 37.6696 266.67 37.4076 266.41 37.0703C266.155 36.7331 265.957 36.3366 265.815 35.8809C265.679 35.4206 265.61 34.9215 265.61 34.3838ZM266.882 34.2402V34.3838C266.882 34.7529 266.918 35.0993 266.991 35.4229C267.069 35.7464 267.187 36.0312 267.347 36.2773C267.506 36.5234 267.709 36.7171 267.955 36.8584C268.201 36.9951 268.495 37.0635 268.837 37.0635C269.256 37.0635 269.6 36.9746 269.869 36.7969C270.143 36.6191 270.361 36.3844 270.525 36.0928C270.689 35.8011 270.817 35.4844 270.908 35.1426V33.4951C270.854 33.2445 270.774 33.0029 270.669 32.7705C270.569 32.5335 270.437 32.3239 270.272 32.1416C270.113 31.9548 269.915 31.8066 269.678 31.6973C269.445 31.5879 269.17 31.5332 268.851 31.5332C268.504 31.5332 268.206 31.6061 267.955 31.752C267.709 31.8932 267.506 32.0892 267.347 32.3398C267.187 32.5859 267.069 32.873 266.991 33.2012C266.918 33.5247 266.882 33.8711 266.882 34.2402ZM278.188 36.7354V32.9277C278.188 32.6361 278.129 32.3831 278.011 32.1689C277.897 31.9502 277.724 31.7816 277.491 31.6631C277.259 31.5446 276.972 31.4854 276.63 31.4854C276.311 31.4854 276.031 31.54 275.789 31.6494C275.552 31.7588 275.365 31.9023 275.229 32.0801C275.096 32.2578 275.03 32.4492 275.03 32.6543H273.766C273.766 32.39 273.834 32.1279 273.971 31.8682C274.107 31.6084 274.303 31.3737 274.559 31.1641C274.818 30.9499 275.128 30.7812 275.488 30.6582C275.853 30.5306 276.258 30.4668 276.705 30.4668C277.243 30.4668 277.717 30.5579 278.127 30.7402C278.542 30.9225 278.865 31.1982 279.098 31.5674C279.335 31.932 279.453 32.39 279.453 32.9414V36.3867C279.453 36.6328 279.474 36.8949 279.515 37.1729C279.56 37.4508 279.626 37.6901 279.713 37.8906V38H278.394C278.33 37.8542 278.28 37.6605 278.243 37.4189C278.207 37.1729 278.188 36.945 278.188 36.7354ZM278.407 33.5156L278.421 34.4043H277.143C276.783 34.4043 276.461 34.4339 276.179 34.4932C275.896 34.5479 275.659 34.6322 275.468 34.7461C275.276 34.86 275.131 35.0036 275.03 35.1768C274.93 35.3454 274.88 35.5436 274.88 35.7715C274.88 36.0039 274.932 36.2158 275.037 36.4072C275.142 36.5986 275.299 36.7513 275.509 36.8652C275.723 36.9746 275.985 37.0293 276.295 37.0293C276.682 37.0293 277.024 36.9473 277.32 36.7832C277.617 36.6191 277.851 36.4186 278.024 36.1816C278.202 35.9447 278.298 35.7145 278.312 35.4912L278.852 36.0996C278.82 36.291 278.733 36.5029 278.592 36.7354C278.451 36.9678 278.261 37.1911 278.024 37.4053C277.792 37.6149 277.514 37.7904 277.19 37.9316C276.871 38.0684 276.511 38.1367 276.11 38.1367C275.609 38.1367 275.169 38.0387 274.791 37.8428C274.417 37.6468 274.126 37.3848 273.916 37.0566C273.711 36.724 273.608 36.3525 273.608 35.9424C273.608 35.5459 273.686 35.1973 273.841 34.8965C273.996 34.5911 274.219 34.3382 274.511 34.1377C274.802 33.9326 275.153 33.7777 275.563 33.6729C275.974 33.568 276.432 33.5156 276.938 33.5156H278.407ZM283.411 37.2344L285.469 30.6035H286.822L283.855 39.1416C283.787 39.3239 283.696 39.5199 283.582 39.7295C283.473 39.9437 283.331 40.1465 283.158 40.3379C282.985 40.5293 282.775 40.6842 282.529 40.8027C282.288 40.9258 281.998 40.9873 281.661 40.9873C281.561 40.9873 281.433 40.9736 281.278 40.9463C281.123 40.9189 281.014 40.8962 280.95 40.8779L280.943 39.8525C280.98 39.8571 281.037 39.8617 281.114 39.8662C281.196 39.8753 281.253 39.8799 281.285 39.8799C281.572 39.8799 281.816 39.8411 282.017 39.7637C282.217 39.6908 282.386 39.5654 282.522 39.3877C282.664 39.2145 282.785 38.9753 282.885 38.6699L283.411 37.2344ZM281.9 30.6035L283.821 36.3457L284.149 37.6787L283.24 38.1436L280.52 30.6035H281.9Z" fill="#747881"/>
</svg>
