<svg width="287" height="50" viewBox="0 0 287 50" fill="none" xmlns="http://www.w3.org/2000/svg">
<path d="M5.42188 18.8594H2.52344L2.50781 17.4297H5.03906C5.46615 17.4297 5.82812 17.3672 6.125 17.2422C6.42708 17.112 6.65625 16.9271 6.8125 16.6875C6.96875 16.4427 7.04688 16.1484 7.04688 15.8047C7.04688 15.4245 6.97396 15.1146 6.82812 14.875C6.68229 14.6354 6.45833 14.4609 6.15625 14.3516C5.85938 14.2422 5.47917 14.1875 5.01562 14.1875H3.11719V24H1.15625V12.625H5.01562C5.64062 12.625 6.19792 12.6849 6.6875 12.8047C7.18229 12.9245 7.60156 13.112 7.94531 13.3672C8.29427 13.6172 8.55729 13.9349 8.73438 14.3203C8.91667 14.7057 9.00781 15.1641 9.00781 15.6953C9.00781 16.1641 8.89583 16.5938 8.67188 16.9844C8.44792 17.3698 8.11719 17.6849 7.67969 17.9297C7.24219 18.1745 6.69792 18.3203 6.04688 18.3672L5.42188 18.8594ZM5.33594 24H1.90625L2.78906 22.4453H5.33594C5.77865 22.4453 6.14844 22.3724 6.44531 22.2266C6.74219 22.0755 6.96354 21.8698 7.10938 21.6094C7.26042 21.3438 7.33594 21.0339 7.33594 20.6797C7.33594 20.3099 7.27083 19.9896 7.14062 19.7188C7.01042 19.4427 6.80469 19.2318 6.52344 19.0859C6.24219 18.9349 5.875 18.8594 5.42188 18.8594H3.21875L3.23438 17.4297H6.10156L6.54688 17.9688C7.17188 17.9896 7.6849 18.1276 8.08594 18.3828C8.49219 18.638 8.79427 18.9688 8.99219 19.375C9.1901 19.7812 9.28906 20.2188 9.28906 20.6875C9.28906 21.4115 9.13021 22.0182 8.8125 22.5078C8.5 22.9974 8.04948 23.3698 7.46094 23.625C6.8724 23.875 6.16406 24 5.33594 24ZM13.0938 15.5469V24H11.2031V15.5469H13.0938ZM11.0781 13.3281C11.0781 13.0417 11.1719 12.8047 11.3594 12.6172C11.5521 12.4245 11.8177 12.3281 12.1562 12.3281C12.4896 12.3281 12.7526 12.4245 12.9453 12.6172C13.138 12.8047 13.2344 13.0417 13.2344 13.3281C13.2344 13.6094 13.138 13.8438 12.9453 14.0312C12.7526 14.2188 12.4896 14.3125 12.1562 14.3125C11.8177 14.3125 11.5521 14.2188 11.3594 14.0312C11.1719 13.8438 11.0781 13.6094 11.0781 13.3281ZM17.1719 12V24H15.2812V12H17.1719ZM21.25 12V24H19.3594V12H21.25ZM25.0781 22.1875L25.0703 23.5312C25.0703 24.0625 24.9375 24.6094 24.6719 25.1719C24.4062 25.7344 24.0547 26.1979 23.6172 26.5625L22.6094 25.9766C22.7552 25.7422 22.888 25.5052 23.0078 25.2656C23.1276 25.026 23.224 24.7708 23.2969 24.5C23.3698 24.2292 23.4062 23.9297 23.4062 23.6016V22.1875H25.0781ZM35.3281 18.8594H32.4297L32.4141 17.4297H34.9453C35.3724 17.4297 35.7344 17.3672 36.0312 17.2422C36.3333 17.112 36.5625 16.9271 36.7188 16.6875C36.875 16.4427 36.9531 16.1484 36.9531 15.8047C36.9531 15.4245 36.8802 15.1146 36.7344 14.875C36.5885 14.6354 36.3646 14.4609 36.0625 14.3516C35.7656 14.2422 35.3854 14.1875 34.9219 14.1875H33.0234V24H31.0625V12.625H34.9219C35.5469 12.625 36.1042 12.6849 36.5938 12.8047C37.0885 12.9245 37.5078 13.112 37.8516 13.3672C38.2005 13.6172 38.4635 13.9349 38.6406 14.3203C38.8229 14.7057 38.9141 15.1641 38.9141 15.6953C38.9141 16.1641 38.8021 16.5938 38.5781 16.9844C38.3542 17.3698 38.0234 17.6849 37.5859 17.9297C37.1484 18.1745 36.6042 18.3203 35.9531 18.3672L35.3281 18.8594ZM35.2422 24H31.8125L32.6953 22.4453H35.2422C35.6849 22.4453 36.0547 22.3724 36.3516 22.2266C36.6484 22.0755 36.8698 21.8698 37.0156 21.6094C37.1667 21.3438 37.2422 21.0339 37.2422 20.6797C37.2422 20.3099 37.1771 19.9896 37.0469 19.7188C36.9167 19.4427 36.7109 19.2318 36.4297 19.0859C36.1484 18.9349 35.7812 18.8594 35.3281 18.8594H33.125L33.1406 17.4297H36.0078L36.4531 17.9688C37.0781 17.9896 37.5911 18.1276 37.9922 18.3828C38.3984 18.638 38.7005 18.9688 38.8984 19.375C39.0964 19.7812 39.1953 20.2188 39.1953 20.6875C39.1953 21.4115 39.0365 22.0182 38.7188 22.5078C38.4062 22.9974 37.9557 23.3698 37.3672 23.625C36.7786 23.875 36.0703 24 35.2422 24ZM42.875 17.1562V24H40.9922V15.5469H42.7891L42.875 17.1562ZM45.4609 15.4922L45.4453 17.2422C45.3307 17.2214 45.2057 17.2057 45.0703 17.1953C44.9401 17.1849 44.8099 17.1797 44.6797 17.1797C44.3568 17.1797 44.0729 17.2266 43.8281 17.3203C43.5833 17.4089 43.3776 17.5391 43.2109 17.7109C43.0495 17.8776 42.9245 18.0807 42.8359 18.3203C42.7474 18.5599 42.6953 18.8281 42.6797 19.125L42.25 19.1562C42.25 18.625 42.3021 18.1328 42.4062 17.6797C42.5104 17.2266 42.6667 16.8281 42.875 16.4844C43.0885 16.1406 43.3542 15.8724 43.6719 15.6797C43.9948 15.487 44.3672 15.3906 44.7891 15.3906C44.9036 15.3906 45.026 15.401 45.1562 15.4219C45.2917 15.4427 45.3932 15.4661 45.4609 15.4922ZM51.7266 22.0078V15.5469H53.6172V24H51.8359L51.7266 22.0078ZM51.9922 20.25L52.625 20.2344C52.625 20.8021 52.5625 21.3255 52.4375 21.8047C52.3125 22.2786 52.1198 22.6927 51.8594 23.0469C51.599 23.3958 51.2656 23.6693 50.8594 23.8672C50.4531 24.0599 49.9661 24.1562 49.3984 24.1562C48.987 24.1562 48.6094 24.0964 48.2656 23.9766C47.9219 23.8568 47.625 23.6719 47.375 23.4219C47.1302 23.1719 46.9401 22.8464 46.8047 22.4453C46.6693 22.0443 46.6016 21.5651 46.6016 21.0078V15.5469H48.4844V21.0234C48.4844 21.3307 48.5208 21.5885 48.5938 21.7969C48.6667 22 48.7656 22.1641 48.8906 22.2891C49.0156 22.4141 49.1615 22.5026 49.3281 22.5547C49.4948 22.6068 49.6719 22.6328 49.8594 22.6328C50.3958 22.6328 50.8177 22.5286 51.125 22.3203C51.4375 22.1068 51.6589 21.8203 51.7891 21.4609C51.9245 21.1016 51.9922 20.6979 51.9922 20.25ZM59 22.6562C59.3073 22.6562 59.5833 22.5964 59.8281 22.4766C60.0781 22.3516 60.2786 22.1797 60.4297 21.9609C60.5859 21.7422 60.6719 21.4896 60.6875 21.2031H62.4609C62.4505 21.75 62.2891 22.2474 61.9766 22.6953C61.6641 23.1432 61.25 23.5 60.7344 23.7656C60.2188 24.026 59.6484 24.1562 59.0234 24.1562C58.3776 24.1562 57.8151 24.0469 57.3359 23.8281C56.8568 23.6042 56.4583 23.2969 56.1406 22.9062C55.8229 22.5156 55.5833 22.0651 55.4219 21.5547C55.2656 21.0443 55.1875 20.4974 55.1875 19.9141V19.6406C55.1875 19.0573 55.2656 18.5104 55.4219 18C55.5833 17.4844 55.8229 17.0312 56.1406 16.6406C56.4583 16.25 56.8568 15.9453 57.3359 15.7266C57.8151 15.5026 58.375 15.3906 59.0156 15.3906C59.6927 15.3906 60.2865 15.526 60.7969 15.7969C61.3073 16.0625 61.7083 16.4349 62 16.9141C62.2969 17.388 62.4505 17.9401 62.4609 18.5703H60.6875C60.6719 18.2578 60.5938 17.9766 60.4531 17.7266C60.3177 17.4714 60.125 17.2682 59.875 17.1172C59.6302 16.9661 59.3359 16.8906 58.9922 16.8906C58.612 16.8906 58.2969 16.9688 58.0469 17.125C57.7969 17.276 57.6016 17.4844 57.4609 17.75C57.3203 18.0104 57.2188 18.3047 57.1562 18.6328C57.099 18.9557 57.0703 19.2917 57.0703 19.6406V19.9141C57.0703 20.263 57.099 20.6016 57.1562 20.9297C57.2135 21.2578 57.3125 21.5521 57.4531 21.8125C57.599 22.0677 57.7969 22.2734 58.0469 22.4297C58.2969 22.5807 58.6146 22.6562 59 22.6562ZM67.6328 24.1562C67.0078 24.1562 66.4427 24.0547 65.9375 23.8516C65.4375 23.6432 65.0104 23.3542 64.6562 22.9844C64.3073 22.6146 64.0391 22.1797 63.8516 21.6797C63.6641 21.1797 63.5703 20.6406 63.5703 20.0625V19.75C63.5703 19.0885 63.6667 18.4896 63.8594 17.9531C64.0521 17.4167 64.3203 16.9583 64.6641 16.5781C65.0078 16.1927 65.4141 15.8984 65.8828 15.6953C66.3516 15.4922 66.8594 15.3906 67.4062 15.3906C68.0104 15.3906 68.5391 15.4922 68.9922 15.6953C69.4453 15.8984 69.8203 16.1849 70.1172 16.5547C70.4193 16.9193 70.6432 17.3542 70.7891 17.8594C70.9401 18.3646 71.0156 18.9219 71.0156 19.5312V20.3359H64.4844V18.9844H69.1562V18.8359C69.1458 18.4974 69.0781 18.1797 68.9531 17.8828C68.8333 17.5859 68.6484 17.3464 68.3984 17.1641C68.1484 16.9818 67.8151 16.8906 67.3984 16.8906C67.0859 16.8906 66.8073 16.9583 66.5625 17.0938C66.3229 17.224 66.1224 17.4141 65.9609 17.6641C65.7995 17.9141 65.6745 18.2161 65.5859 18.5703C65.5026 18.9193 65.4609 19.3125 65.4609 19.75V20.0625C65.4609 20.4323 65.5104 20.776 65.6094 21.0938C65.7135 21.4062 65.8646 21.6797 66.0625 21.9141C66.2604 22.1484 66.5 22.3333 66.7812 22.4688C67.0625 22.599 67.3828 22.6641 67.7422 22.6641C68.1953 22.6641 68.599 22.5729 68.9531 22.3906C69.3073 22.2083 69.6146 21.9505 69.875 21.6172L70.8672 22.5781C70.6849 22.8438 70.4479 23.099 70.1562 23.3438C69.8646 23.5833 69.5078 23.7786 69.0859 23.9297C68.6693 24.0807 68.1849 24.1562 67.6328 24.1562ZM83.7812 22.4453V24H78.0703V22.4453H83.7812ZM78.6172 12.625V24H76.6562V12.625H78.6172ZM88.8359 24.1562C88.2109 24.1562 87.6458 24.0547 87.1406 23.8516C86.6406 23.6432 86.2135 23.3542 85.8594 22.9844C85.5104 22.6146 85.2422 22.1797 85.0547 21.6797C84.8672 21.1797 84.7734 20.6406 84.7734 20.0625V19.75C84.7734 19.0885 84.8698 18.4896 85.0625 17.9531C85.2552 17.4167 85.5234 16.9583 85.8672 16.5781C86.2109 16.1927 86.6172 15.8984 87.0859 15.6953C87.5547 15.4922 88.0625 15.3906 88.6094 15.3906C89.2135 15.3906 89.7422 15.4922 90.1953 15.6953C90.6484 15.8984 91.0234 16.1849 91.3203 16.5547C91.6224 16.9193 91.8464 17.3542 91.9922 17.8594C92.1432 18.3646 92.2188 18.9219 92.2188 19.5312V20.3359H85.6875V18.9844H90.3594V18.8359C90.349 18.4974 90.2812 18.1797 90.1562 17.8828C90.0365 17.5859 89.8516 17.3464 89.6016 17.1641C89.3516 16.9818 89.0182 16.8906 88.6016 16.8906C88.2891 16.8906 88.0104 16.9583 87.7656 17.0938C87.526 17.224 87.3255 17.4141 87.1641 17.6641C87.0026 17.9141 86.8776 18.2161 86.7891 18.5703C86.7057 18.9193 86.6641 19.3125 86.6641 19.75V20.0625C86.6641 20.4323 86.7135 20.776 86.8125 21.0938C86.9167 21.4062 87.0677 21.6797 87.2656 21.9141C87.4635 22.1484 87.7031 22.3333 87.9844 22.4688C88.2656 22.599 88.5859 22.6641 88.9453 22.6641C89.3984 22.6641 89.8021 22.5729 90.1562 22.3906C90.5104 22.2083 90.8177 21.9505 91.0781 21.6172L92.0703 22.5781C91.888 22.8438 91.651 23.099 91.3594 23.3438C91.0677 23.5833 90.7109 23.7786 90.2891 23.9297C89.8724 24.0807 89.388 24.1562 88.8359 24.1562ZM97.4141 24.1562C96.7891 24.1562 96.224 24.0547 95.7188 23.8516C95.2188 23.6432 94.7917 23.3542 94.4375 22.9844C94.0885 22.6146 93.8203 22.1797 93.6328 21.6797C93.4453 21.1797 93.3516 20.6406 93.3516 20.0625V19.75C93.3516 19.0885 93.4479 18.4896 93.6406 17.9531C93.8333 17.4167 94.1016 16.9583 94.4453 16.5781C94.7891 16.1927 95.1953 15.8984 95.6641 15.6953C96.1328 15.4922 96.6406 15.3906 97.1875 15.3906C97.7917 15.3906 98.3203 15.4922 98.7734 15.6953C99.2266 15.8984 99.6016 16.1849 99.8984 16.5547C100.201 16.9193 100.424 17.3542 100.57 17.8594C100.721 18.3646 100.797 18.9219 100.797 19.5312V20.3359H94.2656V18.9844H98.9375V18.8359C98.9271 18.4974 98.8594 18.1797 98.7344 17.8828C98.6146 17.5859 98.4297 17.3464 98.1797 17.1641C97.9297 16.9818 97.5964 16.8906 97.1797 16.8906C96.8672 16.8906 96.5885 16.9583 96.3438 17.0938C96.1042 17.224 95.9036 17.4141 95.7422 17.6641C95.5807 17.9141 95.4557 18.2161 95.3672 18.5703C95.2839 18.9193 95.2422 19.3125 95.2422 19.75V20.0625C95.2422 20.4323 95.2917 20.776 95.3906 21.0938C95.4948 21.4062 95.6458 21.6797 95.8438 21.9141C96.0417 22.1484 96.2812 22.3333 96.5625 22.4688C96.8438 22.599 97.1641 22.6641 97.5234 22.6641C97.9766 22.6641 98.3802 22.5729 98.7344 22.3906C99.0885 22.2083 99.3958 21.9505 99.6562 21.6172L100.648 22.5781C100.466 22.8438 100.229 23.099 99.9375 23.3438C99.6458 23.5833 99.2891 23.7786 98.8672 23.9297C98.4505 24.0807 97.9661 24.1562 97.4141 24.1562ZM104.031 22.1875L104.023 23.5312C104.023 24.0625 103.891 24.6094 103.625 25.1719C103.359 25.7344 103.008 26.1979 102.57 26.5625L101.562 25.9766C101.708 25.7422 101.841 25.5052 101.961 25.2656C102.081 25.026 102.177 24.7708 102.25 24.5C102.323 24.2292 102.359 23.9297 102.359 23.6016V22.1875H104.031ZM117.172 17.7656V19.4609H109.375V17.7656H117.172ZM114.188 14.5781V22.8594H112.367V14.5781H114.188ZM123.75 12.5859V24H121.867V14.8203L119.078 15.7656V14.2109L123.523 12.5859H123.75Z" fill="#747881"/>
<path d="M1.61328 34.0469L4.19727 39.0439L6.78809 34.0469H8.28516L4.85352 40.2812V44H3.53418V40.2812L0.102539 34.0469H1.61328ZM8.58594 40.3838V40.2266C8.58594 39.6934 8.66341 39.1989 8.81836 38.7432C8.97331 38.2829 9.19661 37.8841 9.48828 37.5469C9.77995 37.2051 10.1331 36.9408 10.5479 36.7539C10.9626 36.5625 11.4274 36.4668 11.9424 36.4668C12.4619 36.4668 12.929 36.5625 13.3438 36.7539C13.763 36.9408 14.1185 37.2051 14.4102 37.5469C14.7064 37.8841 14.932 38.2829 15.0869 38.7432C15.2419 39.1989 15.3193 39.6934 15.3193 40.2266V40.3838C15.3193 40.917 15.2419 41.4115 15.0869 41.8672C14.932 42.3229 14.7064 42.7217 14.4102 43.0635C14.1185 43.4007 13.7653 43.665 13.3506 43.8564C12.9404 44.0433 12.4756 44.1367 11.9561 44.1367C11.4365 44.1367 10.9694 44.0433 10.5547 43.8564C10.14 43.665 9.78451 43.4007 9.48828 43.0635C9.19661 42.7217 8.97331 42.3229 8.81836 41.8672C8.66341 41.4115 8.58594 40.917 8.58594 40.3838ZM9.85059 40.2266V40.3838C9.85059 40.7529 9.89388 41.1016 9.98047 41.4297C10.0671 41.7533 10.1969 42.0404 10.3701 42.291C10.5479 42.5417 10.7689 42.7399 11.0332 42.8857C11.2975 43.027 11.6051 43.0977 11.9561 43.0977C12.3024 43.0977 12.6055 43.027 12.8652 42.8857C13.1296 42.7399 13.3483 42.5417 13.5215 42.291C13.6947 42.0404 13.8245 41.7533 13.9111 41.4297C14.0023 41.1016 14.0479 40.7529 14.0479 40.3838V40.2266C14.0479 39.862 14.0023 39.5179 13.9111 39.1943C13.8245 38.8662 13.6924 38.5768 13.5146 38.3262C13.3415 38.071 13.1227 37.8704 12.8584 37.7246C12.5986 37.5788 12.2933 37.5059 11.9424 37.5059C11.596 37.5059 11.2907 37.5788 11.0264 37.7246C10.7666 37.8704 10.5479 38.071 10.3701 38.3262C10.1969 38.5768 10.0671 38.8662 9.98047 39.1943C9.89388 39.5179 9.85059 39.862 9.85059 40.2266ZM21.4307 42.291V36.6035H22.7021V44H21.4922L21.4307 42.291ZM21.6699 40.7324L22.1963 40.7188C22.1963 41.2109 22.1439 41.6667 22.0391 42.0859C21.9388 42.5007 21.7747 42.8607 21.5469 43.166C21.319 43.4714 21.0205 43.7106 20.6514 43.8838C20.2822 44.0524 19.8333 44.1367 19.3047 44.1367C18.9447 44.1367 18.6143 44.0843 18.3135 43.9795C18.0173 43.8747 17.762 43.7129 17.5479 43.4941C17.3337 43.2754 17.1673 42.9906 17.0488 42.6396C16.9349 42.2887 16.8779 41.8672 16.8779 41.375V36.6035H18.1426V41.3887C18.1426 41.7214 18.179 41.9971 18.252 42.2158C18.3294 42.43 18.432 42.6009 18.5596 42.7285C18.6917 42.8516 18.8376 42.9382 18.9971 42.9883C19.1611 43.0384 19.3298 43.0635 19.5029 43.0635C20.0407 43.0635 20.4668 42.9609 20.7812 42.7559C21.0957 42.5462 21.3213 42.266 21.458 41.915C21.5993 41.5596 21.6699 41.1654 21.6699 40.7324ZM24.5752 43.3301C24.5752 43.1159 24.6413 42.9359 24.7734 42.79C24.9102 42.6396 25.1061 42.5645 25.3613 42.5645C25.6165 42.5645 25.8102 42.6396 25.9424 42.79C26.0791 42.9359 26.1475 43.1159 26.1475 43.3301C26.1475 43.5397 26.0791 43.7174 25.9424 43.8633C25.8102 44.0091 25.6165 44.082 25.3613 44.082C25.1061 44.082 24.9102 44.0091 24.7734 43.8633C24.6413 43.7174 24.5752 43.5397 24.5752 43.3301ZM24.582 37.2939C24.582 37.0798 24.6481 36.8997 24.7803 36.7539C24.917 36.6035 25.113 36.5283 25.3682 36.5283C25.6234 36.5283 25.8171 36.6035 25.9492 36.7539C26.0859 36.8997 26.1543 37.0798 26.1543 37.2939C26.1543 37.5036 26.0859 37.6813 25.9492 37.8271C25.8171 37.973 25.6234 38.0459 25.3682 38.0459C25.113 38.0459 24.917 37.973 24.7803 37.8271C24.6481 37.6813 24.582 37.5036 24.582 37.2939ZM35.2324 39.3447H32.71L32.6963 38.2852H34.9863C35.3646 38.2852 35.695 38.2214 35.9775 38.0938C36.2601 37.9661 36.4788 37.7839 36.6338 37.5469C36.7933 37.3053 36.873 37.0182 36.873 36.6855C36.873 36.321 36.8024 36.0247 36.6611 35.7969C36.5244 35.5645 36.3125 35.3958 36.0254 35.291C35.7428 35.1816 35.3828 35.127 34.9453 35.127H33.0039V44H31.6846V34.0469H34.9453C35.4557 34.0469 35.9115 34.0993 36.3125 34.2041C36.7135 34.3044 37.0531 34.4639 37.3311 34.6826C37.6136 34.8968 37.8278 35.1702 37.9736 35.5029C38.1195 35.8356 38.1924 36.2344 38.1924 36.6992C38.1924 37.1094 38.0876 37.4808 37.8779 37.8135C37.6683 38.1416 37.3766 38.4105 37.0029 38.6201C36.6338 38.8298 36.2008 38.9642 35.7041 39.0234L35.2324 39.3447ZM35.1709 44H32.1904L32.9355 42.9268H35.1709C35.5902 42.9268 35.9456 42.8538 36.2373 42.708C36.5335 42.5622 36.7591 42.3571 36.9141 42.0928C37.069 41.8239 37.1465 41.5072 37.1465 41.1426C37.1465 40.7734 37.0804 40.4544 36.9482 40.1855C36.8161 39.9167 36.6087 39.7093 36.3262 39.5635C36.0436 39.4176 35.679 39.3447 35.2324 39.3447H33.3525L33.3662 38.2852H35.9365L36.2168 38.668C36.6953 38.709 37.1009 38.8457 37.4336 39.0781C37.7663 39.306 38.0192 39.5977 38.1924 39.9531C38.3701 40.3086 38.459 40.7005 38.459 41.1289C38.459 41.7487 38.3223 42.2728 38.0488 42.7012C37.7799 43.125 37.3994 43.4486 36.9072 43.6719C36.415 43.8906 35.8363 44 35.1709 44ZM41.5898 36.6035V44H40.3184V36.6035H41.5898ZM40.2227 34.6416C40.2227 34.4365 40.2842 34.2633 40.4072 34.1221C40.5348 33.9808 40.7217 33.9102 40.9678 33.9102C41.2093 33.9102 41.3939 33.9808 41.5215 34.1221C41.6536 34.2633 41.7197 34.4365 41.7197 34.6416C41.7197 34.8376 41.6536 35.0062 41.5215 35.1475C41.3939 35.2842 41.2093 35.3525 40.9678 35.3525C40.7217 35.3525 40.5348 35.2842 40.4072 35.1475C40.2842 35.0062 40.2227 34.8376 40.2227 34.6416ZM44.9941 33.5V44H43.7227V33.5H44.9941ZM48.3984 33.5V44H47.127V33.5H48.3984ZM55.1592 38.0732V44H53.8877V36.6035H55.0908L55.1592 38.0732ZM54.8994 40.0215L54.3115 40.001C54.3161 39.4951 54.3822 39.028 54.5098 38.5996C54.6374 38.1667 54.8265 37.7907 55.0771 37.4717C55.3278 37.1527 55.64 36.9066 56.0137 36.7334C56.3874 36.5557 56.8203 36.4668 57.3125 36.4668C57.6589 36.4668 57.9779 36.5169 58.2695 36.6172C58.5612 36.7129 58.8141 36.8656 59.0283 37.0752C59.2425 37.2848 59.4089 37.5537 59.5273 37.8818C59.6458 38.21 59.7051 38.6064 59.7051 39.0713V44H58.4404V39.1328C58.4404 38.7454 58.3743 38.4355 58.2422 38.2031C58.1146 37.9707 57.9323 37.8021 57.6953 37.6973C57.4583 37.5879 57.1803 37.5332 56.8613 37.5332C56.4876 37.5332 56.1755 37.5993 55.9248 37.7314C55.6742 37.8636 55.4736 38.0459 55.3232 38.2783C55.1729 38.5107 55.0635 38.7773 54.9951 39.0781C54.9313 39.3743 54.8994 39.6888 54.8994 40.0215ZM59.6914 39.3242L58.8438 39.584C58.8483 39.1784 58.9144 38.7887 59.042 38.415C59.1742 38.0413 59.3633 37.7087 59.6094 37.417C59.86 37.1253 60.1676 36.8952 60.5322 36.7266C60.8968 36.5534 61.3138 36.4668 61.7832 36.4668C62.1797 36.4668 62.5306 36.5192 62.8359 36.624C63.1458 36.7288 63.4056 36.8906 63.6152 37.1094C63.8294 37.3236 63.9912 37.5993 64.1006 37.9365C64.21 38.2738 64.2646 38.6748 64.2646 39.1396V44H62.9932V39.126C62.9932 38.7113 62.9271 38.39 62.7949 38.1621C62.6673 37.9297 62.485 37.7679 62.248 37.6768C62.0156 37.5811 61.7376 37.5332 61.4141 37.5332C61.1361 37.5332 60.89 37.5811 60.6758 37.6768C60.4616 37.7725 60.2816 37.9046 60.1357 38.0732C59.9899 38.2373 59.8783 38.4264 59.8008 38.6406C59.7279 38.8548 59.6914 39.0827 59.6914 39.3242ZM70.54 42.7354V38.9277C70.54 38.6361 70.4808 38.3831 70.3623 38.1689C70.2484 37.9502 70.0752 37.7816 69.8428 37.6631C69.6104 37.5446 69.3232 37.4854 68.9814 37.4854C68.6624 37.4854 68.3822 37.54 68.1406 37.6494C67.9036 37.7588 67.7168 37.9023 67.5801 38.0801C67.4479 38.2578 67.3818 38.4492 67.3818 38.6543H66.1172C66.1172 38.39 66.1855 38.1279 66.3223 37.8682C66.459 37.6084 66.6549 37.3737 66.9102 37.1641C67.1699 36.9499 67.4798 36.7812 67.8398 36.6582C68.2044 36.5306 68.61 36.4668 69.0566 36.4668C69.5944 36.4668 70.0684 36.5579 70.4785 36.7402C70.8932 36.9225 71.2168 37.1982 71.4492 37.5674C71.6862 37.932 71.8047 38.39 71.8047 38.9414V42.3867C71.8047 42.6328 71.8252 42.8949 71.8662 43.1729C71.9118 43.4508 71.9779 43.6901 72.0645 43.8906V44H70.7451C70.6813 43.8542 70.6312 43.6605 70.5947 43.4189C70.5583 43.1729 70.54 42.945 70.54 42.7354ZM70.7588 39.5156L70.7725 40.4043H69.4941C69.1341 40.4043 68.8128 40.4339 68.5303 40.4932C68.2477 40.5479 68.0107 40.6322 67.8193 40.7461C67.6279 40.86 67.4821 41.0036 67.3818 41.1768C67.2816 41.3454 67.2314 41.5436 67.2314 41.7715C67.2314 42.0039 67.2839 42.2158 67.3887 42.4072C67.4935 42.5986 67.6507 42.7513 67.8604 42.8652C68.0745 42.9746 68.3366 43.0293 68.6465 43.0293C69.0339 43.0293 69.3757 42.9473 69.6719 42.7832C69.9681 42.6191 70.2028 42.4186 70.376 42.1816C70.5537 41.9447 70.6494 41.7145 70.6631 41.4912L71.2031 42.0996C71.1712 42.291 71.0846 42.5029 70.9434 42.7354C70.8021 42.9678 70.613 43.1911 70.376 43.4053C70.1436 43.6149 69.8656 43.7904 69.542 43.9316C69.223 44.0684 68.863 44.1367 68.4619 44.1367C67.9606 44.1367 67.5208 44.0387 67.1426 43.8428C66.7689 43.6468 66.4772 43.3848 66.2676 43.0566C66.0625 42.724 65.96 42.3525 65.96 41.9424C65.96 41.5459 66.0374 41.1973 66.1924 40.8965C66.3473 40.5911 66.5706 40.3382 66.8623 40.1377C67.154 39.9326 67.5049 39.7777 67.915 39.6729C68.3252 39.568 68.7832 39.5156 69.2891 39.5156H70.7588ZM75.168 36.6035V44H73.8965V36.6035H75.168ZM73.8008 34.6416C73.8008 34.4365 73.8623 34.2633 73.9854 34.1221C74.113 33.9808 74.2998 33.9102 74.5459 33.9102C74.7874 33.9102 74.972 33.9808 75.0996 34.1221C75.2318 34.2633 75.2979 34.4365 75.2979 34.6416C75.2979 34.8376 75.2318 35.0062 75.0996 35.1475C74.972 35.2842 74.7874 35.3525 74.5459 35.3525C74.2998 35.3525 74.113 35.2842 73.9854 35.1475C73.8623 35.0062 73.8008 34.8376 73.8008 34.6416ZM85.333 42.5645V33.5H86.6045V44H85.4424L85.333 42.5645ZM80.3564 40.3838V40.2402C80.3564 39.6751 80.4248 39.1624 80.5615 38.7021C80.7028 38.2373 80.901 37.8385 81.1562 37.5059C81.416 37.1732 81.7236 36.918 82.0791 36.7402C82.4391 36.5579 82.8402 36.4668 83.2822 36.4668C83.7471 36.4668 84.1527 36.5488 84.499 36.7129C84.8499 36.8724 85.1462 37.1071 85.3877 37.417C85.6338 37.7223 85.8275 38.0915 85.9688 38.5244C86.11 38.9574 86.208 39.4473 86.2627 39.9941V40.623C86.2126 41.1654 86.1146 41.653 85.9688 42.0859C85.8275 42.5189 85.6338 42.888 85.3877 43.1934C85.1462 43.4987 84.8499 43.7334 84.499 43.8975C84.1481 44.057 83.738 44.1367 83.2686 44.1367C82.8356 44.1367 82.4391 44.0433 82.0791 43.8564C81.7236 43.6696 81.416 43.4076 81.1562 43.0703C80.901 42.7331 80.7028 42.3366 80.5615 41.8809C80.4248 41.4206 80.3564 40.9215 80.3564 40.3838ZM81.6279 40.2402V40.3838C81.6279 40.7529 81.6644 41.0993 81.7373 41.4229C81.8148 41.7464 81.9333 42.0312 82.0928 42.2773C82.2523 42.5234 82.4551 42.7171 82.7012 42.8584C82.9473 42.9951 83.2412 43.0635 83.583 43.0635C84.0023 43.0635 84.3464 42.9746 84.6152 42.7969C84.8887 42.6191 85.1074 42.3844 85.2715 42.0928C85.4355 41.8011 85.5632 41.4844 85.6543 41.1426V39.4951C85.5996 39.2445 85.5199 39.0029 85.415 38.7705C85.3148 38.5335 85.1826 38.3239 85.0186 38.1416C84.859 37.9548 84.6608 37.8066 84.4238 37.6973C84.1914 37.5879 83.9157 37.5332 83.5967 37.5332C83.2503 37.5332 82.9518 37.6061 82.7012 37.752C82.4551 37.8932 82.2523 38.0892 82.0928 38.3398C81.9333 38.5859 81.8148 38.873 81.7373 39.2012C81.6644 39.5247 81.6279 39.8711 81.6279 40.2402ZM87.8896 34.5322V35.5713H83.5352V34.5322H87.8896ZM90.4121 36.6035V44H89.1406V36.6035H90.4121ZM89.0449 34.6416C89.0449 34.4365 89.1064 34.2633 89.2295 34.1221C89.3571 33.9808 89.5439 33.9102 89.79 33.9102C90.0316 33.9102 90.2161 33.9808 90.3438 34.1221C90.4759 34.2633 90.542 34.4365 90.542 34.6416C90.542 34.8376 90.4759 35.0062 90.3438 35.1475C90.2161 35.2842 90.0316 35.3525 89.79 35.3525C89.5439 35.3525 89.3571 35.2842 89.2295 35.1475C89.1064 35.0062 89.0449 34.8376 89.0449 34.6416ZM97.1865 33.5V44H95.915V33.5H97.1865ZM101.705 36.6035L98.4785 40.0557L96.6738 41.9287L96.5713 40.582L97.8633 39.0371L100.16 36.6035H101.705ZM100.55 44L97.9111 40.4727L98.5674 39.3447L102.04 44H100.55ZM107.372 42.7354V38.9277C107.372 38.6361 107.313 38.3831 107.194 38.1689C107.08 37.9502 106.907 37.7816 106.675 37.6631C106.442 37.5446 106.155 37.4854 105.813 37.4854C105.494 37.4854 105.214 37.54 104.973 37.6494C104.736 37.7588 104.549 37.9023 104.412 38.0801C104.28 38.2578 104.214 38.4492 104.214 38.6543H102.949C102.949 38.39 103.018 38.1279 103.154 37.8682C103.291 37.6084 103.487 37.3737 103.742 37.1641C104.002 36.9499 104.312 36.7812 104.672 36.6582C105.036 36.5306 105.442 36.4668 105.889 36.4668C106.426 36.4668 106.9 36.5579 107.311 36.7402C107.725 36.9225 108.049 37.1982 108.281 37.5674C108.518 37.932 108.637 38.39 108.637 38.9414V42.3867C108.637 42.6328 108.657 42.8949 108.698 43.1729C108.744 43.4508 108.81 43.6901 108.896 43.8906V44H107.577C107.513 43.8542 107.463 43.6605 107.427 43.4189C107.39 43.1729 107.372 42.945 107.372 42.7354ZM107.591 39.5156L107.604 40.4043H106.326C105.966 40.4043 105.645 40.4339 105.362 40.4932C105.08 40.5479 104.843 40.6322 104.651 40.7461C104.46 40.86 104.314 41.0036 104.214 41.1768C104.114 41.3454 104.063 41.5436 104.063 41.7715C104.063 42.0039 104.116 42.2158 104.221 42.4072C104.326 42.5986 104.483 42.7513 104.692 42.8652C104.907 42.9746 105.169 43.0293 105.479 43.0293C105.866 43.0293 106.208 42.9473 106.504 42.7832C106.8 42.6191 107.035 42.4186 107.208 42.1816C107.386 41.9447 107.481 41.7145 107.495 41.4912L108.035 42.0996C108.003 42.291 107.917 42.5029 107.775 42.7354C107.634 42.9678 107.445 43.1911 107.208 43.4053C106.976 43.6149 106.698 43.7904 106.374 43.9316C106.055 44.0684 105.695 44.1367 105.294 44.1367C104.793 44.1367 104.353 44.0387 103.975 43.8428C103.601 43.6468 103.309 43.3848 103.1 43.0566C102.895 42.724 102.792 42.3525 102.792 41.9424C102.792 41.5459 102.869 41.1973 103.024 40.8965C103.179 40.5911 103.403 40.3382 103.694 40.1377C103.986 39.9326 104.337 39.7777 104.747 39.6729C105.157 39.568 105.615 39.5156 106.121 39.5156H107.591ZM111.891 37.7656V44H110.626V36.6035H111.856L111.891 37.7656ZM114.201 36.5625L114.194 37.7383C114.09 37.7155 113.989 37.7018 113.894 37.6973C113.802 37.6882 113.698 37.6836 113.579 37.6836C113.287 37.6836 113.03 37.7292 112.807 37.8203C112.583 37.9115 112.394 38.0391 112.239 38.2031C112.084 38.3672 111.961 38.5632 111.87 38.791C111.784 39.0143 111.727 39.2604 111.699 39.5293L111.344 39.7344C111.344 39.2878 111.387 38.8685 111.474 38.4766C111.565 38.0846 111.704 37.7383 111.891 37.4375C112.077 37.1322 112.314 36.8952 112.602 36.7266C112.893 36.5534 113.24 36.4668 113.641 36.4668C113.732 36.4668 113.837 36.4782 113.955 36.501C114.074 36.5192 114.156 36.5397 114.201 36.5625ZM119.458 42.7354V38.9277C119.458 38.6361 119.399 38.3831 119.28 38.1689C119.166 37.9502 118.993 37.7816 118.761 37.6631C118.528 37.5446 118.241 37.4854 117.899 37.4854C117.58 37.4854 117.3 37.54 117.059 37.6494C116.822 37.7588 116.635 37.9023 116.498 38.0801C116.366 38.2578 116.3 38.4492 116.3 38.6543H115.035C115.035 38.39 115.104 38.1279 115.24 37.8682C115.377 37.6084 115.573 37.3737 115.828 37.1641C116.088 36.9499 116.398 36.7812 116.758 36.6582C117.122 36.5306 117.528 36.4668 117.975 36.4668C118.512 36.4668 118.986 36.5579 119.396 36.7402C119.811 36.9225 120.135 37.1982 120.367 37.5674C120.604 37.932 120.723 38.39 120.723 38.9414V42.3867C120.723 42.6328 120.743 42.8949 120.784 43.1729C120.83 43.4508 120.896 43.6901 120.982 43.8906V44H119.663C119.599 43.8542 119.549 43.6605 119.513 43.4189C119.476 43.1729 119.458 42.945 119.458 42.7354ZM119.677 39.5156L119.69 40.4043H118.412C118.052 40.4043 117.731 40.4339 117.448 40.4932C117.166 40.5479 116.929 40.6322 116.737 40.7461C116.546 40.86 116.4 41.0036 116.3 41.1768C116.2 41.3454 116.149 41.5436 116.149 41.7715C116.149 42.0039 116.202 42.2158 116.307 42.4072C116.411 42.5986 116.569 42.7513 116.778 42.8652C116.993 42.9746 117.255 43.0293 117.564 43.0293C117.952 43.0293 118.294 42.9473 118.59 42.7832C118.886 42.6191 119.121 42.4186 119.294 42.1816C119.472 41.9447 119.567 41.7145 119.581 41.4912L120.121 42.0996C120.089 42.291 120.003 42.5029 119.861 42.7354C119.72 42.9678 119.531 43.1911 119.294 43.4053C119.062 43.6149 118.784 43.7904 118.46 43.9316C118.141 44.0684 117.781 44.1367 117.38 44.1367C116.879 44.1367 116.439 44.0387 116.061 43.8428C115.687 43.6468 115.395 43.3848 115.186 43.0566C114.98 42.724 114.878 42.3525 114.878 41.9424C114.878 41.5459 114.955 41.1973 115.11 40.8965C115.265 40.5911 115.489 40.3382 115.78 40.1377C116.072 39.9326 116.423 39.7777 116.833 39.6729C117.243 39.568 117.701 39.5156 118.207 39.5156H119.677ZM127.449 38.1826V44H126.185V36.6035H127.381L127.449 38.1826ZM127.148 40.0215L126.622 40.001C126.627 39.4951 126.702 39.028 126.848 38.5996C126.993 38.1667 127.199 37.7907 127.463 37.4717C127.727 37.1527 128.042 36.9066 128.406 36.7334C128.775 36.5557 129.183 36.4668 129.63 36.4668C129.994 36.4668 130.323 36.5169 130.614 36.6172C130.906 36.7129 131.154 36.8678 131.359 37.082C131.569 37.2962 131.729 37.5742 131.838 37.916C131.947 38.2533 132.002 38.6657 132.002 39.1533V44H130.73V39.1396C130.73 38.7523 130.674 38.4424 130.56 38.21C130.446 37.973 130.279 37.8021 130.061 37.6973C129.842 37.5879 129.573 37.5332 129.254 37.5332C128.939 37.5332 128.652 37.5993 128.393 37.7314C128.137 37.8636 127.916 38.0459 127.729 38.2783C127.547 38.5107 127.404 38.7773 127.299 39.0781C127.199 39.3743 127.148 39.6888 127.148 40.0215ZM135.188 33.5V44H133.923V33.5H135.188ZM134.887 40.0215L134.36 40.001C134.365 39.4951 134.44 39.028 134.586 38.5996C134.732 38.1667 134.937 37.7907 135.201 37.4717C135.465 37.1527 135.78 36.9066 136.145 36.7334C136.514 36.5557 136.922 36.4668 137.368 36.4668C137.733 36.4668 138.061 36.5169 138.353 36.6172C138.644 36.7129 138.893 36.8678 139.098 37.082C139.307 37.2962 139.467 37.5742 139.576 37.916C139.686 38.2533 139.74 38.6657 139.74 39.1533V44H138.469V39.1396C138.469 38.7523 138.412 38.4424 138.298 38.21C138.184 37.973 138.018 37.8021 137.799 37.6973C137.58 37.5879 137.311 37.5332 136.992 37.5332C136.678 37.5332 136.391 37.5993 136.131 37.7314C135.876 37.8636 135.655 38.0459 135.468 38.2783C135.285 38.5107 135.142 38.7773 135.037 39.0781C134.937 39.3743 134.887 39.6888 134.887 40.0215ZM144.703 44.1367C144.188 44.1367 143.721 44.0501 143.302 43.877C142.887 43.6992 142.529 43.4508 142.229 43.1318C141.932 42.8128 141.704 42.4346 141.545 41.9971C141.385 41.5596 141.306 41.0811 141.306 40.5615V40.2744C141.306 39.6729 141.395 39.1374 141.572 38.668C141.75 38.194 141.992 37.793 142.297 37.4648C142.602 37.1367 142.949 36.8883 143.336 36.7197C143.723 36.5511 144.124 36.4668 144.539 36.4668C145.068 36.4668 145.523 36.5579 145.906 36.7402C146.294 36.9225 146.61 37.1777 146.856 37.5059C147.103 37.8294 147.285 38.2122 147.403 38.6543C147.522 39.0918 147.581 39.5703 147.581 40.0898V40.6572H142.058V39.625H146.316V39.5293C146.298 39.2012 146.23 38.8822 146.111 38.5723C145.997 38.2624 145.815 38.0072 145.564 37.8066C145.314 37.6061 144.972 37.5059 144.539 37.5059C144.252 37.5059 143.988 37.5674 143.746 37.6904C143.505 37.8089 143.297 37.9867 143.124 38.2236C142.951 38.4606 142.816 38.75 142.721 39.0918C142.625 39.4336 142.577 39.8278 142.577 40.2744V40.5615C142.577 40.9124 142.625 41.2428 142.721 41.5527C142.821 41.8581 142.965 42.127 143.151 42.3594C143.343 42.5918 143.573 42.7741 143.842 42.9062C144.115 43.0384 144.425 43.1045 144.771 43.1045C145.218 43.1045 145.596 43.0133 145.906 42.8311C146.216 42.6488 146.487 42.4049 146.72 42.0996L147.485 42.708C147.326 42.9495 147.123 43.1797 146.877 43.3984C146.631 43.6172 146.328 43.7949 145.968 43.9316C145.612 44.0684 145.191 44.1367 144.703 44.1367ZM143.835 35.5098L145.161 33.5H146.686L144.854 35.5098H143.835Z" fill="#747881"/>
<path d="M227.35 34.0469L229.934 39.0439L232.524 34.0469H234.021L230.59 40.2812V44H229.271V40.2812L225.839 34.0469H227.35ZM237.727 44.1367C237.212 44.1367 236.744 44.0501 236.325 43.877C235.91 43.6992 235.553 43.4508 235.252 43.1318C234.956 42.8128 234.728 42.4346 234.568 41.9971C234.409 41.5596 234.329 41.0811 234.329 40.5615V40.2744C234.329 39.6729 234.418 39.1374 234.596 38.668C234.773 38.194 235.015 37.793 235.32 37.4648C235.626 37.1367 235.972 36.8883 236.359 36.7197C236.747 36.5511 237.148 36.4668 237.562 36.4668C238.091 36.4668 238.547 36.5579 238.93 36.7402C239.317 36.9225 239.634 37.1777 239.88 37.5059C240.126 37.8294 240.308 38.2122 240.427 38.6543C240.545 39.0918 240.604 39.5703 240.604 40.0898V40.6572H235.081V39.625H239.34V39.5293C239.322 39.2012 239.253 38.8822 239.135 38.5723C239.021 38.2624 238.839 38.0072 238.588 37.8066C238.337 37.6061 237.995 37.5059 237.562 37.5059C237.275 37.5059 237.011 37.5674 236.77 37.6904C236.528 37.8089 236.321 37.9867 236.147 38.2236C235.974 38.4606 235.84 38.75 235.744 39.0918C235.648 39.4336 235.601 39.8278 235.601 40.2744V40.5615C235.601 40.9124 235.648 41.2428 235.744 41.5527C235.844 41.8581 235.988 42.127 236.175 42.3594C236.366 42.5918 236.596 42.7741 236.865 42.9062C237.139 43.0384 237.449 43.1045 237.795 43.1045C238.242 43.1045 238.62 43.0133 238.93 42.8311C239.24 42.6488 239.511 42.4049 239.743 42.0996L240.509 42.708C240.349 42.9495 240.146 43.1797 239.9 43.3984C239.654 43.6172 239.351 43.7949 238.991 43.9316C238.636 44.0684 238.214 44.1367 237.727 44.1367ZM246.388 42.0381C246.388 41.8558 246.347 41.6872 246.265 41.5322C246.187 41.3727 246.025 41.2292 245.779 41.1016C245.538 40.9694 245.173 40.8555 244.686 40.7598C244.275 40.6732 243.904 40.5706 243.571 40.4521C243.243 40.3337 242.963 40.1901 242.73 40.0215C242.503 39.8529 242.327 39.6546 242.204 39.4268C242.081 39.1989 242.02 38.9323 242.02 38.627C242.02 38.3353 242.083 38.0596 242.211 37.7998C242.343 37.54 242.528 37.3099 242.765 37.1094C243.006 36.9089 243.296 36.7516 243.633 36.6377C243.97 36.5238 244.346 36.4668 244.761 36.4668C245.353 36.4668 245.859 36.5716 246.278 36.7812C246.698 36.9909 247.019 37.2712 247.242 37.6221C247.465 37.9684 247.577 38.3535 247.577 38.7773H246.312C246.312 38.5723 246.251 38.374 246.128 38.1826C246.009 37.9867 245.834 37.8249 245.602 37.6973C245.374 37.5697 245.093 37.5059 244.761 37.5059C244.41 37.5059 244.125 37.5605 243.906 37.6699C243.692 37.7747 243.535 37.9092 243.435 38.0732C243.339 38.2373 243.291 38.4105 243.291 38.5928C243.291 38.7295 243.314 38.8525 243.359 38.9619C243.41 39.0667 243.496 39.1647 243.619 39.2559C243.742 39.3424 243.915 39.4245 244.139 39.502C244.362 39.5794 244.647 39.6569 244.993 39.7344C245.599 39.8711 246.098 40.0352 246.49 40.2266C246.882 40.418 247.174 40.6527 247.365 40.9307C247.557 41.2087 247.652 41.5459 247.652 41.9424C247.652 42.266 247.584 42.5622 247.447 42.8311C247.315 43.0999 247.121 43.3324 246.866 43.5283C246.616 43.7197 246.315 43.8701 245.964 43.9795C245.618 44.0843 245.228 44.1367 244.795 44.1367C244.143 44.1367 243.592 44.0205 243.141 43.7881C242.689 43.5557 242.348 43.2549 242.115 42.8857C241.883 42.5166 241.767 42.127 241.767 41.7168H243.038C243.056 42.0632 243.157 42.3389 243.339 42.5439C243.521 42.7445 243.744 42.888 244.009 42.9746C244.273 43.0566 244.535 43.0977 244.795 43.0977C245.141 43.0977 245.431 43.0521 245.663 42.9609C245.9 42.8698 246.08 42.7445 246.203 42.585C246.326 42.4255 246.388 42.2432 246.388 42.0381ZM252.41 36.6035V37.5742H248.411V36.6035H252.41ZM249.765 34.8057H251.029V42.168C251.029 42.4186 251.068 42.6077 251.146 42.7354C251.223 42.863 251.323 42.9473 251.446 42.9883C251.569 43.0293 251.701 43.0498 251.843 43.0498C251.948 43.0498 252.057 43.0407 252.171 43.0225C252.289 42.9997 252.378 42.9814 252.438 42.9678L252.444 44C252.344 44.0319 252.212 44.0615 252.048 44.0889C251.888 44.1208 251.695 44.1367 251.467 44.1367C251.157 44.1367 250.872 44.0752 250.612 43.9521C250.353 43.8291 250.145 43.624 249.99 43.3369C249.84 43.0452 249.765 42.6533 249.765 42.1611V34.8057ZM256.963 44.1367C256.448 44.1367 255.981 44.0501 255.562 43.877C255.147 43.6992 254.789 43.4508 254.488 43.1318C254.192 42.8128 253.964 42.4346 253.805 41.9971C253.645 41.5596 253.565 41.0811 253.565 40.5615V40.2744C253.565 39.6729 253.654 39.1374 253.832 38.668C254.01 38.194 254.251 37.793 254.557 37.4648C254.862 37.1367 255.208 36.8883 255.596 36.7197C255.983 36.5511 256.384 36.4668 256.799 36.4668C257.327 36.4668 257.783 36.5579 258.166 36.7402C258.553 36.9225 258.87 37.1777 259.116 37.5059C259.362 37.8294 259.545 38.2122 259.663 38.6543C259.782 39.0918 259.841 39.5703 259.841 40.0898V40.6572H254.317V39.625H258.576V39.5293C258.558 39.2012 258.49 38.8822 258.371 38.5723C258.257 38.2624 258.075 38.0072 257.824 37.8066C257.574 37.6061 257.232 37.5059 256.799 37.5059C256.512 37.5059 256.247 37.5674 256.006 37.6904C255.764 37.8089 255.557 37.9867 255.384 38.2236C255.211 38.4606 255.076 38.75 254.98 39.0918C254.885 39.4336 254.837 39.8278 254.837 40.2744V40.5615C254.837 40.9124 254.885 41.2428 254.98 41.5527C255.081 41.8581 255.224 42.127 255.411 42.3594C255.603 42.5918 255.833 42.7741 256.102 42.9062C256.375 43.0384 256.685 43.1045 257.031 43.1045C257.478 43.1045 257.856 43.0133 258.166 42.8311C258.476 42.6488 258.747 42.4049 258.979 42.0996L259.745 42.708C259.586 42.9495 259.383 43.1797 259.137 43.3984C258.891 43.6172 258.588 43.7949 258.228 43.9316C257.872 44.0684 257.451 44.1367 256.963 44.1367ZM262.582 37.7656V44H261.317V36.6035H262.548L262.582 37.7656ZM264.893 36.5625L264.886 37.7383C264.781 37.7155 264.681 37.7018 264.585 37.6973C264.494 37.6882 264.389 37.6836 264.271 37.6836C263.979 37.6836 263.721 37.7292 263.498 37.8203C263.275 37.9115 263.086 38.0391 262.931 38.2031C262.776 38.3672 262.653 38.5632 262.562 38.791C262.475 39.0143 262.418 39.2604 262.391 39.5293L262.035 39.7344C262.035 39.2878 262.078 38.8685 262.165 38.4766C262.256 38.0846 262.395 37.7383 262.582 37.4375C262.769 37.1322 263.006 36.8952 263.293 36.7266C263.585 36.5534 263.931 36.4668 264.332 36.4668C264.423 36.4668 264.528 36.4782 264.646 36.501C264.765 36.5192 264.847 36.5397 264.893 36.5625ZM270.587 42.5645V33.5H271.858V44H270.696L270.587 42.5645ZM265.61 40.3838V40.2402C265.61 39.6751 265.679 39.1624 265.815 38.7021C265.957 38.2373 266.155 37.8385 266.41 37.5059C266.67 37.1732 266.978 36.918 267.333 36.7402C267.693 36.5579 268.094 36.4668 268.536 36.4668C269.001 36.4668 269.407 36.5488 269.753 36.7129C270.104 36.8724 270.4 37.1071 270.642 37.417C270.888 37.7223 271.081 38.0915 271.223 38.5244C271.364 38.9574 271.462 39.4473 271.517 39.9941V40.623C271.466 41.1654 271.368 41.653 271.223 42.0859C271.081 42.5189 270.888 42.888 270.642 43.1934C270.4 43.4987 270.104 43.7334 269.753 43.8975C269.402 44.057 268.992 44.1367 268.522 44.1367C268.09 44.1367 267.693 44.0433 267.333 43.8564C266.978 43.6696 266.67 43.4076 266.41 43.0703C266.155 42.7331 265.957 42.3366 265.815 41.8809C265.679 41.4206 265.61 40.9215 265.61 40.3838ZM266.882 40.2402V40.3838C266.882 40.7529 266.918 41.0993 266.991 41.4229C267.069 41.7464 267.187 42.0312 267.347 42.2773C267.506 42.5234 267.709 42.7171 267.955 42.8584C268.201 42.9951 268.495 43.0635 268.837 43.0635C269.256 43.0635 269.6 42.9746 269.869 42.7969C270.143 42.6191 270.361 42.3844 270.525 42.0928C270.689 41.8011 270.817 41.4844 270.908 41.1426V39.4951C270.854 39.2445 270.774 39.0029 270.669 38.7705C270.569 38.5335 270.437 38.3239 270.272 38.1416C270.113 37.9548 269.915 37.8066 269.678 37.6973C269.445 37.5879 269.17 37.5332 268.851 37.5332C268.504 37.5332 268.206 37.6061 267.955 37.752C267.709 37.8932 267.506 38.0892 267.347 38.3398C267.187 38.5859 267.069 38.873 266.991 39.2012C266.918 39.5247 266.882 39.8711 266.882 40.2402ZM278.188 42.7354V38.9277C278.188 38.6361 278.129 38.3831 278.011 38.1689C277.897 37.9502 277.724 37.7816 277.491 37.6631C277.259 37.5446 276.972 37.4854 276.63 37.4854C276.311 37.4854 276.031 37.54 275.789 37.6494C275.552 37.7588 275.365 37.9023 275.229 38.0801C275.096 38.2578 275.03 38.4492 275.03 38.6543H273.766C273.766 38.39 273.834 38.1279 273.971 37.8682C274.107 37.6084 274.303 37.3737 274.559 37.1641C274.818 36.9499 275.128 36.7812 275.488 36.6582C275.853 36.5306 276.258 36.4668 276.705 36.4668C277.243 36.4668 277.717 36.5579 278.127 36.7402C278.542 36.9225 278.865 37.1982 279.098 37.5674C279.335 37.932 279.453 38.39 279.453 38.9414V42.3867C279.453 42.6328 279.474 42.8949 279.515 43.1729C279.56 43.4508 279.626 43.6901 279.713 43.8906V44H278.394C278.33 43.8542 278.28 43.6605 278.243 43.4189C278.207 43.1729 278.188 42.945 278.188 42.7354ZM278.407 39.5156L278.421 40.4043H277.143C276.783 40.4043 276.461 40.4339 276.179 40.4932C275.896 40.5479 275.659 40.6322 275.468 40.7461C275.276 40.86 275.131 41.0036 275.03 41.1768C274.93 41.3454 274.88 41.5436 274.88 41.7715C274.88 42.0039 274.932 42.2158 275.037 42.4072C275.142 42.5986 275.299 42.7513 275.509 42.8652C275.723 42.9746 275.985 43.0293 276.295 43.0293C276.682 43.0293 277.024 42.9473 277.32 42.7832C277.617 42.6191 277.851 42.4186 278.024 42.1816C278.202 41.9447 278.298 41.7145 278.312 41.4912L278.852 42.0996C278.82 42.291 278.733 42.5029 278.592 42.7354C278.451 42.9678 278.261 43.1911 278.024 43.4053C277.792 43.6149 277.514 43.7904 277.19 43.9316C276.871 44.0684 276.511 44.1367 276.11 44.1367C275.609 44.1367 275.169 44.0387 274.791 43.8428C274.417 43.6468 274.126 43.3848 273.916 43.0566C273.711 42.724 273.608 42.3525 273.608 41.9424C273.608 41.5459 273.686 41.1973 273.841 40.8965C273.996 40.5911 274.219 40.3382 274.511 40.1377C274.802 39.9326 275.153 39.7777 275.563 39.6729C275.974 39.568 276.432 39.5156 276.938 39.5156H278.407ZM283.411 43.2344L285.469 36.6035H286.822L283.855 45.1416C283.787 45.3239 283.696 45.5199 283.582 45.7295C283.473 45.9437 283.331 46.1465 283.158 46.3379C282.985 46.5293 282.775 46.6842 282.529 46.8027C282.288 46.9258 281.998 46.9873 281.661 46.9873C281.561 46.9873 281.433 46.9736 281.278 46.9463C281.123 46.9189 281.014 46.8962 280.95 46.8779L280.943 45.8525C280.98 45.8571 281.037 45.8617 281.114 45.8662C281.196 45.8753 281.253 45.8799 281.285 45.8799C281.572 45.8799 281.816 45.8411 282.017 45.7637C282.217 45.6908 282.386 45.5654 282.522 45.3877C282.664 45.2145 282.785 44.9753 282.885 44.6699L283.411 43.2344ZM281.9 36.6035L283.821 42.3457L284.149 43.6787L283.24 44.1436L280.52 36.6035H281.9Z" fill="#747881"/>
<g clip-path="url(#clip0_8526_1446)">
<path d="M267.34 2.93506L265.93 4.34506L270.29 8.70506L270 9.00506H266V15.0051H270L275 20.0051V13.4151L279.18 17.5951C278.53 18.0851 277.8 18.4751 277 18.7051V20.7651C278.34 20.4651 279.57 19.8451 280.61 19.0151L282.66 21.0651L284.07 19.6551L267.34 2.93506ZM273 15.1751L270.83 13.0051H268V11.0051H270.83L271.71 10.1251L273 11.4151V15.1751ZM282 12.0051C282 12.8251 281.85 13.6151 281.59 14.3451L283.12 15.8751C283.68 14.7051 284 13.3951 284 12.0051C284 7.72506 281.01 4.14506 277 3.23506V5.29506C279.89 6.15506 282 8.83506 282 12.0051ZM275 4.00506L273.12 5.88506L275 7.76506V4.00506ZM279.5 12.0051C279.5 10.2351 278.48 8.71506 277 7.97506V9.76506L279.48 12.2451C279.49 12.1651 279.5 12.0851 279.5 12.0051Z" fill="#747881"/>
</g>
<defs>
<clipPath id="clip0_8526_1446">
<rect width="24" height="24" fill="white" transform="translate(263)"/>
</clipPath>
</defs>
</svg>
