<svg width="287" height="44" viewBox="0 0 287 44" fill="none" xmlns="http://www.w3.org/2000/svg">
<path d="M5.42188 12.8594H2.52344L2.50781 11.4297H5.03906C5.46615 11.4297 5.82812 11.3672 6.125 11.2422C6.42708 11.112 6.65625 10.9271 6.8125 10.6875C6.96875 10.4427 7.04688 10.1484 7.04688 9.80469C7.04688 9.42448 6.97396 9.11458 6.82812 8.875C6.68229 8.63542 6.45833 8.46094 6.15625 8.35156C5.85938 8.24219 5.47917 8.1875 5.01562 8.1875H3.11719V18H1.15625V6.625H5.01562C5.64062 6.625 6.19792 6.6849 6.6875 6.80469C7.18229 6.92448 7.60156 7.11198 7.94531 7.36719C8.29427 7.61719 8.55729 7.9349 8.73438 8.32031C8.91667 8.70573 9.00781 9.16406 9.00781 9.69531C9.00781 10.1641 8.89583 10.5938 8.67188 10.9844C8.44792 11.3698 8.11719 11.6849 7.67969 11.9297C7.24219 12.1745 6.69792 12.3203 6.04688 12.3672L5.42188 12.8594ZM5.33594 18H1.90625L2.78906 16.4453H5.33594C5.77865 16.4453 6.14844 16.3724 6.44531 16.2266C6.74219 16.0755 6.96354 15.8698 7.10938 15.6094C7.26042 15.3438 7.33594 15.0339 7.33594 14.6797C7.33594 14.3099 7.27083 13.9896 7.14062 13.7188C7.01042 13.4427 6.80469 13.2318 6.52344 13.0859C6.24219 12.9349 5.875 12.8594 5.42188 12.8594H3.21875L3.23438 11.4297H6.10156L6.54688 11.9688C7.17188 11.9896 7.6849 12.1276 8.08594 12.3828C8.49219 12.638 8.79427 12.9688 8.99219 13.375C9.1901 13.7812 9.28906 14.2188 9.28906 14.6875C9.28906 15.4115 9.13021 16.0182 8.8125 16.5078C8.5 16.9974 8.04948 17.3698 7.46094 17.625C6.8724 17.875 6.16406 18 5.33594 18ZM15.8438 16.3047V12.2734C15.8438 11.9714 15.7891 11.7109 15.6797 11.4922C15.5703 11.2734 15.4036 11.1042 15.1797 10.9844C14.9609 10.8646 14.6849 10.8047 14.3516 10.8047C14.0443 10.8047 13.7786 10.8568 13.5547 10.9609C13.3307 11.0651 13.1562 11.2057 13.0312 11.3828C12.9062 11.5599 12.8438 11.7604 12.8438 11.9844H10.9688C10.9688 11.651 11.0495 11.3281 11.2109 11.0156C11.3724 10.7031 11.6068 10.4245 11.9141 10.1797C12.2214 9.9349 12.5885 9.74219 13.0156 9.60156C13.4427 9.46094 13.9219 9.39062 14.4531 9.39062C15.0885 9.39062 15.651 9.4974 16.1406 9.71094C16.6354 9.92448 17.0234 10.2474 17.3047 10.6797C17.5911 11.1068 17.7344 11.6432 17.7344 12.2891V16.0469C17.7344 16.4323 17.7604 16.7786 17.8125 17.0859C17.8698 17.388 17.9505 17.651 18.0547 17.875V18H16.125C16.0365 17.7969 15.9661 17.5391 15.9141 17.2266C15.8672 16.9089 15.8438 16.6016 15.8438 16.3047ZM16.1172 12.8594L16.1328 14.0234H14.7812C14.4323 14.0234 14.125 14.0573 13.8594 14.125C13.5938 14.1875 13.3724 14.2812 13.1953 14.4062C13.0182 14.5312 12.8854 14.6823 12.7969 14.8594C12.7083 15.0365 12.6641 15.237 12.6641 15.4609C12.6641 15.6849 12.7161 15.8906 12.8203 16.0781C12.9245 16.2604 13.0755 16.4036 13.2734 16.5078C13.4766 16.612 13.7214 16.6641 14.0078 16.6641C14.3932 16.6641 14.7292 16.5859 15.0156 16.4297C15.3073 16.2682 15.5365 16.0729 15.7031 15.8438C15.8698 15.6094 15.9583 15.388 15.9688 15.1797L16.5781 16.0156C16.5156 16.2292 16.4089 16.4583 16.2578 16.7031C16.1068 16.9479 15.9089 17.1823 15.6641 17.4062C15.4245 17.625 15.1354 17.8047 14.7969 17.9453C14.4635 18.0859 14.0781 18.1562 13.6406 18.1562C13.0885 18.1562 12.5964 18.0469 12.1641 17.8281C11.7318 17.6042 11.3932 17.3047 11.1484 16.9297C10.9036 16.5495 10.7812 16.1198 10.7812 15.6406C10.7812 15.1927 10.8646 14.7969 11.0312 14.4531C11.2031 14.1042 11.4531 13.8125 11.7812 13.5781C12.1146 13.3438 12.5208 13.1667 13 13.0469C13.4792 12.9219 14.026 12.8594 14.6406 12.8594H16.1172ZM23.5781 9.54688V10.9219H18.8125V9.54688H23.5781ZM20.1875 7.47656H22.0703V15.6641C22.0703 15.9245 22.1068 16.125 22.1797 16.2656C22.2578 16.401 22.3646 16.4922 22.5 16.5391C22.6354 16.5859 22.7943 16.6094 22.9766 16.6094C23.1068 16.6094 23.2318 16.6016 23.3516 16.5859C23.4714 16.5703 23.5677 16.5547 23.6406 16.5391L23.6484 17.9766C23.4922 18.0234 23.3099 18.0651 23.1016 18.1016C22.8984 18.138 22.6641 18.1562 22.3984 18.1562C21.9661 18.1562 21.5833 18.0807 21.25 17.9297C20.9167 17.7734 20.6562 17.5208 20.4688 17.1719C20.2812 16.8229 20.1875 16.3594 20.1875 15.7812V7.47656ZM26.9141 11.2656V18H25.0312V9.54688H26.8047L26.9141 11.2656ZM26.6094 13.4609L25.9688 13.4531C25.9688 12.8698 26.0417 12.3307 26.1875 11.8359C26.3333 11.3411 26.5469 10.9115 26.8281 10.5469C27.1094 10.1771 27.4583 9.89323 27.875 9.69531C28.2969 9.49219 28.7839 9.39062 29.3359 9.39062C29.7214 9.39062 30.0729 9.44792 30.3906 9.5625C30.7135 9.67188 30.9922 9.84635 31.2266 10.0859C31.4661 10.3255 31.6484 10.6328 31.7734 11.0078C31.9036 11.3828 31.9688 11.8359 31.9688 12.3672V18H30.0859V12.5312C30.0859 12.1198 30.0234 11.7969 29.8984 11.5625C29.7786 11.3281 29.6042 11.1615 29.375 11.0625C29.151 10.9583 28.8828 10.9062 28.5703 10.9062C28.2161 10.9062 27.9141 10.974 27.6641 11.1094C27.4193 11.2448 27.2188 11.4297 27.0625 11.6641C26.9062 11.8984 26.7917 12.1693 26.7188 12.4766C26.6458 12.7839 26.6094 13.112 26.6094 13.4609ZM31.8516 12.9609L30.9688 13.1562C30.9688 12.6458 31.0391 12.1641 31.1797 11.7109C31.3255 11.2526 31.5365 10.8516 31.8125 10.5078C32.0938 10.1589 32.4401 9.88542 32.8516 9.6875C33.263 9.48958 33.7344 9.39062 34.2656 9.39062C34.6979 9.39062 35.0833 9.45052 35.4219 9.57031C35.7656 9.6849 36.0573 9.86719 36.2969 10.1172C36.5365 10.3672 36.7188 10.6927 36.8438 11.0938C36.9688 11.4896 37.0312 11.9688 37.0312 12.5312V18H35.1406V12.5234C35.1406 12.0964 35.0781 11.7656 34.9531 11.5312C34.8333 11.2969 34.6615 11.1354 34.4375 11.0469C34.2135 10.9531 33.9453 10.9062 33.6328 10.9062C33.3411 10.9062 33.0833 10.9609 32.8594 11.0703C32.6406 11.1745 32.4557 11.3229 32.3047 11.5156C32.1536 11.7031 32.0391 11.9193 31.9609 12.1641C31.888 12.4089 31.8516 12.6745 31.8516 12.9609ZM43.7344 16.3047V12.2734C43.7344 11.9714 43.6797 11.7109 43.5703 11.4922C43.4609 11.2734 43.2943 11.1042 43.0703 10.9844C42.8516 10.8646 42.5755 10.8047 42.2422 10.8047C41.9349 10.8047 41.6693 10.8568 41.4453 10.9609C41.2214 11.0651 41.0469 11.2057 40.9219 11.3828C40.7969 11.5599 40.7344 11.7604 40.7344 11.9844H38.8594C38.8594 11.651 38.9401 11.3281 39.1016 11.0156C39.263 10.7031 39.4974 10.4245 39.8047 10.1797C40.112 9.9349 40.4792 9.74219 40.9062 9.60156C41.3333 9.46094 41.8125 9.39062 42.3438 9.39062C42.9792 9.39062 43.5417 9.4974 44.0312 9.71094C44.526 9.92448 44.9141 10.2474 45.1953 10.6797C45.4818 11.1068 45.625 11.6432 45.625 12.2891V16.0469C45.625 16.4323 45.651 16.7786 45.7031 17.0859C45.7604 17.388 45.8411 17.651 45.9453 17.875V18H44.0156C43.9271 17.7969 43.8568 17.5391 43.8047 17.2266C43.7578 16.9089 43.7344 16.6016 43.7344 16.3047ZM44.0078 12.8594L44.0234 14.0234H42.6719C42.3229 14.0234 42.0156 14.0573 41.75 14.125C41.4844 14.1875 41.263 14.2812 41.0859 14.4062C40.9089 14.5312 40.776 14.6823 40.6875 14.8594C40.599 15.0365 40.5547 15.237 40.5547 15.4609C40.5547 15.6849 40.6068 15.8906 40.7109 16.0781C40.8151 16.2604 40.9661 16.4036 41.1641 16.5078C41.3672 16.612 41.612 16.6641 41.8984 16.6641C42.2839 16.6641 42.6198 16.5859 42.9062 16.4297C43.1979 16.2682 43.4271 16.0729 43.5938 15.8438C43.7604 15.6094 43.849 15.388 43.8594 15.1797L44.4688 16.0156C44.4062 16.2292 44.2995 16.4583 44.1484 16.7031C43.9974 16.9479 43.7995 17.1823 43.5547 17.4062C43.3151 17.625 43.026 17.8047 42.6875 17.9453C42.3542 18.0859 41.9688 18.1562 41.5312 18.1562C40.9792 18.1562 40.487 18.0469 40.0547 17.8281C39.6224 17.6042 39.2839 17.3047 39.0391 16.9297C38.7943 16.5495 38.6719 16.1198 38.6719 15.6406C38.6719 15.1927 38.7552 14.7969 38.9219 14.4531C39.0938 14.1042 39.3438 13.8125 39.6719 13.5781C40.0052 13.3438 40.4115 13.1667 40.8906 13.0469C41.3698 12.9219 41.9167 12.8594 42.5312 12.8594H44.0078ZM49.4609 11.3516V18H47.5781V9.54688H49.3516L49.4609 11.3516ZM49.125 13.4609L48.5156 13.4531C48.5208 12.8542 48.6042 12.3047 48.7656 11.8047C48.9323 11.3047 49.1615 10.875 49.4531 10.5156C49.75 10.1562 50.1042 9.88021 50.5156 9.6875C50.9271 9.48958 51.3854 9.39062 51.8906 9.39062C52.2969 9.39062 52.6641 9.44792 52.9922 9.5625C53.3255 9.67188 53.6094 9.85156 53.8438 10.1016C54.0833 10.3516 54.2656 10.6771 54.3906 11.0781C54.5156 11.474 54.5781 11.9609 54.5781 12.5391V18H52.6875V12.5312C52.6875 12.125 52.6276 11.8047 52.5078 11.5703C52.3932 11.3307 52.224 11.1615 52 11.0625C51.7812 10.9583 51.5078 10.9062 51.1797 10.9062C50.8568 10.9062 50.5677 10.974 50.3125 11.1094C50.0573 11.2448 49.8411 11.4297 49.6641 11.6641C49.4922 11.8984 49.3594 12.1693 49.2656 12.4766C49.1719 12.7839 49.125 13.112 49.125 13.4609Z" fill="#080707"/>
<g clip-path="url(#clip0_8526_1488)">
<path d="M0.533203 34.3838V34.2266C0.533203 33.6934 0.610677 33.1989 0.765625 32.7432C0.920573 32.2829 1.14388 31.8841 1.43555 31.5469C1.73177 31.2051 2.0918 30.9408 2.51562 30.7539C2.94401 30.5625 3.42708 30.4668 3.96484 30.4668C4.50716 30.4668 4.99023 30.5625 5.41406 30.7539C5.84245 30.9408 6.20475 31.2051 6.50098 31.5469C6.7972 31.8841 7.02279 32.2829 7.17773 32.7432C7.33268 33.1989 7.41016 33.6934 7.41016 34.2266V34.3838C7.41016 34.917 7.33268 35.4115 7.17773 35.8672C7.02279 36.3229 6.7972 36.7217 6.50098 37.0635C6.20475 37.4007 5.84473 37.665 5.4209 37.8564C4.99707 38.0433 4.51628 38.1367 3.97852 38.1367C3.4362 38.1367 2.95085 38.0433 2.52246 37.8564C2.09863 37.665 1.73861 37.4007 1.44238 37.0635C1.14616 36.7217 0.920573 36.3229 0.765625 35.8672C0.610677 35.4115 0.533203 34.917 0.533203 34.3838ZM2.18066 34.2266V34.3838C2.18066 34.7165 2.21484 35.0309 2.2832 35.3271C2.35156 35.6234 2.45866 35.8831 2.60449 36.1064C2.75033 36.3298 2.93717 36.5052 3.16504 36.6328C3.3929 36.7604 3.66406 36.8242 3.97852 36.8242C4.28385 36.8242 4.54818 36.7604 4.77148 36.6328C4.99935 36.5052 5.1862 36.3298 5.33203 36.1064C5.47786 35.8831 5.58496 35.6234 5.65332 35.3271C5.72624 35.0309 5.7627 34.7165 5.7627 34.3838V34.2266C5.7627 33.8984 5.72624 33.5885 5.65332 33.2969C5.58496 33.0007 5.47559 32.7386 5.3252 32.5107C5.17936 32.2829 4.99251 32.1051 4.76465 31.9775C4.54134 31.8454 4.27474 31.7793 3.96484 31.7793C3.65495 31.7793 3.38607 31.8454 3.1582 31.9775C2.9349 32.1051 2.75033 32.2829 2.60449 32.5107C2.45866 32.7386 2.35156 33.0007 2.2832 33.2969C2.21484 33.5885 2.18066 33.8984 2.18066 34.2266ZM10.4521 27.5V38H8.79785V27.5H10.4521ZM15.0459 30.6035L11.8262 34.1719L10.0625 35.9766L9.63184 34.582L10.9648 32.9346L13.0566 30.6035H15.0459ZM13.4121 38L11.0127 34.5273L12.0518 33.3721L15.3193 38H13.4121ZM19.585 27.5H21.2324V36.4209L21.0752 38H19.585V27.5ZM26.0586 34.2334V34.377C26.0586 34.9238 25.9971 35.4274 25.874 35.8877C25.7555 36.3434 25.5732 36.7399 25.3271 37.0771C25.0856 37.4144 24.7848 37.6764 24.4248 37.8633C24.0693 38.0456 23.6569 38.1367 23.1875 38.1367C22.7272 38.1367 22.3262 38.0501 21.9844 37.877C21.6426 37.7038 21.3555 37.4577 21.123 37.1387C20.8952 36.8197 20.7106 36.4391 20.5693 35.9971C20.4281 35.555 20.3278 35.0674 20.2686 34.5342V34.0762C20.3278 33.5384 20.4281 33.0508 20.5693 32.6133C20.7106 32.1712 20.8952 31.7907 21.123 31.4717C21.3555 31.1481 21.6403 30.8997 21.9775 30.7266C22.3193 30.5534 22.7181 30.4668 23.1738 30.4668C23.6478 30.4668 24.0648 30.5579 24.4248 30.7402C24.7894 30.9225 25.0924 31.1823 25.334 31.5195C25.5755 31.8522 25.7555 32.2487 25.874 32.709C25.9971 33.1693 26.0586 33.6774 26.0586 34.2334ZM24.4111 34.377V34.2334C24.4111 33.9007 24.3838 33.5885 24.3291 33.2969C24.2744 33.0007 24.1833 32.7409 24.0557 32.5176C23.9326 32.2943 23.764 32.1188 23.5498 31.9912C23.3402 31.859 23.0781 31.793 22.7637 31.793C22.472 31.793 22.2214 31.8431 22.0117 31.9434C21.8021 32.0436 21.6266 32.1803 21.4854 32.3535C21.3441 32.5267 21.2324 32.7272 21.1504 32.9551C21.0729 33.1829 21.0205 33.429 20.9932 33.6934V34.9307C21.0342 35.2725 21.1208 35.5869 21.2529 35.874C21.3896 36.1566 21.5811 36.3844 21.8271 36.5576C22.0732 36.7262 22.39 36.8105 22.7773 36.8105C23.0827 36.8105 23.3402 36.749 23.5498 36.626C23.7594 36.5029 23.9258 36.332 24.0488 36.1133C24.1764 35.89 24.2676 35.6302 24.3223 35.334C24.3815 35.0378 24.4111 34.7188 24.4111 34.377ZM31.623 36.5166V32.9893C31.623 32.7249 31.5752 32.4971 31.4795 32.3057C31.3838 32.1143 31.238 31.9661 31.042 31.8613C30.8506 31.7565 30.609 31.7041 30.3174 31.7041C30.0485 31.7041 29.8161 31.7497 29.6201 31.8408C29.4242 31.932 29.2715 32.055 29.1621 32.21C29.0527 32.3649 28.998 32.5404 28.998 32.7363H27.3574C27.3574 32.4447 27.4281 32.1621 27.5693 31.8887C27.7106 31.6152 27.9157 31.3714 28.1846 31.1572C28.4535 30.943 28.7747 30.7744 29.1484 30.6514C29.5221 30.5283 29.9414 30.4668 30.4062 30.4668C30.9622 30.4668 31.4544 30.5602 31.8828 30.7471C32.3158 30.9339 32.6553 31.2165 32.9014 31.5947C33.152 31.9684 33.2773 32.4378 33.2773 33.0029V36.291C33.2773 36.6283 33.3001 36.9313 33.3457 37.2002C33.3958 37.4645 33.4665 37.6947 33.5576 37.8906V38H31.8691C31.7917 37.8223 31.7301 37.5967 31.6846 37.3232C31.6436 37.0452 31.623 36.7764 31.623 36.5166ZM31.8623 33.502L31.876 34.5205H30.6934C30.388 34.5205 30.1191 34.5501 29.8867 34.6094C29.6543 34.6641 29.4606 34.7461 29.3057 34.8555C29.1507 34.9648 29.0345 35.097 28.957 35.252C28.8796 35.4069 28.8408 35.5824 28.8408 35.7783C28.8408 35.9743 28.8864 36.1543 28.9775 36.3184C29.0687 36.4779 29.2008 36.6032 29.374 36.6943C29.5518 36.7855 29.766 36.8311 30.0166 36.8311C30.3538 36.8311 30.6478 36.7627 30.8984 36.626C31.1536 36.4847 31.3542 36.3138 31.5 36.1133C31.6458 35.9082 31.7233 35.7145 31.7324 35.5322L32.2656 36.2637C32.2109 36.4505 32.1175 36.651 31.9854 36.8652C31.8532 37.0794 31.68 37.2845 31.4658 37.4805C31.2562 37.6719 31.0033 37.8291 30.707 37.9521C30.4154 38.0752 30.0781 38.1367 29.6953 38.1367C29.2122 38.1367 28.7816 38.041 28.4033 37.8496C28.0251 37.6536 27.7288 37.3916 27.5146 37.0635C27.3005 36.7308 27.1934 36.3548 27.1934 35.9355C27.1934 35.5436 27.2663 35.1973 27.4121 34.8965C27.5625 34.5911 27.7812 34.3359 28.0684 34.1309C28.36 33.9258 28.7155 33.7708 29.1348 33.666C29.554 33.5566 30.0326 33.502 30.5703 33.502H31.8623ZM28.9775 39.5859C28.9775 39.349 29.0596 39.1507 29.2236 38.9912C29.3923 38.8317 29.6224 38.752 29.9141 38.752C30.2057 38.752 30.4359 38.8317 30.6045 38.9912C30.7731 39.1507 30.8574 39.349 30.8574 39.5859C30.8574 39.8184 30.7731 40.0143 30.6045 40.1738C30.4359 40.3333 30.2057 40.4131 29.9141 40.4131C29.6224 40.4131 29.3923 40.3333 29.2236 40.1738C29.0596 40.0143 28.9775 39.8184 28.9775 39.5859ZM36.6338 32.1826V38H34.9863V30.6035H36.5381L36.6338 32.1826ZM36.3398 34.0283L35.8066 34.0215C35.8112 33.4974 35.8841 33.0166 36.0254 32.5791C36.1712 32.1416 36.3717 31.7656 36.627 31.4512C36.8867 31.1367 37.1966 30.8952 37.5566 30.7266C37.9167 30.5534 38.3177 30.4668 38.7598 30.4668C39.1152 30.4668 39.4365 30.5169 39.7236 30.6172C40.0153 30.7129 40.2637 30.8701 40.4688 31.0889C40.6784 31.3076 40.8379 31.5924 40.9473 31.9434C41.0566 32.2897 41.1113 32.7158 41.1113 33.2217V38H39.457V33.2148C39.457 32.8594 39.4046 32.5791 39.2998 32.374C39.1995 32.1644 39.0514 32.0163 38.8555 31.9297C38.6641 31.8385 38.4248 31.793 38.1377 31.793C37.8551 31.793 37.6022 31.8522 37.3789 31.9707C37.1556 32.0892 36.9665 32.251 36.8115 32.4561C36.6611 32.6611 36.5449 32.8981 36.4629 33.167C36.3809 33.4359 36.3398 33.723 36.3398 34.0283ZM52.582 29.8516H53.6826C53.6826 30.3757 53.6051 30.8268 53.4502 31.2051C53.2998 31.5833 53.0537 31.8727 52.7119 32.0732C52.3747 32.2738 51.9258 32.374 51.3652 32.374V31.5605C51.707 31.5605 51.9645 31.4899 52.1377 31.3486C52.3109 31.2074 52.4271 31.0091 52.4863 30.7539C52.5501 30.4987 52.582 30.1979 52.582 29.8516ZM45.958 34.3838V34.2266C45.958 33.6934 46.0355 33.1989 46.1904 32.7432C46.3454 32.2829 46.5687 31.8841 46.8604 31.5469C47.1566 31.2051 47.5166 30.9408 47.9404 30.7539C48.3688 30.5625 48.8519 30.4668 49.3896 30.4668C49.932 30.4668 50.4173 30.5625 50.8457 30.7539C51.2741 30.9408 51.6341 31.2051 51.9258 31.5469C52.222 31.8841 52.4476 32.2829 52.6025 32.7432C52.7575 33.1989 52.835 33.6934 52.835 34.2266V34.3838C52.835 34.917 52.7575 35.4115 52.6025 35.8672C52.4476 36.3229 52.222 36.7217 51.9258 37.0635C51.6341 37.4007 51.2764 37.665 50.8525 37.8564C50.4287 38.0433 49.9456 38.1367 49.4033 38.1367C48.861 38.1367 48.3757 38.0433 47.9473 37.8564C47.5234 37.665 47.1634 37.4007 46.8672 37.0635C46.571 36.7217 46.3454 36.3229 46.1904 35.8672C46.0355 35.4115 45.958 34.917 45.958 34.3838ZM47.6055 34.2266V34.3838C47.6055 34.7165 47.6396 35.0309 47.708 35.3271C47.7764 35.6234 47.8835 35.8831 48.0293 36.1064C48.1797 36.3298 48.3665 36.5052 48.5898 36.6328C48.8177 36.7604 49.0889 36.8242 49.4033 36.8242C49.7132 36.8242 49.9798 36.7604 50.2031 36.6328C50.4264 36.5052 50.6087 36.3298 50.75 36.1064C50.8958 35.8831 51.0052 35.6234 51.0781 35.3271C51.151 35.0309 51.1875 34.7165 51.1875 34.3838V34.2266C51.1875 33.8984 51.151 33.5885 51.0781 33.2969C51.0098 33.0007 50.9027 32.7386 50.7568 32.5107C50.611 32.2829 50.4242 32.1051 50.1963 31.9775C49.973 31.8454 49.7041 31.7793 49.3896 31.7793C49.0798 31.7793 48.8132 31.8454 48.5898 31.9775C48.3665 32.1051 48.1797 32.2829 48.0293 32.5107C47.8835 32.7386 47.7764 33.0007 47.708 33.2969C47.6396 33.5885 47.6055 33.8984 47.6055 34.2266ZM56.123 30.6035V38H54.4688V30.6035H56.123ZM54.3594 28.6621C54.3594 28.4115 54.4414 28.2041 54.6055 28.04C54.7741 27.8714 55.0065 27.7871 55.3027 27.7871C55.5944 27.7871 55.8245 27.8714 55.9932 28.04C56.1618 28.2041 56.2461 28.4115 56.2461 28.6621C56.2461 28.9082 56.1618 29.1133 55.9932 29.2773C55.8245 29.4414 55.5944 29.5234 55.3027 29.5234C55.0065 29.5234 54.7741 29.4414 54.6055 29.2773C54.4414 29.1133 54.3594 28.9082 54.3594 28.6621Z" fill="#747881"/>
<path d="M65.4727 38.98H79.4727V24.98H65.4727V38.98Z" fill="#747881"/>
</g>
<path d="M233.167 27.9922V38H231.902V29.5713L229.353 30.501V29.3594L232.969 27.9922H233.167ZM243.407 36.9609V38H236.893V37.0908L240.153 33.4609C240.554 33.0143 240.864 32.6361 241.083 32.3262C241.306 32.0117 241.461 31.7314 241.548 31.4854C241.639 31.2347 241.685 30.9795 241.685 30.7197C241.685 30.3916 241.616 30.0954 241.479 29.8311C241.347 29.5622 241.151 29.348 240.892 29.1885C240.632 29.029 240.317 28.9492 239.948 28.9492C239.506 28.9492 239.137 29.0358 238.841 29.209C238.549 29.3776 238.33 29.6146 238.185 29.9199C238.039 30.2253 237.966 30.5762 237.966 30.9727H236.701C236.701 30.4121 236.824 29.8994 237.07 29.4346C237.316 28.9697 237.681 28.6006 238.164 28.3271C238.647 28.0492 239.242 27.9102 239.948 27.9102C240.577 27.9102 241.115 28.0218 241.562 28.2451C242.008 28.4639 242.35 28.7738 242.587 29.1748C242.828 29.5713 242.949 30.0361 242.949 30.5693C242.949 30.861 242.899 31.1572 242.799 31.458C242.703 31.7542 242.569 32.0505 242.396 32.3467C242.227 32.6429 242.029 32.9346 241.801 33.2217C241.577 33.5088 241.338 33.7913 241.083 34.0693L238.417 36.9609H243.407ZM249.3 28.0469L245.15 38.8545H244.063L248.22 28.0469H249.3ZM254.7 27.9922V38H253.436V29.5713L250.886 30.501V29.3594L254.502 27.9922H254.7ZM263.272 28.0332H263.382V29.1064H263.272C262.603 29.1064 262.042 29.2158 261.591 29.4346C261.14 29.6488 260.782 29.9382 260.518 30.3027C260.253 30.6628 260.062 31.0684 259.943 31.5195C259.829 31.9707 259.772 32.4287 259.772 32.8936V34.3564C259.772 34.7985 259.825 35.1904 259.93 35.5322C260.035 35.8695 260.178 36.1543 260.36 36.3867C260.543 36.6191 260.748 36.7946 260.976 36.9131C261.208 37.0316 261.45 37.0908 261.7 37.0908C261.992 37.0908 262.252 37.0361 262.479 36.9268C262.707 36.8128 262.899 36.6556 263.054 36.4551C263.213 36.25 263.334 36.0085 263.416 35.7305C263.498 35.4525 263.539 35.1471 263.539 34.8145C263.539 34.5182 263.503 34.2334 263.43 33.96C263.357 33.682 263.245 33.4359 263.095 33.2217C262.944 33.0029 262.755 32.832 262.527 32.709C262.304 32.5814 262.037 32.5176 261.728 32.5176C261.377 32.5176 261.049 32.6042 260.743 32.7773C260.442 32.946 260.194 33.1693 259.998 33.4473C259.807 33.7207 259.697 34.0192 259.67 34.3428L259 34.3359C259.064 33.8255 259.182 33.3903 259.355 33.0303C259.533 32.6657 259.752 32.3695 260.012 32.1416C260.276 31.9092 260.57 31.7406 260.894 31.6357C261.222 31.5264 261.568 31.4717 261.933 31.4717C262.429 31.4717 262.858 31.5651 263.218 31.752C263.578 31.9388 263.874 32.1895 264.106 32.5039C264.339 32.8138 264.51 33.1647 264.619 33.5566C264.733 33.944 264.79 34.3428 264.79 34.7529C264.79 35.2223 264.724 35.6621 264.592 36.0723C264.46 36.4824 264.261 36.8424 263.997 37.1523C263.737 37.4622 263.416 37.7038 263.033 37.877C262.65 38.0501 262.206 38.1367 261.7 38.1367C261.162 38.1367 260.693 38.0273 260.292 37.8086C259.891 37.5853 259.558 37.2891 259.294 36.9199C259.03 36.5508 258.831 36.1406 258.699 35.6895C258.567 35.2383 258.501 34.7803 258.501 34.3154V33.7207C258.501 33.0189 258.572 32.3307 258.713 31.6562C258.854 30.9818 259.098 30.3711 259.444 29.8242C259.795 29.2773 260.281 28.8421 260.9 28.5186C261.52 28.195 262.311 28.0332 263.272 28.0332ZM270.833 28.0469L266.684 38.8545H265.597L269.753 28.0469H270.833ZM278.599 36.9609V38H272.084V37.0908L275.345 33.4609C275.746 33.0143 276.056 32.6361 276.274 32.3262C276.498 32.0117 276.653 31.7314 276.739 31.4854C276.83 31.2347 276.876 30.9795 276.876 30.7197C276.876 30.3916 276.808 30.0954 276.671 29.8311C276.539 29.5622 276.343 29.348 276.083 29.1885C275.823 29.029 275.509 28.9492 275.14 28.9492C274.698 28.9492 274.328 29.0358 274.032 29.209C273.741 29.3776 273.522 29.6146 273.376 29.9199C273.23 30.2253 273.157 30.5762 273.157 30.9727H271.893C271.893 30.4121 272.016 29.8994 272.262 29.4346C272.508 28.9697 272.872 28.6006 273.355 28.3271C273.839 28.0492 274.433 27.9102 275.14 27.9102C275.769 27.9102 276.306 28.0218 276.753 28.2451C277.2 28.4639 277.541 28.7738 277.778 29.1748C278.02 29.5713 278.141 30.0361 278.141 30.5693C278.141 30.861 278.09 31.1572 277.99 31.458C277.895 31.7542 277.76 32.0505 277.587 32.3467C277.418 32.6429 277.22 32.9346 276.992 33.2217C276.769 33.5088 276.53 33.7913 276.274 34.0693L273.608 36.9609H278.599ZM284.108 27.9922V38H282.844V29.5713L280.294 30.501V29.3594L283.91 27.9922H284.108Z" fill="#747881"/>
<defs>
<clipPath id="clip0_8526_1488">
<rect width="227" height="16" fill="white" transform="translate(0 25)"/>
</clipPath>
</defs>
</svg>
