<svg width="181" height="54" viewBox="0 0 181 54" fill="none" xmlns="http://www.w3.org/2000/svg">
<path d="M0 18C0 8.05888 8.05887 0 18 0H163C172.941 0 181 8.05888 181 18V34C181 35.1046 180.105 36 179 36H18C8.05887 36 0 27.9411 0 18Z" fill="#E0F0FF"/>
<path d="M23.1562 21.6953L26.0469 23.9844L25.0312 24.9219L22.1875 22.6641L23.1562 21.6953ZM26.0078 16.9531V17.6719C26.0078 18.526 25.901 19.2917 25.6875 19.9688C25.474 20.6458 25.1667 21.2214 24.7656 21.6953C24.3646 22.1693 23.8828 22.5312 23.3203 22.7812C22.763 23.0312 22.138 23.1562 21.4453 23.1562C20.7734 23.1562 20.1562 23.0312 19.5938 22.7812C19.0365 22.5312 18.5521 22.1693 18.1406 21.6953C17.7344 21.2214 17.4193 20.6458 17.1953 19.9688C16.9714 19.2917 16.8594 18.526 16.8594 17.6719V16.9531C16.8594 16.099 16.9688 15.3359 17.1875 14.6641C17.4115 13.987 17.7266 13.4115 18.1328 12.9375C18.5391 12.4583 19.0208 12.0938 19.5781 11.8438C20.1406 11.5938 20.7578 11.4688 21.4297 11.4688C22.1224 11.4688 22.75 11.5938 23.3125 11.8438C23.875 12.0938 24.3568 12.4583 24.7578 12.9375C25.1589 13.4115 25.4661 13.987 25.6797 14.6641C25.8984 15.3359 26.0078 16.099 26.0078 16.9531ZM24.5156 17.6719V16.9375C24.5156 16.2604 24.4453 15.6615 24.3047 15.1406C24.1693 14.6198 23.9688 14.1823 23.7031 13.8281C23.4375 13.474 23.1146 13.2057 22.7344 13.0234C22.3542 12.8411 21.9193 12.75 21.4297 12.75C20.9661 12.75 20.5443 12.8411 20.1641 13.0234C19.7891 13.2057 19.4661 13.474 19.1953 13.8281C18.9245 14.1823 18.7161 14.6198 18.5703 15.1406C18.4245 15.6615 18.3516 16.2604 18.3516 16.9375V17.6719C18.3516 18.3542 18.4245 18.9583 18.5703 19.4844C18.7161 20.0052 18.9245 20.4453 19.1953 20.8047C19.4714 21.1589 19.7995 21.4271 20.1797 21.6094C20.5599 21.7917 20.9818 21.8828 21.4453 21.8828C21.9349 21.8828 22.3698 21.7917 22.75 21.6094C23.1302 21.4271 23.4505 21.1589 23.7109 20.8047C23.9766 20.4453 24.1771 20.0052 24.3125 19.4844C24.4479 18.9583 24.5156 18.3542 24.5156 17.6719ZM33.2891 21.0469V14.5469H34.7422V23H33.3594L33.2891 21.0469ZM33.5625 19.2656L34.1641 19.25C34.1641 19.8125 34.1042 20.3333 33.9844 20.8125C33.8698 21.2865 33.6823 21.6979 33.4219 22.0469C33.1615 22.3958 32.8203 22.6693 32.3984 22.8672C31.9766 23.0599 31.4635 23.1562 30.8594 23.1562C30.4479 23.1562 30.0703 23.0964 29.7266 22.9766C29.388 22.8568 29.0964 22.6719 28.8516 22.4219C28.6068 22.1719 28.4167 21.8464 28.2812 21.4453C28.151 21.0443 28.0859 20.5625 28.0859 20V14.5469H29.5312V20.0156C29.5312 20.3958 29.5729 20.7109 29.6562 20.9609C29.7448 21.2057 29.862 21.401 30.0078 21.5469C30.1589 21.6875 30.3255 21.7865 30.5078 21.8438C30.6953 21.901 30.888 21.9297 31.0859 21.9297C31.7005 21.9297 32.1875 21.8125 32.5469 21.5781C32.9062 21.3385 33.1641 21.0182 33.3203 20.6172C33.4818 20.2109 33.5625 19.7604 33.5625 19.2656ZM41.9297 21.5547V17.2031C41.9297 16.8698 41.862 16.5807 41.7266 16.3359C41.5964 16.0859 41.3984 15.8932 41.1328 15.7578C40.8672 15.6224 40.5391 15.5547 40.1484 15.5547C39.7839 15.5547 39.4635 15.6172 39.1875 15.7422C38.9167 15.8672 38.7031 16.0312 38.5469 16.2344C38.3958 16.4375 38.3203 16.6562 38.3203 16.8906H36.875C36.875 16.5885 36.9531 16.2891 37.1094 15.9922C37.2656 15.6953 37.4896 15.4271 37.7812 15.1875C38.0781 14.9427 38.4323 14.75 38.8438 14.6094C39.2604 14.4635 39.724 14.3906 40.2344 14.3906C40.849 14.3906 41.3906 14.4948 41.8594 14.7031C42.3333 14.9115 42.7031 15.2266 42.9688 15.6484C43.2396 16.0651 43.375 16.5885 43.375 17.2188V21.1562C43.375 21.4375 43.3984 21.737 43.4453 22.0547C43.4974 22.3724 43.5729 22.6458 43.6719 22.875V23H42.1641C42.0911 22.8333 42.0339 22.612 41.9922 22.3359C41.9505 22.0547 41.9297 21.7943 41.9297 21.5547ZM42.1797 17.875L42.1953 18.8906H40.7344C40.3229 18.8906 39.9557 18.9245 39.6328 18.9922C39.3099 19.0547 39.0391 19.151 38.8203 19.2812C38.6016 19.4115 38.4349 19.5755 38.3203 19.7734C38.2057 19.9661 38.1484 20.1927 38.1484 20.4531C38.1484 20.7188 38.2083 20.9609 38.3281 21.1797C38.4479 21.3984 38.6276 21.5729 38.8672 21.7031C39.112 21.8281 39.4115 21.8906 39.7656 21.8906C40.2083 21.8906 40.599 21.7969 40.9375 21.6094C41.276 21.4219 41.5443 21.1927 41.7422 20.9219C41.9453 20.651 42.0547 20.388 42.0703 20.1328L42.6875 20.8281C42.651 21.0469 42.5521 21.2891 42.3906 21.5547C42.2292 21.8203 42.013 22.0755 41.7422 22.3203C41.4766 22.5599 41.1589 22.7604 40.7891 22.9219C40.4245 23.0781 40.013 23.1562 39.5547 23.1562C38.9818 23.1562 38.4792 23.0443 38.0469 22.8203C37.6198 22.5964 37.2865 22.2969 37.0469 21.9219C36.8125 21.5417 36.6953 21.1172 36.6953 20.6484C36.6953 20.1953 36.7839 19.7969 36.9609 19.4531C37.138 19.1042 37.3932 18.8151 37.7266 18.5859C38.0599 18.3516 38.4609 18.1745 38.9297 18.0547C39.3984 17.9349 39.9219 17.875 40.5 17.875H42.1797ZM39.5938 13.2969L41.1094 11H42.8516L40.7578 13.2969H39.5938ZM47.0938 16.3516V23H45.6484V14.5469H47.0156L47.0938 16.3516ZM46.75 18.4531L46.1484 18.4297C46.1536 17.8516 46.2396 17.3177 46.4062 16.8281C46.5729 16.3333 46.8073 15.9036 47.1094 15.5391C47.4115 15.1745 47.7708 14.8932 48.1875 14.6953C48.6094 14.4922 49.0755 14.3906 49.5859 14.3906C50.0026 14.3906 50.3776 14.4479 50.7109 14.5625C51.0443 14.6719 51.3281 14.849 51.5625 15.0938C51.8021 15.3385 51.9844 15.6562 52.1094 16.0469C52.2344 16.4323 52.2969 16.9036 52.2969 17.4609V23H50.8438V17.4453C50.8438 17.0026 50.7786 16.6484 50.6484 16.3828C50.5182 16.112 50.3281 15.9167 50.0781 15.7969C49.8281 15.6719 49.5208 15.6094 49.1562 15.6094C48.7969 15.6094 48.4688 15.6849 48.1719 15.8359C47.8802 15.987 47.6276 16.1953 47.4141 16.4609C47.2057 16.7266 47.0417 17.0312 46.9219 17.375C46.8073 17.7135 46.75 18.0729 46.75 18.4531ZM61.7578 23H59.3828L59.3984 21.7734H61.7578C62.5703 21.7734 63.2474 21.6042 63.7891 21.2656C64.3307 20.9219 64.737 20.4427 65.0078 19.8281C65.2839 19.2083 65.4219 18.4844 65.4219 17.6562V16.9609C65.4219 16.3099 65.3438 15.7318 65.1875 15.2266C65.0312 14.7161 64.8021 14.2865 64.5 13.9375C64.1979 13.5833 63.8281 13.3151 63.3906 13.1328C62.9583 12.9505 62.4609 12.8594 61.8984 12.8594H59.3359V11.625H61.8984C62.6432 11.625 63.3229 11.75 63.9375 12C64.5521 12.2448 65.0807 12.6016 65.5234 13.0703C65.9714 13.5339 66.3151 14.0964 66.5547 14.7578C66.7943 15.4141 66.9141 16.1536 66.9141 16.9766V17.6562C66.9141 18.4792 66.7943 19.2214 66.5547 19.8828C66.3151 20.5391 65.9688 21.099 65.5156 21.5625C65.0677 22.026 64.526 22.3828 63.8906 22.6328C63.2604 22.8776 62.5495 23 61.7578 23ZM60.1875 11.625V23H58.6797V11.625H60.1875ZM72.4688 23.1562C71.8802 23.1562 71.3464 23.0573 70.8672 22.8594C70.3932 22.6562 69.9844 22.3724 69.6406 22.0078C69.3021 21.6432 69.0417 21.2109 68.8594 20.7109C68.6771 20.2109 68.5859 19.6641 68.5859 19.0703V18.7422C68.5859 18.0547 68.6875 17.4427 68.8906 16.9062C69.0938 16.3646 69.3698 15.9062 69.7188 15.5312C70.0677 15.1562 70.4635 14.8724 70.9062 14.6797C71.349 14.487 71.8073 14.3906 72.2812 14.3906C72.8854 14.3906 73.4062 14.4948 73.8438 14.7031C74.2865 14.9115 74.6484 15.2031 74.9297 15.5781C75.2109 15.9479 75.4193 16.3854 75.5547 16.8906C75.6901 17.3906 75.7578 17.9375 75.7578 18.5312V19.1797H69.4453V18H74.3125V17.8906C74.2917 17.5156 74.2135 17.151 74.0781 16.7969C73.9479 16.4427 73.7396 16.151 73.4531 15.9219C73.1667 15.6927 72.776 15.5781 72.2812 15.5781C71.9531 15.5781 71.651 15.6484 71.375 15.7891C71.099 15.9245 70.862 16.1276 70.6641 16.3984C70.4661 16.6693 70.3125 17 70.2031 17.3906C70.0938 17.7812 70.0391 18.2318 70.0391 18.7422V19.0703C70.0391 19.4714 70.0938 19.849 70.2031 20.2031C70.3177 20.5521 70.4818 20.8594 70.6953 21.125C70.9141 21.3906 71.1771 21.599 71.4844 21.75C71.7969 21.901 72.151 21.9766 72.5469 21.9766C73.0573 21.9766 73.4896 21.8724 73.8438 21.6641C74.1979 21.4557 74.5078 21.1771 74.7734 20.8281L75.6484 21.5234C75.4661 21.7995 75.2344 22.0625 74.9531 22.3125C74.6719 22.5625 74.3255 22.7656 73.9141 22.9219C73.5078 23.0781 73.026 23.1562 72.4688 23.1562ZM85.8281 18.5391H82.7891V17.3125H85.8281C86.4167 17.3125 86.8932 17.2188 87.2578 17.0312C87.6224 16.8438 87.888 16.5833 88.0547 16.25C88.2266 15.9167 88.3125 15.5365 88.3125 15.1094C88.3125 14.7188 88.2266 14.3516 88.0547 14.0078C87.888 13.6641 87.6224 13.388 87.2578 13.1797C86.8932 12.9661 86.4167 12.8594 85.8281 12.8594H83.1406V23H81.6328V11.625H85.8281C86.6875 11.625 87.4141 11.7734 88.0078 12.0703C88.6016 12.3672 89.0521 12.7786 89.3594 13.3047C89.6667 13.8255 89.8203 14.4219 89.8203 15.0938C89.8203 15.8229 89.6667 16.4453 89.3594 16.9609C89.0521 17.4766 88.6016 17.8698 88.0078 18.1406C87.4141 18.4062 86.6875 18.5391 85.8281 18.5391ZM96.3984 21.5547V17.2031C96.3984 16.8698 96.3307 16.5807 96.1953 16.3359C96.0651 16.0859 95.8672 15.8932 95.6016 15.7578C95.3359 15.6224 95.0078 15.5547 94.6172 15.5547C94.2526 15.5547 93.9323 15.6172 93.6562 15.7422C93.3854 15.8672 93.1719 16.0312 93.0156 16.2344C92.8646 16.4375 92.7891 16.6562 92.7891 16.8906H91.3438C91.3438 16.5885 91.4219 16.2891 91.5781 15.9922C91.7344 15.6953 91.9583 15.4271 92.25 15.1875C92.5469 14.9427 92.901 14.75 93.3125 14.6094C93.7292 14.4635 94.1927 14.3906 94.7031 14.3906C95.3177 14.3906 95.8594 14.4948 96.3281 14.7031C96.8021 14.9115 97.1719 15.2266 97.4375 15.6484C97.7083 16.0651 97.8438 16.5885 97.8438 17.2188V21.1562C97.8438 21.4375 97.8672 21.737 97.9141 22.0547C97.9661 22.3724 98.0417 22.6458 98.1406 22.875V23H96.6328C96.5599 22.8333 96.5026 22.612 96.4609 22.3359C96.4193 22.0547 96.3984 21.7943 96.3984 21.5547ZM96.6484 17.875L96.6641 18.8906H95.2031C94.7917 18.8906 94.4245 18.9245 94.1016 18.9922C93.7786 19.0547 93.5078 19.151 93.2891 19.2812C93.0703 19.4115 92.9036 19.5755 92.7891 19.7734C92.6745 19.9661 92.6172 20.1927 92.6172 20.4531C92.6172 20.7188 92.6771 20.9609 92.7969 21.1797C92.9167 21.3984 93.0964 21.5729 93.3359 21.7031C93.5807 21.8281 93.8802 21.8906 94.2344 21.8906C94.6771 21.8906 95.0677 21.7969 95.4062 21.6094C95.7448 21.4219 96.013 21.1927 96.2109 20.9219C96.4141 20.651 96.5234 20.388 96.5391 20.1328L97.1562 20.8281C97.1198 21.0469 97.0208 21.2891 96.8594 21.5547C96.6979 21.8203 96.4818 22.0755 96.2109 22.3203C95.9453 22.5599 95.6276 22.7604 95.2578 22.9219C94.8932 23.0781 94.4818 23.1562 94.0234 23.1562C93.4505 23.1562 92.9479 23.0443 92.5156 22.8203C92.0885 22.5964 91.7552 22.2969 91.5156 21.9219C91.2812 21.5417 91.1641 21.1172 91.1641 20.6484C91.1641 20.1953 91.2526 19.7969 91.4297 19.4531C91.6068 19.1042 91.862 18.8151 92.1953 18.5859C92.5286 18.3516 92.9297 18.1745 93.3984 18.0547C93.8672 17.9349 94.3906 17.875 94.9688 17.875H96.6484ZM101.562 15.875V23H100.117V14.5469H101.523L101.562 15.875ZM104.203 14.5L104.195 15.8438C104.076 15.8177 103.961 15.8021 103.852 15.7969C103.747 15.7865 103.628 15.7812 103.492 15.7812C103.159 15.7812 102.865 15.8333 102.609 15.9375C102.354 16.0417 102.138 16.1875 101.961 16.375C101.784 16.5625 101.643 16.7865 101.539 17.0469C101.44 17.3021 101.375 17.5833 101.344 17.8906L100.938 18.125C100.938 17.6146 100.987 17.1354 101.086 16.6875C101.19 16.2396 101.349 15.8438 101.562 15.5C101.776 15.151 102.047 14.8802 102.375 14.6875C102.708 14.4896 103.104 14.3906 103.562 14.3906C103.667 14.3906 103.786 14.4036 103.922 14.4297C104.057 14.4505 104.151 14.474 104.203 14.5ZM107.109 14.5469V23H105.656V14.5469H107.109ZM105.547 12.3047C105.547 12.0703 105.617 11.8724 105.758 11.7109C105.904 11.5495 106.117 11.4688 106.398 11.4688C106.674 11.4688 106.885 11.5495 107.031 11.7109C107.182 11.8724 107.258 12.0703 107.258 12.3047C107.258 12.5286 107.182 12.7214 107.031 12.8828C106.885 13.0391 106.674 13.1172 106.398 13.1172C106.117 13.1172 105.904 13.0391 105.758 12.8828C105.617 12.7214 105.547 12.5286 105.547 12.3047ZM114.352 20.7578C114.352 20.5495 114.305 20.3568 114.211 20.1797C114.122 19.9974 113.938 19.8333 113.656 19.6875C113.38 19.5365 112.964 19.4062 112.406 19.2969C111.938 19.1979 111.513 19.0807 111.133 18.9453C110.758 18.8099 110.438 18.6458 110.172 18.4531C109.911 18.2604 109.711 18.0339 109.57 17.7734C109.43 17.513 109.359 17.2083 109.359 16.8594C109.359 16.526 109.432 16.2109 109.578 15.9141C109.729 15.6172 109.94 15.3542 110.211 15.125C110.487 14.8958 110.818 14.7161 111.203 14.5859C111.589 14.4557 112.018 14.3906 112.492 14.3906C113.169 14.3906 113.747 14.5104 114.227 14.75C114.706 14.9896 115.073 15.3099 115.328 15.7109C115.583 16.1068 115.711 16.5469 115.711 17.0312H114.266C114.266 16.7969 114.195 16.5703 114.055 16.3516C113.919 16.1276 113.719 15.9427 113.453 15.7969C113.193 15.651 112.872 15.5781 112.492 15.5781C112.091 15.5781 111.766 15.6406 111.516 15.7656C111.271 15.8854 111.091 16.0391 110.977 16.2266C110.867 16.4141 110.812 16.612 110.812 16.8203C110.812 16.9766 110.839 17.1172 110.891 17.2422C110.948 17.362 111.047 17.474 111.188 17.5781C111.328 17.6771 111.526 17.7708 111.781 17.8594C112.036 17.9479 112.362 18.0365 112.758 18.125C113.451 18.2812 114.021 18.4688 114.469 18.6875C114.917 18.9062 115.25 19.1745 115.469 19.4922C115.688 19.8099 115.797 20.1953 115.797 20.6484C115.797 21.0182 115.719 21.3568 115.562 21.6641C115.411 21.9714 115.19 22.237 114.898 22.4609C114.612 22.6797 114.268 22.8516 113.867 22.9766C113.471 23.0964 113.026 23.1562 112.531 23.1562C111.786 23.1562 111.156 23.0234 110.641 22.7578C110.125 22.4922 109.734 22.1484 109.469 21.7266C109.203 21.3047 109.07 20.8594 109.07 20.3906H110.523C110.544 20.7865 110.659 21.1016 110.867 21.3359C111.076 21.5651 111.331 21.7292 111.633 21.8281C111.935 21.9219 112.234 21.9688 112.531 21.9688C112.927 21.9688 113.258 21.9167 113.523 21.8125C113.794 21.7083 114 21.5651 114.141 21.3828C114.281 21.2005 114.352 20.9922 114.352 20.7578ZM121.656 11H123.109V21.3594L122.984 23H121.656V11ZM128.82 18.7031V18.8672C128.82 19.4818 128.747 20.0521 128.602 20.5781C128.456 21.099 128.242 21.5521 127.961 21.9375C127.68 22.3229 127.336 22.6224 126.93 22.8359C126.523 23.0495 126.057 23.1562 125.531 23.1562C124.995 23.1562 124.523 23.0651 124.117 22.8828C123.716 22.6953 123.378 22.4271 123.102 22.0781C122.826 21.7292 122.604 21.3073 122.438 20.8125C122.276 20.3177 122.164 19.7604 122.102 19.1406V18.4219C122.164 17.7969 122.276 17.237 122.438 16.7422C122.604 16.2474 122.826 15.8255 123.102 15.4766C123.378 15.1224 123.716 14.8542 124.117 14.6719C124.518 14.4844 124.984 14.3906 125.516 14.3906C126.047 14.3906 126.518 14.4948 126.93 14.7031C127.341 14.9062 127.685 15.1979 127.961 15.5781C128.242 15.9583 128.456 16.4141 128.602 16.9453C128.747 17.4714 128.82 18.0573 128.82 18.7031ZM127.367 18.8672V18.7031C127.367 18.2812 127.328 17.8854 127.25 17.5156C127.172 17.1406 127.047 16.8125 126.875 16.5312C126.703 16.2448 126.477 16.0208 126.195 15.8594C125.914 15.6927 125.568 15.6094 125.156 15.6094C124.792 15.6094 124.474 15.6719 124.203 15.7969C123.938 15.9219 123.711 16.0911 123.523 16.3047C123.336 16.513 123.182 16.7526 123.062 17.0234C122.948 17.2891 122.862 17.5651 122.805 17.8516V19.7344C122.888 20.099 123.023 20.4505 123.211 20.7891C123.404 21.1224 123.659 21.3958 123.977 21.6094C124.299 21.8229 124.698 21.9297 125.172 21.9297C125.562 21.9297 125.896 21.8516 126.172 21.6953C126.453 21.5339 126.68 21.3125 126.852 21.0312C127.029 20.75 127.159 20.4245 127.242 20.0547C127.326 19.6849 127.367 19.2891 127.367 18.8672ZM135.633 21.5547V17.2031C135.633 16.8698 135.565 16.5807 135.43 16.3359C135.299 16.0859 135.102 15.8932 134.836 15.7578C134.57 15.6224 134.242 15.5547 133.852 15.5547C133.487 15.5547 133.167 15.6172 132.891 15.7422C132.62 15.8672 132.406 16.0312 132.25 16.2344C132.099 16.4375 132.023 16.6562 132.023 16.8906H130.578C130.578 16.5885 130.656 16.2891 130.812 15.9922C130.969 15.6953 131.193 15.4271 131.484 15.1875C131.781 14.9427 132.135 14.75 132.547 14.6094C132.964 14.4635 133.427 14.3906 133.938 14.3906C134.552 14.3906 135.094 14.4948 135.562 14.7031C136.036 14.9115 136.406 15.2266 136.672 15.6484C136.943 16.0651 137.078 16.5885 137.078 17.2188V21.1562C137.078 21.4375 137.102 21.737 137.148 22.0547C137.201 22.3724 137.276 22.6458 137.375 22.875V23H135.867C135.794 22.8333 135.737 22.612 135.695 22.3359C135.654 22.0547 135.633 21.7943 135.633 21.5547ZM135.883 17.875L135.898 18.8906H134.438C134.026 18.8906 133.659 18.9245 133.336 18.9922C133.013 19.0547 132.742 19.151 132.523 19.2812C132.305 19.4115 132.138 19.5755 132.023 19.7734C131.909 19.9661 131.852 20.1927 131.852 20.4531C131.852 20.7188 131.911 20.9609 132.031 21.1797C132.151 21.3984 132.331 21.5729 132.57 21.7031C132.815 21.8281 133.115 21.8906 133.469 21.8906C133.911 21.8906 134.302 21.7969 134.641 21.6094C134.979 21.4219 135.247 21.1927 135.445 20.9219C135.648 20.651 135.758 20.388 135.773 20.1328L136.391 20.8281C136.354 21.0469 136.255 21.2891 136.094 21.5547C135.932 21.8203 135.716 22.0755 135.445 22.3203C135.18 22.5599 134.862 22.7604 134.492 22.9219C134.128 23.0781 133.716 23.1562 133.258 23.1562C132.685 23.1562 132.182 23.0443 131.75 22.8203C131.323 22.5964 130.99 22.2969 130.75 21.9219C130.516 21.5417 130.398 21.1172 130.398 20.6484C130.398 20.1953 130.487 19.7969 130.664 19.4531C130.841 19.1042 131.096 18.8151 131.43 18.5859C131.763 18.3516 132.164 18.1745 132.633 18.0547C133.102 17.9349 133.625 17.875 134.203 17.875H135.883ZM132.57 24.9219C132.57 24.6875 132.641 24.4896 132.781 24.3281C132.927 24.1667 133.141 24.0859 133.422 24.0859C133.698 24.0859 133.909 24.1667 134.055 24.3281C134.206 24.4896 134.281 24.6875 134.281 24.9219C134.281 25.1458 134.206 25.3359 134.055 25.4922C133.909 25.6536 133.698 25.7344 133.422 25.7344C133.141 25.7344 132.927 25.6536 132.781 25.4922C132.641 25.3359 132.57 25.1458 132.57 24.9219ZM140.797 16.3516V23H139.352V14.5469H140.719L140.797 16.3516ZM140.453 18.4531L139.852 18.4297C139.857 17.8516 139.943 17.3177 140.109 16.8281C140.276 16.3333 140.51 15.9036 140.812 15.5391C141.115 15.1745 141.474 14.8932 141.891 14.6953C142.312 14.4922 142.779 14.3906 143.289 14.3906C143.706 14.3906 144.081 14.4479 144.414 14.5625C144.747 14.6719 145.031 14.849 145.266 15.0938C145.505 15.3385 145.688 15.6562 145.812 16.0469C145.938 16.4323 146 16.9036 146 17.4609V23H144.547V17.4453C144.547 17.0026 144.482 16.6484 144.352 16.3828C144.221 16.112 144.031 15.9167 143.781 15.7969C143.531 15.6719 143.224 15.6094 142.859 15.6094C142.5 15.6094 142.172 15.6849 141.875 15.8359C141.583 15.987 141.331 16.1953 141.117 16.4609C140.909 16.7266 140.745 17.0312 140.625 17.375C140.51 17.7135 140.453 18.0729 140.453 18.4531ZM159.352 13.6172H160.516C160.516 14.1901 160.438 14.6849 160.281 15.1016C160.125 15.513 159.865 15.8307 159.5 16.0547C159.135 16.2786 158.641 16.3906 158.016 16.3906V15.4844C158.406 15.4844 158.695 15.4062 158.883 15.25C159.076 15.0938 159.201 14.875 159.258 14.5938C159.32 14.3125 159.352 13.987 159.352 13.6172ZM151.781 18.8672V18.6875C151.781 18.0781 151.87 17.513 152.047 16.9922C152.224 16.4661 152.479 16.0104 152.812 15.625C153.146 15.2344 153.549 14.9323 154.023 14.7188C154.497 14.5 155.029 14.3906 155.617 14.3906C156.211 14.3906 156.745 14.5 157.219 14.7188C157.698 14.9323 158.104 15.2344 158.438 15.625C158.771 16.0104 159.026 16.4661 159.203 16.9922C159.38 17.513 159.469 18.0781 159.469 18.6875V18.8672C159.469 19.4766 159.38 20.0417 159.203 20.5625C159.026 21.0833 158.771 21.5391 158.438 21.9297C158.104 22.3151 157.701 22.6172 157.227 22.8359C156.758 23.0495 156.227 23.1562 155.633 23.1562C155.039 23.1562 154.505 23.0495 154.031 22.8359C153.557 22.6172 153.151 22.3151 152.812 21.9297C152.479 21.5391 152.224 21.0833 152.047 20.5625C151.87 20.0417 151.781 19.4766 151.781 18.8672ZM153.227 18.6875V18.8672C153.227 19.2891 153.276 19.6875 153.375 20.0625C153.474 20.4323 153.622 20.7604 153.82 21.0469C154.023 21.3333 154.276 21.5599 154.578 21.7266C154.88 21.888 155.232 21.9688 155.633 21.9688C156.029 21.9688 156.375 21.888 156.672 21.7266C156.974 21.5599 157.224 21.3333 157.422 21.0469C157.62 20.7604 157.768 20.4323 157.867 20.0625C157.971 19.6875 158.023 19.2891 158.023 18.8672V18.6875C158.023 18.2708 157.971 17.8776 157.867 17.5078C157.768 17.1328 157.617 16.8021 157.414 16.5156C157.216 16.224 156.966 15.9948 156.664 15.8281C156.367 15.6615 156.018 15.5781 155.617 15.5781C155.221 15.5781 154.872 15.6615 154.57 15.8281C154.273 15.9948 154.023 16.224 153.82 16.5156C153.622 16.8021 153.474 17.1328 153.375 17.5078C153.276 17.8776 153.227 18.2708 153.227 18.6875ZM162.891 14.5469V23H161.438V14.5469H162.891ZM161.328 12.3047C161.328 12.0703 161.398 11.8724 161.539 11.7109C161.685 11.5495 161.898 11.4688 162.18 11.4688C162.456 11.4688 162.667 11.5495 162.812 11.7109C162.964 11.8724 163.039 12.0703 163.039 12.3047C163.039 12.5286 162.964 12.7214 162.812 12.8828C162.667 13.0391 162.456 13.1172 162.18 13.1172C161.898 13.1172 161.685 13.0391 161.539 12.8828C161.398 12.7214 161.328 12.5286 161.328 12.3047Z" fill="#080707"/>
<path d="M127.977 42.47L127.037 41.53L122.81 45.7567L123.75 46.6967L127.977 42.47ZM130.803 41.53L123.75 48.5833L120.963 45.8033L120.023 46.7433L123.75 50.47L131.75 42.47L130.803 41.53ZM116.25 46.7433L119.977 50.47L120.917 49.53L117.197 45.8033L116.25 46.7433Z" fill="#005FFF"/>
<path d="M143.119 49.1094V50H137.535V49.2207L140.33 46.1094C140.674 45.7266 140.939 45.4023 141.127 45.1367C141.318 44.8672 141.451 44.627 141.525 44.416C141.604 44.2012 141.643 43.9824 141.643 43.7598C141.643 43.4785 141.584 43.2246 141.467 42.998C141.354 42.7676 141.186 42.584 140.963 42.4473C140.74 42.3105 140.471 42.2422 140.154 42.2422C139.775 42.2422 139.459 42.3164 139.205 42.4648C138.955 42.6094 138.768 42.8125 138.643 43.0742C138.518 43.3359 138.455 43.6367 138.455 43.9766H137.371C137.371 43.4961 137.477 43.0566 137.688 42.6582C137.898 42.2598 138.211 41.9434 138.625 41.709C139.039 41.4707 139.549 41.3516 140.154 41.3516C140.693 41.3516 141.154 41.4473 141.537 41.6387C141.92 41.8262 142.213 42.0918 142.416 42.4355C142.623 42.7754 142.727 43.1738 142.727 43.6309C142.727 43.8809 142.684 44.1348 142.598 44.3926C142.516 44.6465 142.4 44.9004 142.252 45.1543C142.107 45.4082 141.938 45.6582 141.742 45.9043C141.551 46.1504 141.346 46.3926 141.127 46.6309L138.842 49.1094H143.119ZM144.35 49.4258C144.35 49.2422 144.406 49.0879 144.52 48.9629C144.637 48.834 144.805 48.7695 145.023 48.7695C145.242 48.7695 145.408 48.834 145.521 48.9629C145.639 49.0879 145.697 49.2422 145.697 49.4258C145.697 49.6055 145.639 49.7578 145.521 49.8828C145.408 50.0078 145.242 50.0703 145.023 50.0703C144.805 50.0703 144.637 50.0078 144.52 49.8828C144.406 49.7578 144.35 49.6055 144.35 49.4258ZM144.355 44.252C144.355 44.0684 144.412 43.9141 144.525 43.7891C144.643 43.6602 144.811 43.5957 145.029 43.5957C145.248 43.5957 145.414 43.6602 145.527 43.7891C145.645 43.9141 145.703 44.0684 145.703 44.252C145.703 44.4316 145.645 44.584 145.527 44.709C145.414 44.834 145.248 44.8965 145.029 44.8965C144.811 44.8965 144.643 44.834 144.525 44.709C144.412 44.584 144.355 44.4316 144.355 44.252ZM150.748 41.4219V50H149.664V42.7754L147.479 43.5723V42.5938L150.578 41.4219H150.748ZM158.096 41.457H158.189V42.377H158.096C157.521 42.377 157.041 42.4707 156.654 42.6582C156.268 42.8418 155.961 43.0898 155.734 43.4023C155.508 43.7109 155.344 44.0586 155.242 44.4453C155.145 44.832 155.096 45.2246 155.096 45.623V46.877C155.096 47.2559 155.141 47.5918 155.23 47.8848C155.32 48.1738 155.443 48.418 155.6 48.6172C155.756 48.8164 155.932 48.9668 156.127 49.0684C156.326 49.1699 156.533 49.2207 156.748 49.2207C156.998 49.2207 157.221 49.1738 157.416 49.0801C157.611 48.9824 157.775 48.8477 157.908 48.6758C158.045 48.5 158.148 48.293 158.219 48.0547C158.289 47.8164 158.324 47.5547 158.324 47.2695C158.324 47.0156 158.293 46.7715 158.23 46.5371C158.168 46.2988 158.072 46.0879 157.943 45.9043C157.814 45.7168 157.652 45.5703 157.457 45.4648C157.266 45.3555 157.037 45.3008 156.771 45.3008C156.471 45.3008 156.189 45.375 155.928 45.5234C155.67 45.668 155.457 45.8594 155.289 46.0977C155.125 46.332 155.031 46.5879 155.008 46.8652L154.434 46.8594C154.488 46.4219 154.59 46.0488 154.738 45.7402C154.891 45.4277 155.078 45.1738 155.301 44.9785C155.527 44.7793 155.779 44.6348 156.057 44.5449C156.338 44.4512 156.635 44.4043 156.947 44.4043C157.373 44.4043 157.74 44.4844 158.049 44.6445C158.357 44.8047 158.611 45.0195 158.811 45.2891C159.01 45.5547 159.156 45.8555 159.25 46.1914C159.348 46.5234 159.396 46.8652 159.396 47.2168C159.396 47.6191 159.34 47.9961 159.227 48.3477C159.113 48.6992 158.943 49.0078 158.717 49.2734C158.494 49.5391 158.219 49.7461 157.891 49.8945C157.562 50.043 157.182 50.1172 156.748 50.1172C156.287 50.1172 155.885 50.0234 155.541 49.8359C155.197 49.6445 154.912 49.3906 154.686 49.0742C154.459 48.7578 154.289 48.4062 154.176 48.0195C154.062 47.6328 154.006 47.2402 154.006 46.8418V46.332C154.006 45.7305 154.066 45.1406 154.188 44.5625C154.309 43.9844 154.518 43.4609 154.814 42.9922C155.115 42.5234 155.531 42.1504 156.062 41.873C156.594 41.5957 157.271 41.457 158.096 41.457ZM167.09 46.6543H164.811V45.7344H167.09C167.531 45.7344 167.889 45.6641 168.162 45.5234C168.436 45.3828 168.635 45.1875 168.76 44.9375C168.889 44.6875 168.953 44.4023 168.953 44.082C168.953 43.7891 168.889 43.5137 168.76 43.2559C168.635 42.998 168.436 42.791 168.162 42.6348C167.889 42.4746 167.531 42.3945 167.09 42.3945H165.074V50H163.943V41.4688H167.09C167.734 41.4688 168.279 41.5801 168.725 41.8027C169.17 42.0254 169.508 42.334 169.738 42.7285C169.969 43.1191 170.084 43.5664 170.084 44.0703C170.084 44.6172 169.969 45.084 169.738 45.4707C169.508 45.8574 169.17 46.1523 168.725 46.3555C168.279 46.5547 167.734 46.6543 167.09 46.6543ZM171.871 41.4688H172.967L175.762 48.4238L178.551 41.4688H179.652L176.184 50H175.328L171.871 41.4688ZM171.514 41.4688H172.48L172.639 46.6719V50H171.514V41.4688ZM179.037 41.4688H180.004V50H178.879V46.6719L179.037 41.4688Z" fill="#747881"/>
</svg>
