<svg width="262" height="84" viewBox="0 0 262 84" fill="none" xmlns="http://www.w3.org/2000/svg">
<path d="M0 18C0 8.05888 8.05888 0 18 0H66C74.8366 0 82 7.16344 82 16C82 24.8366 74.8366 32 66 32H2C0.895429 32 0 31.1046 0 30V18Z" fill="#E9EAED"/>
<path d="M20.833 11.0469V21H19.5342V11.0469H20.833ZM24.0322 11.0469V12.127H16.3418V11.0469H24.0322ZM26.5889 10.5V21H25.3174V10.5H26.5889ZM31.1074 13.6035L27.8809 17.0557L26.0762 18.9287L25.9736 17.582L27.2656 16.0371L29.5625 13.6035H31.1074ZM29.9521 21L27.3135 17.4727L27.9697 16.3447L31.4424 21H29.9521ZM36.7197 19.0381C36.7197 18.8558 36.6787 18.6872 36.5967 18.5322C36.5192 18.3727 36.3574 18.2292 36.1113 18.1016C35.8698 17.9694 35.5052 17.8555 35.0176 17.7598C34.6074 17.6732 34.236 17.5706 33.9033 17.4521C33.5752 17.3337 33.2949 17.1901 33.0625 17.0215C32.8346 16.8529 32.6592 16.6546 32.5361 16.4268C32.4131 16.1989 32.3516 15.9323 32.3516 15.627C32.3516 15.3353 32.4154 15.0596 32.543 14.7998C32.6751 14.54 32.8597 14.3099 33.0967 14.1094C33.3382 13.9089 33.6276 13.7516 33.9648 13.6377C34.3021 13.5238 34.6781 13.4668 35.0928 13.4668C35.6852 13.4668 36.1911 13.5716 36.6104 13.7812C37.0296 13.9909 37.3509 14.2712 37.5742 14.6221C37.7975 14.9684 37.9092 15.3535 37.9092 15.7773H36.6445C36.6445 15.5723 36.583 15.374 36.46 15.1826C36.3415 14.9867 36.166 14.8249 35.9336 14.6973C35.7057 14.5697 35.4255 14.5059 35.0928 14.5059C34.7419 14.5059 34.457 14.5605 34.2383 14.6699C34.0241 14.7747 33.8669 14.9092 33.7666 15.0732C33.6709 15.2373 33.623 15.4105 33.623 15.5928C33.623 15.7295 33.6458 15.8525 33.6914 15.9619C33.7415 16.0667 33.8281 16.1647 33.9512 16.2559C34.0742 16.3424 34.2474 16.4245 34.4707 16.502C34.694 16.5794 34.9788 16.6569 35.3252 16.7344C35.9313 16.8711 36.4303 17.0352 36.8223 17.2266C37.2142 17.418 37.5059 17.6527 37.6973 17.9307C37.8887 18.2087 37.9844 18.5459 37.9844 18.9424C37.9844 19.266 37.916 19.5622 37.7793 19.8311C37.6471 20.0999 37.4535 20.3324 37.1982 20.5283C36.9476 20.7197 36.6468 20.8701 36.2959 20.9795C35.9495 21.0843 35.5599 21.1367 35.127 21.1367C34.4753 21.1367 33.9238 21.0205 33.4727 20.7881C33.0215 20.5557 32.6797 20.2549 32.4473 19.8857C32.2148 19.5166 32.0986 19.127 32.0986 18.7168H33.3701C33.3883 19.0632 33.4886 19.3389 33.6709 19.5439C33.8532 19.7445 34.0765 19.888 34.3408 19.9746C34.6051 20.0566 34.8672 20.0977 35.127 20.0977C35.4733 20.0977 35.7627 20.0521 35.9951 19.9609C36.2321 19.8698 36.4121 19.7445 36.5352 19.585C36.6582 19.4255 36.7197 19.2432 36.7197 19.0381ZM43.1113 10.5H44.3828V19.5645L44.2734 21H43.1113V10.5ZM49.3799 17.2402V17.3838C49.3799 17.9215 49.3161 18.4206 49.1885 18.8809C49.0609 19.3366 48.874 19.7331 48.6279 20.0703C48.3818 20.4076 48.0811 20.6696 47.7256 20.8564C47.3701 21.0433 46.9622 21.1367 46.502 21.1367C46.0326 21.1367 45.6201 21.057 45.2646 20.8975C44.9137 20.7334 44.6175 20.4987 44.376 20.1934C44.1344 19.888 43.9408 19.5189 43.7949 19.0859C43.6536 18.653 43.5557 18.1654 43.501 17.623V16.9941C43.5557 16.4473 43.6536 15.9574 43.7949 15.5244C43.9408 15.0915 44.1344 14.7223 44.376 14.417C44.6175 14.1071 44.9137 13.8724 45.2646 13.7129C45.6156 13.5488 46.0234 13.4668 46.4883 13.4668C46.9531 13.4668 47.3656 13.5579 47.7256 13.7402C48.0856 13.918 48.3864 14.1732 48.6279 14.5059C48.874 14.8385 49.0609 15.2373 49.1885 15.7021C49.3161 16.1624 49.3799 16.6751 49.3799 17.2402ZM48.1084 17.3838V17.2402C48.1084 16.8711 48.0742 16.5247 48.0059 16.2012C47.9375 15.873 47.8281 15.5859 47.6777 15.3398C47.5273 15.0892 47.3291 14.8932 47.083 14.752C46.8369 14.6061 46.5339 14.5332 46.1738 14.5332C45.8548 14.5332 45.5768 14.5879 45.3398 14.6973C45.1074 14.8066 44.9092 14.9548 44.7451 15.1416C44.5811 15.3239 44.4466 15.5335 44.3418 15.7705C44.2415 16.0029 44.1663 16.2445 44.1162 16.4951V18.1426C44.1891 18.4616 44.3076 18.7692 44.4717 19.0654C44.6403 19.3571 44.8636 19.5964 45.1416 19.7832C45.4242 19.9701 45.7728 20.0635 46.1875 20.0635C46.5293 20.0635 46.821 19.9951 47.0625 19.8584C47.3086 19.7171 47.5068 19.5234 47.6572 19.2773C47.8122 19.0312 47.9261 18.7464 47.999 18.4229C48.0719 18.0993 48.1084 17.7529 48.1084 17.3838ZM55.3408 19.7354V15.9277C55.3408 15.6361 55.2816 15.3831 55.1631 15.1689C55.0492 14.9502 54.876 14.7816 54.6436 14.6631C54.4111 14.5446 54.124 14.4854 53.7822 14.4854C53.4632 14.4854 53.1829 14.54 52.9414 14.6494C52.7044 14.7588 52.5176 14.9023 52.3809 15.0801C52.2487 15.2578 52.1826 15.4492 52.1826 15.6543H50.918C50.918 15.39 50.9863 15.1279 51.123 14.8682C51.2598 14.6084 51.4557 14.3737 51.7109 14.1641C51.9707 13.9499 52.2806 13.7812 52.6406 13.6582C53.0052 13.5306 53.4108 13.4668 53.8574 13.4668C54.3952 13.4668 54.8691 13.5579 55.2793 13.7402C55.694 13.9225 56.0176 14.1982 56.25 14.5674C56.487 14.932 56.6055 15.39 56.6055 15.9414V19.3867C56.6055 19.6328 56.626 19.8949 56.667 20.1729C56.7126 20.4508 56.7786 20.6901 56.8652 20.8906V21H55.5459C55.4821 20.8542 55.432 20.6605 55.3955 20.4189C55.359 20.1729 55.3408 19.945 55.3408 19.7354ZM55.5596 16.5156L55.5732 17.4043H54.2949C53.9349 17.4043 53.6136 17.4339 53.3311 17.4932C53.0485 17.5479 52.8115 17.6322 52.6201 17.7461C52.4287 17.86 52.2829 18.0036 52.1826 18.1768C52.0824 18.3454 52.0322 18.5436 52.0322 18.7715C52.0322 19.0039 52.0846 19.2158 52.1895 19.4072C52.2943 19.5986 52.4515 19.7513 52.6611 19.8652C52.8753 19.9746 53.1374 20.0293 53.4473 20.0293C53.8346 20.0293 54.1764 19.9473 54.4727 19.7832C54.7689 19.6191 55.0036 19.4186 55.1768 19.1816C55.3545 18.9447 55.4502 18.7145 55.4639 18.4912L56.0039 19.0996C55.972 19.291 55.8854 19.5029 55.7441 19.7354C55.6029 19.9678 55.4137 20.1911 55.1768 20.4053C54.9443 20.6149 54.6663 20.7904 54.3428 20.9316C54.0238 21.0684 53.6637 21.1367 53.2627 21.1367C52.7614 21.1367 52.3216 21.0387 51.9434 20.8428C51.5697 20.6468 51.278 20.3848 51.0684 20.0566C50.8633 19.724 50.7607 19.3525 50.7607 18.9424C50.7607 18.5459 50.8382 18.1973 50.9932 17.8965C51.1481 17.5911 51.3714 17.3382 51.6631 17.1377C51.9548 16.9326 52.3057 16.7777 52.7158 16.6729C53.126 16.568 53.584 16.5156 54.0898 16.5156H55.5596ZM52.6611 22.6816C52.6611 22.4766 52.7227 22.3034 52.8457 22.1621C52.9733 22.0208 53.1602 21.9502 53.4062 21.9502C53.6478 21.9502 53.8324 22.0208 53.96 22.1621C54.0921 22.3034 54.1582 22.4766 54.1582 22.6816C54.1582 22.8776 54.0921 23.0439 53.96 23.1807C53.8324 23.3219 53.6478 23.3926 53.4062 23.3926C53.1602 23.3926 52.9733 23.3219 52.8457 23.1807C52.7227 23.0439 52.6611 22.8776 52.6611 22.6816ZM59.8594 15.1826V21H58.5947V13.6035H59.791L59.8594 15.1826ZM59.5586 17.0215L59.0322 17.001C59.0368 16.4951 59.112 16.028 59.2578 15.5996C59.4036 15.1667 59.6087 14.7907 59.873 14.4717C60.1374 14.1527 60.4518 13.9066 60.8164 13.7334C61.1855 13.5557 61.5934 13.4668 62.04 13.4668C62.4046 13.4668 62.7327 13.5169 63.0244 13.6172C63.3161 13.7129 63.5645 13.8678 63.7695 14.082C63.9792 14.2962 64.1387 14.5742 64.248 14.916C64.3574 15.2533 64.4121 15.6657 64.4121 16.1533V21H63.1406V16.1396C63.1406 15.7523 63.0837 15.4424 62.9697 15.21C62.8558 14.973 62.6895 14.8021 62.4707 14.6973C62.252 14.5879 61.9831 14.5332 61.6641 14.5332C61.3496 14.5332 61.0625 14.5993 60.8027 14.7314C60.5475 14.8636 60.3265 15.0459 60.1396 15.2783C59.9574 15.5107 59.8138 15.7773 59.709 16.0781C59.6087 16.3743 59.5586 16.6888 59.5586 17.0215Z" fill="#080707"/>
<path d="M0 52C0 42.0589 8.05887 34 18 34H246C254.837 34 262 41.1634 262 50C262 58.8366 254.837 66 246 66H1.99999C0.895425 66 0 65.1046 0 64V52Z" fill="#E9EAED"/>
<path d="M24.5107 50.0439V53.6875C24.3877 53.8698 24.1917 54.0749 23.9229 54.3027C23.654 54.526 23.2826 54.722 22.8086 54.8906C22.3392 55.0547 21.7331 55.1367 20.9902 55.1367C20.3841 55.1367 19.8258 55.0319 19.3154 54.8223C18.8096 54.6081 18.3698 54.2982 17.9961 53.8926C17.627 53.4824 17.3398 52.9857 17.1348 52.4023C16.9342 51.8145 16.834 51.1491 16.834 50.4062V49.6338C16.834 48.891 16.9206 48.2279 17.0938 47.6445C17.2715 47.0612 17.5312 46.5667 17.873 46.1611C18.2148 45.751 18.6341 45.4411 19.1309 45.2314C19.6276 45.0173 20.1973 44.9102 20.8398 44.9102C21.6009 44.9102 22.2367 45.0423 22.7471 45.3066C23.262 45.5664 23.6631 45.9264 23.9502 46.3867C24.2419 46.847 24.4287 47.3711 24.5107 47.959H23.1914C23.1322 47.599 23.0137 47.2708 22.8359 46.9746C22.6628 46.6784 22.4144 46.4414 22.0908 46.2637C21.7673 46.0814 21.3503 45.9902 20.8398 45.9902C20.3796 45.9902 19.9808 46.0745 19.6436 46.2432C19.3063 46.4118 19.0283 46.6533 18.8096 46.9678C18.5908 47.2822 18.4268 47.6628 18.3174 48.1094C18.2126 48.556 18.1602 49.0596 18.1602 49.6201V50.4062C18.1602 50.9805 18.2262 51.4932 18.3584 51.9443C18.4951 52.3955 18.6888 52.7806 18.9395 53.0996C19.1901 53.4141 19.4886 53.6533 19.835 53.8174C20.1859 53.9814 20.5732 54.0635 20.9971 54.0635C21.4665 54.0635 21.847 54.0247 22.1387 53.9473C22.4303 53.8652 22.6582 53.7695 22.8223 53.6602C22.9863 53.5462 23.1117 53.4391 23.1982 53.3389V51.1104H20.8945V50.0439H24.5107ZM33.4316 47.0088H34.4023C34.4023 47.5055 34.3363 47.9225 34.2041 48.2598C34.0765 48.597 33.8509 48.8499 33.5273 49.0186C33.2038 49.1872 32.748 49.2715 32.1602 49.2715V48.4922C32.5703 48.4922 32.8643 48.4421 33.042 48.3418C33.2197 48.237 33.3291 48.0752 33.3701 47.8564C33.4111 47.6377 33.4316 47.3551 33.4316 47.0088ZM31.0322 53.291V47.6035H32.3037V55H31.0938L31.0322 53.291ZM31.2715 51.7324L31.7979 51.7188C31.7979 52.2109 31.7454 52.6667 31.6406 53.0859C31.5404 53.5007 31.3763 53.8607 31.1484 54.166C30.9206 54.4714 30.6221 54.7106 30.2529 54.8838C29.8838 55.0524 29.4349 55.1367 28.9062 55.1367C28.5462 55.1367 28.2158 55.0843 27.915 54.9795C27.6188 54.8747 27.3636 54.7129 27.1494 54.4941C26.9352 54.2754 26.7689 53.9906 26.6504 53.6396C26.5365 53.2887 26.4795 52.8672 26.4795 52.375V47.6035H27.7441V52.3887C27.7441 52.7214 27.7806 52.9971 27.8535 53.2158C27.931 53.43 28.0335 53.6009 28.1611 53.7285C28.2933 53.8516 28.4391 53.9382 28.5986 53.9883C28.7627 54.0384 28.9313 54.0635 29.1045 54.0635C29.6423 54.0635 30.0684 53.9609 30.3828 53.7559C30.6973 53.5462 30.9229 53.266 31.0596 52.915C31.2008 52.5596 31.2715 52.1654 31.2715 51.7324ZM29.9863 46.5439H29.0771L29.0703 45.5049C29.3027 45.4912 29.4919 45.4684 29.6377 45.4365C29.7835 45.4001 29.8906 45.3477 29.959 45.2793C30.0273 45.2064 30.0615 45.1107 30.0615 44.9922C30.0615 44.8965 30.0319 44.8167 29.9727 44.7529C29.9134 44.6846 29.8314 44.6299 29.7266 44.5889C29.6217 44.5433 29.501 44.5114 29.3643 44.4932C29.2275 44.4749 29.0817 44.4658 28.9268 44.4658L28.9746 43.7412C29.3118 43.7412 29.6081 43.7708 29.8633 43.8301C30.123 43.8893 30.3395 43.9759 30.5127 44.0898C30.6904 44.2038 30.8226 44.3405 30.9092 44.5C31.0003 44.6549 31.0459 44.8281 31.0459 45.0195C31.0459 45.3659 30.9365 45.6188 30.7178 45.7783C30.499 45.9333 30.2575 46.029 29.9932 46.0654L29.9863 46.5439ZM36.5488 47.6035V55H35.2773V47.6035H36.5488ZM35.1816 45.6416C35.1816 45.4365 35.2432 45.2633 35.3662 45.1221C35.4938 44.9808 35.6807 44.9102 35.9268 44.9102C36.1683 44.9102 36.3529 44.9808 36.4805 45.1221C36.6126 45.2633 36.6787 45.4365 36.6787 45.6416C36.6787 45.8376 36.6126 46.0062 36.4805 46.1475C36.3529 46.2842 36.1683 46.3525 35.9268 46.3525C35.6807 46.3525 35.4938 46.2842 35.3662 46.1475C35.2432 46.0062 35.1816 45.8376 35.1816 45.6416ZM45.1484 47.6035V48.5742H41.1494V47.6035H45.1484ZM42.5029 45.8057H43.7676V53.168C43.7676 53.4186 43.8063 53.6077 43.8838 53.7354C43.9613 53.863 44.0615 53.9473 44.1846 53.9883C44.3076 54.0293 44.4398 54.0498 44.5811 54.0498C44.6859 54.0498 44.7952 54.0407 44.9092 54.0225C45.0277 53.9997 45.1165 53.9814 45.1758 53.9678L45.1826 55C45.0824 55.0319 44.9502 55.0615 44.7861 55.0889C44.6266 55.1208 44.4329 55.1367 44.2051 55.1367C43.8952 55.1367 43.6104 55.0752 43.3506 54.9521C43.0908 54.8291 42.8835 54.624 42.7285 54.3369C42.5781 54.0452 42.5029 53.6533 42.5029 53.1611V45.8057ZM46.1602 51.3838V51.2266C46.1602 50.6934 46.2376 50.1989 46.3926 49.7432C46.5475 49.2829 46.7708 48.8841 47.0625 48.5469C47.3542 48.2051 47.7074 47.9408 48.1221 47.7539C48.5368 47.5625 49.0016 47.4668 49.5166 47.4668C50.0361 47.4668 50.5033 47.5625 50.918 47.7539C51.3372 47.9408 51.6927 48.2051 51.9844 48.5469C52.2806 48.8841 52.5062 49.2829 52.6611 49.7432C52.8161 50.1989 52.8936 50.6934 52.8936 51.2266V51.3838C52.8936 51.917 52.8161 52.4115 52.6611 52.8672C52.5062 53.3229 52.2806 53.7217 51.9844 54.0635C51.6927 54.4007 51.3395 54.665 50.9248 54.8564C50.5146 55.0433 50.0498 55.1367 49.5303 55.1367C49.0107 55.1367 48.5436 55.0433 48.1289 54.8564C47.7142 54.665 47.3587 54.4007 47.0625 54.0635C46.7708 53.7217 46.5475 53.3229 46.3926 52.8672C46.2376 52.4115 46.1602 51.917 46.1602 51.3838ZM47.4248 51.2266V51.3838C47.4248 51.7529 47.4681 52.1016 47.5547 52.4297C47.6413 52.7533 47.7712 53.0404 47.9443 53.291C48.1221 53.5417 48.3431 53.7399 48.6074 53.8857C48.8717 54.027 49.1794 54.0977 49.5303 54.0977C49.8766 54.0977 50.1797 54.027 50.4395 53.8857C50.7038 53.7399 50.9225 53.5417 51.0957 53.291C51.2689 53.0404 51.3988 52.7533 51.4854 52.4297C51.5765 52.1016 51.6221 51.7529 51.6221 51.3838V51.2266C51.6221 50.862 51.5765 50.5179 51.4854 50.1943C51.3988 49.8662 51.2666 49.5768 51.0889 49.3262C50.9157 49.071 50.6969 48.8704 50.4326 48.7246C50.1729 48.5788 49.8675 48.5059 49.5166 48.5059C49.1702 48.5059 48.8649 48.5788 48.6006 48.7246C48.3408 48.8704 48.1221 49.071 47.9443 49.3262C47.7712 49.5768 47.6413 49.8662 47.5547 50.1943C47.4681 50.5179 47.4248 50.862 47.4248 51.2266ZM49.8447 44.5L51.54 46.3662V46.4346H50.4873L49.4619 45.2793L48.4434 46.4346H47.4043V46.3594L49.0791 44.5H49.8447ZM55.8535 47.6035V55H54.582V47.6035H55.8535ZM54.4863 45.6416C54.4863 45.4365 54.5479 45.2633 54.6709 45.1221C54.7985 44.9808 54.9854 44.9102 55.2314 44.9102C55.473 44.9102 55.6576 44.9808 55.7852 45.1221C55.9173 45.2633 55.9834 45.4365 55.9834 45.6416C55.9834 45.8376 55.9173 46.0062 55.7852 46.1475C55.6576 46.2842 55.473 46.3525 55.2314 46.3525C54.9854 46.3525 54.7985 46.2842 54.6709 46.1475C54.5479 46.0062 54.4863 45.8376 54.4863 45.6416ZM64.3164 54.0977C64.6172 54.0977 64.8952 54.0361 65.1504 53.9131C65.4056 53.79 65.6152 53.6214 65.7793 53.4072C65.9434 53.1885 66.0368 52.9401 66.0596 52.6621H67.2627C67.2399 53.0996 67.0918 53.5075 66.8184 53.8857C66.5495 54.2594 66.1963 54.5625 65.7588 54.7949C65.3213 55.0228 64.8405 55.1367 64.3164 55.1367C63.7604 55.1367 63.2751 55.0387 62.8604 54.8428C62.4502 54.6468 62.1084 54.3779 61.835 54.0361C61.5661 53.6943 61.3633 53.3024 61.2266 52.8604C61.0944 52.4137 61.0283 51.9421 61.0283 51.4453V51.1582C61.0283 50.6615 61.0944 50.1921 61.2266 49.75C61.3633 49.3034 61.5661 48.9092 61.835 48.5674C62.1084 48.2256 62.4502 47.9567 62.8604 47.7607C63.2751 47.5648 63.7604 47.4668 64.3164 47.4668C64.8952 47.4668 65.401 47.5853 65.834 47.8223C66.2669 48.0547 66.6064 48.3737 66.8525 48.7793C67.1032 49.1803 67.2399 49.6361 67.2627 50.1465H66.0596C66.0368 49.8411 65.9502 49.5654 65.7998 49.3193C65.654 49.0732 65.4535 48.8773 65.1982 48.7314C64.9476 48.5811 64.6536 48.5059 64.3164 48.5059C63.929 48.5059 63.6032 48.5833 63.3389 48.7383C63.0791 48.8887 62.8717 49.0938 62.7168 49.3535C62.5664 49.6087 62.457 49.8936 62.3887 50.208C62.3249 50.5179 62.293 50.8346 62.293 51.1582V51.4453C62.293 51.7689 62.3249 52.0879 62.3887 52.4023C62.4525 52.7168 62.5596 53.0016 62.71 53.2568C62.8649 53.512 63.0723 53.7171 63.332 53.8721C63.5964 54.0225 63.9245 54.0977 64.3164 54.0977ZM73.0459 53.7354V49.9277C73.0459 49.6361 72.9867 49.3831 72.8682 49.1689C72.7542 48.9502 72.5811 48.7816 72.3486 48.6631C72.1162 48.5446 71.8291 48.4854 71.4873 48.4854C71.1683 48.4854 70.888 48.54 70.6465 48.6494C70.4095 48.7588 70.2227 48.9023 70.0859 49.0801C69.9538 49.2578 69.8877 49.4492 69.8877 49.6543H68.623C68.623 49.39 68.6914 49.1279 68.8281 48.8682C68.9648 48.6084 69.1608 48.3737 69.416 48.1641C69.6758 47.9499 69.9857 47.7812 70.3457 47.6582C70.7103 47.5306 71.1159 47.4668 71.5625 47.4668C72.1003 47.4668 72.5742 47.5579 72.9844 47.7402C73.3991 47.9225 73.7227 48.1982 73.9551 48.5674C74.1921 48.932 74.3105 49.39 74.3105 49.9414V53.3867C74.3105 53.6328 74.3311 53.8949 74.3721 54.1729C74.4176 54.4508 74.4837 54.6901 74.5703 54.8906V55H73.251C73.1872 54.8542 73.137 54.6605 73.1006 54.4189C73.0641 54.1729 73.0459 53.945 73.0459 53.7354ZM73.2646 50.5156L73.2783 51.4043H72C71.64 51.4043 71.3187 51.4339 71.0361 51.4932C70.7536 51.5479 70.5166 51.6322 70.3252 51.7461C70.1338 51.86 69.988 52.0036 69.8877 52.1768C69.7874 52.3454 69.7373 52.5436 69.7373 52.7715C69.7373 53.0039 69.7897 53.2158 69.8945 53.4072C69.9993 53.5986 70.1566 53.7513 70.3662 53.8652C70.5804 53.9746 70.8424 54.0293 71.1523 54.0293C71.5397 54.0293 71.8815 53.9473 72.1777 53.7832C72.474 53.6191 72.7087 53.4186 72.8818 53.1816C73.0596 52.9447 73.1553 52.7145 73.1689 52.4912L73.709 53.0996C73.6771 53.291 73.5905 53.5029 73.4492 53.7354C73.3079 53.9678 73.1188 54.1911 72.8818 54.4053C72.6494 54.6149 72.3714 54.7904 72.0479 54.9316C71.7288 55.0684 71.3688 55.1367 70.9678 55.1367C70.4665 55.1367 70.0267 55.0387 69.6484 54.8428C69.2747 54.6468 68.9831 54.3848 68.7734 54.0566C68.5684 53.724 68.4658 53.3525 68.4658 52.9424C68.4658 52.5459 68.5433 52.1973 68.6982 51.8965C68.8532 51.5911 69.0765 51.3382 69.3682 51.1377C69.6598 50.9326 70.0107 50.7777 70.4209 50.6729C70.8311 50.568 71.2891 50.5156 71.7949 50.5156H73.2646ZM71.002 46.5098L72.3281 44.5H73.8525L72.0205 46.5098H71.002ZM77.6738 47.6035V55H76.4023V47.6035H77.6738ZM76.3066 45.6416C76.3066 45.4365 76.3682 45.2633 76.4912 45.1221C76.6188 44.9808 76.8057 44.9102 77.0518 44.9102C77.2933 44.9102 77.4779 44.9808 77.6055 45.1221C77.7376 45.2633 77.8037 45.4365 77.8037 45.6416C77.8037 45.8376 77.7376 46.0062 77.6055 46.1475C77.4779 46.2842 77.2933 46.3525 77.0518 46.3525C76.8057 46.3525 76.6188 46.2842 76.4912 46.1475C76.3682 46.0062 76.3066 45.8376 76.3066 45.6416ZM87.5381 53.7354V49.9277C87.5381 49.6361 87.4788 49.3831 87.3604 49.1689C87.2464 48.9502 87.0732 48.7816 86.8408 48.6631C86.6084 48.5446 86.3213 48.4854 85.9795 48.4854C85.6605 48.4854 85.3802 48.54 85.1387 48.6494C84.9017 48.7588 84.7148 48.9023 84.5781 49.0801C84.446 49.2578 84.3799 49.4492 84.3799 49.6543H83.1152C83.1152 49.39 83.1836 49.1279 83.3203 48.8682C83.457 48.6084 83.653 48.3737 83.9082 48.1641C84.168 47.9499 84.4779 47.7812 84.8379 47.6582C85.2025 47.5306 85.6081 47.4668 86.0547 47.4668C86.5924 47.4668 87.0664 47.5579 87.4766 47.7402C87.8913 47.9225 88.2148 48.1982 88.4473 48.5674C88.6842 48.932 88.8027 49.39 88.8027 49.9414V53.3867C88.8027 53.6328 88.8232 53.8949 88.8643 54.1729C88.9098 54.4508 88.9759 54.6901 89.0625 54.8906V55H87.7432C87.6794 54.8542 87.6292 54.6605 87.5928 54.4189C87.5563 54.1729 87.5381 53.945 87.5381 53.7354ZM87.7568 50.5156L87.7705 51.4043H86.4922C86.1322 51.4043 85.8109 51.4339 85.5283 51.4932C85.2458 51.5479 85.0088 51.6322 84.8174 51.7461C84.626 51.86 84.4801 52.0036 84.3799 52.1768C84.2796 52.3454 84.2295 52.5436 84.2295 52.7715C84.2295 53.0039 84.2819 53.2158 84.3867 53.4072C84.4915 53.5986 84.6488 53.7513 84.8584 53.8652C85.0726 53.9746 85.3346 54.0293 85.6445 54.0293C86.0319 54.0293 86.3737 53.9473 86.6699 53.7832C86.9661 53.6191 87.2008 53.4186 87.374 53.1816C87.5518 52.9447 87.6475 52.7145 87.6611 52.4912L88.2012 53.0996C88.1693 53.291 88.0827 53.5029 87.9414 53.7354C87.8001 53.9678 87.611 54.1911 87.374 54.4053C87.1416 54.6149 86.8636 54.7904 86.54 54.9316C86.221 55.0684 85.861 55.1367 85.46 55.1367C84.9587 55.1367 84.5189 55.0387 84.1406 54.8428C83.7669 54.6468 83.4753 54.3848 83.2656 54.0566C83.0605 53.724 82.958 53.3525 82.958 52.9424C82.958 52.5459 83.0355 52.1973 83.1904 51.8965C83.3454 51.5911 83.5687 51.3382 83.8604 51.1377C84.152 50.9326 84.5029 50.7777 84.9131 50.6729C85.3232 50.568 85.7812 50.5156 86.2871 50.5156H87.7568ZM86.6699 46.4004H85.7607L85.7539 45.3613C85.9863 45.3477 86.1755 45.3249 86.3213 45.293C86.4671 45.2565 86.5742 45.2041 86.6426 45.1357C86.7109 45.0628 86.7451 44.9671 86.7451 44.8486C86.7451 44.7529 86.7155 44.6732 86.6562 44.6094C86.597 44.541 86.515 44.4863 86.4102 44.4453C86.3053 44.3997 86.1846 44.3678 86.0479 44.3496C85.9111 44.3314 85.7653 44.3223 85.6104 44.3223L85.6582 43.5977C85.9954 43.5977 86.2917 43.6273 86.5469 43.6865C86.8066 43.7458 87.0231 43.8324 87.1963 43.9463C87.374 44.0602 87.5062 44.1969 87.5928 44.3564C87.6839 44.5114 87.7295 44.6846 87.7295 44.876C87.7295 45.2223 87.6201 45.4753 87.4014 45.6348C87.1826 45.7897 86.9411 45.8854 86.6768 45.9219L86.6699 46.4004ZM92.0566 49.1826V55H90.792V47.6035H91.9883L92.0566 49.1826ZM91.7559 51.0215L91.2295 51.001C91.234 50.4951 91.3092 50.028 91.4551 49.5996C91.6009 49.1667 91.806 48.7907 92.0703 48.4717C92.3346 48.1527 92.6491 47.9066 93.0137 47.7334C93.3828 47.5557 93.7907 47.4668 94.2373 47.4668C94.6019 47.4668 94.93 47.5169 95.2217 47.6172C95.5133 47.7129 95.7617 47.8678 95.9668 48.082C96.1764 48.2962 96.3359 48.5742 96.4453 48.916C96.5547 49.2533 96.6094 49.6657 96.6094 50.1533V55H95.3379V50.1396C95.3379 49.7523 95.2809 49.4424 95.167 49.21C95.0531 48.973 94.8867 48.8021 94.668 48.6973C94.4492 48.5879 94.1803 48.5332 93.8613 48.5332C93.5469 48.5332 93.2598 48.5993 93 48.7314C92.7448 48.8636 92.5238 49.0459 92.3369 49.2783C92.1546 49.5107 92.0111 49.7773 91.9062 50.0781C91.806 50.3743 91.7559 50.6888 91.7559 51.0215ZM99.7949 44.5V55H98.5303V44.5H99.7949ZM99.4941 51.0215L98.9678 51.001C98.9723 50.4951 99.0475 50.028 99.1934 49.5996C99.3392 49.1667 99.5443 48.7907 99.8086 48.4717C100.073 48.1527 100.387 47.9066 100.752 47.7334C101.121 47.5557 101.529 47.4668 101.976 47.4668C102.34 47.4668 102.668 47.5169 102.96 47.6172C103.252 47.7129 103.5 47.8678 103.705 48.082C103.915 48.2962 104.074 48.5742 104.184 48.916C104.293 49.2533 104.348 49.6657 104.348 50.1533V55H103.076V50.1396C103.076 49.7523 103.019 49.4424 102.905 49.21C102.791 48.973 102.625 48.8021 102.406 48.6973C102.188 48.5879 101.919 48.5332 101.6 48.5332C101.285 48.5332 100.998 48.5993 100.738 48.7314C100.483 48.8636 100.262 49.0459 100.075 49.2783C99.8929 49.5107 99.7493 49.7773 99.6445 50.0781C99.5443 50.3743 99.4941 50.6888 99.4941 51.0215ZM114.369 57.8438V49.0254L114.479 47.6035H115.641V57.8438H114.369ZM109.399 51.3838V51.2402C109.399 50.6751 109.465 50.1624 109.598 49.7021C109.73 49.2373 109.924 48.8385 110.179 48.5059C110.434 48.1732 110.742 47.918 111.102 47.7402C111.466 47.5579 111.881 47.4668 112.346 47.4668C112.811 47.4668 113.218 47.5488 113.569 47.7129C113.925 47.8724 114.226 48.1071 114.472 48.417C114.722 48.7223 114.921 49.0915 115.066 49.5244C115.212 49.9574 115.312 50.4473 115.367 50.9941V51.623C115.317 52.1654 115.219 52.653 115.073 53.0859C114.927 53.5189 114.729 53.888 114.479 54.1934C114.232 54.4987 113.929 54.7334 113.569 54.8975C113.214 55.057 112.801 55.1367 112.332 55.1367C111.876 55.1367 111.466 55.0433 111.102 54.8564C110.742 54.6696 110.434 54.4076 110.179 54.0703C109.928 53.7331 109.734 53.3366 109.598 52.8809C109.465 52.4206 109.399 51.9215 109.399 51.3838ZM110.671 51.2402V51.3838C110.671 51.7529 110.71 52.1016 110.787 52.4297C110.865 52.7533 110.983 53.0404 111.143 53.291C111.307 53.5417 111.512 53.7399 111.758 53.8857C112.008 54.027 112.305 54.0977 112.646 54.0977C113.066 54.0977 113.414 54.0065 113.692 53.8242C113.975 53.6419 114.201 53.4027 114.369 53.1064C114.538 52.8057 114.668 52.4844 114.759 52.1426V50.4951C114.709 50.2445 114.629 50.0007 114.52 49.7637C114.415 49.5267 114.278 49.3148 114.109 49.1279C113.941 48.9365 113.736 48.7861 113.494 48.6768C113.257 48.5628 112.979 48.5059 112.66 48.5059C112.314 48.5059 112.015 48.5788 111.765 48.7246C111.514 48.8704 111.307 49.071 111.143 49.3262C110.983 49.5768 110.865 49.8662 110.787 50.1943C110.71 50.5225 110.671 50.8711 110.671 51.2402ZM122.196 53.291V47.6035H123.468V55H122.258L122.196 53.291ZM122.436 51.7324L122.962 51.7188C122.962 52.2109 122.91 52.6667 122.805 53.0859C122.704 53.5007 122.54 53.8607 122.312 54.166C122.085 54.4714 121.786 54.7106 121.417 54.8838C121.048 55.0524 120.599 55.1367 120.07 55.1367C119.71 55.1367 119.38 55.0843 119.079 54.9795C118.783 54.8747 118.528 54.7129 118.313 54.4941C118.099 54.2754 117.933 53.9906 117.814 53.6396C117.701 53.2887 117.644 52.8672 117.644 52.375V47.6035H118.908V52.3887C118.908 52.7214 118.945 52.9971 119.018 53.2158C119.095 53.43 119.198 53.6009 119.325 53.7285C119.457 53.8516 119.603 53.9382 119.763 53.9883C119.927 54.0384 120.095 54.0635 120.269 54.0635C120.806 54.0635 121.232 53.9609 121.547 53.7559C121.861 53.5462 122.087 53.266 122.224 52.915C122.365 52.5596 122.436 52.1654 122.436 51.7324ZM129.757 53.7354V49.9277C129.757 49.6361 129.698 49.3831 129.579 49.1689C129.465 48.9502 129.292 48.7816 129.06 48.6631C128.827 48.5446 128.54 48.4854 128.198 48.4854C127.879 48.4854 127.599 48.54 127.357 48.6494C127.12 48.7588 126.934 48.9023 126.797 49.0801C126.665 49.2578 126.599 49.4492 126.599 49.6543H125.334C125.334 49.39 125.402 49.1279 125.539 48.8682C125.676 48.6084 125.872 48.3737 126.127 48.1641C126.387 47.9499 126.697 47.7812 127.057 47.6582C127.421 47.5306 127.827 47.4668 128.273 47.4668C128.811 47.4668 129.285 47.5579 129.695 47.7402C130.11 47.9225 130.434 48.1982 130.666 48.5674C130.903 48.932 131.021 49.39 131.021 49.9414V53.3867C131.021 53.6328 131.042 53.8949 131.083 54.1729C131.129 54.4508 131.195 54.6901 131.281 54.8906V55H129.962C129.898 54.8542 129.848 54.6605 129.812 54.4189C129.775 54.1729 129.757 53.945 129.757 53.7354ZM129.976 50.5156L129.989 51.4043H128.711C128.351 51.4043 128.03 51.4339 127.747 51.4932C127.465 51.5479 127.228 51.6322 127.036 51.7461C126.845 51.86 126.699 52.0036 126.599 52.1768C126.498 52.3454 126.448 52.5436 126.448 52.7715C126.448 53.0039 126.501 53.2158 126.605 53.4072C126.71 53.5986 126.868 53.7513 127.077 53.8652C127.291 53.9746 127.553 54.0293 127.863 54.0293C128.251 54.0293 128.592 53.9473 128.889 53.7832C129.185 53.6191 129.42 53.4186 129.593 53.1816C129.771 52.9447 129.866 52.7145 129.88 52.4912L130.42 53.0996C130.388 53.291 130.301 53.5029 130.16 53.7354C130.019 53.9678 129.83 54.1911 129.593 54.4053C129.36 54.6149 129.082 54.7904 128.759 54.9316C128.44 55.0684 128.08 55.1367 127.679 55.1367C127.177 55.1367 126.738 55.0387 126.359 54.8428C125.986 54.6468 125.694 54.3848 125.484 54.0566C125.279 53.724 125.177 53.3525 125.177 52.9424C125.177 52.5459 125.254 52.1973 125.409 51.8965C125.564 51.5911 125.787 51.3382 126.079 51.1377C126.371 50.9326 126.722 50.7777 127.132 50.6729C127.542 50.568 128 50.5156 128.506 50.5156H129.976ZM128.889 46.4004H127.979L127.973 45.3613C128.205 45.3477 128.394 45.3249 128.54 45.293C128.686 45.2565 128.793 45.2041 128.861 45.1357C128.93 45.0628 128.964 44.9671 128.964 44.8486C128.964 44.7529 128.934 44.6732 128.875 44.6094C128.816 44.541 128.734 44.4863 128.629 44.4453C128.524 44.3997 128.403 44.3678 128.267 44.3496C128.13 44.3314 127.984 44.3223 127.829 44.3223L127.877 43.5977C128.214 43.5977 128.51 43.6273 128.766 43.6865C129.025 43.7458 129.242 43.8324 129.415 43.9463C129.593 44.0602 129.725 44.1969 129.812 44.3564C129.903 44.5114 129.948 44.6846 129.948 44.876C129.948 45.2223 129.839 45.4753 129.62 45.6348C129.401 45.7897 129.16 45.8854 128.896 45.9219L128.889 46.4004ZM136.477 44.5H137.748V53.5645L137.639 55H136.477V44.5ZM142.745 51.2402V51.3838C142.745 51.9215 142.681 52.4206 142.554 52.8809C142.426 53.3366 142.239 53.7331 141.993 54.0703C141.747 54.4076 141.446 54.6696 141.091 54.8564C140.735 55.0433 140.327 55.1367 139.867 55.1367C139.398 55.1367 138.985 55.057 138.63 54.8975C138.279 54.7334 137.983 54.4987 137.741 54.1934C137.5 53.888 137.306 53.5189 137.16 53.0859C137.019 52.653 136.921 52.1654 136.866 51.623V50.9941C136.921 50.4473 137.019 49.9574 137.16 49.5244C137.306 49.0915 137.5 48.7223 137.741 48.417C137.983 48.1071 138.279 47.8724 138.63 47.7129C138.981 47.5488 139.389 47.4668 139.854 47.4668C140.318 47.4668 140.731 47.5579 141.091 47.7402C141.451 47.918 141.752 48.1732 141.993 48.5059C142.239 48.8385 142.426 49.2373 142.554 49.7021C142.681 50.1624 142.745 50.6751 142.745 51.2402ZM141.474 51.3838V51.2402C141.474 50.8711 141.439 50.5247 141.371 50.2012C141.303 49.873 141.193 49.5859 141.043 49.3398C140.893 49.0892 140.694 48.8932 140.448 48.752C140.202 48.6061 139.899 48.5332 139.539 48.5332C139.22 48.5332 138.942 48.5879 138.705 48.6973C138.473 48.8066 138.274 48.9548 138.11 49.1416C137.946 49.3239 137.812 49.5335 137.707 49.7705C137.607 50.0029 137.532 50.2445 137.481 50.4951V52.1426C137.554 52.4616 137.673 52.7692 137.837 53.0654C138.006 53.3571 138.229 53.5964 138.507 53.7832C138.789 53.9701 139.138 54.0635 139.553 54.0635C139.895 54.0635 140.186 53.9951 140.428 53.8584C140.674 53.7171 140.872 53.5234 141.022 53.2773C141.177 53.0312 141.291 52.7464 141.364 52.4229C141.437 52.0993 141.474 51.7529 141.474 51.3838ZM144.01 51.3838V51.2266C144.01 50.6934 144.087 50.1989 144.242 49.7432C144.397 49.2829 144.62 48.8841 144.912 48.5469C145.204 48.2051 145.557 47.9408 145.972 47.7539C146.386 47.5625 146.851 47.4668 147.366 47.4668C147.886 47.4668 148.353 47.5625 148.768 47.7539C149.187 47.9408 149.542 48.2051 149.834 48.5469C150.13 48.8841 150.356 49.2829 150.511 49.7432C150.666 50.1989 150.743 50.6934 150.743 51.2266V51.3838C150.743 51.917 150.666 52.4115 150.511 52.8672C150.356 53.3229 150.13 53.7217 149.834 54.0635C149.542 54.4007 149.189 54.665 148.774 54.8564C148.364 55.0433 147.899 55.1367 147.38 55.1367C146.86 55.1367 146.393 55.0433 145.979 54.8564C145.564 54.665 145.208 54.4007 144.912 54.0635C144.62 53.7217 144.397 53.3229 144.242 52.8672C144.087 52.4115 144.01 51.917 144.01 51.3838ZM145.274 51.2266V51.3838C145.274 51.7529 145.318 52.1016 145.404 52.4297C145.491 52.7533 145.621 53.0404 145.794 53.291C145.972 53.5417 146.193 53.7399 146.457 53.8857C146.721 54.027 147.029 54.0977 147.38 54.0977C147.726 54.0977 148.029 54.027 148.289 53.8857C148.553 53.7399 148.772 53.5417 148.945 53.291C149.118 53.0404 149.248 52.7533 149.335 52.4297C149.426 52.1016 149.472 51.7529 149.472 51.3838V51.2266C149.472 50.862 149.426 50.5179 149.335 50.1943C149.248 49.8662 149.116 49.5768 148.938 49.3262C148.765 49.071 148.547 48.8704 148.282 48.7246C148.022 48.5788 147.717 48.5059 147.366 48.5059C147.02 48.5059 146.715 48.5788 146.45 48.7246C146.19 48.8704 145.972 49.071 145.794 49.3262C145.621 49.5768 145.491 49.8662 145.404 50.1943C145.318 50.5179 145.274 50.862 145.274 51.2266ZM153.587 49.0732V55H152.315V47.6035H153.519L153.587 49.0732ZM153.327 51.0215L152.739 51.001C152.744 50.4951 152.81 50.028 152.938 49.5996C153.065 49.1667 153.254 48.7907 153.505 48.4717C153.756 48.1527 154.068 47.9066 154.441 47.7334C154.815 47.5557 155.248 47.4668 155.74 47.4668C156.087 47.4668 156.406 47.5169 156.697 47.6172C156.989 47.7129 157.242 47.8656 157.456 48.0752C157.67 48.2848 157.837 48.5537 157.955 48.8818C158.074 49.21 158.133 49.6064 158.133 50.0713V55H156.868V50.1328C156.868 49.7454 156.802 49.4355 156.67 49.2031C156.542 48.9707 156.36 48.8021 156.123 48.6973C155.886 48.5879 155.608 48.5332 155.289 48.5332C154.915 48.5332 154.603 48.5993 154.353 48.7314C154.102 48.8636 153.901 49.0459 153.751 49.2783C153.601 49.5107 153.491 49.7773 153.423 50.0781C153.359 50.3743 153.327 50.6888 153.327 51.0215ZM158.119 50.3242L157.271 50.584C157.276 50.1784 157.342 49.7887 157.47 49.415C157.602 49.0413 157.791 48.7087 158.037 48.417C158.288 48.1253 158.595 47.8952 158.96 47.7266C159.325 47.5534 159.742 47.4668 160.211 47.4668C160.607 47.4668 160.958 47.5192 161.264 47.624C161.574 47.7288 161.833 47.8906 162.043 48.1094C162.257 48.3236 162.419 48.5993 162.528 48.9365C162.638 49.2738 162.692 49.6748 162.692 50.1396V55H161.421V50.126C161.421 49.7113 161.355 49.39 161.223 49.1621C161.095 48.9297 160.913 48.7679 160.676 48.6768C160.443 48.5811 160.165 48.5332 159.842 48.5332C159.564 48.5332 159.318 48.5811 159.104 48.6768C158.889 48.7725 158.709 48.9046 158.563 49.0732C158.418 49.2373 158.306 49.4264 158.229 49.6406C158.156 49.8548 158.119 50.0827 158.119 50.3242ZM174.368 46.79H175.387C175.387 47.2913 175.318 47.7243 175.182 48.0889C175.045 48.4489 174.817 48.7269 174.498 48.9229C174.179 49.1188 173.746 49.2168 173.199 49.2168V48.4238C173.541 48.4238 173.794 48.3555 173.958 48.2188C174.127 48.082 174.236 47.8906 174.286 47.6445C174.341 47.3984 174.368 47.1136 174.368 46.79ZM167.744 51.3838V51.2266C167.744 50.6934 167.822 50.1989 167.977 49.7432C168.132 49.2829 168.355 48.8841 168.646 48.5469C168.938 48.2051 169.291 47.9408 169.706 47.7539C170.121 47.5625 170.586 47.4668 171.101 47.4668C171.62 47.4668 172.087 47.5625 172.502 47.7539C172.921 47.9408 173.277 48.2051 173.568 48.5469C173.86 48.8841 174.083 49.2829 174.238 49.7432C174.393 50.1989 174.471 50.6934 174.471 51.2266V51.3838C174.471 51.917 174.393 52.4115 174.238 52.8672C174.083 53.3229 173.86 53.7217 173.568 54.0635C173.277 54.4007 172.924 54.665 172.509 54.8564C172.099 55.0433 171.634 55.1367 171.114 55.1367C170.595 55.1367 170.128 55.0433 169.713 54.8564C169.298 54.665 168.943 54.4007 168.646 54.0635C168.355 53.7217 168.132 53.3229 167.977 52.8672C167.822 52.4115 167.744 51.917 167.744 51.3838ZM169.009 51.2266V51.3838C169.009 51.7529 169.052 52.1016 169.139 52.4297C169.225 52.7533 169.355 53.0404 169.528 53.291C169.706 53.5417 169.927 53.7399 170.191 53.8857C170.456 54.027 170.763 54.0977 171.114 54.0977C171.461 54.0977 171.764 54.027 172.023 53.8857C172.288 53.7399 172.507 53.5417 172.68 53.291C172.853 53.0404 172.983 52.7533 173.069 52.4297C173.16 52.1016 173.206 51.7529 173.206 51.3838V51.2266C173.206 50.862 173.16 50.5179 173.069 50.1943C172.983 49.8662 172.851 49.5768 172.673 49.3262C172.5 49.071 172.281 48.8704 172.017 48.7246C171.757 48.5788 171.451 48.5059 171.101 48.5059C170.754 48.5059 170.449 48.5788 170.185 48.7246C169.925 48.8704 169.706 49.071 169.528 49.3262C169.355 49.5768 169.225 49.8662 169.139 50.1943C169.052 50.5179 169.009 50.862 169.009 51.2266ZM171.572 46.4004H170.663L170.656 45.3613C170.889 45.3477 171.078 45.3249 171.224 45.293C171.369 45.2565 171.477 45.2041 171.545 45.1357C171.613 45.0628 171.647 44.9671 171.647 44.8486C171.647 44.7529 171.618 44.6732 171.559 44.6094C171.499 44.541 171.417 44.4863 171.312 44.4453C171.208 44.3997 171.087 44.3678 170.95 44.3496C170.813 44.3314 170.668 44.3223 170.513 44.3223L170.561 43.5977C170.898 43.5977 171.194 43.6273 171.449 43.6865C171.709 43.7458 171.925 43.8324 172.099 43.9463C172.276 44.0602 172.409 44.1969 172.495 44.3564C172.586 44.5114 172.632 44.6846 172.632 44.876C172.632 45.2223 172.522 45.4753 172.304 45.6348C172.085 45.7897 171.843 45.8854 171.579 45.9219L171.572 46.4004ZM186.256 49.3262V50.3994H180.869V49.3262H186.256ZM181.074 45.0469V55H179.755V45.0469H181.074ZM187.404 45.0469V55H186.092V45.0469H187.404ZM193.919 53.7354V49.9277C193.919 49.6361 193.86 49.3831 193.741 49.1689C193.627 48.9502 193.454 48.7816 193.222 48.6631C192.989 48.5446 192.702 48.4854 192.36 48.4854C192.041 48.4854 191.761 48.54 191.52 48.6494C191.283 48.7588 191.096 48.9023 190.959 49.0801C190.827 49.2578 190.761 49.4492 190.761 49.6543H189.496C189.496 49.39 189.564 49.1279 189.701 48.8682C189.838 48.6084 190.034 48.3737 190.289 48.1641C190.549 47.9499 190.859 47.7812 191.219 47.6582C191.583 47.5306 191.989 47.4668 192.436 47.4668C192.973 47.4668 193.447 47.5579 193.857 47.7402C194.272 47.9225 194.596 48.1982 194.828 48.5674C195.065 48.932 195.184 49.39 195.184 49.9414V53.3867C195.184 53.6328 195.204 53.8949 195.245 54.1729C195.291 54.4508 195.357 54.6901 195.443 54.8906V55H194.124C194.06 54.8542 194.01 54.6605 193.974 54.4189C193.937 54.1729 193.919 53.945 193.919 53.7354ZM194.138 50.5156L194.151 51.4043H192.873C192.513 51.4043 192.192 51.4339 191.909 51.4932C191.627 51.5479 191.39 51.6322 191.198 51.7461C191.007 51.86 190.861 52.0036 190.761 52.1768C190.66 52.3454 190.61 52.5436 190.61 52.7715C190.61 53.0039 190.663 53.2158 190.768 53.4072C190.872 53.5986 191.03 53.7513 191.239 53.8652C191.453 53.9746 191.715 54.0293 192.025 54.0293C192.413 54.0293 192.755 53.9473 193.051 53.7832C193.347 53.6191 193.582 53.4186 193.755 53.1816C193.933 52.9447 194.028 52.7145 194.042 52.4912L194.582 53.0996C194.55 53.291 194.464 53.5029 194.322 53.7354C194.181 53.9678 193.992 54.1911 193.755 54.4053C193.522 54.6149 193.244 54.7904 192.921 54.9316C192.602 55.0684 192.242 55.1367 191.841 55.1367C191.34 55.1367 190.9 55.0387 190.521 54.8428C190.148 54.6468 189.856 54.3848 189.646 54.0566C189.441 53.724 189.339 53.3525 189.339 52.9424C189.339 52.5459 189.416 52.1973 189.571 51.8965C189.726 51.5911 189.95 51.3382 190.241 51.1377C190.533 50.9326 190.884 50.7777 191.294 50.6729C191.704 50.568 192.162 50.5156 192.668 50.5156H194.138ZM191.971 44.5L193.29 46.5098H192.203L190.439 44.5H191.971ZM201.91 49.1826V55H200.646V47.6035H201.842L201.91 49.1826ZM201.609 51.0215L201.083 51.001C201.088 50.4951 201.163 50.028 201.309 49.5996C201.454 49.1667 201.66 48.7907 201.924 48.4717C202.188 48.1527 202.503 47.9066 202.867 47.7334C203.236 47.5557 203.644 47.4668 204.091 47.4668C204.455 47.4668 204.784 47.5169 205.075 47.6172C205.367 47.7129 205.615 47.8678 205.82 48.082C206.03 48.2962 206.189 48.5742 206.299 48.916C206.408 49.2533 206.463 49.6657 206.463 50.1533V55H205.191V50.1396C205.191 49.7523 205.134 49.4424 205.021 49.21C204.907 48.973 204.74 48.8021 204.521 48.6973C204.303 48.5879 204.034 48.5332 203.715 48.5332C203.4 48.5332 203.113 48.5993 202.854 48.7314C202.598 48.8636 202.377 49.0459 202.19 49.2783C202.008 49.5107 201.865 49.7773 201.76 50.0781C201.66 50.3743 201.609 50.6888 201.609 51.0215ZM208.049 51.3838V51.2266C208.049 50.6934 208.126 50.1989 208.281 49.7432C208.436 49.2829 208.66 48.8841 208.951 48.5469C209.243 48.2051 209.596 47.9408 210.011 47.7539C210.425 47.5625 210.89 47.4668 211.405 47.4668C211.925 47.4668 212.392 47.5625 212.807 47.7539C213.226 47.9408 213.581 48.2051 213.873 48.5469C214.169 48.8841 214.395 49.2829 214.55 49.7432C214.705 50.1989 214.782 50.6934 214.782 51.2266V51.3838C214.782 51.917 214.705 52.4115 214.55 52.8672C214.395 53.3229 214.169 53.7217 213.873 54.0635C213.581 54.4007 213.228 54.665 212.813 54.8564C212.403 55.0433 211.938 55.1367 211.419 55.1367C210.899 55.1367 210.432 55.0433 210.018 54.8564C209.603 54.665 209.247 54.4007 208.951 54.0635C208.66 53.7217 208.436 53.3229 208.281 52.8672C208.126 52.4115 208.049 51.917 208.049 51.3838ZM209.313 51.2266V51.3838C209.313 51.7529 209.357 52.1016 209.443 52.4297C209.53 52.7533 209.66 53.0404 209.833 53.291C210.011 53.5417 210.232 53.7399 210.496 53.8857C210.76 54.027 211.068 54.0977 211.419 54.0977C211.765 54.0977 212.068 54.027 212.328 53.8857C212.592 53.7399 212.811 53.5417 212.984 53.291C213.158 53.0404 213.287 52.7533 213.374 52.4297C213.465 52.1016 213.511 51.7529 213.511 51.3838V51.2266C213.511 50.862 213.465 50.5179 213.374 50.1943C213.287 49.8662 213.155 49.5768 212.978 49.3262C212.804 49.071 212.586 48.8704 212.321 48.7246C212.062 48.5788 211.756 48.5059 211.405 48.5059C211.059 48.5059 210.754 48.5788 210.489 48.7246C210.229 48.8704 210.011 49.071 209.833 49.3262C209.66 49.5768 209.53 49.8662 209.443 50.1943C209.357 50.5179 209.313 50.862 209.313 51.2266ZM211.733 44.5L213.429 46.3662V46.4346H212.376L211.351 45.2793L210.332 46.4346H209.293V46.3594L210.968 44.5H211.733ZM210.626 56.6885C210.626 56.4834 210.688 56.3102 210.811 56.1689C210.938 56.0277 211.125 55.957 211.371 55.957C211.613 55.957 211.797 56.0277 211.925 56.1689C212.057 56.3102 212.123 56.4834 212.123 56.6885C212.123 56.8844 212.057 57.0508 211.925 57.1875C211.797 57.3288 211.613 57.3994 211.371 57.3994C211.125 57.3994 210.938 57.3288 210.811 57.1875C210.688 57.0508 210.626 56.8844 210.626 56.6885ZM217.742 47.6035V55H216.471V47.6035H217.742ZM216.375 45.6416C216.375 45.4365 216.437 45.2633 216.56 45.1221C216.687 44.9808 216.874 44.9102 217.12 44.9102C217.362 44.9102 217.546 44.9808 217.674 45.1221C217.806 45.2633 217.872 45.4365 217.872 45.6416C217.872 45.8376 217.806 46.0062 217.674 46.1475C217.546 46.2842 217.362 46.3525 217.12 46.3525C216.874 46.3525 216.687 46.2842 216.56 46.1475C216.437 46.0062 216.375 45.8376 216.375 45.6416ZM224.51 49.1826V55H223.245V47.6035H224.441L224.51 49.1826ZM224.209 51.0215L223.683 51.001C223.687 50.4951 223.762 50.028 223.908 49.5996C224.054 49.1667 224.259 48.7907 224.523 48.4717C224.788 48.1527 225.102 47.9066 225.467 47.7334C225.836 47.5557 226.244 47.4668 226.69 47.4668C227.055 47.4668 227.383 47.5169 227.675 47.6172C227.966 47.7129 228.215 47.8678 228.42 48.082C228.63 48.2962 228.789 48.5742 228.898 48.916C229.008 49.2533 229.062 49.6657 229.062 50.1533V55H227.791V50.1396C227.791 49.7523 227.734 49.4424 227.62 49.21C227.506 48.973 227.34 48.8021 227.121 48.6973C226.902 48.5879 226.633 48.5332 226.314 48.5332C226 48.5332 225.713 48.5993 225.453 48.7314C225.198 48.8636 224.977 49.0459 224.79 49.2783C224.608 49.5107 224.464 49.7773 224.359 50.0781C224.259 50.3743 224.209 50.6888 224.209 51.0215ZM232.248 44.5V55H230.983V44.5H232.248ZM231.947 51.0215L231.421 51.001C231.425 50.4951 231.501 50.028 231.646 49.5996C231.792 49.1667 231.997 48.7907 232.262 48.4717C232.526 48.1527 232.84 47.9066 233.205 47.7334C233.574 47.5557 233.982 47.4668 234.429 47.4668C234.793 47.4668 235.121 47.5169 235.413 47.6172C235.705 47.7129 235.953 47.8678 236.158 48.082C236.368 48.2962 236.527 48.5742 236.637 48.916C236.746 49.2533 236.801 49.6657 236.801 50.1533V55H235.529V50.1396C235.529 49.7523 235.472 49.4424 235.358 49.21C235.244 48.973 235.078 48.8021 234.859 48.6973C234.641 48.5879 234.372 48.5332 234.053 48.5332C233.738 48.5332 233.451 48.5993 233.191 48.7314C232.936 48.8636 232.715 49.0459 232.528 49.2783C232.346 49.5107 232.202 49.7773 232.098 50.0781C231.997 50.3743 231.947 50.6888 231.947 51.0215ZM241.764 55.1367C241.249 55.1367 240.782 55.0501 240.362 54.877C239.948 54.6992 239.59 54.4508 239.289 54.1318C238.993 53.8128 238.765 53.4346 238.605 52.9971C238.446 52.5596 238.366 52.0811 238.366 51.5615V51.2744C238.366 50.6729 238.455 50.1374 238.633 49.668C238.811 49.194 239.052 48.793 239.357 48.4648C239.663 48.1367 240.009 47.8883 240.396 47.7197C240.784 47.5511 241.185 47.4668 241.6 47.4668C242.128 47.4668 242.584 47.5579 242.967 47.7402C243.354 47.9225 243.671 48.1777 243.917 48.5059C244.163 48.8294 244.345 49.2122 244.464 49.6543C244.582 50.0918 244.642 50.5703 244.642 51.0898V51.6572H239.118V50.625H243.377V50.5293C243.359 50.2012 243.29 49.8822 243.172 49.5723C243.058 49.2624 242.876 49.0072 242.625 48.8066C242.374 48.6061 242.033 48.5059 241.6 48.5059C241.312 48.5059 241.048 48.5674 240.807 48.6904C240.565 48.8089 240.358 48.9867 240.185 49.2236C240.011 49.4606 239.877 49.75 239.781 50.0918C239.686 50.4336 239.638 50.8278 239.638 51.2744V51.5615C239.638 51.9124 239.686 52.2428 239.781 52.5527C239.882 52.8581 240.025 53.127 240.212 53.3594C240.403 53.5918 240.633 53.7741 240.902 53.9062C241.176 54.0384 241.486 54.1045 241.832 54.1045C242.279 54.1045 242.657 54.0133 242.967 53.8311C243.277 53.6488 243.548 53.4049 243.78 53.0996L244.546 53.708C244.386 53.9495 244.184 54.1797 243.938 54.3984C243.691 54.6172 243.388 54.7949 243.028 54.9316C242.673 55.0684 242.251 55.1367 241.764 55.1367ZM240.896 46.5098L242.222 44.5H243.746L241.914 46.5098H240.896Z" fill="#080707"/>
<path d="M6.29883 79.1094V80H0.714844V79.2207L3.50977 76.1094C3.85352 75.7266 4.11914 75.4023 4.30664 75.1367C4.49805 74.8672 4.63086 74.627 4.70508 74.416C4.7832 74.2012 4.82227 73.9824 4.82227 73.7598C4.82227 73.4785 4.76367 73.2246 4.64648 72.998C4.5332 72.7676 4.36523 72.584 4.14258 72.4473C3.91992 72.3105 3.65039 72.2422 3.33398 72.2422C2.95508 72.2422 2.63867 72.3164 2.38477 72.4648C2.13477 72.6094 1.94727 72.8125 1.82227 73.0742C1.69727 73.3359 1.63477 73.6367 1.63477 73.9766H0.550781C0.550781 73.4961 0.65625 73.0566 0.867188 72.6582C1.07812 72.2598 1.39062 71.9434 1.80469 71.709C2.21875 71.4707 2.72852 71.3516 3.33398 71.3516C3.87305 71.3516 4.33398 71.4473 4.7168 71.6387C5.09961 71.8262 5.39258 72.0918 5.5957 72.4355C5.80273 72.7754 5.90625 73.1738 5.90625 73.6309C5.90625 73.8809 5.86328 74.1348 5.77734 74.3926C5.69531 74.6465 5.58008 74.9004 5.43164 75.1543C5.28711 75.4082 5.11719 75.6582 4.92188 75.9043C4.73047 76.1504 4.52539 76.3926 4.30664 76.6309L2.02148 79.1094H6.29883ZM7.5293 79.4258C7.5293 79.2422 7.58594 79.0879 7.69922 78.9629C7.81641 78.834 7.98438 78.7695 8.20312 78.7695C8.42188 78.7695 8.58789 78.834 8.70117 78.9629C8.81836 79.0879 8.87695 79.2422 8.87695 79.4258C8.87695 79.6055 8.81836 79.7578 8.70117 79.8828C8.58789 80.0078 8.42188 80.0703 8.20312 80.0703C7.98438 80.0703 7.81641 80.0078 7.69922 79.8828C7.58594 79.7578 7.5293 79.6055 7.5293 79.4258ZM7.53516 74.252C7.53516 74.0684 7.5918 73.9141 7.70508 73.7891C7.82227 73.6602 7.99023 73.5957 8.20898 73.5957C8.42773 73.5957 8.59375 73.6602 8.70703 73.7891C8.82422 73.9141 8.88281 74.0684 8.88281 74.252C8.88281 74.4316 8.82422 74.584 8.70703 74.709C8.59375 74.834 8.42773 74.8965 8.20898 74.8965C7.99023 74.8965 7.82227 74.834 7.70508 74.709C7.5918 74.584 7.53516 74.4316 7.53516 74.252ZM13.9277 71.4219V80H12.8438V72.7754L10.6582 73.5723V72.5938L13.7578 71.4219H13.9277ZM22.4941 77.6914C22.4941 78.2109 22.373 78.6523 22.1309 79.0156C21.8926 79.375 21.5684 79.6484 21.1582 79.8359C20.752 80.0234 20.293 80.1172 19.7812 80.1172C19.2695 80.1172 18.8086 80.0234 18.3984 79.8359C17.9883 79.6484 17.6641 79.375 17.4258 79.0156C17.1875 78.6523 17.0684 78.2109 17.0684 77.6914C17.0684 77.3516 17.1328 77.041 17.2617 76.7598C17.3945 76.4746 17.5801 76.2266 17.8184 76.0156C18.0605 75.8047 18.3457 75.6426 18.6738 75.5293C19.0059 75.4121 19.3711 75.3535 19.7695 75.3535C20.293 75.3535 20.7598 75.4551 21.1699 75.6582C21.5801 75.8574 21.9023 76.1328 22.1367 76.4844C22.375 76.8359 22.4941 77.2383 22.4941 77.6914ZM21.4043 77.668C21.4043 77.3516 21.3359 77.0723 21.1992 76.8301C21.0625 76.584 20.8711 76.3926 20.625 76.2559C20.3789 76.1191 20.0938 76.0508 19.7695 76.0508C19.4375 76.0508 19.1504 76.1191 18.9082 76.2559C18.6699 76.3926 18.4844 76.584 18.3516 76.8301C18.2188 77.0723 18.1523 77.3516 18.1523 77.668C18.1523 77.9961 18.2168 78.2773 18.3457 78.5117C18.4785 78.7422 18.666 78.9199 18.9082 79.0449C19.1543 79.166 19.4453 79.2266 19.7812 79.2266C20.1172 79.2266 20.4062 79.166 20.6484 79.0449C20.8906 78.9199 21.0762 78.7422 21.2051 78.5117C21.3379 78.2773 21.4043 77.9961 21.4043 77.668ZM22.2949 73.6895C22.2949 74.1035 22.1855 74.4766 21.9668 74.8086C21.748 75.1406 21.4492 75.4023 21.0703 75.5938C20.6914 75.7852 20.2617 75.8809 19.7812 75.8809C19.293 75.8809 18.8574 75.7852 18.4746 75.5938C18.0957 75.4023 17.7988 75.1406 17.584 74.8086C17.3691 74.4766 17.2617 74.1035 17.2617 73.6895C17.2617 73.1934 17.3691 72.7715 17.584 72.4238C17.8027 72.0762 18.1016 71.8105 18.4805 71.627C18.8594 71.4434 19.291 71.3516 19.7754 71.3516C20.2637 71.3516 20.6973 71.4434 21.0762 71.627C21.4551 71.8105 21.752 72.0762 21.9668 72.4238C22.1855 72.7715 22.2949 73.1934 22.2949 73.6895ZM21.2109 73.707C21.2109 73.4219 21.1504 73.1699 21.0293 72.9512C20.9082 72.7324 20.7402 72.5605 20.5254 72.4355C20.3105 72.3066 20.0605 72.2422 19.7754 72.2422C19.4902 72.2422 19.2402 72.3027 19.0254 72.4238C18.8145 72.541 18.6484 72.709 18.5273 72.9277C18.4102 73.1465 18.3516 73.4062 18.3516 73.707C18.3516 74 18.4102 74.2559 18.5273 74.4746C18.6484 74.6934 18.8164 74.8633 19.0312 74.9844C19.2461 75.1055 19.4961 75.166 19.7812 75.166C20.0664 75.166 20.3145 75.1055 20.5254 74.9844C20.7402 74.8633 20.9082 74.6934 21.0293 74.4746C21.1504 74.2559 21.2109 74 21.2109 73.707ZM30.2695 76.6543H27.9902V75.7344H30.2695C30.7109 75.7344 31.0684 75.6641 31.3418 75.5234C31.6152 75.3828 31.8145 75.1875 31.9395 74.9375C32.0684 74.6875 32.1328 74.4023 32.1328 74.082C32.1328 73.7891 32.0684 73.5137 31.9395 73.2559C31.8145 72.998 31.6152 72.791 31.3418 72.6348C31.0684 72.4746 30.7109 72.3945 30.2695 72.3945H28.2539V80H27.123V71.4688H30.2695C30.9141 71.4688 31.459 71.5801 31.9043 71.8027C32.3496 72.0254 32.6875 72.334 32.918 72.7285C33.1484 73.1191 33.2637 73.5664 33.2637 74.0703C33.2637 74.6172 33.1484 75.084 32.918 75.4707C32.6875 75.8574 32.3496 76.1523 31.9043 76.3555C31.459 76.5547 30.9141 76.6543 30.2695 76.6543ZM35.0508 71.4688H36.1465L38.9414 78.4238L41.7305 71.4688H42.832L39.3633 80H38.5078L35.0508 71.4688ZM34.6934 71.4688H35.6602L35.8184 76.6719V80H34.6934V71.4688ZM42.2168 71.4688H43.1836V80H42.0586V76.6719L42.2168 71.4688Z" fill="#747881"/>
</svg>
