<svg width="252" height="50" viewBox="0 0 252 50" fill="none" xmlns="http://www.w3.org/2000/svg">
<path d="M0 18C0 8.05888 8.05888 0 18 0H236C244.837 0 252 7.16344 252 16C252 24.8366 244.837 32 236 32H1.99999C0.895423 32 0 31.1046 0 30V18Z" fill="#E9EAED"/>
<path d="M23.6562 15.3262V16.3994H18.2695V15.3262H23.6562ZM18.4746 11.0469V21H17.1553V11.0469H18.4746ZM24.8047 11.0469V21H23.4922V11.0469H24.8047ZM26.623 17.3838V17.2266C26.623 16.6934 26.7005 16.1989 26.8555 15.7432C27.0104 15.2829 27.2337 14.8841 27.5254 14.5469C27.8171 14.2051 28.1702 13.9408 28.585 13.7539C28.9997 13.5625 29.4645 13.4668 29.9795 13.4668C30.499 13.4668 30.9661 13.5625 31.3809 13.7539C31.8001 13.9408 32.1556 14.2051 32.4473 14.5469C32.7435 14.8841 32.9691 15.2829 33.124 15.7432C33.279 16.1989 33.3564 16.6934 33.3564 17.2266V17.3838C33.3564 17.917 33.279 18.4115 33.124 18.8672C32.9691 19.3229 32.7435 19.7217 32.4473 20.0635C32.1556 20.4007 31.8024 20.665 31.3877 20.8564C30.9775 21.0433 30.5127 21.1367 29.9932 21.1367C29.4736 21.1367 29.0065 21.0433 28.5918 20.8564C28.1771 20.665 27.8216 20.4007 27.5254 20.0635C27.2337 19.7217 27.0104 19.3229 26.8555 18.8672C26.7005 18.4115 26.623 17.917 26.623 17.3838ZM27.8877 17.2266V17.3838C27.8877 17.7529 27.931 18.1016 28.0176 18.4297C28.1042 18.7533 28.234 19.0404 28.4072 19.291C28.585 19.5417 28.806 19.7399 29.0703 19.8857C29.3346 20.027 29.6423 20.0977 29.9932 20.0977C30.3395 20.0977 30.6426 20.027 30.9023 19.8857C31.1667 19.7399 31.3854 19.5417 31.5586 19.291C31.7318 19.0404 31.8617 18.7533 31.9482 18.4297C32.0394 18.1016 32.085 17.7529 32.085 17.3838V17.2266C32.085 16.862 32.0394 16.5179 31.9482 16.1943C31.8617 15.8662 31.7295 15.5768 31.5518 15.3262C31.3786 15.071 31.1598 14.8704 30.8955 14.7246C30.6357 14.5788 30.3304 14.5059 29.9795 14.5059C29.6331 14.5059 29.3278 14.5788 29.0635 14.7246C28.8037 14.8704 28.585 15.071 28.4072 15.3262C28.234 15.5768 28.1042 15.8662 28.0176 16.1943C27.931 16.5179 27.8877 16.862 27.8877 17.2266ZM30.3076 10.5L32.0029 12.3662V12.4346H30.9502L29.9248 11.2793L28.9062 12.4346H27.8672V12.3594L29.542 10.5H30.3076ZM36.2002 15.0732V21H34.9287V13.6035H36.1318L36.2002 15.0732ZM35.9404 17.0215L35.3525 17.001C35.3571 16.4951 35.4232 16.028 35.5508 15.5996C35.6784 15.1667 35.8675 14.7907 36.1182 14.4717C36.3688 14.1527 36.681 13.9066 37.0547 13.7334C37.4284 13.5557 37.8613 13.4668 38.3535 13.4668C38.6999 13.4668 39.0189 13.5169 39.3105 13.6172C39.6022 13.7129 39.8551 13.8656 40.0693 14.0752C40.2835 14.2848 40.4499 14.5537 40.5684 14.8818C40.6868 15.21 40.7461 15.6064 40.7461 16.0713V21H39.4814V16.1328C39.4814 15.7454 39.4154 15.4355 39.2832 15.2031C39.1556 14.9707 38.9733 14.8021 38.7363 14.6973C38.4993 14.5879 38.2214 14.5332 37.9023 14.5332C37.5286 14.5332 37.2165 14.5993 36.9658 14.7314C36.7152 14.8636 36.5146 15.0459 36.3643 15.2783C36.2139 15.5107 36.1045 15.7773 36.0361 16.0781C35.9723 16.3743 35.9404 16.6888 35.9404 17.0215ZM40.7324 16.3242L39.8848 16.584C39.8893 16.1784 39.9554 15.7887 40.083 15.415C40.2152 15.0413 40.4043 14.7087 40.6504 14.417C40.901 14.1253 41.2087 13.8952 41.5732 13.7266C41.9378 13.5534 42.3548 13.4668 42.8242 13.4668C43.2207 13.4668 43.5716 13.5192 43.877 13.624C44.1868 13.7288 44.4466 13.8906 44.6562 14.1094C44.8704 14.3236 45.0322 14.5993 45.1416 14.9365C45.251 15.2738 45.3057 15.6748 45.3057 16.1396V21H44.0342V16.126C44.0342 15.7113 43.9681 15.39 43.8359 15.1621C43.7083 14.9297 43.526 14.7679 43.2891 14.6768C43.0566 14.5811 42.7786 14.5332 42.4551 14.5332C42.1771 14.5332 41.931 14.5811 41.7168 14.6768C41.5026 14.7725 41.3226 14.9046 41.1768 15.0732C41.0309 15.2373 40.9193 15.4264 40.8418 15.6406C40.7689 15.8548 40.7324 16.0827 40.7324 16.3242ZM53.7891 13.6035V14.5742H49.79V13.6035H53.7891ZM51.1436 11.8057H52.4082V19.168C52.4082 19.4186 52.4469 19.6077 52.5244 19.7354C52.6019 19.863 52.7021 19.9473 52.8252 19.9883C52.9482 20.0293 53.0804 20.0498 53.2217 20.0498C53.3265 20.0498 53.4359 20.0407 53.5498 20.0225C53.6683 19.9997 53.7572 19.9814 53.8164 19.9678L53.8232 21C53.723 21.0319 53.5908 21.0615 53.4268 21.0889C53.2673 21.1208 53.0736 21.1367 52.8457 21.1367C52.5358 21.1367 52.251 21.0752 51.9912 20.9521C51.7314 20.8291 51.5241 20.624 51.3691 20.3369C51.2188 20.0452 51.1436 19.6533 51.1436 19.1611V11.8057ZM56.5371 14.7656V21H55.2725V13.6035H56.5029L56.5371 14.7656ZM58.8477 13.5625L58.8408 14.7383C58.736 14.7155 58.6357 14.7018 58.54 14.6973C58.4489 14.6882 58.3441 14.6836 58.2256 14.6836C57.9339 14.6836 57.6764 14.7292 57.4531 14.8203C57.2298 14.9115 57.0407 15.0391 56.8857 15.2031C56.7308 15.3672 56.6077 15.5632 56.5166 15.791C56.43 16.0143 56.373 16.2604 56.3457 16.5293L55.9902 16.7344C55.9902 16.2878 56.0335 15.8685 56.1201 15.4766C56.2113 15.0846 56.3503 14.7383 56.5371 14.4375C56.724 14.1322 56.9609 13.8952 57.248 13.7266C57.5397 13.5534 57.8861 13.4668 58.2871 13.4668C58.3783 13.4668 58.4831 13.4782 58.6016 13.501C58.7201 13.5192 58.8021 13.5397 58.8477 13.5625ZM66.9414 13.0088H67.9121C67.9121 13.5055 67.846 13.9225 67.7139 14.2598C67.5863 14.597 67.3607 14.8499 67.0371 15.0186C66.7135 15.1872 66.2578 15.2715 65.6699 15.2715V14.4922C66.0801 14.4922 66.374 14.4421 66.5518 14.3418C66.7295 14.237 66.8389 14.0752 66.8799 13.8564C66.9209 13.6377 66.9414 13.3551 66.9414 13.0088ZM64.542 19.291V13.6035H65.8135V21H64.6035L64.542 19.291ZM64.7812 17.7324L65.3076 17.7188C65.3076 18.2109 65.2552 18.6667 65.1504 19.0859C65.0501 19.5007 64.8861 19.8607 64.6582 20.166C64.4303 20.4714 64.1318 20.7106 63.7627 20.8838C63.3936 21.0524 62.9447 21.1367 62.416 21.1367C62.056 21.1367 61.7256 21.0843 61.4248 20.9795C61.1286 20.8747 60.8734 20.7129 60.6592 20.4941C60.445 20.2754 60.2786 19.9906 60.1602 19.6396C60.0462 19.2887 59.9893 18.8672 59.9893 18.375V13.6035H61.2539V18.3887C61.2539 18.7214 61.2904 18.9971 61.3633 19.2158C61.4408 19.43 61.5433 19.6009 61.6709 19.7285C61.8031 19.8516 61.9489 19.9382 62.1084 19.9883C62.2725 20.0384 62.4411 20.0635 62.6143 20.0635C63.152 20.0635 63.5781 19.9609 63.8926 19.7559C64.207 19.5462 64.4326 19.266 64.5693 18.915C64.7106 18.5596 64.7812 18.1654 64.7812 17.7324ZM74.9736 12.79H75.9922C75.9922 13.2913 75.9238 13.7243 75.7871 14.0889C75.6504 14.4489 75.4225 14.7269 75.1035 14.9229C74.7845 15.1188 74.3516 15.2168 73.8047 15.2168V14.4238C74.1465 14.4238 74.3994 14.3555 74.5635 14.2188C74.7321 14.082 74.8415 13.8906 74.8916 13.6445C74.9463 13.3984 74.9736 13.1136 74.9736 12.79ZM68.3496 17.3838V17.2266C68.3496 16.6934 68.4271 16.1989 68.582 15.7432C68.737 15.2829 68.9603 14.8841 69.252 14.5469C69.5436 14.2051 69.8968 13.9408 70.3115 13.7539C70.7262 13.5625 71.1911 13.4668 71.7061 13.4668C72.2256 13.4668 72.6927 13.5625 73.1074 13.7539C73.5267 13.9408 73.8822 14.2051 74.1738 14.5469C74.4655 14.8841 74.6888 15.2829 74.8438 15.7432C74.9987 16.1989 75.0762 16.6934 75.0762 17.2266V17.3838C75.0762 17.917 74.9987 18.4115 74.8438 18.8672C74.6888 19.3229 74.4655 19.7217 74.1738 20.0635C73.8822 20.4007 73.529 20.665 73.1143 20.8564C72.7041 21.0433 72.2393 21.1367 71.7197 21.1367C71.2002 21.1367 70.7331 21.0433 70.3184 20.8564C69.9036 20.665 69.5482 20.4007 69.252 20.0635C68.9603 19.7217 68.737 19.3229 68.582 18.8672C68.4271 18.4115 68.3496 17.917 68.3496 17.3838ZM69.6143 17.2266V17.3838C69.6143 17.7529 69.6576 18.1016 69.7441 18.4297C69.8307 18.7533 69.9606 19.0404 70.1338 19.291C70.3115 19.5417 70.5326 19.7399 70.7969 19.8857C71.0612 20.027 71.3688 20.0977 71.7197 20.0977C72.0661 20.0977 72.3691 20.027 72.6289 19.8857C72.8932 19.7399 73.112 19.5417 73.2852 19.291C73.4583 19.0404 73.5882 18.7533 73.6748 18.4297C73.766 18.1016 73.8115 17.7529 73.8115 17.3838V17.2266C73.8115 16.862 73.766 16.5179 73.6748 16.1943C73.5882 15.8662 73.4561 15.5768 73.2783 15.3262C73.1051 15.071 72.8864 14.8704 72.6221 14.7246C72.3623 14.5788 72.057 14.5059 71.7061 14.5059C71.3597 14.5059 71.0544 14.5788 70.79 14.7246C70.5303 14.8704 70.3115 15.071 70.1338 15.3262C69.9606 15.5768 69.8307 15.8662 69.7441 16.1943C69.6576 16.5179 69.6143 16.862 69.6143 17.2266ZM71.002 12.5098L72.3281 10.5H73.8525L72.0205 12.5098H71.002ZM79.6562 20.0977C79.957 20.0977 80.235 20.0361 80.4902 19.9131C80.7454 19.79 80.9551 19.6214 81.1191 19.4072C81.2832 19.1885 81.3766 18.9401 81.3994 18.6621H82.6025C82.5798 19.0996 82.4316 19.5075 82.1582 19.8857C81.8893 20.2594 81.5361 20.5625 81.0986 20.7949C80.6611 21.0228 80.1803 21.1367 79.6562 21.1367C79.1003 21.1367 78.6149 21.0387 78.2002 20.8428C77.79 20.6468 77.4482 20.3779 77.1748 20.0361C76.9059 19.6943 76.7031 19.3024 76.5664 18.8604C76.4342 18.4137 76.3682 17.9421 76.3682 17.4453V17.1582C76.3682 16.6615 76.4342 16.1921 76.5664 15.75C76.7031 15.3034 76.9059 14.9092 77.1748 14.5674C77.4482 14.2256 77.79 13.9567 78.2002 13.7607C78.6149 13.5648 79.1003 13.4668 79.6562 13.4668C80.235 13.4668 80.7409 13.5853 81.1738 13.8223C81.6068 14.0547 81.9463 14.3737 82.1924 14.7793C82.443 15.1803 82.5798 15.6361 82.6025 16.1465H81.3994C81.3766 15.8411 81.29 15.5654 81.1396 15.3193C80.9938 15.0732 80.7933 14.8773 80.5381 14.7314C80.2874 14.5811 79.9935 14.5059 79.6562 14.5059C79.2689 14.5059 78.943 14.5833 78.6787 14.7383C78.4189 14.8887 78.2116 15.0938 78.0566 15.3535C77.9062 15.6087 77.7969 15.8936 77.7285 16.208C77.6647 16.5179 77.6328 16.8346 77.6328 17.1582V17.4453C77.6328 17.7689 77.6647 18.0879 77.7285 18.4023C77.7923 18.7168 77.8994 19.0016 78.0498 19.2568C78.2048 19.512 78.4121 19.7171 78.6719 19.8721C78.9362 20.0225 79.2643 20.0977 79.6562 20.0977ZM87.4902 10.5H88.7617V19.5645L88.6523 21H87.4902V10.5ZM93.7588 17.2402V17.3838C93.7588 17.9215 93.695 18.4206 93.5674 18.8809C93.4398 19.3366 93.2529 19.7331 93.0068 20.0703C92.7607 20.4076 92.46 20.6696 92.1045 20.8564C91.749 21.0433 91.3411 21.1367 90.8809 21.1367C90.4115 21.1367 89.999 21.057 89.6436 20.8975C89.2926 20.7334 88.9964 20.4987 88.7549 20.1934C88.5133 19.888 88.3197 19.5189 88.1738 19.0859C88.0326 18.653 87.9346 18.1654 87.8799 17.623V16.9941C87.9346 16.4473 88.0326 15.9574 88.1738 15.5244C88.3197 15.0915 88.5133 14.7223 88.7549 14.417C88.9964 14.1071 89.2926 13.8724 89.6436 13.7129C89.9945 13.5488 90.4023 13.4668 90.8672 13.4668C91.332 13.4668 91.7445 13.5579 92.1045 13.7402C92.4645 13.918 92.7653 14.1732 93.0068 14.5059C93.2529 14.8385 93.4398 15.2373 93.5674 15.7021C93.695 16.1624 93.7588 16.6751 93.7588 17.2402ZM92.4873 17.3838V17.2402C92.4873 16.8711 92.4531 16.5247 92.3848 16.2012C92.3164 15.873 92.207 15.5859 92.0566 15.3398C91.9062 15.0892 91.708 14.8932 91.4619 14.752C91.2158 14.6061 90.9128 14.5332 90.5527 14.5332C90.2337 14.5332 89.9557 14.5879 89.7188 14.6973C89.4863 14.8066 89.2881 14.9548 89.124 15.1416C88.96 15.3239 88.8255 15.5335 88.7207 15.7705C88.6204 16.0029 88.5452 16.2445 88.4951 16.4951V18.1426C88.568 18.4616 88.6865 18.7692 88.8506 19.0654C89.0192 19.3571 89.2425 19.5964 89.5205 19.7832C89.8031 19.9701 90.1517 20.0635 90.5664 20.0635C90.9082 20.0635 91.1999 19.9951 91.4414 19.8584C91.6875 19.7171 91.8857 19.5234 92.0361 19.2773C92.1911 19.0312 92.305 18.7464 92.3779 18.4229C92.4508 18.0993 92.4873 17.7529 92.4873 17.3838ZM99.7197 19.7354V15.9277C99.7197 15.6361 99.6605 15.3831 99.542 15.1689C99.4281 14.9502 99.2549 14.7816 99.0225 14.6631C98.79 14.5446 98.5029 14.4854 98.1611 14.4854C97.8421 14.4854 97.5618 14.54 97.3203 14.6494C97.0833 14.7588 96.8965 14.9023 96.7598 15.0801C96.6276 15.2578 96.5615 15.4492 96.5615 15.6543H95.2969C95.2969 15.39 95.3652 15.1279 95.502 14.8682C95.6387 14.6084 95.8346 14.3737 96.0898 14.1641C96.3496 13.9499 96.6595 13.7812 97.0195 13.6582C97.3841 13.5306 97.7897 13.4668 98.2363 13.4668C98.7741 13.4668 99.248 13.5579 99.6582 13.7402C100.073 13.9225 100.396 14.1982 100.629 14.5674C100.866 14.932 100.984 15.39 100.984 15.9414V19.3867C100.984 19.6328 101.005 19.8949 101.046 20.1729C101.091 20.4508 101.158 20.6901 101.244 20.8906V21H99.9248C99.861 20.8542 99.8109 20.6605 99.7744 20.4189C99.738 20.1729 99.7197 19.945 99.7197 19.7354ZM99.9385 16.5156L99.9521 17.4043H98.6738C98.3138 17.4043 97.9925 17.4339 97.71 17.4932C97.4274 17.5479 97.1904 17.6322 96.999 17.7461C96.8076 17.86 96.6618 18.0036 96.5615 18.1768C96.4613 18.3454 96.4111 18.5436 96.4111 18.7715C96.4111 19.0039 96.4635 19.2158 96.5684 19.4072C96.6732 19.5986 96.8304 19.7513 97.04 19.8652C97.2542 19.9746 97.5163 20.0293 97.8262 20.0293C98.2135 20.0293 98.5553 19.9473 98.8516 19.7832C99.1478 19.6191 99.3825 19.4186 99.5557 19.1816C99.7334 18.9447 99.8291 18.7145 99.8428 18.4912L100.383 19.0996C100.351 19.291 100.264 19.5029 100.123 19.7354C99.9818 19.9678 99.7926 20.1911 99.5557 20.4053C99.3232 20.6149 99.0452 20.7904 98.7217 20.9316C98.4027 21.0684 98.0426 21.1367 97.6416 21.1367C97.1403 21.1367 96.7005 21.0387 96.3223 20.8428C95.9486 20.6468 95.6569 20.3848 95.4473 20.0566C95.2422 19.724 95.1396 19.3525 95.1396 18.9424C95.1396 18.5459 95.2171 18.1973 95.3721 17.8965C95.527 17.5911 95.7503 17.3382 96.042 17.1377C96.3337 16.9326 96.6846 16.7777 97.0947 16.6729C97.5049 16.568 97.9629 16.5156 98.4688 16.5156H99.9385ZM97.04 22.6816C97.04 22.4766 97.1016 22.3034 97.2246 22.1621C97.3522 22.0208 97.5391 21.9502 97.7852 21.9502C98.0267 21.9502 98.2113 22.0208 98.3389 22.1621C98.471 22.3034 98.5371 22.4766 98.5371 22.6816C98.5371 22.8776 98.471 23.0439 98.3389 23.1807C98.2113 23.3219 98.0267 23.3926 97.7852 23.3926C97.5391 23.3926 97.3522 23.3219 97.2246 23.1807C97.1016 23.0439 97.04 22.8776 97.04 22.6816ZM104.238 15.1826V21H102.974V13.6035H104.17L104.238 15.1826ZM103.938 17.0215L103.411 17.001C103.416 16.4951 103.491 16.028 103.637 15.5996C103.783 15.1667 103.988 14.7907 104.252 14.4717C104.516 14.1527 104.831 13.9066 105.195 13.7334C105.564 13.5557 105.972 13.4668 106.419 13.4668C106.784 13.4668 107.112 13.5169 107.403 13.6172C107.695 13.7129 107.943 13.8678 108.148 14.082C108.358 14.2962 108.518 14.5742 108.627 14.916C108.736 15.2533 108.791 15.6657 108.791 16.1533V21H107.52V16.1396C107.52 15.7523 107.463 15.4424 107.349 15.21C107.235 14.973 107.068 14.8021 106.85 14.6973C106.631 14.5879 106.362 14.5332 106.043 14.5332C105.729 14.5332 105.441 14.5993 105.182 14.7314C104.926 14.8636 104.705 15.0459 104.519 15.2783C104.336 15.5107 104.193 15.7773 104.088 16.0781C103.988 16.3743 103.938 16.6888 103.938 17.0215ZM118.847 19.5645V10.5H120.118V21H118.956L118.847 19.5645ZM113.87 17.3838V17.2402C113.87 16.6751 113.938 16.1624 114.075 15.7021C114.216 15.2373 114.415 14.8385 114.67 14.5059C114.93 14.1732 115.237 13.918 115.593 13.7402C115.953 13.5579 116.354 13.4668 116.796 13.4668C117.261 13.4668 117.666 13.5488 118.013 13.7129C118.364 13.8724 118.66 14.1071 118.901 14.417C119.147 14.7223 119.341 15.0915 119.482 15.5244C119.624 15.9574 119.722 16.4473 119.776 16.9941V17.623C119.726 18.1654 119.628 18.653 119.482 19.0859C119.341 19.5189 119.147 19.888 118.901 20.1934C118.66 20.4987 118.364 20.7334 118.013 20.8975C117.662 21.057 117.252 21.1367 116.782 21.1367C116.349 21.1367 115.953 21.0433 115.593 20.8564C115.237 20.6696 114.93 20.4076 114.67 20.0703C114.415 19.7331 114.216 19.3366 114.075 18.8809C113.938 18.4206 113.87 17.9215 113.87 17.3838ZM115.142 17.2402V17.3838C115.142 17.7529 115.178 18.0993 115.251 18.4229C115.328 18.7464 115.447 19.0312 115.606 19.2773C115.766 19.5234 115.969 19.7171 116.215 19.8584C116.461 19.9951 116.755 20.0635 117.097 20.0635C117.516 20.0635 117.86 19.9746 118.129 19.7969C118.402 19.6191 118.621 19.3844 118.785 19.0928C118.949 18.8011 119.077 18.4844 119.168 18.1426V16.4951C119.113 16.2445 119.034 16.0029 118.929 15.7705C118.828 15.5335 118.696 15.3239 118.532 15.1416C118.373 14.9548 118.174 14.8066 117.938 14.6973C117.705 14.5879 117.429 14.5332 117.11 14.5332C116.764 14.5332 116.465 14.6061 116.215 14.752C115.969 14.8932 115.766 15.0892 115.606 15.3398C115.447 15.5859 115.328 15.873 115.251 16.2012C115.178 16.5247 115.142 16.8711 115.142 17.2402ZM121.403 11.5322V12.5713H117.049V11.5322H121.403ZM123.926 13.6035V21H122.654V13.6035H123.926ZM122.559 11.6416C122.559 11.4365 122.62 11.2633 122.743 11.1221C122.871 10.9808 123.058 10.9102 123.304 10.9102C123.545 10.9102 123.73 10.9808 123.857 11.1221C123.99 11.2633 124.056 11.4365 124.056 11.6416C124.056 11.8376 123.99 12.0062 123.857 12.1475C123.73 12.2842 123.545 12.3525 123.304 12.3525C123.058 12.3525 122.871 12.2842 122.743 12.1475C122.62 12.0062 122.559 11.8376 122.559 11.6416ZM130.693 10.5V21H129.429V10.5H130.693ZM130.393 17.0215L129.866 17.001C129.871 16.4951 129.946 16.028 130.092 15.5996C130.238 15.1667 130.443 14.7907 130.707 14.4717C130.971 14.1527 131.286 13.9066 131.65 13.7334C132.02 13.5557 132.427 13.4668 132.874 13.4668C133.239 13.4668 133.567 13.5169 133.858 13.6172C134.15 13.7129 134.398 13.8678 134.604 14.082C134.813 14.2962 134.973 14.5742 135.082 14.916C135.191 15.2533 135.246 15.6657 135.246 16.1533V21H133.975V16.1396C133.975 15.7523 133.918 15.4424 133.804 15.21C133.69 14.973 133.523 14.8021 133.305 14.6973C133.086 14.5879 132.817 14.5332 132.498 14.5332C132.184 14.5332 131.896 14.5993 131.637 14.7314C131.382 14.8636 131.16 15.0459 130.974 15.2783C130.791 15.5107 130.648 15.7773 130.543 16.0781C130.443 16.3743 130.393 16.6888 130.393 17.0215ZM141.501 19.7354V15.9277C141.501 15.6361 141.442 15.3831 141.323 15.1689C141.209 14.9502 141.036 14.7816 140.804 14.6631C140.571 14.5446 140.284 14.4854 139.942 14.4854C139.623 14.4854 139.343 14.54 139.102 14.6494C138.865 14.7588 138.678 14.9023 138.541 15.0801C138.409 15.2578 138.343 15.4492 138.343 15.6543H137.078C137.078 15.39 137.146 15.1279 137.283 14.8682C137.42 14.6084 137.616 14.3737 137.871 14.1641C138.131 13.9499 138.441 13.7812 138.801 13.6582C139.165 13.5306 139.571 13.4668 140.018 13.4668C140.555 13.4668 141.029 13.5579 141.439 13.7402C141.854 13.9225 142.178 14.1982 142.41 14.5674C142.647 14.932 142.766 15.39 142.766 15.9414V19.3867C142.766 19.6328 142.786 19.8949 142.827 20.1729C142.873 20.4508 142.939 20.6901 143.025 20.8906V21H141.706C141.642 20.8542 141.592 20.6605 141.556 20.4189C141.519 20.1729 141.501 19.945 141.501 19.7354ZM141.72 16.5156L141.733 17.4043H140.455C140.095 17.4043 139.774 17.4339 139.491 17.4932C139.209 17.5479 138.972 17.6322 138.78 17.7461C138.589 17.86 138.443 18.0036 138.343 18.1768C138.243 18.3454 138.192 18.5436 138.192 18.7715C138.192 19.0039 138.245 19.2158 138.35 19.4072C138.454 19.5986 138.612 19.7513 138.821 19.8652C139.035 19.9746 139.298 20.0293 139.607 20.0293C139.995 20.0293 140.337 19.9473 140.633 19.7832C140.929 19.6191 141.164 19.4186 141.337 19.1816C141.515 18.9447 141.61 18.7145 141.624 18.4912L142.164 19.0996C142.132 19.291 142.046 19.5029 141.904 19.7354C141.763 19.9678 141.574 20.1911 141.337 20.4053C141.104 20.6149 140.826 20.7904 140.503 20.9316C140.184 21.0684 139.824 21.1367 139.423 21.1367C138.922 21.1367 138.482 21.0387 138.104 20.8428C137.73 20.6468 137.438 20.3848 137.229 20.0566C137.023 19.724 136.921 19.3525 136.921 18.9424C136.921 18.5459 136.998 18.1973 137.153 17.8965C137.308 17.5911 137.532 17.3382 137.823 17.1377C138.115 16.9326 138.466 16.7777 138.876 16.6729C139.286 16.568 139.744 16.5156 140.25 16.5156H141.72ZM139.457 12.5098L140.783 10.5H142.308L140.476 12.5098H139.457ZM147.852 13.6035V14.5742H143.853V13.6035H147.852ZM145.206 11.8057H146.471V19.168C146.471 19.4186 146.509 19.6077 146.587 19.7354C146.664 19.863 146.765 19.9473 146.888 19.9883C147.011 20.0293 147.143 20.0498 147.284 20.0498C147.389 20.0498 147.498 20.0407 147.612 20.0225C147.731 19.9997 147.82 19.9814 147.879 19.9678L147.886 21C147.785 21.0319 147.653 21.0615 147.489 21.0889C147.33 21.1208 147.136 21.1367 146.908 21.1367C146.598 21.1367 146.313 21.0752 146.054 20.9521C145.794 20.8291 145.587 20.624 145.432 20.3369C145.281 20.0452 145.206 19.6533 145.206 19.1611V11.8057ZM159.097 12.79H160.115C160.115 13.2913 160.047 13.7243 159.91 14.0889C159.773 14.4489 159.546 14.7269 159.227 14.9229C158.908 15.1188 158.475 15.2168 157.928 15.2168V14.4238C158.27 14.4238 158.522 14.3555 158.687 14.2188C158.855 14.082 158.965 13.8906 159.015 13.6445C159.069 13.3984 159.097 13.1136 159.097 12.79ZM152.473 17.3838V17.2266C152.473 16.6934 152.55 16.1989 152.705 15.7432C152.86 15.2829 153.083 14.8841 153.375 14.5469C153.667 14.2051 154.02 13.9408 154.435 13.7539C154.849 13.5625 155.314 13.4668 155.829 13.4668C156.349 13.4668 156.816 13.5625 157.23 13.7539C157.65 13.9408 158.005 14.2051 158.297 14.5469C158.589 14.8841 158.812 15.2829 158.967 15.7432C159.122 16.1989 159.199 16.6934 159.199 17.2266V17.3838C159.199 17.917 159.122 18.4115 158.967 18.8672C158.812 19.3229 158.589 19.7217 158.297 20.0635C158.005 20.4007 157.652 20.665 157.237 20.8564C156.827 21.0433 156.362 21.1367 155.843 21.1367C155.323 21.1367 154.856 21.0433 154.441 20.8564C154.027 20.665 153.671 20.4007 153.375 20.0635C153.083 19.7217 152.86 19.3229 152.705 18.8672C152.55 18.4115 152.473 17.917 152.473 17.3838ZM153.737 17.2266V17.3838C153.737 17.7529 153.781 18.1016 153.867 18.4297C153.954 18.7533 154.084 19.0404 154.257 19.291C154.435 19.5417 154.656 19.7399 154.92 19.8857C155.184 20.027 155.492 20.0977 155.843 20.0977C156.189 20.0977 156.492 20.027 156.752 19.8857C157.016 19.7399 157.235 19.5417 157.408 19.291C157.581 19.0404 157.711 18.7533 157.798 18.4297C157.889 18.1016 157.935 17.7529 157.935 17.3838V17.2266C157.935 16.862 157.889 16.5179 157.798 16.1943C157.711 15.8662 157.579 15.5768 157.401 15.3262C157.228 15.071 157.009 14.8704 156.745 14.7246C156.485 14.5788 156.18 14.5059 155.829 14.5059C155.483 14.5059 155.177 14.5788 154.913 14.7246C154.653 14.8704 154.435 15.071 154.257 15.3262C154.084 15.5768 153.954 15.8662 153.867 16.1943C153.781 16.5179 153.737 16.862 153.737 17.2266ZM156.301 12.4004H155.392L155.385 11.3613C155.617 11.3477 155.806 11.3249 155.952 11.293C156.098 11.2565 156.205 11.2041 156.273 11.1357C156.342 11.0628 156.376 10.9671 156.376 10.8486C156.376 10.7529 156.346 10.6732 156.287 10.6094C156.228 10.541 156.146 10.4863 156.041 10.4453C155.936 10.3997 155.815 10.3678 155.679 10.3496C155.542 10.3314 155.396 10.3223 155.241 10.3223L155.289 9.59766C155.626 9.59766 155.923 9.62728 156.178 9.68652C156.438 9.74577 156.654 9.83236 156.827 9.94629C157.005 10.0602 157.137 10.1969 157.224 10.3564C157.315 10.5114 157.36 10.6846 157.36 10.876C157.36 11.2223 157.251 11.4753 157.032 11.6348C156.813 11.7897 156.572 11.8854 156.308 11.9219L156.301 12.4004ZM168.954 19.5645V10.5H170.226V21H169.063L168.954 19.5645ZM163.978 17.3838V17.2402C163.978 16.6751 164.046 16.1624 164.183 15.7021C164.324 15.2373 164.522 14.8385 164.777 14.5059C165.037 14.1732 165.345 13.918 165.7 13.7402C166.06 13.5579 166.461 13.4668 166.903 13.4668C167.368 13.4668 167.774 13.5488 168.12 13.7129C168.471 13.8724 168.767 14.1071 169.009 14.417C169.255 14.7223 169.449 15.0915 169.59 15.5244C169.731 15.9574 169.829 16.4473 169.884 16.9941V17.623C169.834 18.1654 169.736 18.653 169.59 19.0859C169.449 19.5189 169.255 19.888 169.009 20.1934C168.767 20.4987 168.471 20.7334 168.12 20.8975C167.769 21.057 167.359 21.1367 166.89 21.1367C166.457 21.1367 166.06 21.0433 165.7 20.8564C165.345 20.6696 165.037 20.4076 164.777 20.0703C164.522 19.7331 164.324 19.3366 164.183 18.8809C164.046 18.4206 163.978 17.9215 163.978 17.3838ZM165.249 17.2402V17.3838C165.249 17.7529 165.285 18.0993 165.358 18.4229C165.436 18.7464 165.554 19.0312 165.714 19.2773C165.873 19.5234 166.076 19.7171 166.322 19.8584C166.568 19.9951 166.862 20.0635 167.204 20.0635C167.623 20.0635 167.967 19.9746 168.236 19.7969C168.51 19.6191 168.729 19.3844 168.893 19.0928C169.057 18.8011 169.184 18.4844 169.275 18.1426V16.4951C169.221 16.2445 169.141 16.0029 169.036 15.7705C168.936 15.5335 168.804 15.3239 168.64 15.1416C168.48 14.9548 168.282 14.8066 168.045 14.6973C167.812 14.5879 167.537 14.5332 167.218 14.5332C166.871 14.5332 166.573 14.6061 166.322 14.752C166.076 14.8932 165.873 15.0892 165.714 15.3398C165.554 15.5859 165.436 15.873 165.358 16.2012C165.285 16.5247 165.249 16.8711 165.249 17.2402ZM171.511 11.5322V12.5713H167.156V11.5322H171.511ZM177.021 19.7354V15.9277C177.021 15.6361 176.961 15.3831 176.843 15.1689C176.729 14.9502 176.556 14.7816 176.323 14.6631C176.091 14.5446 175.804 14.4854 175.462 14.4854C175.143 14.4854 174.863 14.54 174.621 14.6494C174.384 14.7588 174.197 14.9023 174.061 15.0801C173.928 15.2578 173.862 15.4492 173.862 15.6543H172.598C172.598 15.39 172.666 15.1279 172.803 14.8682C172.939 14.6084 173.135 14.3737 173.391 14.1641C173.65 13.9499 173.96 13.7812 174.32 13.6582C174.685 13.5306 175.09 13.4668 175.537 13.4668C176.075 13.4668 176.549 13.5579 176.959 13.7402C177.374 13.9225 177.697 14.1982 177.93 14.5674C178.167 14.932 178.285 15.39 178.285 15.9414V19.3867C178.285 19.6328 178.306 19.8949 178.347 20.1729C178.392 20.4508 178.458 20.6901 178.545 20.8906V21H177.226C177.162 20.8542 177.112 20.6605 177.075 20.4189C177.039 20.1729 177.021 19.945 177.021 19.7354ZM177.239 16.5156L177.253 17.4043H175.975C175.615 17.4043 175.293 17.4339 175.011 17.4932C174.728 17.5479 174.491 17.6322 174.3 17.7461C174.108 17.86 173.963 18.0036 173.862 18.1768C173.762 18.3454 173.712 18.5436 173.712 18.7715C173.712 19.0039 173.764 19.2158 173.869 19.4072C173.974 19.5986 174.131 19.7513 174.341 19.8652C174.555 19.9746 174.817 20.0293 175.127 20.0293C175.514 20.0293 175.856 19.9473 176.152 19.7832C176.449 19.6191 176.683 19.4186 176.856 19.1816C177.034 18.9447 177.13 18.7145 177.144 18.4912L177.684 19.0996C177.652 19.291 177.565 19.5029 177.424 19.7354C177.283 19.9678 177.093 20.1911 176.856 20.4053C176.624 20.6149 176.346 20.7904 176.022 20.9316C175.703 21.0684 175.343 21.1367 174.942 21.1367C174.441 21.1367 174.001 21.0387 173.623 20.8428C173.249 20.6468 172.958 20.3848 172.748 20.0566C172.543 19.724 172.44 19.3525 172.44 18.9424C172.44 18.5459 172.518 18.1973 172.673 17.8965C172.828 17.5911 173.051 17.3382 173.343 17.1377C173.634 16.9326 173.985 16.7777 174.396 16.6729C174.806 16.568 175.264 16.5156 175.77 16.5156H177.239ZM176.057 10.5L177.752 12.3662V12.4346H176.699L175.674 11.2793L174.655 12.4346H173.616V12.3594L175.291 10.5H176.057ZM184.8 19.291V13.6035H186.071V21H184.861L184.8 19.291ZM185.039 17.7324L185.565 17.7188C185.565 18.2109 185.513 18.6667 185.408 19.0859C185.308 19.5007 185.144 19.8607 184.916 20.166C184.688 20.4714 184.39 20.7106 184.021 20.8838C183.651 21.0524 183.202 21.1367 182.674 21.1367C182.314 21.1367 181.983 21.0843 181.683 20.9795C181.386 20.8747 181.131 20.7129 180.917 20.4941C180.703 20.2754 180.536 19.9906 180.418 19.6396C180.304 19.2887 180.247 18.8672 180.247 18.375V13.6035H181.512V18.3887C181.512 18.7214 181.548 18.9971 181.621 19.2158C181.699 19.43 181.801 19.6009 181.929 19.7285C182.061 19.8516 182.207 19.9382 182.366 19.9883C182.53 20.0384 182.699 20.0635 182.872 20.0635C183.41 20.0635 183.836 19.9609 184.15 19.7559C184.465 19.5462 184.69 19.266 184.827 18.915C184.968 18.5596 185.039 18.1654 185.039 17.7324ZM196.134 19.5645V10.5H197.405V21H196.243L196.134 19.5645ZM191.157 17.3838V17.2402C191.157 16.6751 191.226 16.1624 191.362 15.7021C191.504 15.2373 191.702 14.8385 191.957 14.5059C192.217 14.1732 192.524 13.918 192.88 13.7402C193.24 13.5579 193.641 13.4668 194.083 13.4668C194.548 13.4668 194.953 13.5488 195.3 13.7129C195.651 13.8724 195.947 14.1071 196.188 14.417C196.435 14.7223 196.628 15.0915 196.77 15.5244C196.911 15.9574 197.009 16.4473 197.063 16.9941V17.623C197.013 18.1654 196.915 18.653 196.77 19.0859C196.628 19.5189 196.435 19.888 196.188 20.1934C195.947 20.4987 195.651 20.7334 195.3 20.8975C194.949 21.057 194.539 21.1367 194.069 21.1367C193.636 21.1367 193.24 21.0433 192.88 20.8564C192.524 20.6696 192.217 20.4076 191.957 20.0703C191.702 19.7331 191.504 19.3366 191.362 18.8809C191.226 18.4206 191.157 17.9215 191.157 17.3838ZM192.429 17.2402V17.3838C192.429 17.7529 192.465 18.0993 192.538 18.4229C192.616 18.7464 192.734 19.0312 192.894 19.2773C193.053 19.5234 193.256 19.7171 193.502 19.8584C193.748 19.9951 194.042 20.0635 194.384 20.0635C194.803 20.0635 195.147 19.9746 195.416 19.7969C195.689 19.6191 195.908 19.3844 196.072 19.0928C196.236 18.8011 196.364 18.4844 196.455 18.1426V16.4951C196.4 16.2445 196.321 16.0029 196.216 15.7705C196.116 15.5335 195.983 15.3239 195.819 15.1416C195.66 14.9548 195.462 14.8066 195.225 14.6973C194.992 14.5879 194.716 14.5332 194.397 14.5332C194.051 14.5332 193.753 14.6061 193.502 14.752C193.256 14.8932 193.053 15.0892 192.894 15.3398C192.734 15.5859 192.616 15.873 192.538 16.2012C192.465 16.5247 192.429 16.8711 192.429 17.2402ZM198.69 11.5322V12.5713H194.336V11.5322H198.69ZM204.2 19.7354V15.9277C204.2 15.6361 204.141 15.3831 204.022 15.1689C203.909 14.9502 203.735 14.7816 203.503 14.6631C203.271 14.5446 202.983 14.4854 202.642 14.4854C202.323 14.4854 202.042 14.54 201.801 14.6494C201.564 14.7588 201.377 14.9023 201.24 15.0801C201.108 15.2578 201.042 15.4492 201.042 15.6543H199.777C199.777 15.39 199.846 15.1279 199.982 14.8682C200.119 14.6084 200.315 14.3737 200.57 14.1641C200.83 13.9499 201.14 13.7812 201.5 13.6582C201.865 13.5306 202.27 13.4668 202.717 13.4668C203.255 13.4668 203.729 13.5579 204.139 13.7402C204.553 13.9225 204.877 14.1982 205.109 14.5674C205.346 14.932 205.465 15.39 205.465 15.9414V19.3867C205.465 19.6328 205.485 19.8949 205.526 20.1729C205.572 20.4508 205.638 20.6901 205.725 20.8906V21H204.405C204.341 20.8542 204.291 20.6605 204.255 20.4189C204.218 20.1729 204.2 19.945 204.2 19.7354ZM204.419 16.5156L204.433 17.4043H203.154C202.794 17.4043 202.473 17.4339 202.19 17.4932C201.908 17.5479 201.671 17.6322 201.479 17.7461C201.288 17.86 201.142 18.0036 201.042 18.1768C200.942 18.3454 200.892 18.5436 200.892 18.7715C200.892 19.0039 200.944 19.2158 201.049 19.4072C201.154 19.5986 201.311 19.7513 201.521 19.8652C201.735 19.9746 201.997 20.0293 202.307 20.0293C202.694 20.0293 203.036 19.9473 203.332 19.7832C203.628 19.6191 203.863 19.4186 204.036 19.1816C204.214 18.9447 204.31 18.7145 204.323 18.4912L204.863 19.0996C204.831 19.291 204.745 19.5029 204.604 19.7354C204.462 19.9678 204.273 20.1911 204.036 20.4053C203.804 20.6149 203.526 20.7904 203.202 20.9316C202.883 21.0684 202.523 21.1367 202.122 21.1367C201.621 21.1367 201.181 21.0387 200.803 20.8428C200.429 20.6468 200.137 20.3848 199.928 20.0566C199.723 19.724 199.62 19.3525 199.62 18.9424C199.62 18.5459 199.698 18.1973 199.853 17.8965C200.007 17.5911 200.231 17.3382 200.522 17.1377C200.814 16.9326 201.165 16.7777 201.575 16.6729C201.985 16.568 202.443 16.5156 202.949 16.5156H204.419ZM200.345 12.5098L202.334 10.7188H203.373L205.362 12.5098H204.016L202.854 11.4297L201.691 12.5098H200.345ZM204.856 11.2998L205.82 9.53613H207.188L205.813 11.2998H204.856ZM209.423 20.2344L211.48 13.6035H212.834L209.867 22.1416C209.799 22.3239 209.708 22.5199 209.594 22.7295C209.484 22.9437 209.343 23.1465 209.17 23.3379C208.997 23.5293 208.787 23.6842 208.541 23.8027C208.299 23.9258 208.01 23.9873 207.673 23.9873C207.573 23.9873 207.445 23.9736 207.29 23.9463C207.135 23.9189 207.026 23.8962 206.962 23.8779L206.955 22.8525C206.992 22.8571 207.049 22.8617 207.126 22.8662C207.208 22.8753 207.265 22.8799 207.297 22.8799C207.584 22.8799 207.828 22.8411 208.028 22.7637C208.229 22.6908 208.397 22.5654 208.534 22.3877C208.675 22.2145 208.796 21.9753 208.896 21.6699L209.423 20.2344ZM207.912 13.6035L209.833 19.3457L210.161 20.6787L209.252 21.1436L206.531 13.6035H207.912ZM218.713 15.1826V21H217.448V13.6035H218.645L218.713 15.1826ZM218.412 17.0215L217.886 17.001C217.89 16.4951 217.965 16.028 218.111 15.5996C218.257 15.1667 218.462 14.7907 218.727 14.4717C218.991 14.1527 219.305 13.9066 219.67 13.7334C220.039 13.5557 220.447 13.4668 220.894 13.4668C221.258 13.4668 221.586 13.5169 221.878 13.6172C222.17 13.7129 222.418 13.8678 222.623 14.082C222.833 14.2962 222.992 14.5742 223.102 14.916C223.211 15.2533 223.266 15.6657 223.266 16.1533V21H221.994V16.1396C221.994 15.7523 221.937 15.4424 221.823 15.21C221.709 14.973 221.543 14.8021 221.324 14.6973C221.105 14.5879 220.837 14.5332 220.518 14.5332C220.203 14.5332 219.916 14.5993 219.656 14.7314C219.401 14.8636 219.18 15.0459 218.993 15.2783C218.811 15.5107 218.667 15.7773 218.562 16.0781C218.462 16.3743 218.412 16.6888 218.412 17.0215ZM226.451 10.5V21H225.187V10.5H226.451ZM226.15 17.0215L225.624 17.001C225.629 16.4951 225.704 16.028 225.85 15.5996C225.995 15.1667 226.201 14.7907 226.465 14.4717C226.729 14.1527 227.044 13.9066 227.408 13.7334C227.777 13.5557 228.185 13.4668 228.632 13.4668C228.996 13.4668 229.325 13.5169 229.616 13.6172C229.908 13.7129 230.156 13.8678 230.361 14.082C230.571 14.2962 230.73 14.5742 230.84 14.916C230.949 15.2533 231.004 15.6657 231.004 16.1533V21H229.732V16.1396C229.732 15.7523 229.675 15.4424 229.562 15.21C229.448 14.973 229.281 14.8021 229.062 14.6973C228.844 14.5879 228.575 14.5332 228.256 14.5332C227.941 14.5332 227.654 14.5993 227.395 14.7314C227.139 14.8636 226.918 15.0459 226.731 15.2783C226.549 15.5107 226.406 15.7773 226.301 16.0781C226.201 16.3743 226.15 16.6888 226.15 17.0215ZM234.265 13.6035V21H233V13.6035H234.265ZM234.135 12.4141H233.226L233.219 11.375C233.451 11.3613 233.64 11.3385 233.786 11.3066C233.932 11.2702 234.039 11.2178 234.107 11.1494C234.176 11.0765 234.21 10.9808 234.21 10.8623C234.21 10.7666 234.18 10.6868 234.121 10.623C234.062 10.5547 233.98 10.5 233.875 10.459C233.77 10.4134 233.649 10.3815 233.513 10.3633C233.376 10.3451 233.23 10.3359 233.075 10.3359L233.123 9.61133C233.46 9.61133 233.757 9.64095 234.012 9.7002C234.271 9.75944 234.488 9.84603 234.661 9.95996C234.839 10.0739 234.971 10.2106 235.058 10.3701C235.149 10.5251 235.194 10.6982 235.194 10.8896C235.194 11.236 235.085 11.4889 234.866 11.6484C234.647 11.8034 234.406 11.8991 234.142 11.9355L234.135 12.4141Z" fill="#080707"/>
<path d="M6.29883 45.1094V46H0.714844V45.2207L3.50977 42.1094C3.85352 41.7266 4.11914 41.4023 4.30664 41.1367C4.49805 40.8672 4.63086 40.627 4.70508 40.416C4.7832 40.2012 4.82227 39.9824 4.82227 39.7598C4.82227 39.4785 4.76367 39.2246 4.64648 38.998C4.5332 38.7676 4.36523 38.584 4.14258 38.4473C3.91992 38.3105 3.65039 38.2422 3.33398 38.2422C2.95508 38.2422 2.63867 38.3164 2.38477 38.4648C2.13477 38.6094 1.94727 38.8125 1.82227 39.0742C1.69727 39.3359 1.63477 39.6367 1.63477 39.9766H0.550781C0.550781 39.4961 0.65625 39.0566 0.867188 38.6582C1.07812 38.2598 1.39062 37.9434 1.80469 37.709C2.21875 37.4707 2.72852 37.3516 3.33398 37.3516C3.87305 37.3516 4.33398 37.4473 4.7168 37.6387C5.09961 37.8262 5.39258 38.0918 5.5957 38.4355C5.80273 38.7754 5.90625 39.1738 5.90625 39.6309C5.90625 39.8809 5.86328 40.1348 5.77734 40.3926C5.69531 40.6465 5.58008 40.9004 5.43164 41.1543C5.28711 41.4082 5.11719 41.6582 4.92188 41.9043C4.73047 42.1504 4.52539 42.3926 4.30664 42.6309L2.02148 45.1094H6.29883ZM7.5293 45.4258C7.5293 45.2422 7.58594 45.0879 7.69922 44.9629C7.81641 44.834 7.98438 44.7695 8.20312 44.7695C8.42188 44.7695 8.58789 44.834 8.70117 44.9629C8.81836 45.0879 8.87695 45.2422 8.87695 45.4258C8.87695 45.6055 8.81836 45.7578 8.70117 45.8828C8.58789 46.0078 8.42188 46.0703 8.20312 46.0703C7.98438 46.0703 7.81641 46.0078 7.69922 45.8828C7.58594 45.7578 7.5293 45.6055 7.5293 45.4258ZM7.53516 40.252C7.53516 40.0684 7.5918 39.9141 7.70508 39.7891C7.82227 39.6602 7.99023 39.5957 8.20898 39.5957C8.42773 39.5957 8.59375 39.6602 8.70703 39.7891C8.82422 39.9141 8.88281 40.0684 8.88281 40.252C8.88281 40.4316 8.82422 40.584 8.70703 40.709C8.59375 40.834 8.42773 40.8965 8.20898 40.8965C7.99023 40.8965 7.82227 40.834 7.70508 40.709C7.5918 40.584 7.53516 40.4316 7.53516 40.252ZM13.9277 37.4219V46H12.8438V38.7754L10.6582 39.5723V38.5938L13.7578 37.4219H13.9277ZM22.8809 43.1289V44.0195H16.7168V43.3809L20.5371 37.4688H21.4219L20.4727 39.1797L17.9473 43.1289H22.8809ZM21.6914 37.4688V46H20.6074V37.4688H21.6914ZM30.2695 42.6543H27.9902V41.7344H30.2695C30.7109 41.7344 31.0684 41.6641 31.3418 41.5234C31.6152 41.3828 31.8145 41.1875 31.9395 40.9375C32.0684 40.6875 32.1328 40.4023 32.1328 40.082C32.1328 39.7891 32.0684 39.5137 31.9395 39.2559C31.8145 38.998 31.6152 38.791 31.3418 38.6348C31.0684 38.4746 30.7109 38.3945 30.2695 38.3945H28.2539V46H27.123V37.4688H30.2695C30.9141 37.4688 31.459 37.5801 31.9043 37.8027C32.3496 38.0254 32.6875 38.334 32.918 38.7285C33.1484 39.1191 33.2637 39.5664 33.2637 40.0703C33.2637 40.6172 33.1484 41.084 32.918 41.4707C32.6875 41.8574 32.3496 42.1523 31.9043 42.3555C31.459 42.5547 30.9141 42.6543 30.2695 42.6543ZM35.0508 37.4688H36.1465L38.9414 44.4238L41.7305 37.4688H42.832L39.3633 46H38.5078L35.0508 37.4688ZM34.6934 37.4688H35.6602L35.8184 42.6719V46H34.6934V37.4688ZM42.2168 37.4688H43.1836V46H42.0586V42.6719L42.2168 37.4688Z" fill="#747881"/>
</svg>
